M48
; DRILL file {KiCad 9.0.9-9.0.9~ubuntu24.04.1} date 2026-09-15T19:23:53+0300
; FORMAT={-:-/ absolute / metric / decimal}
; #@! TF.CreationDate,2026-09-15T19:23:53+03:00
; #@! TF.GenerationSoftware,Kicad,Pcbnew,9.0.9-9.0.9~ubuntu24.04.1
; #@! TF.FileFunction,Plated,1,2,PTH
FMAT,2
METRIC
; #@! TA.AperFunction,Plated,PTH,ViaDrill
T1C0.300
; #@! TA.AperFunction,Plated,PTH,ComponentDrill
T2C0.300
; #@! TA.AperFunction,Plated,PTH,ViaDrill
T3C0.400
; #@! TA.AperFunction,Plated,PTH,ComponentDrill
T4C0.500
; #@! TA.AperFunction,Plated,PTH,ComponentDrill
T5C0.950
; #@! TA.AperFunction,Plated,PTH,ComponentDrill
T6C1.000
; #@! TA.AperFunction,Plated,PTH,ComponentDrill
T7C1.700
; #@! TA.AperFunction,Plated,PTH,ComponentDrill
T8C3.200
%
G90
G05
T1
X102.0Y-117.0
X102.0Y-119.5
X102.0Y-122.0
X102.0Y-124.5
X102.0Y-134.5
X102.0Y-137.0
X104.5Y-117.0
X104.5Y-119.5
X104.5Y-122.0
X104.5Y-124.5
X104.5Y-134.5
X104.5Y-137.0
X107.0Y-117.0
X107.0Y-119.5
X107.0Y-122.0
X107.0Y-124.5
X107.0Y-134.5
X107.0Y-137.0
X109.5Y-102.0
X109.5Y-104.5
X109.5Y-107.0
X109.5Y-112.0
X109.5Y-114.5
X109.5Y-117.0
X109.5Y-119.5
X109.5Y-122.0
X109.5Y-134.5
X109.5Y-147.0
X109.5Y-149.5
X109.5Y-152.0
X112.0Y-102.0
X112.0Y-104.5
X112.0Y-134.5
X112.0Y-147.0
X112.0Y-149.5
X112.0Y-152.0
X114.5Y-102.0
X114.5Y-122.0
X114.5Y-134.5
X114.5Y-137.0
X114.5Y-147.0
X114.5Y-149.5
X114.5Y-152.0
X116.078Y-130.405
X116.237Y-136.216
X116.9Y-106.05
X117.0Y-102.0
X117.0Y-124.5
X117.0Y-147.0
X117.0Y-149.5
X117.0Y-152.0
X119.5Y-102.0
X119.5Y-112.0
X119.5Y-114.5
X119.5Y-124.5
X119.5Y-149.5
X119.5Y-152.0
X120.6Y-106.075
X122.0Y-102.0
X122.0Y-114.5
X122.0Y-152.0
X122.704Y-136.645
X123.0Y-106.075
X123.8Y-119.5
X124.0Y-121.2
X124.2Y-108.175
X124.5Y-102.0
X124.5Y-109.5
X124.5Y-149.5
X124.859Y-145.132
X126.0Y-132.7
X126.0Y-145.2
X126.104Y-131.145
X126.104Y-143.645
X127.0Y-102.0
X127.0Y-149.5
X127.0Y-152.0
X127.075Y-123.0
X127.9Y-112.15
X129.0Y-126.575
X129.3Y-130.8
X129.5Y-102.0
X129.6Y-112.15
X130.05Y-126.2
X130.2Y-136.65
X130.318Y-134.035
X130.837Y-132.708
X130.9Y-128.8
X131.131Y-138.581
X131.54Y-145.933
X131.9Y-136.7
X132.0Y-102.0
X132.0Y-149.5
X133.0Y-112.15
X133.817Y-123.835
X134.012Y-138.121
X134.119Y-131.276
X134.495Y-129.917
X134.5Y-102.0
X134.5Y-104.5
X134.5Y-109.5
X134.794Y-128.246
X134.828Y-138.123
X136.0Y-136.95
X136.2Y-118.2
X136.203Y-139.974
X136.41Y-124.626
X136.5Y-144.8
X136.528Y-122.314
X136.81Y-133.141
X137.0Y-102.0
X137.0Y-147.0
X137.0Y-149.5
X137.0Y-152.0
X137.984Y-137.721
X139.118Y-124.068
X139.5Y-102.0
X139.5Y-152.0
X139.504Y-133.88
X139.798Y-132.903
X139.8Y-136.95
X140.0Y-138.83
X140.2Y-142.2
X140.366Y-124.713
X142.0Y-102.0
X142.0Y-118.2
X142.0Y-144.5
X142.0Y-152.0
X142.432Y-129.373
X142.801Y-131.015
X142.965Y-121.005
X143.245Y-125.52
X143.567Y-129.46
X143.578Y-122.253
X144.022Y-136.144
X144.196Y-131.884
X144.455Y-134.02
X144.5Y-144.5
X144.5Y-152.0
X144.895Y-134.838
X145.0Y-102.075
X145.344Y-138.13
X145.658Y-125.866
X146.282Y-133.993
X146.356Y-137.137
X146.5Y-117.227
X146.663Y-107.836
X147.0Y-102.0
X147.0Y-104.5
X147.0Y-107.0
X147.0Y-122.0
X147.0Y-144.5
X147.0Y-147.0
X147.0Y-149.5
X147.0Y-152.0
X147.148Y-120.479
X147.813Y-135.244
X148.0Y-133.029
X149.5Y-102.0
X149.5Y-122.0
X149.5Y-152.0
X149.682Y-135.506
X150.392Y-139.278
X150.856Y-142.664
X150.856Y-145.164
X150.856Y-147.664
X151.494Y-140.283
X151.551Y-128.341
X151.863Y-117.592
X152.0Y-102.0
X152.0Y-144.5
X152.0Y-152.0
X152.197Y-133.958
X152.805Y-142.11
X152.941Y-152.783
X153.832Y-134.197
X153.85Y-137.5
X153.95Y-129.222
X153.973Y-141.246
X154.5Y-102.0
X154.741Y-137.047
X155.406Y-135.897
X155.409Y-113.395
X156.725Y-114.9
X156.819Y-135.612
X156.919Y-134.306
X157.0Y-102.0
X157.309Y-113.395
X157.775Y-137.447
X157.875Y-126.849
X159.209Y-113.395
X160.0Y-102.0
X160.4Y-114.9
X160.793Y-136.216
X160.86Y-139.835
X161.167Y-113.982
X161.538Y-115.269
X161.64Y-112.6
X162.0Y-102.0
X162.0Y-137.0
X162.11Y-127.087
X162.954Y-139.862
X163.748Y-115.687
X164.5Y-102.0
X164.5Y-137.0
X165.133Y-115.434
X166.061Y-119.337
X166.138Y-126.343
X167.0Y-134.5
X167.0Y-137.0
X167.0Y-139.5
X167.0Y-144.5
X167.0Y-147.0
X167.0Y-149.5
X167.059Y-152.783
X167.195Y-142.11
X167.5Y-102.0
X168.398Y-127.548
X168.785Y-129.616
X168.85Y-117.05
X169.5Y-102.0
X169.5Y-122.0
X169.5Y-124.5
X169.5Y-134.5
X169.5Y-137.0
X169.5Y-139.5
X169.5Y-142.0
X169.5Y-144.5
X169.5Y-147.0
X169.5Y-149.5
X169.5Y-152.0
X169.922Y-128.758
X170.15Y-117.05
X170.15Y-119.75
X171.198Y-130.0
X171.198Y-128.0
X171.45Y-117.05
X171.45Y-119.75
X172.0Y-102.0
X172.0Y-104.5
X172.0Y-107.0
X172.0Y-122.0
X172.0Y-124.5
X172.0Y-132.0
X172.0Y-134.5
X172.0Y-137.0
X172.0Y-139.5
X172.0Y-142.0
X172.0Y-144.5
X172.0Y-147.0
X172.0Y-149.5
X172.0Y-152.0
X172.75Y-117.05
X173.3Y-107.7
X174.5Y-122.0
X174.5Y-124.5
X174.5Y-127.0
X174.5Y-129.5
X174.5Y-132.0
X174.5Y-134.5
X174.5Y-137.0
X174.5Y-139.5
X174.5Y-142.0
X174.5Y-144.5
X174.5Y-147.0
X176.481Y-115.354
X176.481Y-121.446
X177.0Y-109.5
X177.0Y-112.0
X177.0Y-114.5
X177.0Y-124.5
X177.0Y-127.0
X177.0Y-129.5
X177.0Y-132.0
X177.0Y-134.5
X177.0Y-137.0
X177.0Y-139.5
X177.0Y-142.0
X177.0Y-144.5
X177.0Y-147.0
T2
X129.5Y-107.5
X129.5Y-108.5
X130.5Y-107.5
X130.5Y-108.5
T3
X119.527Y-132.991
X127.307Y-139.929
X131.143Y-116.197
X140.0Y-112.786
T4
X101.1Y-103.5
X101.1Y-151.5
X101.803Y-101.803
X101.803Y-105.197
X101.803Y-149.803
X101.803Y-153.197
X103.5Y-101.1
X103.5Y-105.9
X103.5Y-149.1
X103.5Y-153.9
X105.197Y-101.803
X105.197Y-105.197
X105.197Y-149.803
X105.197Y-153.197
X105.9Y-103.5
X105.9Y-151.5
X174.1Y-103.5
X174.1Y-151.5
X174.803Y-101.803
X174.803Y-105.197
X174.803Y-149.803
X174.803Y-153.197
X176.5Y-101.1
X176.5Y-105.9
X176.5Y-149.1
X176.5Y-153.9
X178.197Y-101.803
X178.197Y-105.197
X178.197Y-149.803
X178.197Y-153.197
X178.9Y-103.5
X178.9Y-151.5
T5
X104.5Y-140.0
X104.5Y-142.5
X104.5Y-145.0
T6
X104.5Y-128.0
X104.5Y-130.5
T7
X104.5Y-110.0
X104.5Y-113.96
T8
X103.5Y-103.5
X103.5Y-151.5
X176.5Y-103.5
X176.5Y-151.5
M30
