%TF.GenerationSoftware,KiCad,Pcbnew,9.0.9-9.0.9~ubuntu24.04.1*%
%TF.CreationDate,2026-09-15T19:23:52+03:00*%
%TF.ProjectId,im01,696d3031-2e6b-4696-9361-645f70636258,rev?*%
%TF.SameCoordinates,Original*%
%TF.FileFunction,Paste,Top*%
%TF.FilePolarity,Positive*%
%FSLAX46Y46*%
G04 Gerber Fmt 4.6, Leading zero omitted, Abs format (unit mm)*
G04 Created by KiCad (PCBNEW 9.0.9-9.0.9~ubuntu24.04.1) date 2026-09-15 19:23:52*
%MOMM*%
%LPD*%
G01*
G04 APERTURE LIST*
G04 Aperture macros list*
%AMRoundRect*
0 Rectangle with rounded corners*
0 $1 Rounding radius*
0 $2 $3 $4 $5 $6 $7 $8 $9 X,Y pos of 4 corners*
0 Add a 4 corners polygon primitive as box body*
4,1,4,$2,$3,$4,$5,$6,$7,$8,$9,$2,$3,0*
0 Add four circle primitives for the rounded corners*
1,1,$1+$1,$2,$3*
1,1,$1+$1,$4,$5*
1,1,$1+$1,$6,$7*
1,1,$1+$1,$8,$9*
0 Add four rect primitives between the rounded corners*
20,1,$1+$1,$2,$3,$4,$5,0*
20,1,$1+$1,$4,$5,$6,$7,0*
20,1,$1+$1,$6,$7,$8,$9,0*
20,1,$1+$1,$8,$9,$2,$3,0*%
G04 Aperture macros list end*
%ADD10RoundRect,0.200000X0.200000X0.275000X-0.200000X0.275000X-0.200000X-0.275000X0.200000X-0.275000X0*%
%ADD11RoundRect,0.140000X-0.170000X0.140000X-0.170000X-0.140000X0.170000X-0.140000X0.170000X0.140000X0*%
%ADD12RoundRect,0.225000X0.250000X-0.225000X0.250000X0.225000X-0.250000X0.225000X-0.250000X-0.225000X0*%
%ADD13R,1.300000X0.600000*%
%ADD14R,0.600000X1.300000*%
%ADD15R,1.000000X0.700000*%
%ADD16R,0.700000X1.000000*%
%ADD17R,1.300000X1.300000*%
%ADD18RoundRect,0.200000X0.275000X-0.200000X0.275000X0.200000X-0.275000X0.200000X-0.275000X-0.200000X0*%
%ADD19RoundRect,0.250000X-0.275000X-0.250000X0.275000X-0.250000X0.275000X0.250000X-0.275000X0.250000X0*%
%ADD20RoundRect,0.250000X-0.850000X-0.275000X0.850000X-0.275000X0.850000X0.275000X-0.850000X0.275000X0*%
%ADD21RoundRect,0.225000X-0.225000X-0.375000X0.225000X-0.375000X0.225000X0.375000X-0.225000X0.375000X0*%
%ADD22RoundRect,0.140000X0.170000X-0.140000X0.170000X0.140000X-0.170000X0.140000X-0.170000X-0.140000X0*%
%ADD23R,2.524000X3.120000*%
%ADD24R,1.000000X0.750000*%
%ADD25RoundRect,0.150000X-0.587500X-0.150000X0.587500X-0.150000X0.587500X0.150000X-0.587500X0.150000X0*%
%ADD26RoundRect,0.250000X-0.650000X1.000000X-0.650000X-1.000000X0.650000X-1.000000X0.650000X1.000000X0*%
%ADD27RoundRect,0.225000X-0.225000X-0.250000X0.225000X-0.250000X0.225000X0.250000X-0.225000X0.250000X0*%
%ADD28R,2.000000X1.800000*%
%ADD29RoundRect,0.250000X-1.500000X-0.550000X1.500000X-0.550000X1.500000X0.550000X-1.500000X0.550000X0*%
%ADD30RoundRect,0.250000X0.650000X-0.325000X0.650000X0.325000X-0.650000X0.325000X-0.650000X-0.325000X0*%
%ADD31RoundRect,0.200000X-0.200000X-0.275000X0.200000X-0.275000X0.200000X0.275000X-0.200000X0.275000X0*%
%ADD32C,0.610000*%
%ADD33O,1.941000X0.602000*%
%ADD34R,2.410000X3.098000*%
%ADD35RoundRect,0.250000X0.550000X-1.500000X0.550000X1.500000X-0.550000X1.500000X-0.550000X-1.500000X0*%
%ADD36RoundRect,0.125000X-0.625000X-0.125000X0.625000X-0.125000X0.625000X0.125000X-0.625000X0.125000X0*%
%ADD37RoundRect,0.125000X-0.125000X-0.625000X0.125000X-0.625000X0.125000X0.625000X-0.125000X0.625000X0*%
%ADD38RoundRect,0.140000X-0.140000X-0.170000X0.140000X-0.170000X0.140000X0.170000X-0.140000X0.170000X0*%
%ADD39R,0.900000X1.200000*%
%ADD40R,1.300000X1.800000*%
%ADD41RoundRect,0.087500X0.537500X0.087500X-0.537500X0.087500X-0.537500X-0.087500X0.537500X-0.087500X0*%
%ADD42RoundRect,0.150000X-0.825000X-0.150000X0.825000X-0.150000X0.825000X0.150000X-0.825000X0.150000X0*%
%ADD43RoundRect,0.250000X-0.325000X-0.650000X0.325000X-0.650000X0.325000X0.650000X-0.325000X0.650000X0*%
%ADD44RoundRect,0.250000X-0.312500X-0.625000X0.312500X-0.625000X0.312500X0.625000X-0.312500X0.625000X0*%
%ADD45RoundRect,0.243750X-0.243750X-0.456250X0.243750X-0.456250X0.243750X0.456250X-0.243750X0.456250X0*%
%ADD46RoundRect,0.250000X0.650000X-1.000000X0.650000X1.000000X-0.650000X1.000000X-0.650000X-1.000000X0*%
%ADD47RoundRect,0.150000X-0.512500X-0.150000X0.512500X-0.150000X0.512500X0.150000X-0.512500X0.150000X0*%
%ADD48RoundRect,0.225000X-0.250000X0.225000X-0.250000X-0.225000X0.250000X-0.225000X0.250000X0.225000X0*%
%ADD49RoundRect,0.250000X0.900000X-1.000000X0.900000X1.000000X-0.900000X1.000000X-0.900000X-1.000000X0*%
%ADD50RoundRect,0.250000X1.450000X-0.312500X1.450000X0.312500X-1.450000X0.312500X-1.450000X-0.312500X0*%
%ADD51RoundRect,0.250000X0.475000X-0.250000X0.475000X0.250000X-0.475000X0.250000X-0.475000X-0.250000X0*%
%ADD52RoundRect,0.150000X0.512500X0.150000X-0.512500X0.150000X-0.512500X-0.150000X0.512500X-0.150000X0*%
%ADD53RoundRect,0.112500X-0.187500X-0.112500X0.187500X-0.112500X0.187500X0.112500X-0.187500X0.112500X0*%
%ADD54RoundRect,0.135000X-0.135000X-0.185000X0.135000X-0.185000X0.135000X0.185000X-0.135000X0.185000X0*%
G04 APERTURE END LIST*
D10*
%TO.C,R24*%
X151025000Y-131000000D03*
X149375000Y-131000000D03*
%TD*%
D11*
%TO.C,C28*%
X169000000Y-119720000D03*
X169000000Y-120680000D03*
%TD*%
D12*
%TO.C,C20*%
X129300000Y-133375000D03*
X129300000Y-131825000D03*
%TD*%
D13*
%TO.C,U7*%
X152750000Y-118400000D03*
X152750000Y-119500000D03*
X152750000Y-120600000D03*
X152750000Y-121700000D03*
X152750000Y-122800000D03*
X152750000Y-123900000D03*
X152750000Y-125000000D03*
X152750000Y-126100000D03*
X152750000Y-127200000D03*
X152750000Y-128300000D03*
X152750000Y-129400000D03*
X152750000Y-130500000D03*
X152750000Y-131600000D03*
D14*
X155600000Y-133200000D03*
X156700000Y-133200000D03*
X157800000Y-133200000D03*
X158900000Y-133200000D03*
X160000000Y-133200000D03*
X161100000Y-133200000D03*
X162200000Y-133200000D03*
X163300000Y-133200000D03*
X164400000Y-133200000D03*
D13*
X167250000Y-131600000D03*
X167250000Y-130500000D03*
X167250000Y-129400000D03*
X167250000Y-128300000D03*
X167250000Y-127200000D03*
X167250000Y-126100000D03*
X167250000Y-125000000D03*
X167250000Y-123900000D03*
X167250000Y-122800000D03*
X167250000Y-121700000D03*
X167250000Y-120600000D03*
X167250000Y-119500000D03*
X167250000Y-118400000D03*
D14*
X164400000Y-116800000D03*
X163300000Y-116800000D03*
X162200000Y-116800000D03*
X161100000Y-116800000D03*
X160000000Y-116800000D03*
X158900000Y-116800000D03*
X157800000Y-116800000D03*
X156700000Y-116800000D03*
X155600000Y-116800000D03*
D15*
X155000000Y-120200000D03*
X155000000Y-121400000D03*
X155000000Y-122600000D03*
X155000000Y-123800000D03*
X155000000Y-125000000D03*
X155000000Y-126200000D03*
X155000000Y-127400000D03*
X155000000Y-128600000D03*
X155000000Y-129800000D03*
D16*
X157600000Y-130950000D03*
X158800000Y-130950000D03*
X160000000Y-130950000D03*
X161200000Y-130950000D03*
X162400000Y-130950000D03*
D15*
X165000000Y-129800000D03*
X165000000Y-128600000D03*
X165000000Y-127400000D03*
X165000000Y-126200000D03*
X165000000Y-125000000D03*
X165000000Y-123800000D03*
X165000000Y-122600000D03*
X165000000Y-121400000D03*
X165000000Y-120200000D03*
D16*
X162400000Y-119050000D03*
X161200000Y-119050000D03*
X160000000Y-119050000D03*
X158800000Y-119050000D03*
X157600000Y-119050000D03*
D15*
X156800000Y-120800000D03*
X156800000Y-122000000D03*
X156800000Y-123200000D03*
X156800000Y-124400000D03*
X156800000Y-125600000D03*
X156800000Y-126800000D03*
X156800000Y-128000000D03*
X156800000Y-129200000D03*
X163200000Y-129200000D03*
X163200000Y-128000000D03*
X163200000Y-126800000D03*
X163200000Y-125600000D03*
X163200000Y-124400000D03*
X163200000Y-123200000D03*
X163200000Y-122000000D03*
X163200000Y-120800000D03*
D17*
X159100000Y-123200000D03*
X159100000Y-125000000D03*
X159100000Y-126800000D03*
X160900000Y-126800000D03*
X160900000Y-125000000D03*
X160900000Y-123200000D03*
D14*
X154500000Y-133200000D03*
X165500000Y-133200000D03*
X165500000Y-116800000D03*
X154500000Y-116800000D03*
D15*
X155000000Y-119000000D03*
X155000000Y-131000000D03*
D16*
X156400000Y-130950000D03*
X163600000Y-130950000D03*
D15*
X165000000Y-131000000D03*
X165000000Y-119000000D03*
D16*
X163600000Y-119050000D03*
X156400000Y-119050000D03*
X158800000Y-129150000D03*
X160000000Y-129150000D03*
X161200000Y-129150000D03*
%TD*%
D18*
%TO.C,R12*%
X122000000Y-135325000D03*
X122000000Y-133675000D03*
%TD*%
D19*
%TO.C,J5*%
X174450000Y-118400000D03*
D20*
X175975000Y-116925000D03*
X175975000Y-119875000D03*
%TD*%
D21*
%TO.C,D6*%
X108850000Y-129000000D03*
X112150000Y-129000000D03*
%TD*%
%TO.C,D9*%
X108850000Y-144500000D03*
X112150000Y-144500000D03*
%TD*%
D22*
%TO.C,C25*%
X150000000Y-144480000D03*
X150000000Y-143520000D03*
%TD*%
D23*
%TO.C,L1*%
X136420000Y-107500000D03*
X142580000Y-107500000D03*
%TD*%
D24*
%TO.C,SW1*%
X139500000Y-146650000D03*
X145500000Y-146650000D03*
X139500000Y-150350000D03*
X145500000Y-150350000D03*
%TD*%
D25*
%TO.C,Q1*%
X146562500Y-123050000D03*
X146562500Y-124950000D03*
X148437500Y-124000000D03*
%TD*%
D26*
%TO.C,D3*%
X136200000Y-112400000D03*
X136200000Y-116400000D03*
%TD*%
D27*
%TO.C,C5*%
X129225000Y-103800000D03*
X130775000Y-103800000D03*
%TD*%
%TO.C,C16*%
X126225000Y-126200000D03*
X127775000Y-126200000D03*
%TD*%
D28*
%TO.C,U6*%
X114400000Y-140730000D03*
X114400000Y-143270000D03*
X124600000Y-143270000D03*
X124600000Y-140730000D03*
%TD*%
D12*
%TO.C,C21*%
X142000000Y-120775000D03*
X142000000Y-119225000D03*
%TD*%
D29*
%TO.C,C1*%
X116100000Y-119500000D03*
X121500000Y-119500000D03*
%TD*%
D27*
%TO.C,C35*%
X133425000Y-136950000D03*
X134975000Y-136950000D03*
%TD*%
D10*
%TO.C,R25*%
X151025000Y-132600000D03*
X149375000Y-132600000D03*
%TD*%
D30*
%TO.C,C7*%
X145000000Y-111475000D03*
X145000000Y-108525000D03*
%TD*%
D31*
%TO.C,R27*%
X129175000Y-150200000D03*
X130825000Y-150200000D03*
%TD*%
D12*
%TO.C,C30*%
X140200000Y-144775000D03*
X140200000Y-143225000D03*
%TD*%
D31*
%TO.C,R28*%
X133175000Y-150200000D03*
X134825000Y-150200000D03*
%TD*%
D11*
%TO.C,C29*%
X172600000Y-119720000D03*
X172600000Y-120680000D03*
%TD*%
D25*
%TO.C,Q2*%
X145662500Y-131050000D03*
X145662500Y-132950000D03*
X147537500Y-132000000D03*
%TD*%
D22*
%TO.C,C27*%
X150000000Y-149480000D03*
X150000000Y-148520000D03*
%TD*%
D12*
%TO.C,C19*%
X131900000Y-139275000D03*
X131900000Y-137725000D03*
%TD*%
D18*
%TO.C,R5*%
X133000000Y-114825000D03*
X133000000Y-113175000D03*
%TD*%
D32*
%TO.C,U1*%
X130500000Y-107500000D03*
X129500000Y-107500000D03*
X130500000Y-108500000D03*
X129500000Y-108500000D03*
D33*
X127280000Y-106100000D03*
X127280000Y-107370000D03*
X127280000Y-108630000D03*
X127280000Y-109900000D03*
X132720000Y-109900000D03*
X132720000Y-108630000D03*
X132720000Y-107370000D03*
X132720000Y-106100000D03*
D34*
X130000000Y-108000000D03*
%TD*%
D35*
%TO.C,C9*%
X160000000Y-109700000D03*
X160000000Y-104300000D03*
%TD*%
%TO.C,C8*%
X152000000Y-109700000D03*
X152000000Y-104300000D03*
%TD*%
D27*
%TO.C,C11*%
X157825000Y-114900000D03*
X159375000Y-114900000D03*
%TD*%
D36*
%TO.C,U3*%
X132825000Y-128200000D03*
X132825000Y-129000000D03*
X132825000Y-129800000D03*
X132825000Y-130600000D03*
X132825000Y-131400000D03*
X132825000Y-132200000D03*
X132825000Y-133000000D03*
X132825000Y-133800000D03*
D37*
X134200000Y-135175000D03*
X135000000Y-135175000D03*
X135800000Y-135175000D03*
X136600000Y-135175000D03*
X137400000Y-135175000D03*
X138200000Y-135175000D03*
X139000000Y-135175000D03*
X139800000Y-135175000D03*
D36*
X141175000Y-133800000D03*
X141175000Y-133000000D03*
X141175000Y-132200000D03*
X141175000Y-131400000D03*
X141175000Y-130600000D03*
X141175000Y-129800000D03*
X141175000Y-129000000D03*
X141175000Y-128200000D03*
D37*
X139800000Y-126825000D03*
X139000000Y-126825000D03*
X138200000Y-126825000D03*
X137400000Y-126825000D03*
X136600000Y-126825000D03*
X135800000Y-126825000D03*
X135000000Y-126825000D03*
X134200000Y-126825000D03*
%TD*%
D38*
%TO.C,C31*%
X157920000Y-112600000D03*
X158880000Y-112600000D03*
%TD*%
D35*
%TO.C,C33*%
X167500000Y-109700000D03*
X167500000Y-104300000D03*
%TD*%
D39*
%TO.C,J4*%
X156830000Y-138550000D03*
X159370000Y-138550000D03*
X161910000Y-138550000D03*
X158100000Y-138550000D03*
X160640000Y-138550000D03*
X163180000Y-138550000D03*
D40*
X154150000Y-142650000D03*
X154150000Y-151450000D03*
X165850000Y-151450000D03*
X165850000Y-142650000D03*
%TD*%
D41*
%TO.C,U9*%
X137400000Y-140250000D03*
X137400000Y-139750000D03*
X137400000Y-139250000D03*
X137400000Y-138750000D03*
X134600000Y-138750000D03*
X134600000Y-139250000D03*
X134600000Y-139750000D03*
X134600000Y-140250000D03*
%TD*%
D42*
%TO.C,U4*%
X135025000Y-119095000D03*
X135025000Y-120365000D03*
X135025000Y-121635000D03*
X135025000Y-122905000D03*
X139975000Y-122905000D03*
X139975000Y-121635000D03*
X139975000Y-120365000D03*
X139975000Y-119095000D03*
%TD*%
D43*
%TO.C,C10*%
X152325000Y-114900000D03*
X155275000Y-114900000D03*
%TD*%
D18*
%TO.C,R19*%
X144500000Y-128425000D03*
X144500000Y-126775000D03*
%TD*%
D44*
%TO.C,R11*%
X109037500Y-126000000D03*
X111962500Y-126000000D03*
%TD*%
D18*
%TO.C,R6*%
X128500000Y-139325000D03*
X128500000Y-137675000D03*
%TD*%
D10*
%TO.C,R23*%
X151025000Y-129400000D03*
X149375000Y-129400000D03*
%TD*%
D12*
%TO.C,C15*%
X124000000Y-123775000D03*
X124000000Y-122225000D03*
%TD*%
D30*
%TO.C,C2*%
X120600000Y-110475000D03*
X120600000Y-107525000D03*
%TD*%
D28*
%TO.C,U5*%
X114400000Y-128230000D03*
X114400000Y-130770000D03*
X124600000Y-130770000D03*
X124600000Y-128230000D03*
%TD*%
D38*
%TO.C,C12*%
X154120000Y-112600000D03*
X155080000Y-112600000D03*
%TD*%
%TO.C,C32*%
X159820000Y-112600000D03*
X160780000Y-112600000D03*
%TD*%
D45*
%TO.C,D11*%
X133062500Y-152400000D03*
X134937500Y-152400000D03*
%TD*%
D18*
%TO.C,R4*%
X131300000Y-114825000D03*
X131300000Y-113175000D03*
%TD*%
D30*
%TO.C,C6*%
X145000000Y-106475000D03*
X145000000Y-103525000D03*
%TD*%
D46*
%TO.C,D1*%
X112300000Y-119000000D03*
X112300000Y-115000000D03*
%TD*%
D38*
%TO.C,C13*%
X156020000Y-112600000D03*
X156980000Y-112600000D03*
%TD*%
D18*
%TO.C,R1*%
X126200000Y-114825000D03*
X126200000Y-113175000D03*
%TD*%
%TO.C,R20*%
X143200000Y-133825000D03*
X143200000Y-132175000D03*
%TD*%
D31*
%TO.C,R22*%
X146675000Y-136200000D03*
X148325000Y-136200000D03*
%TD*%
D12*
%TO.C,C22*%
X126000000Y-135275000D03*
X126000000Y-133725000D03*
%TD*%
D18*
%TO.C,R29*%
X138500000Y-144825000D03*
X138500000Y-143175000D03*
%TD*%
%TO.C,R7*%
X130200000Y-139325000D03*
X130200000Y-137675000D03*
%TD*%
D47*
%TO.C,U2*%
X125862500Y-122050000D03*
X125862500Y-123000000D03*
X125862500Y-123950000D03*
X128137500Y-123950000D03*
X128137500Y-122050000D03*
%TD*%
D48*
%TO.C,C4*%
X125200000Y-106625000D03*
X125200000Y-108175000D03*
%TD*%
D45*
%TO.C,D10*%
X129062500Y-152400000D03*
X130937500Y-152400000D03*
%TD*%
D12*
%TO.C,C23*%
X126000000Y-147775000D03*
X126000000Y-146225000D03*
%TD*%
D44*
%TO.C,R14*%
X109037500Y-138500000D03*
X111962500Y-138500000D03*
%TD*%
D12*
%TO.C,C24*%
X150000000Y-141775000D03*
X150000000Y-140225000D03*
%TD*%
D18*
%TO.C,R3*%
X129600000Y-114825000D03*
X129600000Y-113175000D03*
%TD*%
D49*
%TO.C,D2*%
X116900000Y-112150000D03*
X116900000Y-107850000D03*
%TD*%
D50*
%TO.C,F1*%
X112300000Y-112137500D03*
X112300000Y-107862500D03*
%TD*%
D51*
%TO.C,C17*%
X129000000Y-129750000D03*
X129000000Y-127850000D03*
%TD*%
D22*
%TO.C,C26*%
X150000000Y-146980000D03*
X150000000Y-146020000D03*
%TD*%
D29*
%TO.C,C14*%
X128800000Y-144800000D03*
X134200000Y-144800000D03*
%TD*%
D18*
%TO.C,R2*%
X127900000Y-114825000D03*
X127900000Y-113175000D03*
%TD*%
%TO.C,R13*%
X124000000Y-135325000D03*
X124000000Y-133675000D03*
%TD*%
D52*
%TO.C,U8*%
X152637500Y-138450000D03*
X152637500Y-137500000D03*
X152637500Y-136550000D03*
X150362500Y-136550000D03*
X150362500Y-137500000D03*
X150362500Y-138450000D03*
%TD*%
D12*
%TO.C,C18*%
X130900000Y-131375000D03*
X130900000Y-129825000D03*
%TD*%
D18*
%TO.C,R18*%
X144500000Y-125325000D03*
X144500000Y-123675000D03*
%TD*%
%TO.C,R10*%
X142000000Y-123825000D03*
X142000000Y-122175000D03*
%TD*%
D53*
%TO.C,D5*%
X147450000Y-115000000D03*
X149550000Y-115000000D03*
%TD*%
D18*
%TO.C,R30*%
X148300000Y-139425000D03*
X148300000Y-137775000D03*
%TD*%
D21*
%TO.C,D7*%
X108850000Y-132000000D03*
X112150000Y-132000000D03*
%TD*%
D46*
%TO.C,D4*%
X173300000Y-113500000D03*
X173300000Y-109500000D03*
%TD*%
D21*
%TO.C,D8*%
X108850000Y-141500000D03*
X112150000Y-141500000D03*
%TD*%
D30*
%TO.C,C3*%
X123000000Y-110475000D03*
X123000000Y-107525000D03*
%TD*%
D18*
%TO.C,R15*%
X122000000Y-147825000D03*
X122000000Y-146175000D03*
%TD*%
%TO.C,R21*%
X143200000Y-136925000D03*
X143200000Y-135275000D03*
%TD*%
D27*
%TO.C,C34*%
X137225000Y-136950000D03*
X138775000Y-136950000D03*
%TD*%
D54*
%TO.C,R26*%
X169490000Y-118400000D03*
X170510000Y-118400000D03*
%TD*%
D18*
%TO.C,R16*%
X124000000Y-147825000D03*
X124000000Y-146175000D03*
%TD*%
M02*
