%TF.GenerationSoftware,KiCad,Pcbnew,9.0.9-9.0.9~ubuntu24.04.1*%
%TF.CreationDate,2026-09-15T19:23:53+03:00*%
%TF.ProjectId,im01,696d3031-2e6b-4696-9361-645f70636258,rev?*%
%TF.SameCoordinates,Original*%
%TF.FileFunction,Drillmap*%
%TF.FilePolarity,Positive*%
%FSLAX45Y45*%
G04 Gerber Fmt 4.5, Leading zero omitted, Abs format (unit mm)*
G04 Created by KiCad (PCBNEW 9.0.9-9.0.9~ubuntu24.04.1) date 2026-09-15 19:23:53*
%MOMM*%
%LPD*%
G01*
G04 APERTURE LIST*
%ADD10C,0.100000*%
%ADD11C,0.200000*%
%ADD12C,0.170000*%
%ADD13C,0.320000*%
G04 APERTURE END LIST*
D10*
X10000000Y-10000000D02*
X18000000Y-10000000D01*
X18000000Y-15500000D01*
X10000000Y-15500000D01*
X10000000Y-10000000D01*
D11*
D10*
X10185000Y-11685000D02*
X10215000Y-11715000D01*
X10215000Y-11685000D02*
X10185000Y-11715000D01*
X10185000Y-11935000D02*
X10215000Y-11965000D01*
X10215000Y-11935000D02*
X10185000Y-11965000D01*
X10185000Y-12185000D02*
X10215000Y-12215000D01*
X10215000Y-12185000D02*
X10185000Y-12215000D01*
X10185000Y-12435000D02*
X10215000Y-12465000D01*
X10215000Y-12435000D02*
X10185000Y-12465000D01*
X10185000Y-13435000D02*
X10215000Y-13465000D01*
X10215000Y-13435000D02*
X10185000Y-13465000D01*
X10185000Y-13685000D02*
X10215000Y-13715000D01*
X10215000Y-13685000D02*
X10185000Y-13715000D01*
X10435000Y-11685000D02*
X10465000Y-11715000D01*
X10465000Y-11685000D02*
X10435000Y-11715000D01*
X10435000Y-11935000D02*
X10465000Y-11965000D01*
X10465000Y-11935000D02*
X10435000Y-11965000D01*
X10435000Y-12185000D02*
X10465000Y-12215000D01*
X10465000Y-12185000D02*
X10435000Y-12215000D01*
X10435000Y-12435000D02*
X10465000Y-12465000D01*
X10465000Y-12435000D02*
X10435000Y-12465000D01*
X10435000Y-13435000D02*
X10465000Y-13465000D01*
X10465000Y-13435000D02*
X10435000Y-13465000D01*
X10435000Y-13685000D02*
X10465000Y-13715000D01*
X10465000Y-13685000D02*
X10435000Y-13715000D01*
X10685000Y-11685000D02*
X10715000Y-11715000D01*
X10715000Y-11685000D02*
X10685000Y-11715000D01*
X10685000Y-11935000D02*
X10715000Y-11965000D01*
X10715000Y-11935000D02*
X10685000Y-11965000D01*
X10685000Y-12185000D02*
X10715000Y-12215000D01*
X10715000Y-12185000D02*
X10685000Y-12215000D01*
X10685000Y-12435000D02*
X10715000Y-12465000D01*
X10715000Y-12435000D02*
X10685000Y-12465000D01*
X10685000Y-13435000D02*
X10715000Y-13465000D01*
X10715000Y-13435000D02*
X10685000Y-13465000D01*
X10685000Y-13685000D02*
X10715000Y-13715000D01*
X10715000Y-13685000D02*
X10685000Y-13715000D01*
X10935000Y-10185000D02*
X10965000Y-10215000D01*
X10965000Y-10185000D02*
X10935000Y-10215000D01*
X10935000Y-10435000D02*
X10965000Y-10465000D01*
X10965000Y-10435000D02*
X10935000Y-10465000D01*
X10935000Y-10685000D02*
X10965000Y-10715000D01*
X10965000Y-10685000D02*
X10935000Y-10715000D01*
X10935000Y-11185000D02*
X10965000Y-11215000D01*
X10965000Y-11185000D02*
X10935000Y-11215000D01*
X10935000Y-11435000D02*
X10965000Y-11465000D01*
X10965000Y-11435000D02*
X10935000Y-11465000D01*
X10935000Y-11685000D02*
X10965000Y-11715000D01*
X10965000Y-11685000D02*
X10935000Y-11715000D01*
X10935000Y-11935000D02*
X10965000Y-11965000D01*
X10965000Y-11935000D02*
X10935000Y-11965000D01*
X10935000Y-12185000D02*
X10965000Y-12215000D01*
X10965000Y-12185000D02*
X10935000Y-12215000D01*
X10935000Y-13435000D02*
X10965000Y-13465000D01*
X10965000Y-13435000D02*
X10935000Y-13465000D01*
X10935000Y-14685000D02*
X10965000Y-14715000D01*
X10965000Y-14685000D02*
X10935000Y-14715000D01*
X10935000Y-14935000D02*
X10965000Y-14965000D01*
X10965000Y-14935000D02*
X10935000Y-14965000D01*
X10935000Y-15185000D02*
X10965000Y-15215000D01*
X10965000Y-15185000D02*
X10935000Y-15215000D01*
X11185000Y-10185000D02*
X11215000Y-10215000D01*
X11215000Y-10185000D02*
X11185000Y-10215000D01*
X11185000Y-10435000D02*
X11215000Y-10465000D01*
X11215000Y-10435000D02*
X11185000Y-10465000D01*
X11185000Y-13435000D02*
X11215000Y-13465000D01*
X11215000Y-13435000D02*
X11185000Y-13465000D01*
X11185000Y-14685000D02*
X11215000Y-14715000D01*
X11215000Y-14685000D02*
X11185000Y-14715000D01*
X11185000Y-14935000D02*
X11215000Y-14965000D01*
X11215000Y-14935000D02*
X11185000Y-14965000D01*
X11185000Y-15185000D02*
X11215000Y-15215000D01*
X11215000Y-15185000D02*
X11185000Y-15215000D01*
X11435000Y-10185000D02*
X11465000Y-10215000D01*
X11465000Y-10185000D02*
X11435000Y-10215000D01*
X11435000Y-12185000D02*
X11465000Y-12215000D01*
X11465000Y-12185000D02*
X11435000Y-12215000D01*
X11435000Y-13435000D02*
X11465000Y-13465000D01*
X11465000Y-13435000D02*
X11435000Y-13465000D01*
X11435000Y-13685000D02*
X11465000Y-13715000D01*
X11465000Y-13685000D02*
X11435000Y-13715000D01*
X11435000Y-14685000D02*
X11465000Y-14715000D01*
X11465000Y-14685000D02*
X11435000Y-14715000D01*
X11435000Y-14935000D02*
X11465000Y-14965000D01*
X11465000Y-14935000D02*
X11435000Y-14965000D01*
X11435000Y-15185000D02*
X11465000Y-15215000D01*
X11465000Y-15185000D02*
X11435000Y-15215000D01*
X11592800Y-13025500D02*
X11622800Y-13055500D01*
X11622800Y-13025500D02*
X11592800Y-13055500D01*
X11608700Y-13606600D02*
X11638700Y-13636600D01*
X11638700Y-13606600D02*
X11608700Y-13636600D01*
X11675000Y-10590000D02*
X11705000Y-10620000D01*
X11705000Y-10590000D02*
X11675000Y-10620000D01*
X11685000Y-10185000D02*
X11715000Y-10215000D01*
X11715000Y-10185000D02*
X11685000Y-10215000D01*
X11685000Y-12435000D02*
X11715000Y-12465000D01*
X11715000Y-12435000D02*
X11685000Y-12465000D01*
X11685000Y-14685000D02*
X11715000Y-14715000D01*
X11715000Y-14685000D02*
X11685000Y-14715000D01*
X11685000Y-14935000D02*
X11715000Y-14965000D01*
X11715000Y-14935000D02*
X11685000Y-14965000D01*
X11685000Y-15185000D02*
X11715000Y-15215000D01*
X11715000Y-15185000D02*
X11685000Y-15215000D01*
X11935000Y-10185000D02*
X11965000Y-10215000D01*
X11965000Y-10185000D02*
X11935000Y-10215000D01*
X11935000Y-11185000D02*
X11965000Y-11215000D01*
X11965000Y-11185000D02*
X11935000Y-11215000D01*
X11935000Y-11435000D02*
X11965000Y-11465000D01*
X11965000Y-11435000D02*
X11935000Y-11465000D01*
X11935000Y-12435000D02*
X11965000Y-12465000D01*
X11965000Y-12435000D02*
X11935000Y-12465000D01*
X11935000Y-14935000D02*
X11965000Y-14965000D01*
X11965000Y-14935000D02*
X11935000Y-14965000D01*
X11935000Y-15185000D02*
X11965000Y-15215000D01*
X11965000Y-15185000D02*
X11935000Y-15215000D01*
X12045000Y-10592500D02*
X12075000Y-10622500D01*
X12075000Y-10592500D02*
X12045000Y-10622500D01*
X12185000Y-10185000D02*
X12215000Y-10215000D01*
X12215000Y-10185000D02*
X12185000Y-10215000D01*
X12185000Y-11435000D02*
X12215000Y-11465000D01*
X12215000Y-11435000D02*
X12185000Y-11465000D01*
X12185000Y-15185000D02*
X12215000Y-15215000D01*
X12215000Y-15185000D02*
X12185000Y-15215000D01*
X12255400Y-13649500D02*
X12285400Y-13679500D01*
X12285400Y-13649500D02*
X12255400Y-13679500D01*
X12285000Y-10592500D02*
X12315000Y-10622500D01*
X12315000Y-10592500D02*
X12285000Y-10622500D01*
X12365000Y-11935000D02*
X12395000Y-11965000D01*
X12395000Y-11935000D02*
X12365000Y-11965000D01*
X12385000Y-12105000D02*
X12415000Y-12135000D01*
X12415000Y-12105000D02*
X12385000Y-12135000D01*
X12405000Y-10802500D02*
X12435000Y-10832500D01*
X12435000Y-10802500D02*
X12405000Y-10832500D01*
X12435000Y-10185000D02*
X12465000Y-10215000D01*
X12465000Y-10185000D02*
X12435000Y-10215000D01*
X12435000Y-10935000D02*
X12465000Y-10965000D01*
X12465000Y-10935000D02*
X12435000Y-10965000D01*
X12435000Y-14935000D02*
X12465000Y-14965000D01*
X12465000Y-14935000D02*
X12435000Y-14965000D01*
X12470900Y-14498200D02*
X12500900Y-14528200D01*
X12500900Y-14498200D02*
X12470900Y-14528200D01*
X12585000Y-13255000D02*
X12615000Y-13285000D01*
X12615000Y-13255000D02*
X12585000Y-13285000D01*
X12585000Y-14505000D02*
X12615000Y-14535000D01*
X12615000Y-14505000D02*
X12585000Y-14535000D01*
X12595407Y-13099454D02*
X12625407Y-13129454D01*
X12625407Y-13099454D02*
X12595407Y-13129454D01*
X12595407Y-14349454D02*
X12625407Y-14379454D01*
X12625407Y-14349454D02*
X12595407Y-14379454D01*
X12685000Y-10185000D02*
X12715000Y-10215000D01*
X12715000Y-10185000D02*
X12685000Y-10215000D01*
X12685000Y-14935000D02*
X12715000Y-14965000D01*
X12715000Y-14935000D02*
X12685000Y-14965000D01*
X12685000Y-15185000D02*
X12715000Y-15215000D01*
X12715000Y-15185000D02*
X12685000Y-15215000D01*
X12692500Y-12285000D02*
X12722500Y-12315000D01*
X12722500Y-12285000D02*
X12692500Y-12315000D01*
X12775000Y-11200000D02*
X12805000Y-11230000D01*
X12805000Y-11200000D02*
X12775000Y-11230000D01*
X12885000Y-12642500D02*
X12915000Y-12672500D01*
X12915000Y-12642500D02*
X12885000Y-12672500D01*
X12915000Y-13065000D02*
X12945000Y-13095000D01*
X12945000Y-13065000D02*
X12915000Y-13095000D01*
X12935000Y-10185000D02*
X12965000Y-10215000D01*
X12965000Y-10185000D02*
X12935000Y-10215000D01*
X12945000Y-11200000D02*
X12975000Y-11230000D01*
X12975000Y-11200000D02*
X12945000Y-11230000D01*
X12990000Y-12605000D02*
X13020000Y-12635000D01*
X13020000Y-12605000D02*
X12990000Y-12635000D01*
X13005000Y-13650000D02*
X13035000Y-13680000D01*
X13035000Y-13650000D02*
X13005000Y-13680000D01*
X13016800Y-13388500D02*
X13046800Y-13418500D01*
X13046800Y-13388500D02*
X13016800Y-13418500D01*
X13068700Y-13255800D02*
X13098700Y-13285800D01*
X13098700Y-13255800D02*
X13068700Y-13285800D01*
X13075000Y-12865000D02*
X13105000Y-12895000D01*
X13105000Y-12865000D02*
X13075000Y-12895000D01*
X13098100Y-13843100D02*
X13128100Y-13873100D01*
X13128100Y-13843100D02*
X13098100Y-13873100D01*
X13139000Y-14578300D02*
X13169000Y-14608300D01*
X13169000Y-14578300D02*
X13139000Y-14608300D01*
X13175000Y-13655000D02*
X13205000Y-13685000D01*
X13205000Y-13655000D02*
X13175000Y-13685000D01*
X13185000Y-10185000D02*
X13215000Y-10215000D01*
X13215000Y-10185000D02*
X13185000Y-10215000D01*
X13185000Y-14935000D02*
X13215000Y-14965000D01*
X13215000Y-14935000D02*
X13185000Y-14965000D01*
X13285000Y-11200000D02*
X13315000Y-11230000D01*
X13315000Y-11200000D02*
X13285000Y-11230000D01*
X13366652Y-12368516D02*
X13396652Y-12398516D01*
X13396652Y-12368516D02*
X13366652Y-12398516D01*
X13386200Y-13797100D02*
X13416200Y-13827100D01*
X13416200Y-13797100D02*
X13386200Y-13827100D01*
X13396907Y-13112602D02*
X13426907Y-13142602D01*
X13426907Y-13112602D02*
X13396907Y-13142602D01*
X13434500Y-12976700D02*
X13464500Y-13006700D01*
X13464500Y-12976700D02*
X13434500Y-13006700D01*
X13435000Y-10185000D02*
X13465000Y-10215000D01*
X13465000Y-10185000D02*
X13435000Y-10215000D01*
X13435000Y-10435000D02*
X13465000Y-10465000D01*
X13465000Y-10435000D02*
X13435000Y-10465000D01*
X13435000Y-10935000D02*
X13465000Y-10965000D01*
X13465000Y-10935000D02*
X13435000Y-10965000D01*
X13464400Y-12809600D02*
X13494400Y-12839600D01*
X13494400Y-12809600D02*
X13464400Y-12839600D01*
X13467800Y-13797300D02*
X13497800Y-13827300D01*
X13497800Y-13797300D02*
X13467800Y-13827300D01*
X13585000Y-13680000D02*
X13615000Y-13710000D01*
X13615000Y-13680000D02*
X13585000Y-13710000D01*
X13605000Y-11805000D02*
X13635000Y-11835000D01*
X13635000Y-11805000D02*
X13605000Y-11835000D01*
X13605300Y-13982400D02*
X13635300Y-14012400D01*
X13635300Y-13982400D02*
X13605300Y-14012400D01*
X13626000Y-12447600D02*
X13656000Y-12477600D01*
X13656000Y-12447600D02*
X13626000Y-12477600D01*
X13635000Y-14465000D02*
X13665000Y-14495000D01*
X13665000Y-14465000D02*
X13635000Y-14495000D01*
X13637800Y-12216400D02*
X13667800Y-12246400D01*
X13667800Y-12216400D02*
X13637800Y-12246400D01*
X13666000Y-13299100D02*
X13696000Y-13329100D01*
X13696000Y-13299100D02*
X13666000Y-13329100D01*
X13685000Y-10185000D02*
X13715000Y-10215000D01*
X13715000Y-10185000D02*
X13685000Y-10215000D01*
X13685000Y-14685000D02*
X13715000Y-14715000D01*
X13715000Y-14685000D02*
X13685000Y-14715000D01*
X13685000Y-14935000D02*
X13715000Y-14965000D01*
X13715000Y-14935000D02*
X13685000Y-14965000D01*
X13685000Y-15185000D02*
X13715000Y-15215000D01*
X13715000Y-15185000D02*
X13685000Y-15215000D01*
X13783400Y-13757100D02*
X13813400Y-13787100D01*
X13813400Y-13757100D02*
X13783400Y-13787100D01*
X13896800Y-12391800D02*
X13926800Y-12421800D01*
X13926800Y-12391800D02*
X13896800Y-12421800D01*
X13935000Y-10185000D02*
X13965000Y-10215000D01*
X13965000Y-10185000D02*
X13935000Y-10215000D01*
X13935000Y-15185000D02*
X13965000Y-15215000D01*
X13965000Y-15185000D02*
X13935000Y-15215000D01*
X13935400Y-13373000D02*
X13965400Y-13403000D01*
X13965400Y-13373000D02*
X13935400Y-13403000D01*
X13964800Y-13275300D02*
X13994800Y-13305300D01*
X13994800Y-13275300D02*
X13964800Y-13305300D01*
X13965000Y-13680000D02*
X13995000Y-13710000D01*
X13995000Y-13680000D02*
X13965000Y-13710000D01*
X13985000Y-13868000D02*
X14015000Y-13898000D01*
X14015000Y-13868000D02*
X13985000Y-13898000D01*
X14005000Y-14205000D02*
X14035000Y-14235000D01*
X14035000Y-14205000D02*
X14005000Y-14235000D01*
X14021600Y-12456300D02*
X14051600Y-12486300D01*
X14051600Y-12456300D02*
X14021600Y-12486300D01*
X14185000Y-10185000D02*
X14215000Y-10215000D01*
X14215000Y-10185000D02*
X14185000Y-10215000D01*
X14185000Y-11805000D02*
X14215000Y-11835000D01*
X14215000Y-11805000D02*
X14185000Y-11835000D01*
X14185000Y-14435000D02*
X14215000Y-14465000D01*
X14215000Y-14435000D02*
X14185000Y-14465000D01*
X14185000Y-15185000D02*
X14215000Y-15215000D01*
X14215000Y-15185000D02*
X14185000Y-15215000D01*
X14228200Y-12922300D02*
X14258200Y-12952300D01*
X14258200Y-12922300D02*
X14228200Y-12952300D01*
X14265100Y-13086500D02*
X14295100Y-13116500D01*
X14295100Y-13086500D02*
X14265100Y-13116500D01*
X14281500Y-12085500D02*
X14311500Y-12115500D01*
X14311500Y-12085500D02*
X14281500Y-12115500D01*
X14309488Y-12536988D02*
X14339488Y-12566988D01*
X14339488Y-12536988D02*
X14309488Y-12566988D01*
X14341700Y-12931000D02*
X14371700Y-12961000D01*
X14371700Y-12931000D02*
X14341700Y-12961000D01*
X14342800Y-12210300D02*
X14372800Y-12240300D01*
X14372800Y-12210300D02*
X14342800Y-12240300D01*
X14387200Y-13599400D02*
X14417200Y-13629400D01*
X14417200Y-13599400D02*
X14387200Y-13629400D01*
X14404600Y-13173400D02*
X14434600Y-13203400D01*
X14434600Y-13173400D02*
X14404600Y-13203400D01*
X14430511Y-13386988D02*
X14460511Y-13416988D01*
X14460511Y-13386988D02*
X14430511Y-13416988D01*
X14435000Y-14435000D02*
X14465000Y-14465000D01*
X14465000Y-14435000D02*
X14435000Y-14465000D01*
X14435000Y-15185000D02*
X14465000Y-15215000D01*
X14465000Y-15185000D02*
X14435000Y-15215000D01*
X14474526Y-13468753D02*
X14504526Y-13498753D01*
X14504526Y-13468753D02*
X14474526Y-13498753D01*
X14485000Y-10192500D02*
X14515000Y-10222500D01*
X14515000Y-10192500D02*
X14485000Y-10222500D01*
X14519400Y-13798000D02*
X14549400Y-13828000D01*
X14549400Y-13798000D02*
X14519400Y-13828000D01*
X14550815Y-12571641D02*
X14580815Y-12601641D01*
X14580815Y-12571641D02*
X14550815Y-12601641D01*
X14613200Y-13384300D02*
X14643200Y-13414300D01*
X14643200Y-13384300D02*
X14613200Y-13414300D01*
X14620600Y-13698700D02*
X14650600Y-13728700D01*
X14650600Y-13698700D02*
X14620600Y-13728700D01*
X14635000Y-11707700D02*
X14665000Y-11737700D01*
X14665000Y-11707700D02*
X14635000Y-11737700D01*
X14651298Y-10768617D02*
X14681298Y-10798617D01*
X14681298Y-10768617D02*
X14651298Y-10798617D01*
X14685000Y-10185000D02*
X14715000Y-10215000D01*
X14715000Y-10185000D02*
X14685000Y-10215000D01*
X14685000Y-10435000D02*
X14715000Y-10465000D01*
X14715000Y-10435000D02*
X14685000Y-10465000D01*
X14685000Y-10685000D02*
X14715000Y-10715000D01*
X14715000Y-10685000D02*
X14685000Y-10715000D01*
X14685000Y-12185000D02*
X14715000Y-12215000D01*
X14715000Y-12185000D02*
X14685000Y-12215000D01*
X14685000Y-14435000D02*
X14715000Y-14465000D01*
X14715000Y-14435000D02*
X14685000Y-14465000D01*
X14685000Y-14685000D02*
X14715000Y-14715000D01*
X14715000Y-14685000D02*
X14685000Y-14715000D01*
X14685000Y-14935000D02*
X14715000Y-14965000D01*
X14715000Y-14935000D02*
X14685000Y-14965000D01*
X14685000Y-15185000D02*
X14715000Y-15215000D01*
X14715000Y-15185000D02*
X14685000Y-15215000D01*
X14699796Y-12032907D02*
X14729796Y-12062907D01*
X14729796Y-12032907D02*
X14699796Y-12062907D01*
X14766300Y-13509400D02*
X14796300Y-13539400D01*
X14796300Y-13509400D02*
X14766300Y-13539400D01*
X14785000Y-13287900D02*
X14815000Y-13317900D01*
X14815000Y-13287900D02*
X14785000Y-13317900D01*
X14935000Y-10185000D02*
X14965000Y-10215000D01*
X14965000Y-10185000D02*
X14935000Y-10215000D01*
X14935000Y-12185000D02*
X14965000Y-12215000D01*
X14965000Y-12185000D02*
X14935000Y-12215000D01*
X14935000Y-15185000D02*
X14965000Y-15215000D01*
X14965000Y-15185000D02*
X14935000Y-15215000D01*
X14953200Y-13535600D02*
X14983200Y-13565600D01*
X14983200Y-13535600D02*
X14953200Y-13565600D01*
X15024225Y-13912802D02*
X15054225Y-13942802D01*
X15054225Y-13912802D02*
X15024225Y-13942802D01*
X15070560Y-14251440D02*
X15100560Y-14281440D01*
X15100560Y-14251440D02*
X15070560Y-14281440D01*
X15070560Y-14501440D02*
X15100560Y-14531440D01*
X15100560Y-14501440D02*
X15070560Y-14531440D01*
X15070560Y-14751440D02*
X15100560Y-14781440D01*
X15100560Y-14751440D02*
X15070560Y-14781440D01*
X15134400Y-14013300D02*
X15164400Y-14043300D01*
X15164400Y-14013300D02*
X15134400Y-14043300D01*
X15140071Y-12819133D02*
X15170071Y-12849133D01*
X15170071Y-12819133D02*
X15140071Y-12849133D01*
X15171262Y-11744218D02*
X15201262Y-11774218D01*
X15201262Y-11744218D02*
X15171262Y-11774218D01*
X15185000Y-10185000D02*
X15215000Y-10215000D01*
X15215000Y-10185000D02*
X15185000Y-10215000D01*
X15185000Y-14435000D02*
X15215000Y-14465000D01*
X15215000Y-14435000D02*
X15185000Y-14465000D01*
X15185000Y-15185000D02*
X15215000Y-15215000D01*
X15215000Y-15185000D02*
X15185000Y-15215000D01*
X15204700Y-13380800D02*
X15234700Y-13410800D01*
X15234700Y-13380800D02*
X15204700Y-13410800D01*
X15265450Y-14195950D02*
X15295450Y-14225950D01*
X15295450Y-14195950D02*
X15265450Y-14225950D01*
X15279073Y-15263329D02*
X15309073Y-15293329D01*
X15309073Y-15263329D02*
X15279073Y-15293329D01*
X15368156Y-13404659D02*
X15398156Y-13434659D01*
X15398156Y-13404659D02*
X15368156Y-13434659D01*
X15370000Y-13735000D02*
X15400000Y-13765000D01*
X15400000Y-13735000D02*
X15370000Y-13765000D01*
X15380000Y-12907200D02*
X15410000Y-12937200D01*
X15410000Y-12907200D02*
X15380000Y-12937200D01*
X15382300Y-14109600D02*
X15412300Y-14139600D01*
X15412300Y-14109600D02*
X15382300Y-14139600D01*
X15435000Y-10185000D02*
X15465000Y-10215000D01*
X15465000Y-10185000D02*
X15435000Y-10215000D01*
X15459100Y-13689700D02*
X15489100Y-13719700D01*
X15489100Y-13689700D02*
X15459100Y-13719700D01*
X15525600Y-13574700D02*
X15555600Y-13604700D01*
X15555600Y-13574700D02*
X15525600Y-13604700D01*
X15525911Y-11324454D02*
X15555911Y-11354454D01*
X15555911Y-11324454D02*
X15525911Y-11354454D01*
X15657500Y-11475000D02*
X15687500Y-11505000D01*
X15687500Y-11475000D02*
X15657500Y-11505000D01*
X15666900Y-13546200D02*
X15696900Y-13576200D01*
X15696900Y-13546200D02*
X15666900Y-13576200D01*
X15676900Y-13415600D02*
X15706900Y-13445600D01*
X15706900Y-13415600D02*
X15676900Y-13445600D01*
X15685000Y-10185000D02*
X15715000Y-10215000D01*
X15715000Y-10185000D02*
X15685000Y-10215000D01*
X15715911Y-11324454D02*
X15745911Y-11354454D01*
X15745911Y-11324454D02*
X15715911Y-11354454D01*
X15762504Y-13729686D02*
X15792504Y-13759686D01*
X15792504Y-13729686D02*
X15762504Y-13759686D01*
X15772500Y-12669850D02*
X15802500Y-12699850D01*
X15802500Y-12669850D02*
X15772500Y-12699850D01*
X15905911Y-11324454D02*
X15935911Y-11354454D01*
X15935911Y-11324454D02*
X15905911Y-11354454D01*
X15985000Y-10185000D02*
X16015000Y-10215000D01*
X16015000Y-10185000D02*
X15985000Y-10215000D01*
X16025000Y-11475000D02*
X16055000Y-11505000D01*
X16055000Y-11475000D02*
X16025000Y-11505000D01*
X16064300Y-13606600D02*
X16094300Y-13636600D01*
X16094300Y-13606600D02*
X16064300Y-13636600D01*
X16071000Y-13968500D02*
X16101000Y-13998500D01*
X16101000Y-13968500D02*
X16071000Y-13998500D01*
X16101718Y-11383217D02*
X16131718Y-11413217D01*
X16131718Y-11383217D02*
X16101718Y-11413217D01*
X16138763Y-11511853D02*
X16168763Y-11541853D01*
X16168763Y-11511853D02*
X16138763Y-11541853D01*
X16149000Y-11245000D02*
X16179000Y-11275000D01*
X16179000Y-11245000D02*
X16149000Y-11275000D01*
X16185000Y-10185000D02*
X16215000Y-10215000D01*
X16215000Y-10185000D02*
X16185000Y-10215000D01*
X16185000Y-13685000D02*
X16215000Y-13715000D01*
X16215000Y-13685000D02*
X16185000Y-13715000D01*
X16196000Y-12693700D02*
X16226000Y-12723700D01*
X16226000Y-12693700D02*
X16196000Y-12723700D01*
X16280400Y-13971200D02*
X16310400Y-14001200D01*
X16310400Y-13971200D02*
X16280400Y-14001200D01*
X16359801Y-11553677D02*
X16389801Y-11583677D01*
X16389801Y-11553677D02*
X16359801Y-11583677D01*
X16435000Y-10185000D02*
X16465000Y-10215000D01*
X16465000Y-10185000D02*
X16435000Y-10215000D01*
X16435000Y-13685000D02*
X16465000Y-13715000D01*
X16465000Y-13685000D02*
X16435000Y-13715000D01*
X16498287Y-11528420D02*
X16528287Y-11558420D01*
X16528287Y-11528420D02*
X16498287Y-11558420D01*
X16591115Y-11918682D02*
X16621115Y-11948682D01*
X16621115Y-11918682D02*
X16591115Y-11948682D01*
X16598800Y-12619300D02*
X16628800Y-12649300D01*
X16628800Y-12619300D02*
X16598800Y-12649300D01*
X16685000Y-13435000D02*
X16715000Y-13465000D01*
X16715000Y-13435000D02*
X16685000Y-13465000D01*
X16685000Y-13685000D02*
X16715000Y-13715000D01*
X16715000Y-13685000D02*
X16685000Y-13715000D01*
X16685000Y-13935000D02*
X16715000Y-13965000D01*
X16715000Y-13935000D02*
X16685000Y-13965000D01*
X16685000Y-14435000D02*
X16715000Y-14465000D01*
X16715000Y-14435000D02*
X16685000Y-14465000D01*
X16685000Y-14685000D02*
X16715000Y-14715000D01*
X16715000Y-14685000D02*
X16685000Y-14715000D01*
X16685000Y-14935000D02*
X16715000Y-14965000D01*
X16715000Y-14935000D02*
X16685000Y-14965000D01*
X16690927Y-15263329D02*
X16720927Y-15293329D01*
X16720927Y-15263329D02*
X16690927Y-15293329D01*
X16704550Y-14195950D02*
X16734550Y-14225950D01*
X16734550Y-14195950D02*
X16704550Y-14225950D01*
X16735000Y-10185000D02*
X16765000Y-10215000D01*
X16765000Y-10185000D02*
X16735000Y-10215000D01*
X16824830Y-12739845D02*
X16854830Y-12769845D01*
X16854830Y-12739845D02*
X16824830Y-12769845D01*
X16863500Y-12946600D02*
X16893500Y-12976600D01*
X16893500Y-12946600D02*
X16863500Y-12976600D01*
X16870000Y-11690000D02*
X16900000Y-11720000D01*
X16900000Y-11690000D02*
X16870000Y-11720000D01*
X16935000Y-10185000D02*
X16965000Y-10215000D01*
X16965000Y-10185000D02*
X16935000Y-10215000D01*
X16935000Y-12185000D02*
X16965000Y-12215000D01*
X16965000Y-12185000D02*
X16935000Y-12215000D01*
X16935000Y-12435000D02*
X16965000Y-12465000D01*
X16965000Y-12435000D02*
X16935000Y-12465000D01*
X16935000Y-13435000D02*
X16965000Y-13465000D01*
X16965000Y-13435000D02*
X16935000Y-13465000D01*
X16935000Y-13685000D02*
X16965000Y-13715000D01*
X16965000Y-13685000D02*
X16935000Y-13715000D01*
X16935000Y-13935000D02*
X16965000Y-13965000D01*
X16965000Y-13935000D02*
X16935000Y-13965000D01*
X16935000Y-14185000D02*
X16965000Y-14215000D01*
X16965000Y-14185000D02*
X16935000Y-14215000D01*
X16935000Y-14435000D02*
X16965000Y-14465000D01*
X16965000Y-14435000D02*
X16935000Y-14465000D01*
X16935000Y-14685000D02*
X16965000Y-14715000D01*
X16965000Y-14685000D02*
X16935000Y-14715000D01*
X16935000Y-14935000D02*
X16965000Y-14965000D01*
X16965000Y-14935000D02*
X16935000Y-14965000D01*
X16935000Y-15185000D02*
X16965000Y-15215000D01*
X16965000Y-15185000D02*
X16935000Y-15215000D01*
X16977200Y-12860800D02*
X17007200Y-12890800D01*
X17007200Y-12860800D02*
X16977200Y-12890800D01*
X17000000Y-11690000D02*
X17030000Y-11720000D01*
X17030000Y-11690000D02*
X17000000Y-11720000D01*
X17000000Y-11960000D02*
X17030000Y-11990000D01*
X17030000Y-11960000D02*
X17000000Y-11990000D01*
X17104800Y-12985000D02*
X17134800Y-13015000D01*
X17134800Y-12985000D02*
X17104800Y-13015000D01*
X17104840Y-12785000D02*
X17134840Y-12815000D01*
X17134840Y-12785000D02*
X17104840Y-12815000D01*
X17130000Y-11690000D02*
X17160000Y-11720000D01*
X17160000Y-11690000D02*
X17130000Y-11720000D01*
X17130000Y-11960000D02*
X17160000Y-11990000D01*
X17160000Y-11960000D02*
X17130000Y-11990000D01*
X17185000Y-10185000D02*
X17215000Y-10215000D01*
X17215000Y-10185000D02*
X17185000Y-10215000D01*
X17185000Y-10435000D02*
X17215000Y-10465000D01*
X17215000Y-10435000D02*
X17185000Y-10465000D01*
X17185000Y-10685000D02*
X17215000Y-10715000D01*
X17215000Y-10685000D02*
X17185000Y-10715000D01*
X17185000Y-12185000D02*
X17215000Y-12215000D01*
X17215000Y-12185000D02*
X17185000Y-12215000D01*
X17185000Y-12435000D02*
X17215000Y-12465000D01*
X17215000Y-12435000D02*
X17185000Y-12465000D01*
X17185000Y-13185000D02*
X17215000Y-13215000D01*
X17215000Y-13185000D02*
X17185000Y-13215000D01*
X17185000Y-13435000D02*
X17215000Y-13465000D01*
X17215000Y-13435000D02*
X17185000Y-13465000D01*
X17185000Y-13685000D02*
X17215000Y-13715000D01*
X17215000Y-13685000D02*
X17185000Y-13715000D01*
X17185000Y-13935000D02*
X17215000Y-13965000D01*
X17215000Y-13935000D02*
X17185000Y-13965000D01*
X17185000Y-14185000D02*
X17215000Y-14215000D01*
X17215000Y-14185000D02*
X17185000Y-14215000D01*
X17185000Y-14435000D02*
X17215000Y-14465000D01*
X17215000Y-14435000D02*
X17185000Y-14465000D01*
X17185000Y-14685000D02*
X17215000Y-14715000D01*
X17215000Y-14685000D02*
X17185000Y-14715000D01*
X17185000Y-14935000D02*
X17215000Y-14965000D01*
X17215000Y-14935000D02*
X17185000Y-14965000D01*
X17185000Y-15185000D02*
X17215000Y-15215000D01*
X17215000Y-15185000D02*
X17185000Y-15215000D01*
X17260000Y-11690000D02*
X17290000Y-11720000D01*
X17290000Y-11690000D02*
X17260000Y-11720000D01*
X17315000Y-10755000D02*
X17345000Y-10785000D01*
X17345000Y-10755000D02*
X17315000Y-10785000D01*
X17435000Y-12185000D02*
X17465000Y-12215000D01*
X17465000Y-12185000D02*
X17435000Y-12215000D01*
X17435000Y-12435000D02*
X17465000Y-12465000D01*
X17465000Y-12435000D02*
X17435000Y-12465000D01*
X17435000Y-12685000D02*
X17465000Y-12715000D01*
X17465000Y-12685000D02*
X17435000Y-12715000D01*
X17435000Y-12935000D02*
X17465000Y-12965000D01*
X17465000Y-12935000D02*
X17435000Y-12965000D01*
X17435000Y-13185000D02*
X17465000Y-13215000D01*
X17465000Y-13185000D02*
X17435000Y-13215000D01*
X17435000Y-13435000D02*
X17465000Y-13465000D01*
X17465000Y-13435000D02*
X17435000Y-13465000D01*
X17435000Y-13685000D02*
X17465000Y-13715000D01*
X17465000Y-13685000D02*
X17435000Y-13715000D01*
X17435000Y-13935000D02*
X17465000Y-13965000D01*
X17465000Y-13935000D02*
X17435000Y-13965000D01*
X17435000Y-14185000D02*
X17465000Y-14215000D01*
X17465000Y-14185000D02*
X17435000Y-14215000D01*
X17435000Y-14435000D02*
X17465000Y-14465000D01*
X17465000Y-14435000D02*
X17435000Y-14465000D01*
X17435000Y-14685000D02*
X17465000Y-14715000D01*
X17465000Y-14685000D02*
X17435000Y-14715000D01*
X17633078Y-11520443D02*
X17663078Y-11550443D01*
X17663078Y-11520443D02*
X17633078Y-11550443D01*
X17633078Y-12129557D02*
X17663078Y-12159557D01*
X17663078Y-12129557D02*
X17633078Y-12159557D01*
X17685000Y-10935000D02*
X17715000Y-10965000D01*
X17715000Y-10935000D02*
X17685000Y-10965000D01*
X17685000Y-11185000D02*
X17715000Y-11215000D01*
X17715000Y-11185000D02*
X17685000Y-11215000D01*
X17685000Y-11435000D02*
X17715000Y-11465000D01*
X17715000Y-11435000D02*
X17685000Y-11465000D01*
X17685000Y-12435000D02*
X17715000Y-12465000D01*
X17715000Y-12435000D02*
X17685000Y-12465000D01*
X17685000Y-12685000D02*
X17715000Y-12715000D01*
X17715000Y-12685000D02*
X17685000Y-12715000D01*
X17685000Y-12935000D02*
X17715000Y-12965000D01*
X17715000Y-12935000D02*
X17685000Y-12965000D01*
X17685000Y-13185000D02*
X17715000Y-13215000D01*
X17715000Y-13185000D02*
X17685000Y-13215000D01*
X17685000Y-13435000D02*
X17715000Y-13465000D01*
X17715000Y-13435000D02*
X17685000Y-13465000D01*
X17685000Y-13685000D02*
X17715000Y-13715000D01*
X17715000Y-13685000D02*
X17685000Y-13715000D01*
X17685000Y-13935000D02*
X17715000Y-13965000D01*
X17715000Y-13935000D02*
X17685000Y-13965000D01*
X17685000Y-14185000D02*
X17715000Y-14215000D01*
X17715000Y-14185000D02*
X17685000Y-14215000D01*
X17685000Y-14435000D02*
X17715000Y-14465000D01*
X17715000Y-14435000D02*
X17685000Y-14465000D01*
X17685000Y-14685000D02*
X17715000Y-14715000D01*
X17715000Y-14685000D02*
X17685000Y-14715000D01*
X12965000Y-10750000D02*
G75*
G02*
X12935000Y-10750000I-15000J0D01*
G01*
X12935000Y-10750000D02*
G75*
G02*
X12965000Y-10750000I15000J0D01*
G01*
X12965000Y-10850000D02*
G75*
G02*
X12935000Y-10850000I-15000J0D01*
G01*
X12935000Y-10850000D02*
G75*
G02*
X12965000Y-10850000I15000J0D01*
G01*
X13065000Y-10750000D02*
G75*
G02*
X13035000Y-10750000I-15000J0D01*
G01*
X13035000Y-10750000D02*
G75*
G02*
X13065000Y-10750000I15000J0D01*
G01*
X13065000Y-10850000D02*
G75*
G02*
X13035000Y-10850000I-15000J0D01*
G01*
X13035000Y-10850000D02*
G75*
G02*
X13065000Y-10850000I15000J0D01*
G01*
X11952700Y-13279100D02*
X11952700Y-13319100D01*
X11932700Y-13299100D02*
X11972700Y-13299100D01*
X12730700Y-13972900D02*
X12730700Y-14012900D01*
X12710700Y-13992900D02*
X12750700Y-13992900D01*
X13114300Y-11599700D02*
X13114300Y-11639700D01*
X13094300Y-11619700D02*
X13134300Y-11619700D01*
X14000000Y-11258600D02*
X14000000Y-11298600D01*
X13980000Y-11278600D02*
X14020000Y-11278600D01*
X10127678Y-10367678D02*
X10127678Y-10332322D01*
X10092322Y-10332322D01*
X10092322Y-10367678D01*
X10127678Y-10367678D01*
X10127678Y-15167678D02*
X10127678Y-15132322D01*
X10092322Y-15132322D01*
X10092322Y-15167678D01*
X10127678Y-15167678D01*
X10197972Y-10197972D02*
X10197972Y-10162617D01*
X10162617Y-10162617D01*
X10162617Y-10197972D01*
X10197972Y-10197972D01*
X10197972Y-10537383D02*
X10197972Y-10502028D01*
X10162617Y-10502028D01*
X10162617Y-10537383D01*
X10197972Y-10537383D01*
X10197972Y-14997972D02*
X10197972Y-14962617D01*
X10162617Y-14962617D01*
X10162617Y-14997972D01*
X10197972Y-14997972D01*
X10197972Y-15337383D02*
X10197972Y-15302028D01*
X10162617Y-15302028D01*
X10162617Y-15337383D01*
X10197972Y-15337383D01*
X10367678Y-10127678D02*
X10367678Y-10092322D01*
X10332322Y-10092322D01*
X10332322Y-10127678D01*
X10367678Y-10127678D01*
X10367678Y-10607678D02*
X10367678Y-10572322D01*
X10332322Y-10572322D01*
X10332322Y-10607678D01*
X10367678Y-10607678D01*
X10367678Y-14927678D02*
X10367678Y-14892322D01*
X10332322Y-14892322D01*
X10332322Y-14927678D01*
X10367678Y-14927678D01*
X10367678Y-15407678D02*
X10367678Y-15372322D01*
X10332322Y-15372322D01*
X10332322Y-15407678D01*
X10367678Y-15407678D01*
X10537383Y-10197972D02*
X10537383Y-10162617D01*
X10502028Y-10162617D01*
X10502028Y-10197972D01*
X10537383Y-10197972D01*
X10537383Y-10537383D02*
X10537383Y-10502028D01*
X10502028Y-10502028D01*
X10502028Y-10537383D01*
X10537383Y-10537383D01*
X10537383Y-14997972D02*
X10537383Y-14962617D01*
X10502028Y-14962617D01*
X10502028Y-14997972D01*
X10537383Y-14997972D01*
X10537383Y-15337383D02*
X10537383Y-15302028D01*
X10502028Y-15302028D01*
X10502028Y-15337383D01*
X10537383Y-15337383D01*
X10607678Y-10367678D02*
X10607678Y-10332322D01*
X10572322Y-10332322D01*
X10572322Y-10367678D01*
X10607678Y-10367678D01*
X10607678Y-15167678D02*
X10607678Y-15132322D01*
X10572322Y-15132322D01*
X10572322Y-15167678D01*
X10607678Y-15167678D01*
X17427678Y-10367678D02*
X17427678Y-10332322D01*
X17392322Y-10332322D01*
X17392322Y-10367678D01*
X17427678Y-10367678D01*
X17427678Y-15167678D02*
X17427678Y-15132322D01*
X17392322Y-15132322D01*
X17392322Y-15167678D01*
X17427678Y-15167678D01*
X17497972Y-10197972D02*
X17497972Y-10162617D01*
X17462617Y-10162617D01*
X17462617Y-10197972D01*
X17497972Y-10197972D01*
X17497972Y-10537383D02*
X17497972Y-10502028D01*
X17462617Y-10502028D01*
X17462617Y-10537383D01*
X17497972Y-10537383D01*
X17497972Y-14997972D02*
X17497972Y-14962617D01*
X17462617Y-14962617D01*
X17462617Y-14997972D01*
X17497972Y-14997972D01*
X17497972Y-15337383D02*
X17497972Y-15302028D01*
X17462617Y-15302028D01*
X17462617Y-15337383D01*
X17497972Y-15337383D01*
X17667678Y-10127678D02*
X17667678Y-10092322D01*
X17632322Y-10092322D01*
X17632322Y-10127678D01*
X17667678Y-10127678D01*
X17667678Y-10607678D02*
X17667678Y-10572322D01*
X17632322Y-10572322D01*
X17632322Y-10607678D01*
X17667678Y-10607678D01*
X17667678Y-14927678D02*
X17667678Y-14892322D01*
X17632322Y-14892322D01*
X17632322Y-14927678D01*
X17667678Y-14927678D01*
X17667678Y-15407678D02*
X17667678Y-15372322D01*
X17632322Y-15372322D01*
X17632322Y-15407678D01*
X17667678Y-15407678D01*
X17837383Y-10197972D02*
X17837383Y-10162617D01*
X17802028Y-10162617D01*
X17802028Y-10197972D01*
X17837383Y-10197972D01*
X17837383Y-10537383D02*
X17837383Y-10502028D01*
X17802028Y-10502028D01*
X17802028Y-10537383D01*
X17837383Y-10537383D01*
X17837383Y-14997972D02*
X17837383Y-14962617D01*
X17802028Y-14962617D01*
X17802028Y-14997972D01*
X17837383Y-14997972D01*
X17837383Y-15337383D02*
X17837383Y-15302028D01*
X17802028Y-15302028D01*
X17802028Y-15337383D01*
X17837383Y-15337383D01*
X17907678Y-10367678D02*
X17907678Y-10332322D01*
X17872322Y-10332322D01*
X17872322Y-10367678D01*
X17907678Y-10367678D01*
X17907678Y-15167678D02*
X17907678Y-15132322D01*
X17872322Y-15132322D01*
X17872322Y-15167678D01*
X17907678Y-15167678D01*
X10450000Y-14047500D02*
X10497500Y-14000000D01*
X10450000Y-13952500D01*
X10402500Y-14000000D01*
X10450000Y-14047500D01*
X10450000Y-14297500D02*
X10497500Y-14250000D01*
X10450000Y-14202500D01*
X10402500Y-14250000D01*
X10450000Y-14297500D01*
X10450000Y-14547500D02*
X10497500Y-14500000D01*
X10450000Y-14452500D01*
X10402500Y-14500000D01*
X10450000Y-14547500D01*
X10400000Y-12750000D02*
X10500000Y-12850000D01*
X10500000Y-12750000D02*
X10400000Y-12850000D01*
X10500000Y-12800000D02*
G75*
G02*
X10400000Y-12800000I-50000J0D01*
G01*
X10400000Y-12800000D02*
G75*
G02*
X10500000Y-12800000I50000J0D01*
G01*
X10400000Y-13000000D02*
X10500000Y-13100000D01*
X10500000Y-13000000D02*
X10400000Y-13100000D01*
X10500000Y-13050000D02*
G75*
G02*
X10400000Y-13050000I-50000J0D01*
G01*
X10400000Y-13050000D02*
G75*
G02*
X10500000Y-13050000I50000J0D01*
G01*
D12*
X10365000Y-10915000D02*
X10535000Y-11085000D01*
X10535000Y-10915000D02*
X10365000Y-11085000D01*
X10450000Y-10915000D02*
X10450000Y-11085000D01*
X10365000Y-11000000D02*
X10535000Y-11000000D01*
X10365000Y-11311000D02*
X10535000Y-11481000D01*
X10535000Y-11311000D02*
X10365000Y-11481000D01*
X10450000Y-11311000D02*
X10450000Y-11481000D01*
X10365000Y-11396000D02*
X10535000Y-11396000D01*
D13*
X10190000Y-10190000D02*
X10510000Y-10510000D01*
X10510000Y-10190000D02*
X10190000Y-10510000D01*
X10463138Y-10463138D02*
X10463138Y-10236862D01*
X10236862Y-10236862D01*
X10236862Y-10463138D01*
X10463138Y-10463138D01*
X10190000Y-14990000D02*
X10510000Y-15310000D01*
X10510000Y-14990000D02*
X10190000Y-15310000D01*
X10463138Y-15263138D02*
X10463138Y-15036862D01*
X10236862Y-15036862D01*
X10236862Y-15263138D01*
X10463138Y-15263138D01*
X17490000Y-10190000D02*
X17810000Y-10510000D01*
X17810000Y-10190000D02*
X17490000Y-10510000D01*
X17763138Y-10463138D02*
X17763138Y-10236862D01*
X17536862Y-10236862D01*
X17536862Y-10463138D01*
X17763138Y-10463138D01*
X17490000Y-14990000D02*
X17810000Y-15310000D01*
X17810000Y-14990000D02*
X17490000Y-15310000D01*
X17763138Y-15263138D02*
X17763138Y-15036862D01*
X17536862Y-15036862D01*
X17536862Y-15263138D01*
X17763138Y-15263138D01*
D11*
X10255777Y-15816484D02*
X10255777Y-15616484D01*
X10255777Y-15616484D02*
X10303396Y-15616484D01*
X10303396Y-15616484D02*
X10331967Y-15626008D01*
X10331967Y-15626008D02*
X10351015Y-15645055D01*
X10351015Y-15645055D02*
X10360539Y-15664103D01*
X10360539Y-15664103D02*
X10370063Y-15702198D01*
X10370063Y-15702198D02*
X10370063Y-15730769D01*
X10370063Y-15730769D02*
X10360539Y-15768865D01*
X10360539Y-15768865D02*
X10351015Y-15787912D01*
X10351015Y-15787912D02*
X10331967Y-15806960D01*
X10331967Y-15806960D02*
X10303396Y-15816484D01*
X10303396Y-15816484D02*
X10255777Y-15816484D01*
X10455777Y-15816484D02*
X10455777Y-15683150D01*
X10455777Y-15721246D02*
X10465301Y-15702198D01*
X10465301Y-15702198D02*
X10474824Y-15692674D01*
X10474824Y-15692674D02*
X10493872Y-15683150D01*
X10493872Y-15683150D02*
X10512920Y-15683150D01*
X10579586Y-15816484D02*
X10579586Y-15683150D01*
X10579586Y-15616484D02*
X10570063Y-15626008D01*
X10570063Y-15626008D02*
X10579586Y-15635531D01*
X10579586Y-15635531D02*
X10589110Y-15626008D01*
X10589110Y-15626008D02*
X10579586Y-15616484D01*
X10579586Y-15616484D02*
X10579586Y-15635531D01*
X10703396Y-15816484D02*
X10684348Y-15806960D01*
X10684348Y-15806960D02*
X10674824Y-15787912D01*
X10674824Y-15787912D02*
X10674824Y-15616484D01*
X10808158Y-15816484D02*
X10789110Y-15806960D01*
X10789110Y-15806960D02*
X10779586Y-15787912D01*
X10779586Y-15787912D02*
X10779586Y-15616484D01*
X11036729Y-15816484D02*
X11036729Y-15616484D01*
X11036729Y-15616484D02*
X11103396Y-15759341D01*
X11103396Y-15759341D02*
X11170063Y-15616484D01*
X11170063Y-15616484D02*
X11170063Y-15816484D01*
X11351015Y-15816484D02*
X11351015Y-15711722D01*
X11351015Y-15711722D02*
X11341491Y-15692674D01*
X11341491Y-15692674D02*
X11322443Y-15683150D01*
X11322443Y-15683150D02*
X11284348Y-15683150D01*
X11284348Y-15683150D02*
X11265301Y-15692674D01*
X11351015Y-15806960D02*
X11331967Y-15816484D01*
X11331967Y-15816484D02*
X11284348Y-15816484D01*
X11284348Y-15816484D02*
X11265301Y-15806960D01*
X11265301Y-15806960D02*
X11255777Y-15787912D01*
X11255777Y-15787912D02*
X11255777Y-15768865D01*
X11255777Y-15768865D02*
X11265301Y-15749817D01*
X11265301Y-15749817D02*
X11284348Y-15740293D01*
X11284348Y-15740293D02*
X11331967Y-15740293D01*
X11331967Y-15740293D02*
X11351015Y-15730769D01*
X11446253Y-15683150D02*
X11446253Y-15883150D01*
X11446253Y-15692674D02*
X11465301Y-15683150D01*
X11465301Y-15683150D02*
X11503396Y-15683150D01*
X11503396Y-15683150D02*
X11522443Y-15692674D01*
X11522443Y-15692674D02*
X11531967Y-15702198D01*
X11531967Y-15702198D02*
X11541491Y-15721246D01*
X11541491Y-15721246D02*
X11541491Y-15778388D01*
X11541491Y-15778388D02*
X11531967Y-15797436D01*
X11531967Y-15797436D02*
X11522443Y-15806960D01*
X11522443Y-15806960D02*
X11503396Y-15816484D01*
X11503396Y-15816484D02*
X11465301Y-15816484D01*
X11465301Y-15816484D02*
X11446253Y-15806960D01*
X11627205Y-15797436D02*
X11636729Y-15806960D01*
X11636729Y-15806960D02*
X11627205Y-15816484D01*
X11627205Y-15816484D02*
X11617682Y-15806960D01*
X11617682Y-15806960D02*
X11627205Y-15797436D01*
X11627205Y-15797436D02*
X11627205Y-15816484D01*
X11627205Y-15692674D02*
X11636729Y-15702198D01*
X11636729Y-15702198D02*
X11627205Y-15711722D01*
X11627205Y-15711722D02*
X11617682Y-15702198D01*
X11617682Y-15702198D02*
X11627205Y-15692674D01*
X11627205Y-15692674D02*
X11627205Y-15711722D01*
D10*
X9965000Y-16130000D02*
X9995000Y-16160000D01*
X9995000Y-16130000D02*
X9965000Y-16160000D01*
D11*
X10293872Y-16036484D02*
X10312920Y-16036484D01*
X10312920Y-16036484D02*
X10331967Y-16046008D01*
X10331967Y-16046008D02*
X10341491Y-16055531D01*
X10341491Y-16055531D02*
X10351015Y-16074579D01*
X10351015Y-16074579D02*
X10360539Y-16112674D01*
X10360539Y-16112674D02*
X10360539Y-16160293D01*
X10360539Y-16160293D02*
X10351015Y-16198388D01*
X10351015Y-16198388D02*
X10341491Y-16217436D01*
X10341491Y-16217436D02*
X10331967Y-16226960D01*
X10331967Y-16226960D02*
X10312920Y-16236484D01*
X10312920Y-16236484D02*
X10293872Y-16236484D01*
X10293872Y-16236484D02*
X10274824Y-16226960D01*
X10274824Y-16226960D02*
X10265301Y-16217436D01*
X10265301Y-16217436D02*
X10255777Y-16198388D01*
X10255777Y-16198388D02*
X10246253Y-16160293D01*
X10246253Y-16160293D02*
X10246253Y-16112674D01*
X10246253Y-16112674D02*
X10255777Y-16074579D01*
X10255777Y-16074579D02*
X10265301Y-16055531D01*
X10265301Y-16055531D02*
X10274824Y-16046008D01*
X10274824Y-16046008D02*
X10293872Y-16036484D01*
X10446253Y-16217436D02*
X10455777Y-16226960D01*
X10455777Y-16226960D02*
X10446253Y-16236484D01*
X10446253Y-16236484D02*
X10436729Y-16226960D01*
X10436729Y-16226960D02*
X10446253Y-16217436D01*
X10446253Y-16217436D02*
X10446253Y-16236484D01*
X10522444Y-16036484D02*
X10646253Y-16036484D01*
X10646253Y-16036484D02*
X10579586Y-16112674D01*
X10579586Y-16112674D02*
X10608158Y-16112674D01*
X10608158Y-16112674D02*
X10627205Y-16122198D01*
X10627205Y-16122198D02*
X10636729Y-16131722D01*
X10636729Y-16131722D02*
X10646253Y-16150769D01*
X10646253Y-16150769D02*
X10646253Y-16198388D01*
X10646253Y-16198388D02*
X10636729Y-16217436D01*
X10636729Y-16217436D02*
X10627205Y-16226960D01*
X10627205Y-16226960D02*
X10608158Y-16236484D01*
X10608158Y-16236484D02*
X10551015Y-16236484D01*
X10551015Y-16236484D02*
X10531967Y-16226960D01*
X10531967Y-16226960D02*
X10522444Y-16217436D01*
X10770063Y-16036484D02*
X10789110Y-16036484D01*
X10789110Y-16036484D02*
X10808158Y-16046008D01*
X10808158Y-16046008D02*
X10817682Y-16055531D01*
X10817682Y-16055531D02*
X10827205Y-16074579D01*
X10827205Y-16074579D02*
X10836729Y-16112674D01*
X10836729Y-16112674D02*
X10836729Y-16160293D01*
X10836729Y-16160293D02*
X10827205Y-16198388D01*
X10827205Y-16198388D02*
X10817682Y-16217436D01*
X10817682Y-16217436D02*
X10808158Y-16226960D01*
X10808158Y-16226960D02*
X10789110Y-16236484D01*
X10789110Y-16236484D02*
X10770063Y-16236484D01*
X10770063Y-16236484D02*
X10751015Y-16226960D01*
X10751015Y-16226960D02*
X10741491Y-16217436D01*
X10741491Y-16217436D02*
X10731967Y-16198388D01*
X10731967Y-16198388D02*
X10722444Y-16160293D01*
X10722444Y-16160293D02*
X10722444Y-16112674D01*
X10722444Y-16112674D02*
X10731967Y-16074579D01*
X10731967Y-16074579D02*
X10741491Y-16055531D01*
X10741491Y-16055531D02*
X10751015Y-16046008D01*
X10751015Y-16046008D02*
X10770063Y-16036484D01*
X10960539Y-16036484D02*
X10979586Y-16036484D01*
X10979586Y-16036484D02*
X10998634Y-16046008D01*
X10998634Y-16046008D02*
X11008158Y-16055531D01*
X11008158Y-16055531D02*
X11017682Y-16074579D01*
X11017682Y-16074579D02*
X11027205Y-16112674D01*
X11027205Y-16112674D02*
X11027205Y-16160293D01*
X11027205Y-16160293D02*
X11017682Y-16198388D01*
X11017682Y-16198388D02*
X11008158Y-16217436D01*
X11008158Y-16217436D02*
X10998634Y-16226960D01*
X10998634Y-16226960D02*
X10979586Y-16236484D01*
X10979586Y-16236484D02*
X10960539Y-16236484D01*
X10960539Y-16236484D02*
X10941491Y-16226960D01*
X10941491Y-16226960D02*
X10931967Y-16217436D01*
X10931967Y-16217436D02*
X10922444Y-16198388D01*
X10922444Y-16198388D02*
X10912920Y-16160293D01*
X10912920Y-16160293D02*
X10912920Y-16112674D01*
X10912920Y-16112674D02*
X10922444Y-16074579D01*
X10922444Y-16074579D02*
X10931967Y-16055531D01*
X10931967Y-16055531D02*
X10941491Y-16046008D01*
X10941491Y-16046008D02*
X10960539Y-16036484D01*
X11112920Y-16236484D02*
X11112920Y-16103150D01*
X11112920Y-16122198D02*
X11122444Y-16112674D01*
X11122444Y-16112674D02*
X11141491Y-16103150D01*
X11141491Y-16103150D02*
X11170063Y-16103150D01*
X11170063Y-16103150D02*
X11189110Y-16112674D01*
X11189110Y-16112674D02*
X11198634Y-16131722D01*
X11198634Y-16131722D02*
X11198634Y-16236484D01*
X11198634Y-16131722D02*
X11208158Y-16112674D01*
X11208158Y-16112674D02*
X11227205Y-16103150D01*
X11227205Y-16103150D02*
X11255777Y-16103150D01*
X11255777Y-16103150D02*
X11274824Y-16112674D01*
X11274824Y-16112674D02*
X11284348Y-16131722D01*
X11284348Y-16131722D02*
X11284348Y-16236484D01*
X11379586Y-16236484D02*
X11379586Y-16103150D01*
X11379586Y-16122198D02*
X11389110Y-16112674D01*
X11389110Y-16112674D02*
X11408158Y-16103150D01*
X11408158Y-16103150D02*
X11436729Y-16103150D01*
X11436729Y-16103150D02*
X11455777Y-16112674D01*
X11455777Y-16112674D02*
X11465301Y-16131722D01*
X11465301Y-16131722D02*
X11465301Y-16236484D01*
X11465301Y-16131722D02*
X11474824Y-16112674D01*
X11474824Y-16112674D02*
X11493872Y-16103150D01*
X11493872Y-16103150D02*
X11522443Y-16103150D01*
X11522443Y-16103150D02*
X11541491Y-16112674D01*
X11541491Y-16112674D02*
X11551015Y-16131722D01*
X11551015Y-16131722D02*
X11551015Y-16236484D01*
X11941491Y-16026960D02*
X11770063Y-16284103D01*
X12198634Y-16036484D02*
X12217682Y-16036484D01*
X12217682Y-16036484D02*
X12236729Y-16046008D01*
X12236729Y-16046008D02*
X12246253Y-16055531D01*
X12246253Y-16055531D02*
X12255777Y-16074579D01*
X12255777Y-16074579D02*
X12265301Y-16112674D01*
X12265301Y-16112674D02*
X12265301Y-16160293D01*
X12265301Y-16160293D02*
X12255777Y-16198388D01*
X12255777Y-16198388D02*
X12246253Y-16217436D01*
X12246253Y-16217436D02*
X12236729Y-16226960D01*
X12236729Y-16226960D02*
X12217682Y-16236484D01*
X12217682Y-16236484D02*
X12198634Y-16236484D01*
X12198634Y-16236484D02*
X12179586Y-16226960D01*
X12179586Y-16226960D02*
X12170063Y-16217436D01*
X12170063Y-16217436D02*
X12160539Y-16198388D01*
X12160539Y-16198388D02*
X12151015Y-16160293D01*
X12151015Y-16160293D02*
X12151015Y-16112674D01*
X12151015Y-16112674D02*
X12160539Y-16074579D01*
X12160539Y-16074579D02*
X12170063Y-16055531D01*
X12170063Y-16055531D02*
X12179586Y-16046008D01*
X12179586Y-16046008D02*
X12198634Y-16036484D01*
X12351015Y-16217436D02*
X12360539Y-16226960D01*
X12360539Y-16226960D02*
X12351015Y-16236484D01*
X12351015Y-16236484D02*
X12341491Y-16226960D01*
X12341491Y-16226960D02*
X12351015Y-16217436D01*
X12351015Y-16217436D02*
X12351015Y-16236484D01*
X12484348Y-16036484D02*
X12503396Y-16036484D01*
X12503396Y-16036484D02*
X12522444Y-16046008D01*
X12522444Y-16046008D02*
X12531967Y-16055531D01*
X12531967Y-16055531D02*
X12541491Y-16074579D01*
X12541491Y-16074579D02*
X12551015Y-16112674D01*
X12551015Y-16112674D02*
X12551015Y-16160293D01*
X12551015Y-16160293D02*
X12541491Y-16198388D01*
X12541491Y-16198388D02*
X12531967Y-16217436D01*
X12531967Y-16217436D02*
X12522444Y-16226960D01*
X12522444Y-16226960D02*
X12503396Y-16236484D01*
X12503396Y-16236484D02*
X12484348Y-16236484D01*
X12484348Y-16236484D02*
X12465301Y-16226960D01*
X12465301Y-16226960D02*
X12455777Y-16217436D01*
X12455777Y-16217436D02*
X12446253Y-16198388D01*
X12446253Y-16198388D02*
X12436729Y-16160293D01*
X12436729Y-16160293D02*
X12436729Y-16112674D01*
X12436729Y-16112674D02*
X12446253Y-16074579D01*
X12446253Y-16074579D02*
X12455777Y-16055531D01*
X12455777Y-16055531D02*
X12465301Y-16046008D01*
X12465301Y-16046008D02*
X12484348Y-16036484D01*
X12741491Y-16236484D02*
X12627206Y-16236484D01*
X12684348Y-16236484D02*
X12684348Y-16036484D01*
X12684348Y-16036484D02*
X12665301Y-16065055D01*
X12665301Y-16065055D02*
X12646253Y-16084103D01*
X12646253Y-16084103D02*
X12627206Y-16093627D01*
X12931967Y-16236484D02*
X12817682Y-16236484D01*
X12874825Y-16236484D02*
X12874825Y-16036484D01*
X12874825Y-16036484D02*
X12855777Y-16065055D01*
X12855777Y-16065055D02*
X12836729Y-16084103D01*
X12836729Y-16084103D02*
X12817682Y-16093627D01*
X13046253Y-16122198D02*
X13027206Y-16112674D01*
X13027206Y-16112674D02*
X13017682Y-16103150D01*
X13017682Y-16103150D02*
X13008158Y-16084103D01*
X13008158Y-16084103D02*
X13008158Y-16074579D01*
X13008158Y-16074579D02*
X13017682Y-16055531D01*
X13017682Y-16055531D02*
X13027206Y-16046008D01*
X13027206Y-16046008D02*
X13046253Y-16036484D01*
X13046253Y-16036484D02*
X13084348Y-16036484D01*
X13084348Y-16036484D02*
X13103396Y-16046008D01*
X13103396Y-16046008D02*
X13112920Y-16055531D01*
X13112920Y-16055531D02*
X13122444Y-16074579D01*
X13122444Y-16074579D02*
X13122444Y-16084103D01*
X13122444Y-16084103D02*
X13112920Y-16103150D01*
X13112920Y-16103150D02*
X13103396Y-16112674D01*
X13103396Y-16112674D02*
X13084348Y-16122198D01*
X13084348Y-16122198D02*
X13046253Y-16122198D01*
X13046253Y-16122198D02*
X13027206Y-16131722D01*
X13027206Y-16131722D02*
X13017682Y-16141246D01*
X13017682Y-16141246D02*
X13008158Y-16160293D01*
X13008158Y-16160293D02*
X13008158Y-16198388D01*
X13008158Y-16198388D02*
X13017682Y-16217436D01*
X13017682Y-16217436D02*
X13027206Y-16226960D01*
X13027206Y-16226960D02*
X13046253Y-16236484D01*
X13046253Y-16236484D02*
X13084348Y-16236484D01*
X13084348Y-16236484D02*
X13103396Y-16226960D01*
X13103396Y-16226960D02*
X13112920Y-16217436D01*
X13112920Y-16217436D02*
X13122444Y-16198388D01*
X13122444Y-16198388D02*
X13122444Y-16160293D01*
X13122444Y-16160293D02*
X13112920Y-16141246D01*
X13112920Y-16141246D02*
X13103396Y-16131722D01*
X13103396Y-16131722D02*
X13084348Y-16122198D01*
X13198634Y-16036484D02*
X13198634Y-16074579D01*
X13274825Y-16036484D02*
X13274825Y-16074579D01*
X13570063Y-16312674D02*
X13560539Y-16303150D01*
X13560539Y-16303150D02*
X13541491Y-16274579D01*
X13541491Y-16274579D02*
X13531968Y-16255531D01*
X13531968Y-16255531D02*
X13522444Y-16226960D01*
X13522444Y-16226960D02*
X13512920Y-16179341D01*
X13512920Y-16179341D02*
X13512920Y-16141246D01*
X13512920Y-16141246D02*
X13522444Y-16093627D01*
X13522444Y-16093627D02*
X13531968Y-16065055D01*
X13531968Y-16065055D02*
X13541491Y-16046008D01*
X13541491Y-16046008D02*
X13560539Y-16017436D01*
X13560539Y-16017436D02*
X13570063Y-16007912D01*
X13636729Y-16055531D02*
X13646253Y-16046008D01*
X13646253Y-16046008D02*
X13665301Y-16036484D01*
X13665301Y-16036484D02*
X13712920Y-16036484D01*
X13712920Y-16036484D02*
X13731968Y-16046008D01*
X13731968Y-16046008D02*
X13741491Y-16055531D01*
X13741491Y-16055531D02*
X13751015Y-16074579D01*
X13751015Y-16074579D02*
X13751015Y-16093627D01*
X13751015Y-16093627D02*
X13741491Y-16122198D01*
X13741491Y-16122198D02*
X13627206Y-16236484D01*
X13627206Y-16236484D02*
X13751015Y-16236484D01*
X13865301Y-16122198D02*
X13846253Y-16112674D01*
X13846253Y-16112674D02*
X13836729Y-16103150D01*
X13836729Y-16103150D02*
X13827206Y-16084103D01*
X13827206Y-16084103D02*
X13827206Y-16074579D01*
X13827206Y-16074579D02*
X13836729Y-16055531D01*
X13836729Y-16055531D02*
X13846253Y-16046008D01*
X13846253Y-16046008D02*
X13865301Y-16036484D01*
X13865301Y-16036484D02*
X13903396Y-16036484D01*
X13903396Y-16036484D02*
X13922444Y-16046008D01*
X13922444Y-16046008D02*
X13931968Y-16055531D01*
X13931968Y-16055531D02*
X13941491Y-16074579D01*
X13941491Y-16074579D02*
X13941491Y-16084103D01*
X13941491Y-16084103D02*
X13931968Y-16103150D01*
X13931968Y-16103150D02*
X13922444Y-16112674D01*
X13922444Y-16112674D02*
X13903396Y-16122198D01*
X13903396Y-16122198D02*
X13865301Y-16122198D01*
X13865301Y-16122198D02*
X13846253Y-16131722D01*
X13846253Y-16131722D02*
X13836729Y-16141246D01*
X13836729Y-16141246D02*
X13827206Y-16160293D01*
X13827206Y-16160293D02*
X13827206Y-16198388D01*
X13827206Y-16198388D02*
X13836729Y-16217436D01*
X13836729Y-16217436D02*
X13846253Y-16226960D01*
X13846253Y-16226960D02*
X13865301Y-16236484D01*
X13865301Y-16236484D02*
X13903396Y-16236484D01*
X13903396Y-16236484D02*
X13922444Y-16226960D01*
X13922444Y-16226960D02*
X13931968Y-16217436D01*
X13931968Y-16217436D02*
X13941491Y-16198388D01*
X13941491Y-16198388D02*
X13941491Y-16160293D01*
X13941491Y-16160293D02*
X13931968Y-16141246D01*
X13931968Y-16141246D02*
X13922444Y-16131722D01*
X13922444Y-16131722D02*
X13903396Y-16122198D01*
X14065301Y-16036484D02*
X14084349Y-16036484D01*
X14084349Y-16036484D02*
X14103396Y-16046008D01*
X14103396Y-16046008D02*
X14112920Y-16055531D01*
X14112920Y-16055531D02*
X14122444Y-16074579D01*
X14122444Y-16074579D02*
X14131968Y-16112674D01*
X14131968Y-16112674D02*
X14131968Y-16160293D01*
X14131968Y-16160293D02*
X14122444Y-16198388D01*
X14122444Y-16198388D02*
X14112920Y-16217436D01*
X14112920Y-16217436D02*
X14103396Y-16226960D01*
X14103396Y-16226960D02*
X14084349Y-16236484D01*
X14084349Y-16236484D02*
X14065301Y-16236484D01*
X14065301Y-16236484D02*
X14046253Y-16226960D01*
X14046253Y-16226960D02*
X14036729Y-16217436D01*
X14036729Y-16217436D02*
X14027206Y-16198388D01*
X14027206Y-16198388D02*
X14017682Y-16160293D01*
X14017682Y-16160293D02*
X14017682Y-16112674D01*
X14017682Y-16112674D02*
X14027206Y-16074579D01*
X14027206Y-16074579D02*
X14036729Y-16055531D01*
X14036729Y-16055531D02*
X14046253Y-16046008D01*
X14046253Y-16046008D02*
X14065301Y-16036484D01*
X14370063Y-16236484D02*
X14370063Y-16036484D01*
X14455777Y-16236484D02*
X14455777Y-16131722D01*
X14455777Y-16131722D02*
X14446253Y-16112674D01*
X14446253Y-16112674D02*
X14427206Y-16103150D01*
X14427206Y-16103150D02*
X14398634Y-16103150D01*
X14398634Y-16103150D02*
X14379587Y-16112674D01*
X14379587Y-16112674D02*
X14370063Y-16122198D01*
X14579587Y-16236484D02*
X14560539Y-16226960D01*
X14560539Y-16226960D02*
X14551015Y-16217436D01*
X14551015Y-16217436D02*
X14541491Y-16198388D01*
X14541491Y-16198388D02*
X14541491Y-16141246D01*
X14541491Y-16141246D02*
X14551015Y-16122198D01*
X14551015Y-16122198D02*
X14560539Y-16112674D01*
X14560539Y-16112674D02*
X14579587Y-16103150D01*
X14579587Y-16103150D02*
X14608158Y-16103150D01*
X14608158Y-16103150D02*
X14627206Y-16112674D01*
X14627206Y-16112674D02*
X14636730Y-16122198D01*
X14636730Y-16122198D02*
X14646253Y-16141246D01*
X14646253Y-16141246D02*
X14646253Y-16198388D01*
X14646253Y-16198388D02*
X14636730Y-16217436D01*
X14636730Y-16217436D02*
X14627206Y-16226960D01*
X14627206Y-16226960D02*
X14608158Y-16236484D01*
X14608158Y-16236484D02*
X14579587Y-16236484D01*
X14760539Y-16236484D02*
X14741491Y-16226960D01*
X14741491Y-16226960D02*
X14731968Y-16207912D01*
X14731968Y-16207912D02*
X14731968Y-16036484D01*
X14912920Y-16226960D02*
X14893872Y-16236484D01*
X14893872Y-16236484D02*
X14855777Y-16236484D01*
X14855777Y-16236484D02*
X14836730Y-16226960D01*
X14836730Y-16226960D02*
X14827206Y-16207912D01*
X14827206Y-16207912D02*
X14827206Y-16131722D01*
X14827206Y-16131722D02*
X14836730Y-16112674D01*
X14836730Y-16112674D02*
X14855777Y-16103150D01*
X14855777Y-16103150D02*
X14893872Y-16103150D01*
X14893872Y-16103150D02*
X14912920Y-16112674D01*
X14912920Y-16112674D02*
X14922444Y-16131722D01*
X14922444Y-16131722D02*
X14922444Y-16150769D01*
X14922444Y-16150769D02*
X14827206Y-16169817D01*
X14998634Y-16226960D02*
X15017682Y-16236484D01*
X15017682Y-16236484D02*
X15055777Y-16236484D01*
X15055777Y-16236484D02*
X15074825Y-16226960D01*
X15074825Y-16226960D02*
X15084349Y-16207912D01*
X15084349Y-16207912D02*
X15084349Y-16198388D01*
X15084349Y-16198388D02*
X15074825Y-16179341D01*
X15074825Y-16179341D02*
X15055777Y-16169817D01*
X15055777Y-16169817D02*
X15027206Y-16169817D01*
X15027206Y-16169817D02*
X15008158Y-16160293D01*
X15008158Y-16160293D02*
X14998634Y-16141246D01*
X14998634Y-16141246D02*
X14998634Y-16131722D01*
X14998634Y-16131722D02*
X15008158Y-16112674D01*
X15008158Y-16112674D02*
X15027206Y-16103150D01*
X15027206Y-16103150D02*
X15055777Y-16103150D01*
X15055777Y-16103150D02*
X15074825Y-16112674D01*
X15151015Y-16312674D02*
X15160539Y-16303150D01*
X15160539Y-16303150D02*
X15179587Y-16274579D01*
X15179587Y-16274579D02*
X15189111Y-16255531D01*
X15189111Y-16255531D02*
X15198634Y-16226960D01*
X15198634Y-16226960D02*
X15208158Y-16179341D01*
X15208158Y-16179341D02*
X15208158Y-16141246D01*
X15208158Y-16141246D02*
X15198634Y-16093627D01*
X15198634Y-16093627D02*
X15189111Y-16065055D01*
X15189111Y-16065055D02*
X15179587Y-16046008D01*
X15179587Y-16046008D02*
X15160539Y-16017436D01*
X15160539Y-16017436D02*
X15151015Y-16007912D01*
D10*
X9995000Y-16409000D02*
G75*
G02*
X9965000Y-16409000I-15000J0D01*
G01*
X9965000Y-16409000D02*
G75*
G02*
X9995000Y-16409000I15000J0D01*
G01*
D11*
X10293872Y-16300484D02*
X10312920Y-16300484D01*
X10312920Y-16300484D02*
X10331967Y-16310008D01*
X10331967Y-16310008D02*
X10341491Y-16319531D01*
X10341491Y-16319531D02*
X10351015Y-16338579D01*
X10351015Y-16338579D02*
X10360539Y-16376674D01*
X10360539Y-16376674D02*
X10360539Y-16424293D01*
X10360539Y-16424293D02*
X10351015Y-16462388D01*
X10351015Y-16462388D02*
X10341491Y-16481436D01*
X10341491Y-16481436D02*
X10331967Y-16490960D01*
X10331967Y-16490960D02*
X10312920Y-16500484D01*
X10312920Y-16500484D02*
X10293872Y-16500484D01*
X10293872Y-16500484D02*
X10274824Y-16490960D01*
X10274824Y-16490960D02*
X10265301Y-16481436D01*
X10265301Y-16481436D02*
X10255777Y-16462388D01*
X10255777Y-16462388D02*
X10246253Y-16424293D01*
X10246253Y-16424293D02*
X10246253Y-16376674D01*
X10246253Y-16376674D02*
X10255777Y-16338579D01*
X10255777Y-16338579D02*
X10265301Y-16319531D01*
X10265301Y-16319531D02*
X10274824Y-16310008D01*
X10274824Y-16310008D02*
X10293872Y-16300484D01*
X10446253Y-16481436D02*
X10455777Y-16490960D01*
X10455777Y-16490960D02*
X10446253Y-16500484D01*
X10446253Y-16500484D02*
X10436729Y-16490960D01*
X10436729Y-16490960D02*
X10446253Y-16481436D01*
X10446253Y-16481436D02*
X10446253Y-16500484D01*
X10522444Y-16300484D02*
X10646253Y-16300484D01*
X10646253Y-16300484D02*
X10579586Y-16376674D01*
X10579586Y-16376674D02*
X10608158Y-16376674D01*
X10608158Y-16376674D02*
X10627205Y-16386198D01*
X10627205Y-16386198D02*
X10636729Y-16395722D01*
X10636729Y-16395722D02*
X10646253Y-16414769D01*
X10646253Y-16414769D02*
X10646253Y-16462388D01*
X10646253Y-16462388D02*
X10636729Y-16481436D01*
X10636729Y-16481436D02*
X10627205Y-16490960D01*
X10627205Y-16490960D02*
X10608158Y-16500484D01*
X10608158Y-16500484D02*
X10551015Y-16500484D01*
X10551015Y-16500484D02*
X10531967Y-16490960D01*
X10531967Y-16490960D02*
X10522444Y-16481436D01*
X10770063Y-16300484D02*
X10789110Y-16300484D01*
X10789110Y-16300484D02*
X10808158Y-16310008D01*
X10808158Y-16310008D02*
X10817682Y-16319531D01*
X10817682Y-16319531D02*
X10827205Y-16338579D01*
X10827205Y-16338579D02*
X10836729Y-16376674D01*
X10836729Y-16376674D02*
X10836729Y-16424293D01*
X10836729Y-16424293D02*
X10827205Y-16462388D01*
X10827205Y-16462388D02*
X10817682Y-16481436D01*
X10817682Y-16481436D02*
X10808158Y-16490960D01*
X10808158Y-16490960D02*
X10789110Y-16500484D01*
X10789110Y-16500484D02*
X10770063Y-16500484D01*
X10770063Y-16500484D02*
X10751015Y-16490960D01*
X10751015Y-16490960D02*
X10741491Y-16481436D01*
X10741491Y-16481436D02*
X10731967Y-16462388D01*
X10731967Y-16462388D02*
X10722444Y-16424293D01*
X10722444Y-16424293D02*
X10722444Y-16376674D01*
X10722444Y-16376674D02*
X10731967Y-16338579D01*
X10731967Y-16338579D02*
X10741491Y-16319531D01*
X10741491Y-16319531D02*
X10751015Y-16310008D01*
X10751015Y-16310008D02*
X10770063Y-16300484D01*
X10960539Y-16300484D02*
X10979586Y-16300484D01*
X10979586Y-16300484D02*
X10998634Y-16310008D01*
X10998634Y-16310008D02*
X11008158Y-16319531D01*
X11008158Y-16319531D02*
X11017682Y-16338579D01*
X11017682Y-16338579D02*
X11027205Y-16376674D01*
X11027205Y-16376674D02*
X11027205Y-16424293D01*
X11027205Y-16424293D02*
X11017682Y-16462388D01*
X11017682Y-16462388D02*
X11008158Y-16481436D01*
X11008158Y-16481436D02*
X10998634Y-16490960D01*
X10998634Y-16490960D02*
X10979586Y-16500484D01*
X10979586Y-16500484D02*
X10960539Y-16500484D01*
X10960539Y-16500484D02*
X10941491Y-16490960D01*
X10941491Y-16490960D02*
X10931967Y-16481436D01*
X10931967Y-16481436D02*
X10922444Y-16462388D01*
X10922444Y-16462388D02*
X10912920Y-16424293D01*
X10912920Y-16424293D02*
X10912920Y-16376674D01*
X10912920Y-16376674D02*
X10922444Y-16338579D01*
X10922444Y-16338579D02*
X10931967Y-16319531D01*
X10931967Y-16319531D02*
X10941491Y-16310008D01*
X10941491Y-16310008D02*
X10960539Y-16300484D01*
X11112920Y-16500484D02*
X11112920Y-16367150D01*
X11112920Y-16386198D02*
X11122444Y-16376674D01*
X11122444Y-16376674D02*
X11141491Y-16367150D01*
X11141491Y-16367150D02*
X11170063Y-16367150D01*
X11170063Y-16367150D02*
X11189110Y-16376674D01*
X11189110Y-16376674D02*
X11198634Y-16395722D01*
X11198634Y-16395722D02*
X11198634Y-16500484D01*
X11198634Y-16395722D02*
X11208158Y-16376674D01*
X11208158Y-16376674D02*
X11227205Y-16367150D01*
X11227205Y-16367150D02*
X11255777Y-16367150D01*
X11255777Y-16367150D02*
X11274824Y-16376674D01*
X11274824Y-16376674D02*
X11284348Y-16395722D01*
X11284348Y-16395722D02*
X11284348Y-16500484D01*
X11379586Y-16500484D02*
X11379586Y-16367150D01*
X11379586Y-16386198D02*
X11389110Y-16376674D01*
X11389110Y-16376674D02*
X11408158Y-16367150D01*
X11408158Y-16367150D02*
X11436729Y-16367150D01*
X11436729Y-16367150D02*
X11455777Y-16376674D01*
X11455777Y-16376674D02*
X11465301Y-16395722D01*
X11465301Y-16395722D02*
X11465301Y-16500484D01*
X11465301Y-16395722D02*
X11474824Y-16376674D01*
X11474824Y-16376674D02*
X11493872Y-16367150D01*
X11493872Y-16367150D02*
X11522443Y-16367150D01*
X11522443Y-16367150D02*
X11541491Y-16376674D01*
X11541491Y-16376674D02*
X11551015Y-16395722D01*
X11551015Y-16395722D02*
X11551015Y-16500484D01*
X11941491Y-16290960D02*
X11770063Y-16548103D01*
X12198634Y-16300484D02*
X12217682Y-16300484D01*
X12217682Y-16300484D02*
X12236729Y-16310008D01*
X12236729Y-16310008D02*
X12246253Y-16319531D01*
X12246253Y-16319531D02*
X12255777Y-16338579D01*
X12255777Y-16338579D02*
X12265301Y-16376674D01*
X12265301Y-16376674D02*
X12265301Y-16424293D01*
X12265301Y-16424293D02*
X12255777Y-16462388D01*
X12255777Y-16462388D02*
X12246253Y-16481436D01*
X12246253Y-16481436D02*
X12236729Y-16490960D01*
X12236729Y-16490960D02*
X12217682Y-16500484D01*
X12217682Y-16500484D02*
X12198634Y-16500484D01*
X12198634Y-16500484D02*
X12179586Y-16490960D01*
X12179586Y-16490960D02*
X12170063Y-16481436D01*
X12170063Y-16481436D02*
X12160539Y-16462388D01*
X12160539Y-16462388D02*
X12151015Y-16424293D01*
X12151015Y-16424293D02*
X12151015Y-16376674D01*
X12151015Y-16376674D02*
X12160539Y-16338579D01*
X12160539Y-16338579D02*
X12170063Y-16319531D01*
X12170063Y-16319531D02*
X12179586Y-16310008D01*
X12179586Y-16310008D02*
X12198634Y-16300484D01*
X12351015Y-16481436D02*
X12360539Y-16490960D01*
X12360539Y-16490960D02*
X12351015Y-16500484D01*
X12351015Y-16500484D02*
X12341491Y-16490960D01*
X12341491Y-16490960D02*
X12351015Y-16481436D01*
X12351015Y-16481436D02*
X12351015Y-16500484D01*
X12484348Y-16300484D02*
X12503396Y-16300484D01*
X12503396Y-16300484D02*
X12522444Y-16310008D01*
X12522444Y-16310008D02*
X12531967Y-16319531D01*
X12531967Y-16319531D02*
X12541491Y-16338579D01*
X12541491Y-16338579D02*
X12551015Y-16376674D01*
X12551015Y-16376674D02*
X12551015Y-16424293D01*
X12551015Y-16424293D02*
X12541491Y-16462388D01*
X12541491Y-16462388D02*
X12531967Y-16481436D01*
X12531967Y-16481436D02*
X12522444Y-16490960D01*
X12522444Y-16490960D02*
X12503396Y-16500484D01*
X12503396Y-16500484D02*
X12484348Y-16500484D01*
X12484348Y-16500484D02*
X12465301Y-16490960D01*
X12465301Y-16490960D02*
X12455777Y-16481436D01*
X12455777Y-16481436D02*
X12446253Y-16462388D01*
X12446253Y-16462388D02*
X12436729Y-16424293D01*
X12436729Y-16424293D02*
X12436729Y-16376674D01*
X12436729Y-16376674D02*
X12446253Y-16338579D01*
X12446253Y-16338579D02*
X12455777Y-16319531D01*
X12455777Y-16319531D02*
X12465301Y-16310008D01*
X12465301Y-16310008D02*
X12484348Y-16300484D01*
X12741491Y-16500484D02*
X12627206Y-16500484D01*
X12684348Y-16500484D02*
X12684348Y-16300484D01*
X12684348Y-16300484D02*
X12665301Y-16329055D01*
X12665301Y-16329055D02*
X12646253Y-16348103D01*
X12646253Y-16348103D02*
X12627206Y-16357627D01*
X12931967Y-16500484D02*
X12817682Y-16500484D01*
X12874825Y-16500484D02*
X12874825Y-16300484D01*
X12874825Y-16300484D02*
X12855777Y-16329055D01*
X12855777Y-16329055D02*
X12836729Y-16348103D01*
X12836729Y-16348103D02*
X12817682Y-16357627D01*
X13046253Y-16386198D02*
X13027206Y-16376674D01*
X13027206Y-16376674D02*
X13017682Y-16367150D01*
X13017682Y-16367150D02*
X13008158Y-16348103D01*
X13008158Y-16348103D02*
X13008158Y-16338579D01*
X13008158Y-16338579D02*
X13017682Y-16319531D01*
X13017682Y-16319531D02*
X13027206Y-16310008D01*
X13027206Y-16310008D02*
X13046253Y-16300484D01*
X13046253Y-16300484D02*
X13084348Y-16300484D01*
X13084348Y-16300484D02*
X13103396Y-16310008D01*
X13103396Y-16310008D02*
X13112920Y-16319531D01*
X13112920Y-16319531D02*
X13122444Y-16338579D01*
X13122444Y-16338579D02*
X13122444Y-16348103D01*
X13122444Y-16348103D02*
X13112920Y-16367150D01*
X13112920Y-16367150D02*
X13103396Y-16376674D01*
X13103396Y-16376674D02*
X13084348Y-16386198D01*
X13084348Y-16386198D02*
X13046253Y-16386198D01*
X13046253Y-16386198D02*
X13027206Y-16395722D01*
X13027206Y-16395722D02*
X13017682Y-16405246D01*
X13017682Y-16405246D02*
X13008158Y-16424293D01*
X13008158Y-16424293D02*
X13008158Y-16462388D01*
X13008158Y-16462388D02*
X13017682Y-16481436D01*
X13017682Y-16481436D02*
X13027206Y-16490960D01*
X13027206Y-16490960D02*
X13046253Y-16500484D01*
X13046253Y-16500484D02*
X13084348Y-16500484D01*
X13084348Y-16500484D02*
X13103396Y-16490960D01*
X13103396Y-16490960D02*
X13112920Y-16481436D01*
X13112920Y-16481436D02*
X13122444Y-16462388D01*
X13122444Y-16462388D02*
X13122444Y-16424293D01*
X13122444Y-16424293D02*
X13112920Y-16405246D01*
X13112920Y-16405246D02*
X13103396Y-16395722D01*
X13103396Y-16395722D02*
X13084348Y-16386198D01*
X13198634Y-16300484D02*
X13198634Y-16338579D01*
X13274825Y-16300484D02*
X13274825Y-16338579D01*
X13570063Y-16576674D02*
X13560539Y-16567150D01*
X13560539Y-16567150D02*
X13541491Y-16538579D01*
X13541491Y-16538579D02*
X13531968Y-16519531D01*
X13531968Y-16519531D02*
X13522444Y-16490960D01*
X13522444Y-16490960D02*
X13512920Y-16443341D01*
X13512920Y-16443341D02*
X13512920Y-16405246D01*
X13512920Y-16405246D02*
X13522444Y-16357627D01*
X13522444Y-16357627D02*
X13531968Y-16329055D01*
X13531968Y-16329055D02*
X13541491Y-16310008D01*
X13541491Y-16310008D02*
X13560539Y-16281436D01*
X13560539Y-16281436D02*
X13570063Y-16271912D01*
X13731968Y-16367150D02*
X13731968Y-16500484D01*
X13684348Y-16290960D02*
X13636729Y-16433817D01*
X13636729Y-16433817D02*
X13760539Y-16433817D01*
X13989110Y-16500484D02*
X13989110Y-16300484D01*
X14074825Y-16500484D02*
X14074825Y-16395722D01*
X14074825Y-16395722D02*
X14065301Y-16376674D01*
X14065301Y-16376674D02*
X14046253Y-16367150D01*
X14046253Y-16367150D02*
X14017682Y-16367150D01*
X14017682Y-16367150D02*
X13998634Y-16376674D01*
X13998634Y-16376674D02*
X13989110Y-16386198D01*
X14198634Y-16500484D02*
X14179587Y-16490960D01*
X14179587Y-16490960D02*
X14170063Y-16481436D01*
X14170063Y-16481436D02*
X14160539Y-16462388D01*
X14160539Y-16462388D02*
X14160539Y-16405246D01*
X14160539Y-16405246D02*
X14170063Y-16386198D01*
X14170063Y-16386198D02*
X14179587Y-16376674D01*
X14179587Y-16376674D02*
X14198634Y-16367150D01*
X14198634Y-16367150D02*
X14227206Y-16367150D01*
X14227206Y-16367150D02*
X14246253Y-16376674D01*
X14246253Y-16376674D02*
X14255777Y-16386198D01*
X14255777Y-16386198D02*
X14265301Y-16405246D01*
X14265301Y-16405246D02*
X14265301Y-16462388D01*
X14265301Y-16462388D02*
X14255777Y-16481436D01*
X14255777Y-16481436D02*
X14246253Y-16490960D01*
X14246253Y-16490960D02*
X14227206Y-16500484D01*
X14227206Y-16500484D02*
X14198634Y-16500484D01*
X14379587Y-16500484D02*
X14360539Y-16490960D01*
X14360539Y-16490960D02*
X14351015Y-16471912D01*
X14351015Y-16471912D02*
X14351015Y-16300484D01*
X14531968Y-16490960D02*
X14512920Y-16500484D01*
X14512920Y-16500484D02*
X14474825Y-16500484D01*
X14474825Y-16500484D02*
X14455777Y-16490960D01*
X14455777Y-16490960D02*
X14446253Y-16471912D01*
X14446253Y-16471912D02*
X14446253Y-16395722D01*
X14446253Y-16395722D02*
X14455777Y-16376674D01*
X14455777Y-16376674D02*
X14474825Y-16367150D01*
X14474825Y-16367150D02*
X14512920Y-16367150D01*
X14512920Y-16367150D02*
X14531968Y-16376674D01*
X14531968Y-16376674D02*
X14541491Y-16395722D01*
X14541491Y-16395722D02*
X14541491Y-16414769D01*
X14541491Y-16414769D02*
X14446253Y-16433817D01*
X14617682Y-16490960D02*
X14636730Y-16500484D01*
X14636730Y-16500484D02*
X14674825Y-16500484D01*
X14674825Y-16500484D02*
X14693872Y-16490960D01*
X14693872Y-16490960D02*
X14703396Y-16471912D01*
X14703396Y-16471912D02*
X14703396Y-16462388D01*
X14703396Y-16462388D02*
X14693872Y-16443341D01*
X14693872Y-16443341D02*
X14674825Y-16433817D01*
X14674825Y-16433817D02*
X14646253Y-16433817D01*
X14646253Y-16433817D02*
X14627206Y-16424293D01*
X14627206Y-16424293D02*
X14617682Y-16405246D01*
X14617682Y-16405246D02*
X14617682Y-16395722D01*
X14617682Y-16395722D02*
X14627206Y-16376674D01*
X14627206Y-16376674D02*
X14646253Y-16367150D01*
X14646253Y-16367150D02*
X14674825Y-16367150D01*
X14674825Y-16367150D02*
X14693872Y-16376674D01*
X14770063Y-16576674D02*
X14779587Y-16567150D01*
X14779587Y-16567150D02*
X14798634Y-16538579D01*
X14798634Y-16538579D02*
X14808158Y-16519531D01*
X14808158Y-16519531D02*
X14817682Y-16490960D01*
X14817682Y-16490960D02*
X14827206Y-16443341D01*
X14827206Y-16443341D02*
X14827206Y-16405246D01*
X14827206Y-16405246D02*
X14817682Y-16357627D01*
X14817682Y-16357627D02*
X14808158Y-16329055D01*
X14808158Y-16329055D02*
X14798634Y-16310008D01*
X14798634Y-16310008D02*
X14779587Y-16281436D01*
X14779587Y-16281436D02*
X14770063Y-16271912D01*
D10*
X9975000Y-16653000D02*
X9975000Y-16693000D01*
X9955000Y-16673000D02*
X9995000Y-16673000D01*
D11*
X10293872Y-16564484D02*
X10312920Y-16564484D01*
X10312920Y-16564484D02*
X10331967Y-16574008D01*
X10331967Y-16574008D02*
X10341491Y-16583531D01*
X10341491Y-16583531D02*
X10351015Y-16602579D01*
X10351015Y-16602579D02*
X10360539Y-16640674D01*
X10360539Y-16640674D02*
X10360539Y-16688293D01*
X10360539Y-16688293D02*
X10351015Y-16726388D01*
X10351015Y-16726388D02*
X10341491Y-16745436D01*
X10341491Y-16745436D02*
X10331967Y-16754960D01*
X10331967Y-16754960D02*
X10312920Y-16764484D01*
X10312920Y-16764484D02*
X10293872Y-16764484D01*
X10293872Y-16764484D02*
X10274824Y-16754960D01*
X10274824Y-16754960D02*
X10265301Y-16745436D01*
X10265301Y-16745436D02*
X10255777Y-16726388D01*
X10255777Y-16726388D02*
X10246253Y-16688293D01*
X10246253Y-16688293D02*
X10246253Y-16640674D01*
X10246253Y-16640674D02*
X10255777Y-16602579D01*
X10255777Y-16602579D02*
X10265301Y-16583531D01*
X10265301Y-16583531D02*
X10274824Y-16574008D01*
X10274824Y-16574008D02*
X10293872Y-16564484D01*
X10446253Y-16745436D02*
X10455777Y-16754960D01*
X10455777Y-16754960D02*
X10446253Y-16764484D01*
X10446253Y-16764484D02*
X10436729Y-16754960D01*
X10436729Y-16754960D02*
X10446253Y-16745436D01*
X10446253Y-16745436D02*
X10446253Y-16764484D01*
X10627205Y-16631150D02*
X10627205Y-16764484D01*
X10579586Y-16554960D02*
X10531967Y-16697817D01*
X10531967Y-16697817D02*
X10655777Y-16697817D01*
X10770063Y-16564484D02*
X10789110Y-16564484D01*
X10789110Y-16564484D02*
X10808158Y-16574008D01*
X10808158Y-16574008D02*
X10817682Y-16583531D01*
X10817682Y-16583531D02*
X10827205Y-16602579D01*
X10827205Y-16602579D02*
X10836729Y-16640674D01*
X10836729Y-16640674D02*
X10836729Y-16688293D01*
X10836729Y-16688293D02*
X10827205Y-16726388D01*
X10827205Y-16726388D02*
X10817682Y-16745436D01*
X10817682Y-16745436D02*
X10808158Y-16754960D01*
X10808158Y-16754960D02*
X10789110Y-16764484D01*
X10789110Y-16764484D02*
X10770063Y-16764484D01*
X10770063Y-16764484D02*
X10751015Y-16754960D01*
X10751015Y-16754960D02*
X10741491Y-16745436D01*
X10741491Y-16745436D02*
X10731967Y-16726388D01*
X10731967Y-16726388D02*
X10722444Y-16688293D01*
X10722444Y-16688293D02*
X10722444Y-16640674D01*
X10722444Y-16640674D02*
X10731967Y-16602579D01*
X10731967Y-16602579D02*
X10741491Y-16583531D01*
X10741491Y-16583531D02*
X10751015Y-16574008D01*
X10751015Y-16574008D02*
X10770063Y-16564484D01*
X10960539Y-16564484D02*
X10979586Y-16564484D01*
X10979586Y-16564484D02*
X10998634Y-16574008D01*
X10998634Y-16574008D02*
X11008158Y-16583531D01*
X11008158Y-16583531D02*
X11017682Y-16602579D01*
X11017682Y-16602579D02*
X11027205Y-16640674D01*
X11027205Y-16640674D02*
X11027205Y-16688293D01*
X11027205Y-16688293D02*
X11017682Y-16726388D01*
X11017682Y-16726388D02*
X11008158Y-16745436D01*
X11008158Y-16745436D02*
X10998634Y-16754960D01*
X10998634Y-16754960D02*
X10979586Y-16764484D01*
X10979586Y-16764484D02*
X10960539Y-16764484D01*
X10960539Y-16764484D02*
X10941491Y-16754960D01*
X10941491Y-16754960D02*
X10931967Y-16745436D01*
X10931967Y-16745436D02*
X10922444Y-16726388D01*
X10922444Y-16726388D02*
X10912920Y-16688293D01*
X10912920Y-16688293D02*
X10912920Y-16640674D01*
X10912920Y-16640674D02*
X10922444Y-16602579D01*
X10922444Y-16602579D02*
X10931967Y-16583531D01*
X10931967Y-16583531D02*
X10941491Y-16574008D01*
X10941491Y-16574008D02*
X10960539Y-16564484D01*
X11112920Y-16764484D02*
X11112920Y-16631150D01*
X11112920Y-16650198D02*
X11122444Y-16640674D01*
X11122444Y-16640674D02*
X11141491Y-16631150D01*
X11141491Y-16631150D02*
X11170063Y-16631150D01*
X11170063Y-16631150D02*
X11189110Y-16640674D01*
X11189110Y-16640674D02*
X11198634Y-16659722D01*
X11198634Y-16659722D02*
X11198634Y-16764484D01*
X11198634Y-16659722D02*
X11208158Y-16640674D01*
X11208158Y-16640674D02*
X11227205Y-16631150D01*
X11227205Y-16631150D02*
X11255777Y-16631150D01*
X11255777Y-16631150D02*
X11274824Y-16640674D01*
X11274824Y-16640674D02*
X11284348Y-16659722D01*
X11284348Y-16659722D02*
X11284348Y-16764484D01*
X11379586Y-16764484D02*
X11379586Y-16631150D01*
X11379586Y-16650198D02*
X11389110Y-16640674D01*
X11389110Y-16640674D02*
X11408158Y-16631150D01*
X11408158Y-16631150D02*
X11436729Y-16631150D01*
X11436729Y-16631150D02*
X11455777Y-16640674D01*
X11455777Y-16640674D02*
X11465301Y-16659722D01*
X11465301Y-16659722D02*
X11465301Y-16764484D01*
X11465301Y-16659722D02*
X11474824Y-16640674D01*
X11474824Y-16640674D02*
X11493872Y-16631150D01*
X11493872Y-16631150D02*
X11522443Y-16631150D01*
X11522443Y-16631150D02*
X11541491Y-16640674D01*
X11541491Y-16640674D02*
X11551015Y-16659722D01*
X11551015Y-16659722D02*
X11551015Y-16764484D01*
X11941491Y-16554960D02*
X11770063Y-16812103D01*
X12198634Y-16564484D02*
X12217682Y-16564484D01*
X12217682Y-16564484D02*
X12236729Y-16574008D01*
X12236729Y-16574008D02*
X12246253Y-16583531D01*
X12246253Y-16583531D02*
X12255777Y-16602579D01*
X12255777Y-16602579D02*
X12265301Y-16640674D01*
X12265301Y-16640674D02*
X12265301Y-16688293D01*
X12265301Y-16688293D02*
X12255777Y-16726388D01*
X12255777Y-16726388D02*
X12246253Y-16745436D01*
X12246253Y-16745436D02*
X12236729Y-16754960D01*
X12236729Y-16754960D02*
X12217682Y-16764484D01*
X12217682Y-16764484D02*
X12198634Y-16764484D01*
X12198634Y-16764484D02*
X12179586Y-16754960D01*
X12179586Y-16754960D02*
X12170063Y-16745436D01*
X12170063Y-16745436D02*
X12160539Y-16726388D01*
X12160539Y-16726388D02*
X12151015Y-16688293D01*
X12151015Y-16688293D02*
X12151015Y-16640674D01*
X12151015Y-16640674D02*
X12160539Y-16602579D01*
X12160539Y-16602579D02*
X12170063Y-16583531D01*
X12170063Y-16583531D02*
X12179586Y-16574008D01*
X12179586Y-16574008D02*
X12198634Y-16564484D01*
X12351015Y-16745436D02*
X12360539Y-16754960D01*
X12360539Y-16754960D02*
X12351015Y-16764484D01*
X12351015Y-16764484D02*
X12341491Y-16754960D01*
X12341491Y-16754960D02*
X12351015Y-16745436D01*
X12351015Y-16745436D02*
X12351015Y-16764484D01*
X12484348Y-16564484D02*
X12503396Y-16564484D01*
X12503396Y-16564484D02*
X12522444Y-16574008D01*
X12522444Y-16574008D02*
X12531967Y-16583531D01*
X12531967Y-16583531D02*
X12541491Y-16602579D01*
X12541491Y-16602579D02*
X12551015Y-16640674D01*
X12551015Y-16640674D02*
X12551015Y-16688293D01*
X12551015Y-16688293D02*
X12541491Y-16726388D01*
X12541491Y-16726388D02*
X12531967Y-16745436D01*
X12531967Y-16745436D02*
X12522444Y-16754960D01*
X12522444Y-16754960D02*
X12503396Y-16764484D01*
X12503396Y-16764484D02*
X12484348Y-16764484D01*
X12484348Y-16764484D02*
X12465301Y-16754960D01*
X12465301Y-16754960D02*
X12455777Y-16745436D01*
X12455777Y-16745436D02*
X12446253Y-16726388D01*
X12446253Y-16726388D02*
X12436729Y-16688293D01*
X12436729Y-16688293D02*
X12436729Y-16640674D01*
X12436729Y-16640674D02*
X12446253Y-16602579D01*
X12446253Y-16602579D02*
X12455777Y-16583531D01*
X12455777Y-16583531D02*
X12465301Y-16574008D01*
X12465301Y-16574008D02*
X12484348Y-16564484D01*
X12741491Y-16764484D02*
X12627206Y-16764484D01*
X12684348Y-16764484D02*
X12684348Y-16564484D01*
X12684348Y-16564484D02*
X12665301Y-16593055D01*
X12665301Y-16593055D02*
X12646253Y-16612103D01*
X12646253Y-16612103D02*
X12627206Y-16621627D01*
X12922444Y-16564484D02*
X12827206Y-16564484D01*
X12827206Y-16564484D02*
X12817682Y-16659722D01*
X12817682Y-16659722D02*
X12827206Y-16650198D01*
X12827206Y-16650198D02*
X12846253Y-16640674D01*
X12846253Y-16640674D02*
X12893872Y-16640674D01*
X12893872Y-16640674D02*
X12912920Y-16650198D01*
X12912920Y-16650198D02*
X12922444Y-16659722D01*
X12922444Y-16659722D02*
X12931967Y-16678769D01*
X12931967Y-16678769D02*
X12931967Y-16726388D01*
X12931967Y-16726388D02*
X12922444Y-16745436D01*
X12922444Y-16745436D02*
X12912920Y-16754960D01*
X12912920Y-16754960D02*
X12893872Y-16764484D01*
X12893872Y-16764484D02*
X12846253Y-16764484D01*
X12846253Y-16764484D02*
X12827206Y-16754960D01*
X12827206Y-16754960D02*
X12817682Y-16745436D01*
X12998634Y-16564484D02*
X13131967Y-16564484D01*
X13131967Y-16564484D02*
X13046253Y-16764484D01*
X13198634Y-16564484D02*
X13198634Y-16602579D01*
X13274825Y-16564484D02*
X13274825Y-16602579D01*
X13570063Y-16840674D02*
X13560539Y-16831150D01*
X13560539Y-16831150D02*
X13541491Y-16802579D01*
X13541491Y-16802579D02*
X13531968Y-16783531D01*
X13531968Y-16783531D02*
X13522444Y-16754960D01*
X13522444Y-16754960D02*
X13512920Y-16707341D01*
X13512920Y-16707341D02*
X13512920Y-16669246D01*
X13512920Y-16669246D02*
X13522444Y-16621627D01*
X13522444Y-16621627D02*
X13531968Y-16593055D01*
X13531968Y-16593055D02*
X13541491Y-16574008D01*
X13541491Y-16574008D02*
X13560539Y-16545436D01*
X13560539Y-16545436D02*
X13570063Y-16535912D01*
X13731968Y-16631150D02*
X13731968Y-16764484D01*
X13684348Y-16554960D02*
X13636729Y-16697817D01*
X13636729Y-16697817D02*
X13760539Y-16697817D01*
X13989110Y-16764484D02*
X13989110Y-16564484D01*
X14074825Y-16764484D02*
X14074825Y-16659722D01*
X14074825Y-16659722D02*
X14065301Y-16640674D01*
X14065301Y-16640674D02*
X14046253Y-16631150D01*
X14046253Y-16631150D02*
X14017682Y-16631150D01*
X14017682Y-16631150D02*
X13998634Y-16640674D01*
X13998634Y-16640674D02*
X13989110Y-16650198D01*
X14198634Y-16764484D02*
X14179587Y-16754960D01*
X14179587Y-16754960D02*
X14170063Y-16745436D01*
X14170063Y-16745436D02*
X14160539Y-16726388D01*
X14160539Y-16726388D02*
X14160539Y-16669246D01*
X14160539Y-16669246D02*
X14170063Y-16650198D01*
X14170063Y-16650198D02*
X14179587Y-16640674D01*
X14179587Y-16640674D02*
X14198634Y-16631150D01*
X14198634Y-16631150D02*
X14227206Y-16631150D01*
X14227206Y-16631150D02*
X14246253Y-16640674D01*
X14246253Y-16640674D02*
X14255777Y-16650198D01*
X14255777Y-16650198D02*
X14265301Y-16669246D01*
X14265301Y-16669246D02*
X14265301Y-16726388D01*
X14265301Y-16726388D02*
X14255777Y-16745436D01*
X14255777Y-16745436D02*
X14246253Y-16754960D01*
X14246253Y-16754960D02*
X14227206Y-16764484D01*
X14227206Y-16764484D02*
X14198634Y-16764484D01*
X14379587Y-16764484D02*
X14360539Y-16754960D01*
X14360539Y-16754960D02*
X14351015Y-16735912D01*
X14351015Y-16735912D02*
X14351015Y-16564484D01*
X14531968Y-16754960D02*
X14512920Y-16764484D01*
X14512920Y-16764484D02*
X14474825Y-16764484D01*
X14474825Y-16764484D02*
X14455777Y-16754960D01*
X14455777Y-16754960D02*
X14446253Y-16735912D01*
X14446253Y-16735912D02*
X14446253Y-16659722D01*
X14446253Y-16659722D02*
X14455777Y-16640674D01*
X14455777Y-16640674D02*
X14474825Y-16631150D01*
X14474825Y-16631150D02*
X14512920Y-16631150D01*
X14512920Y-16631150D02*
X14531968Y-16640674D01*
X14531968Y-16640674D02*
X14541491Y-16659722D01*
X14541491Y-16659722D02*
X14541491Y-16678769D01*
X14541491Y-16678769D02*
X14446253Y-16697817D01*
X14617682Y-16754960D02*
X14636730Y-16764484D01*
X14636730Y-16764484D02*
X14674825Y-16764484D01*
X14674825Y-16764484D02*
X14693872Y-16754960D01*
X14693872Y-16754960D02*
X14703396Y-16735912D01*
X14703396Y-16735912D02*
X14703396Y-16726388D01*
X14703396Y-16726388D02*
X14693872Y-16707341D01*
X14693872Y-16707341D02*
X14674825Y-16697817D01*
X14674825Y-16697817D02*
X14646253Y-16697817D01*
X14646253Y-16697817D02*
X14627206Y-16688293D01*
X14627206Y-16688293D02*
X14617682Y-16669246D01*
X14617682Y-16669246D02*
X14617682Y-16659722D01*
X14617682Y-16659722D02*
X14627206Y-16640674D01*
X14627206Y-16640674D02*
X14646253Y-16631150D01*
X14646253Y-16631150D02*
X14674825Y-16631150D01*
X14674825Y-16631150D02*
X14693872Y-16640674D01*
X14770063Y-16840674D02*
X14779587Y-16831150D01*
X14779587Y-16831150D02*
X14798634Y-16802579D01*
X14798634Y-16802579D02*
X14808158Y-16783531D01*
X14808158Y-16783531D02*
X14817682Y-16754960D01*
X14817682Y-16754960D02*
X14827206Y-16707341D01*
X14827206Y-16707341D02*
X14827206Y-16669246D01*
X14827206Y-16669246D02*
X14817682Y-16621627D01*
X14817682Y-16621627D02*
X14808158Y-16593055D01*
X14808158Y-16593055D02*
X14798634Y-16574008D01*
X14798634Y-16574008D02*
X14779587Y-16545436D01*
X14779587Y-16545436D02*
X14770063Y-16535912D01*
D10*
X9987678Y-16954678D02*
X9987678Y-16919322D01*
X9952322Y-16919322D01*
X9952322Y-16954678D01*
X9987678Y-16954678D01*
D11*
X10293872Y-16828484D02*
X10312920Y-16828484D01*
X10312920Y-16828484D02*
X10331967Y-16838008D01*
X10331967Y-16838008D02*
X10341491Y-16847531D01*
X10341491Y-16847531D02*
X10351015Y-16866579D01*
X10351015Y-16866579D02*
X10360539Y-16904674D01*
X10360539Y-16904674D02*
X10360539Y-16952293D01*
X10360539Y-16952293D02*
X10351015Y-16990389D01*
X10351015Y-16990389D02*
X10341491Y-17009436D01*
X10341491Y-17009436D02*
X10331967Y-17018960D01*
X10331967Y-17018960D02*
X10312920Y-17028484D01*
X10312920Y-17028484D02*
X10293872Y-17028484D01*
X10293872Y-17028484D02*
X10274824Y-17018960D01*
X10274824Y-17018960D02*
X10265301Y-17009436D01*
X10265301Y-17009436D02*
X10255777Y-16990389D01*
X10255777Y-16990389D02*
X10246253Y-16952293D01*
X10246253Y-16952293D02*
X10246253Y-16904674D01*
X10246253Y-16904674D02*
X10255777Y-16866579D01*
X10255777Y-16866579D02*
X10265301Y-16847531D01*
X10265301Y-16847531D02*
X10274824Y-16838008D01*
X10274824Y-16838008D02*
X10293872Y-16828484D01*
X10446253Y-17009436D02*
X10455777Y-17018960D01*
X10455777Y-17018960D02*
X10446253Y-17028484D01*
X10446253Y-17028484D02*
X10436729Y-17018960D01*
X10436729Y-17018960D02*
X10446253Y-17009436D01*
X10446253Y-17009436D02*
X10446253Y-17028484D01*
X10636729Y-16828484D02*
X10541491Y-16828484D01*
X10541491Y-16828484D02*
X10531967Y-16923722D01*
X10531967Y-16923722D02*
X10541491Y-16914198D01*
X10541491Y-16914198D02*
X10560539Y-16904674D01*
X10560539Y-16904674D02*
X10608158Y-16904674D01*
X10608158Y-16904674D02*
X10627205Y-16914198D01*
X10627205Y-16914198D02*
X10636729Y-16923722D01*
X10636729Y-16923722D02*
X10646253Y-16942770D01*
X10646253Y-16942770D02*
X10646253Y-16990389D01*
X10646253Y-16990389D02*
X10636729Y-17009436D01*
X10636729Y-17009436D02*
X10627205Y-17018960D01*
X10627205Y-17018960D02*
X10608158Y-17028484D01*
X10608158Y-17028484D02*
X10560539Y-17028484D01*
X10560539Y-17028484D02*
X10541491Y-17018960D01*
X10541491Y-17018960D02*
X10531967Y-17009436D01*
X10770063Y-16828484D02*
X10789110Y-16828484D01*
X10789110Y-16828484D02*
X10808158Y-16838008D01*
X10808158Y-16838008D02*
X10817682Y-16847531D01*
X10817682Y-16847531D02*
X10827205Y-16866579D01*
X10827205Y-16866579D02*
X10836729Y-16904674D01*
X10836729Y-16904674D02*
X10836729Y-16952293D01*
X10836729Y-16952293D02*
X10827205Y-16990389D01*
X10827205Y-16990389D02*
X10817682Y-17009436D01*
X10817682Y-17009436D02*
X10808158Y-17018960D01*
X10808158Y-17018960D02*
X10789110Y-17028484D01*
X10789110Y-17028484D02*
X10770063Y-17028484D01*
X10770063Y-17028484D02*
X10751015Y-17018960D01*
X10751015Y-17018960D02*
X10741491Y-17009436D01*
X10741491Y-17009436D02*
X10731967Y-16990389D01*
X10731967Y-16990389D02*
X10722444Y-16952293D01*
X10722444Y-16952293D02*
X10722444Y-16904674D01*
X10722444Y-16904674D02*
X10731967Y-16866579D01*
X10731967Y-16866579D02*
X10741491Y-16847531D01*
X10741491Y-16847531D02*
X10751015Y-16838008D01*
X10751015Y-16838008D02*
X10770063Y-16828484D01*
X10960539Y-16828484D02*
X10979586Y-16828484D01*
X10979586Y-16828484D02*
X10998634Y-16838008D01*
X10998634Y-16838008D02*
X11008158Y-16847531D01*
X11008158Y-16847531D02*
X11017682Y-16866579D01*
X11017682Y-16866579D02*
X11027205Y-16904674D01*
X11027205Y-16904674D02*
X11027205Y-16952293D01*
X11027205Y-16952293D02*
X11017682Y-16990389D01*
X11017682Y-16990389D02*
X11008158Y-17009436D01*
X11008158Y-17009436D02*
X10998634Y-17018960D01*
X10998634Y-17018960D02*
X10979586Y-17028484D01*
X10979586Y-17028484D02*
X10960539Y-17028484D01*
X10960539Y-17028484D02*
X10941491Y-17018960D01*
X10941491Y-17018960D02*
X10931967Y-17009436D01*
X10931967Y-17009436D02*
X10922444Y-16990389D01*
X10922444Y-16990389D02*
X10912920Y-16952293D01*
X10912920Y-16952293D02*
X10912920Y-16904674D01*
X10912920Y-16904674D02*
X10922444Y-16866579D01*
X10922444Y-16866579D02*
X10931967Y-16847531D01*
X10931967Y-16847531D02*
X10941491Y-16838008D01*
X10941491Y-16838008D02*
X10960539Y-16828484D01*
X11112920Y-17028484D02*
X11112920Y-16895150D01*
X11112920Y-16914198D02*
X11122444Y-16904674D01*
X11122444Y-16904674D02*
X11141491Y-16895150D01*
X11141491Y-16895150D02*
X11170063Y-16895150D01*
X11170063Y-16895150D02*
X11189110Y-16904674D01*
X11189110Y-16904674D02*
X11198634Y-16923722D01*
X11198634Y-16923722D02*
X11198634Y-17028484D01*
X11198634Y-16923722D02*
X11208158Y-16904674D01*
X11208158Y-16904674D02*
X11227205Y-16895150D01*
X11227205Y-16895150D02*
X11255777Y-16895150D01*
X11255777Y-16895150D02*
X11274824Y-16904674D01*
X11274824Y-16904674D02*
X11284348Y-16923722D01*
X11284348Y-16923722D02*
X11284348Y-17028484D01*
X11379586Y-17028484D02*
X11379586Y-16895150D01*
X11379586Y-16914198D02*
X11389110Y-16904674D01*
X11389110Y-16904674D02*
X11408158Y-16895150D01*
X11408158Y-16895150D02*
X11436729Y-16895150D01*
X11436729Y-16895150D02*
X11455777Y-16904674D01*
X11455777Y-16904674D02*
X11465301Y-16923722D01*
X11465301Y-16923722D02*
X11465301Y-17028484D01*
X11465301Y-16923722D02*
X11474824Y-16904674D01*
X11474824Y-16904674D02*
X11493872Y-16895150D01*
X11493872Y-16895150D02*
X11522443Y-16895150D01*
X11522443Y-16895150D02*
X11541491Y-16904674D01*
X11541491Y-16904674D02*
X11551015Y-16923722D01*
X11551015Y-16923722D02*
X11551015Y-17028484D01*
X11941491Y-16818960D02*
X11770063Y-17076103D01*
X12198634Y-16828484D02*
X12217682Y-16828484D01*
X12217682Y-16828484D02*
X12236729Y-16838008D01*
X12236729Y-16838008D02*
X12246253Y-16847531D01*
X12246253Y-16847531D02*
X12255777Y-16866579D01*
X12255777Y-16866579D02*
X12265301Y-16904674D01*
X12265301Y-16904674D02*
X12265301Y-16952293D01*
X12265301Y-16952293D02*
X12255777Y-16990389D01*
X12255777Y-16990389D02*
X12246253Y-17009436D01*
X12246253Y-17009436D02*
X12236729Y-17018960D01*
X12236729Y-17018960D02*
X12217682Y-17028484D01*
X12217682Y-17028484D02*
X12198634Y-17028484D01*
X12198634Y-17028484D02*
X12179586Y-17018960D01*
X12179586Y-17018960D02*
X12170063Y-17009436D01*
X12170063Y-17009436D02*
X12160539Y-16990389D01*
X12160539Y-16990389D02*
X12151015Y-16952293D01*
X12151015Y-16952293D02*
X12151015Y-16904674D01*
X12151015Y-16904674D02*
X12160539Y-16866579D01*
X12160539Y-16866579D02*
X12170063Y-16847531D01*
X12170063Y-16847531D02*
X12179586Y-16838008D01*
X12179586Y-16838008D02*
X12198634Y-16828484D01*
X12351015Y-17009436D02*
X12360539Y-17018960D01*
X12360539Y-17018960D02*
X12351015Y-17028484D01*
X12351015Y-17028484D02*
X12341491Y-17018960D01*
X12341491Y-17018960D02*
X12351015Y-17009436D01*
X12351015Y-17009436D02*
X12351015Y-17028484D01*
X12484348Y-16828484D02*
X12503396Y-16828484D01*
X12503396Y-16828484D02*
X12522444Y-16838008D01*
X12522444Y-16838008D02*
X12531967Y-16847531D01*
X12531967Y-16847531D02*
X12541491Y-16866579D01*
X12541491Y-16866579D02*
X12551015Y-16904674D01*
X12551015Y-16904674D02*
X12551015Y-16952293D01*
X12551015Y-16952293D02*
X12541491Y-16990389D01*
X12541491Y-16990389D02*
X12531967Y-17009436D01*
X12531967Y-17009436D02*
X12522444Y-17018960D01*
X12522444Y-17018960D02*
X12503396Y-17028484D01*
X12503396Y-17028484D02*
X12484348Y-17028484D01*
X12484348Y-17028484D02*
X12465301Y-17018960D01*
X12465301Y-17018960D02*
X12455777Y-17009436D01*
X12455777Y-17009436D02*
X12446253Y-16990389D01*
X12446253Y-16990389D02*
X12436729Y-16952293D01*
X12436729Y-16952293D02*
X12436729Y-16904674D01*
X12436729Y-16904674D02*
X12446253Y-16866579D01*
X12446253Y-16866579D02*
X12455777Y-16847531D01*
X12455777Y-16847531D02*
X12465301Y-16838008D01*
X12465301Y-16838008D02*
X12484348Y-16828484D01*
X12741491Y-17028484D02*
X12627206Y-17028484D01*
X12684348Y-17028484D02*
X12684348Y-16828484D01*
X12684348Y-16828484D02*
X12665301Y-16857055D01*
X12665301Y-16857055D02*
X12646253Y-16876103D01*
X12646253Y-16876103D02*
X12627206Y-16885627D01*
X12836729Y-17028484D02*
X12874825Y-17028484D01*
X12874825Y-17028484D02*
X12893872Y-17018960D01*
X12893872Y-17018960D02*
X12903396Y-17009436D01*
X12903396Y-17009436D02*
X12922444Y-16980865D01*
X12922444Y-16980865D02*
X12931967Y-16942770D01*
X12931967Y-16942770D02*
X12931967Y-16866579D01*
X12931967Y-16866579D02*
X12922444Y-16847531D01*
X12922444Y-16847531D02*
X12912920Y-16838008D01*
X12912920Y-16838008D02*
X12893872Y-16828484D01*
X12893872Y-16828484D02*
X12855777Y-16828484D01*
X12855777Y-16828484D02*
X12836729Y-16838008D01*
X12836729Y-16838008D02*
X12827206Y-16847531D01*
X12827206Y-16847531D02*
X12817682Y-16866579D01*
X12817682Y-16866579D02*
X12817682Y-16914198D01*
X12817682Y-16914198D02*
X12827206Y-16933246D01*
X12827206Y-16933246D02*
X12836729Y-16942770D01*
X12836729Y-16942770D02*
X12855777Y-16952293D01*
X12855777Y-16952293D02*
X12893872Y-16952293D01*
X12893872Y-16952293D02*
X12912920Y-16942770D01*
X12912920Y-16942770D02*
X12922444Y-16933246D01*
X12922444Y-16933246D02*
X12931967Y-16914198D01*
X12998634Y-16828484D02*
X13131967Y-16828484D01*
X13131967Y-16828484D02*
X13046253Y-17028484D01*
X13198634Y-16828484D02*
X13198634Y-16866579D01*
X13274825Y-16828484D02*
X13274825Y-16866579D01*
X13570063Y-17104674D02*
X13560539Y-17095150D01*
X13560539Y-17095150D02*
X13541491Y-17066579D01*
X13541491Y-17066579D02*
X13531968Y-17047531D01*
X13531968Y-17047531D02*
X13522444Y-17018960D01*
X13522444Y-17018960D02*
X13512920Y-16971341D01*
X13512920Y-16971341D02*
X13512920Y-16933246D01*
X13512920Y-16933246D02*
X13522444Y-16885627D01*
X13522444Y-16885627D02*
X13531968Y-16857055D01*
X13531968Y-16857055D02*
X13541491Y-16838008D01*
X13541491Y-16838008D02*
X13560539Y-16809436D01*
X13560539Y-16809436D02*
X13570063Y-16799912D01*
X13627206Y-16828484D02*
X13751015Y-16828484D01*
X13751015Y-16828484D02*
X13684348Y-16904674D01*
X13684348Y-16904674D02*
X13712920Y-16904674D01*
X13712920Y-16904674D02*
X13731968Y-16914198D01*
X13731968Y-16914198D02*
X13741491Y-16923722D01*
X13741491Y-16923722D02*
X13751015Y-16942770D01*
X13751015Y-16942770D02*
X13751015Y-16990389D01*
X13751015Y-16990389D02*
X13741491Y-17009436D01*
X13741491Y-17009436D02*
X13731968Y-17018960D01*
X13731968Y-17018960D02*
X13712920Y-17028484D01*
X13712920Y-17028484D02*
X13655777Y-17028484D01*
X13655777Y-17028484D02*
X13636729Y-17018960D01*
X13636729Y-17018960D02*
X13627206Y-17009436D01*
X13827206Y-16847531D02*
X13836729Y-16838008D01*
X13836729Y-16838008D02*
X13855777Y-16828484D01*
X13855777Y-16828484D02*
X13903396Y-16828484D01*
X13903396Y-16828484D02*
X13922444Y-16838008D01*
X13922444Y-16838008D02*
X13931968Y-16847531D01*
X13931968Y-16847531D02*
X13941491Y-16866579D01*
X13941491Y-16866579D02*
X13941491Y-16885627D01*
X13941491Y-16885627D02*
X13931968Y-16914198D01*
X13931968Y-16914198D02*
X13817682Y-17028484D01*
X13817682Y-17028484D02*
X13941491Y-17028484D01*
X14179587Y-17028484D02*
X14179587Y-16828484D01*
X14265301Y-17028484D02*
X14265301Y-16923722D01*
X14265301Y-16923722D02*
X14255777Y-16904674D01*
X14255777Y-16904674D02*
X14236730Y-16895150D01*
X14236730Y-16895150D02*
X14208158Y-16895150D01*
X14208158Y-16895150D02*
X14189110Y-16904674D01*
X14189110Y-16904674D02*
X14179587Y-16914198D01*
X14389110Y-17028484D02*
X14370063Y-17018960D01*
X14370063Y-17018960D02*
X14360539Y-17009436D01*
X14360539Y-17009436D02*
X14351015Y-16990389D01*
X14351015Y-16990389D02*
X14351015Y-16933246D01*
X14351015Y-16933246D02*
X14360539Y-16914198D01*
X14360539Y-16914198D02*
X14370063Y-16904674D01*
X14370063Y-16904674D02*
X14389110Y-16895150D01*
X14389110Y-16895150D02*
X14417682Y-16895150D01*
X14417682Y-16895150D02*
X14436730Y-16904674D01*
X14436730Y-16904674D02*
X14446253Y-16914198D01*
X14446253Y-16914198D02*
X14455777Y-16933246D01*
X14455777Y-16933246D02*
X14455777Y-16990389D01*
X14455777Y-16990389D02*
X14446253Y-17009436D01*
X14446253Y-17009436D02*
X14436730Y-17018960D01*
X14436730Y-17018960D02*
X14417682Y-17028484D01*
X14417682Y-17028484D02*
X14389110Y-17028484D01*
X14570063Y-17028484D02*
X14551015Y-17018960D01*
X14551015Y-17018960D02*
X14541491Y-16999912D01*
X14541491Y-16999912D02*
X14541491Y-16828484D01*
X14722444Y-17018960D02*
X14703396Y-17028484D01*
X14703396Y-17028484D02*
X14665301Y-17028484D01*
X14665301Y-17028484D02*
X14646253Y-17018960D01*
X14646253Y-17018960D02*
X14636730Y-16999912D01*
X14636730Y-16999912D02*
X14636730Y-16923722D01*
X14636730Y-16923722D02*
X14646253Y-16904674D01*
X14646253Y-16904674D02*
X14665301Y-16895150D01*
X14665301Y-16895150D02*
X14703396Y-16895150D01*
X14703396Y-16895150D02*
X14722444Y-16904674D01*
X14722444Y-16904674D02*
X14731968Y-16923722D01*
X14731968Y-16923722D02*
X14731968Y-16942770D01*
X14731968Y-16942770D02*
X14636730Y-16961817D01*
X14808158Y-17018960D02*
X14827206Y-17028484D01*
X14827206Y-17028484D02*
X14865301Y-17028484D01*
X14865301Y-17028484D02*
X14884349Y-17018960D01*
X14884349Y-17018960D02*
X14893872Y-16999912D01*
X14893872Y-16999912D02*
X14893872Y-16990389D01*
X14893872Y-16990389D02*
X14884349Y-16971341D01*
X14884349Y-16971341D02*
X14865301Y-16961817D01*
X14865301Y-16961817D02*
X14836730Y-16961817D01*
X14836730Y-16961817D02*
X14817682Y-16952293D01*
X14817682Y-16952293D02*
X14808158Y-16933246D01*
X14808158Y-16933246D02*
X14808158Y-16923722D01*
X14808158Y-16923722D02*
X14817682Y-16904674D01*
X14817682Y-16904674D02*
X14836730Y-16895150D01*
X14836730Y-16895150D02*
X14865301Y-16895150D01*
X14865301Y-16895150D02*
X14884349Y-16904674D01*
X14960539Y-17104674D02*
X14970063Y-17095150D01*
X14970063Y-17095150D02*
X14989111Y-17066579D01*
X14989111Y-17066579D02*
X14998634Y-17047531D01*
X14998634Y-17047531D02*
X15008158Y-17018960D01*
X15008158Y-17018960D02*
X15017682Y-16971341D01*
X15017682Y-16971341D02*
X15017682Y-16933246D01*
X15017682Y-16933246D02*
X15008158Y-16885627D01*
X15008158Y-16885627D02*
X14998634Y-16857055D01*
X14998634Y-16857055D02*
X14989111Y-16838008D01*
X14989111Y-16838008D02*
X14970063Y-16809436D01*
X14970063Y-16809436D02*
X14960539Y-16799912D01*
D10*
X9947500Y-17248500D02*
X9995000Y-17201000D01*
X9947500Y-17153500D01*
X9900000Y-17201000D01*
X9947500Y-17248500D01*
D11*
X10293872Y-17092484D02*
X10312920Y-17092484D01*
X10312920Y-17092484D02*
X10331967Y-17102008D01*
X10331967Y-17102008D02*
X10341491Y-17111531D01*
X10341491Y-17111531D02*
X10351015Y-17130579D01*
X10351015Y-17130579D02*
X10360539Y-17168674D01*
X10360539Y-17168674D02*
X10360539Y-17216293D01*
X10360539Y-17216293D02*
X10351015Y-17254389D01*
X10351015Y-17254389D02*
X10341491Y-17273436D01*
X10341491Y-17273436D02*
X10331967Y-17282960D01*
X10331967Y-17282960D02*
X10312920Y-17292484D01*
X10312920Y-17292484D02*
X10293872Y-17292484D01*
X10293872Y-17292484D02*
X10274824Y-17282960D01*
X10274824Y-17282960D02*
X10265301Y-17273436D01*
X10265301Y-17273436D02*
X10255777Y-17254389D01*
X10255777Y-17254389D02*
X10246253Y-17216293D01*
X10246253Y-17216293D02*
X10246253Y-17168674D01*
X10246253Y-17168674D02*
X10255777Y-17130579D01*
X10255777Y-17130579D02*
X10265301Y-17111531D01*
X10265301Y-17111531D02*
X10274824Y-17102008D01*
X10274824Y-17102008D02*
X10293872Y-17092484D01*
X10446253Y-17273436D02*
X10455777Y-17282960D01*
X10455777Y-17282960D02*
X10446253Y-17292484D01*
X10446253Y-17292484D02*
X10436729Y-17282960D01*
X10436729Y-17282960D02*
X10446253Y-17273436D01*
X10446253Y-17273436D02*
X10446253Y-17292484D01*
X10551015Y-17292484D02*
X10589110Y-17292484D01*
X10589110Y-17292484D02*
X10608158Y-17282960D01*
X10608158Y-17282960D02*
X10617682Y-17273436D01*
X10617682Y-17273436D02*
X10636729Y-17244865D01*
X10636729Y-17244865D02*
X10646253Y-17206770D01*
X10646253Y-17206770D02*
X10646253Y-17130579D01*
X10646253Y-17130579D02*
X10636729Y-17111531D01*
X10636729Y-17111531D02*
X10627205Y-17102008D01*
X10627205Y-17102008D02*
X10608158Y-17092484D01*
X10608158Y-17092484D02*
X10570063Y-17092484D01*
X10570063Y-17092484D02*
X10551015Y-17102008D01*
X10551015Y-17102008D02*
X10541491Y-17111531D01*
X10541491Y-17111531D02*
X10531967Y-17130579D01*
X10531967Y-17130579D02*
X10531967Y-17178198D01*
X10531967Y-17178198D02*
X10541491Y-17197246D01*
X10541491Y-17197246D02*
X10551015Y-17206770D01*
X10551015Y-17206770D02*
X10570063Y-17216293D01*
X10570063Y-17216293D02*
X10608158Y-17216293D01*
X10608158Y-17216293D02*
X10627205Y-17206770D01*
X10627205Y-17206770D02*
X10636729Y-17197246D01*
X10636729Y-17197246D02*
X10646253Y-17178198D01*
X10827205Y-17092484D02*
X10731967Y-17092484D01*
X10731967Y-17092484D02*
X10722444Y-17187722D01*
X10722444Y-17187722D02*
X10731967Y-17178198D01*
X10731967Y-17178198D02*
X10751015Y-17168674D01*
X10751015Y-17168674D02*
X10798634Y-17168674D01*
X10798634Y-17168674D02*
X10817682Y-17178198D01*
X10817682Y-17178198D02*
X10827205Y-17187722D01*
X10827205Y-17187722D02*
X10836729Y-17206770D01*
X10836729Y-17206770D02*
X10836729Y-17254389D01*
X10836729Y-17254389D02*
X10827205Y-17273436D01*
X10827205Y-17273436D02*
X10817682Y-17282960D01*
X10817682Y-17282960D02*
X10798634Y-17292484D01*
X10798634Y-17292484D02*
X10751015Y-17292484D01*
X10751015Y-17292484D02*
X10731967Y-17282960D01*
X10731967Y-17282960D02*
X10722444Y-17273436D01*
X10960539Y-17092484D02*
X10979586Y-17092484D01*
X10979586Y-17092484D02*
X10998634Y-17102008D01*
X10998634Y-17102008D02*
X11008158Y-17111531D01*
X11008158Y-17111531D02*
X11017682Y-17130579D01*
X11017682Y-17130579D02*
X11027205Y-17168674D01*
X11027205Y-17168674D02*
X11027205Y-17216293D01*
X11027205Y-17216293D02*
X11017682Y-17254389D01*
X11017682Y-17254389D02*
X11008158Y-17273436D01*
X11008158Y-17273436D02*
X10998634Y-17282960D01*
X10998634Y-17282960D02*
X10979586Y-17292484D01*
X10979586Y-17292484D02*
X10960539Y-17292484D01*
X10960539Y-17292484D02*
X10941491Y-17282960D01*
X10941491Y-17282960D02*
X10931967Y-17273436D01*
X10931967Y-17273436D02*
X10922444Y-17254389D01*
X10922444Y-17254389D02*
X10912920Y-17216293D01*
X10912920Y-17216293D02*
X10912920Y-17168674D01*
X10912920Y-17168674D02*
X10922444Y-17130579D01*
X10922444Y-17130579D02*
X10931967Y-17111531D01*
X10931967Y-17111531D02*
X10941491Y-17102008D01*
X10941491Y-17102008D02*
X10960539Y-17092484D01*
X11112920Y-17292484D02*
X11112920Y-17159150D01*
X11112920Y-17178198D02*
X11122444Y-17168674D01*
X11122444Y-17168674D02*
X11141491Y-17159150D01*
X11141491Y-17159150D02*
X11170063Y-17159150D01*
X11170063Y-17159150D02*
X11189110Y-17168674D01*
X11189110Y-17168674D02*
X11198634Y-17187722D01*
X11198634Y-17187722D02*
X11198634Y-17292484D01*
X11198634Y-17187722D02*
X11208158Y-17168674D01*
X11208158Y-17168674D02*
X11227205Y-17159150D01*
X11227205Y-17159150D02*
X11255777Y-17159150D01*
X11255777Y-17159150D02*
X11274824Y-17168674D01*
X11274824Y-17168674D02*
X11284348Y-17187722D01*
X11284348Y-17187722D02*
X11284348Y-17292484D01*
X11379586Y-17292484D02*
X11379586Y-17159150D01*
X11379586Y-17178198D02*
X11389110Y-17168674D01*
X11389110Y-17168674D02*
X11408158Y-17159150D01*
X11408158Y-17159150D02*
X11436729Y-17159150D01*
X11436729Y-17159150D02*
X11455777Y-17168674D01*
X11455777Y-17168674D02*
X11465301Y-17187722D01*
X11465301Y-17187722D02*
X11465301Y-17292484D01*
X11465301Y-17187722D02*
X11474824Y-17168674D01*
X11474824Y-17168674D02*
X11493872Y-17159150D01*
X11493872Y-17159150D02*
X11522443Y-17159150D01*
X11522443Y-17159150D02*
X11541491Y-17168674D01*
X11541491Y-17168674D02*
X11551015Y-17187722D01*
X11551015Y-17187722D02*
X11551015Y-17292484D01*
X11941491Y-17082960D02*
X11770063Y-17340103D01*
X12198634Y-17092484D02*
X12217682Y-17092484D01*
X12217682Y-17092484D02*
X12236729Y-17102008D01*
X12236729Y-17102008D02*
X12246253Y-17111531D01*
X12246253Y-17111531D02*
X12255777Y-17130579D01*
X12255777Y-17130579D02*
X12265301Y-17168674D01*
X12265301Y-17168674D02*
X12265301Y-17216293D01*
X12265301Y-17216293D02*
X12255777Y-17254389D01*
X12255777Y-17254389D02*
X12246253Y-17273436D01*
X12246253Y-17273436D02*
X12236729Y-17282960D01*
X12236729Y-17282960D02*
X12217682Y-17292484D01*
X12217682Y-17292484D02*
X12198634Y-17292484D01*
X12198634Y-17292484D02*
X12179586Y-17282960D01*
X12179586Y-17282960D02*
X12170063Y-17273436D01*
X12170063Y-17273436D02*
X12160539Y-17254389D01*
X12160539Y-17254389D02*
X12151015Y-17216293D01*
X12151015Y-17216293D02*
X12151015Y-17168674D01*
X12151015Y-17168674D02*
X12160539Y-17130579D01*
X12160539Y-17130579D02*
X12170063Y-17111531D01*
X12170063Y-17111531D02*
X12179586Y-17102008D01*
X12179586Y-17102008D02*
X12198634Y-17092484D01*
X12351015Y-17273436D02*
X12360539Y-17282960D01*
X12360539Y-17282960D02*
X12351015Y-17292484D01*
X12351015Y-17292484D02*
X12341491Y-17282960D01*
X12341491Y-17282960D02*
X12351015Y-17273436D01*
X12351015Y-17273436D02*
X12351015Y-17292484D01*
X12484348Y-17092484D02*
X12503396Y-17092484D01*
X12503396Y-17092484D02*
X12522444Y-17102008D01*
X12522444Y-17102008D02*
X12531967Y-17111531D01*
X12531967Y-17111531D02*
X12541491Y-17130579D01*
X12541491Y-17130579D02*
X12551015Y-17168674D01*
X12551015Y-17168674D02*
X12551015Y-17216293D01*
X12551015Y-17216293D02*
X12541491Y-17254389D01*
X12541491Y-17254389D02*
X12531967Y-17273436D01*
X12531967Y-17273436D02*
X12522444Y-17282960D01*
X12522444Y-17282960D02*
X12503396Y-17292484D01*
X12503396Y-17292484D02*
X12484348Y-17292484D01*
X12484348Y-17292484D02*
X12465301Y-17282960D01*
X12465301Y-17282960D02*
X12455777Y-17273436D01*
X12455777Y-17273436D02*
X12446253Y-17254389D01*
X12446253Y-17254389D02*
X12436729Y-17216293D01*
X12436729Y-17216293D02*
X12436729Y-17168674D01*
X12436729Y-17168674D02*
X12446253Y-17130579D01*
X12446253Y-17130579D02*
X12455777Y-17111531D01*
X12455777Y-17111531D02*
X12465301Y-17102008D01*
X12465301Y-17102008D02*
X12484348Y-17092484D01*
X12617682Y-17092484D02*
X12741491Y-17092484D01*
X12741491Y-17092484D02*
X12674825Y-17168674D01*
X12674825Y-17168674D02*
X12703396Y-17168674D01*
X12703396Y-17168674D02*
X12722444Y-17178198D01*
X12722444Y-17178198D02*
X12731967Y-17187722D01*
X12731967Y-17187722D02*
X12741491Y-17206770D01*
X12741491Y-17206770D02*
X12741491Y-17254389D01*
X12741491Y-17254389D02*
X12731967Y-17273436D01*
X12731967Y-17273436D02*
X12722444Y-17282960D01*
X12722444Y-17282960D02*
X12703396Y-17292484D01*
X12703396Y-17292484D02*
X12646253Y-17292484D01*
X12646253Y-17292484D02*
X12627206Y-17282960D01*
X12627206Y-17282960D02*
X12617682Y-17273436D01*
X12808158Y-17092484D02*
X12941491Y-17092484D01*
X12941491Y-17092484D02*
X12855777Y-17292484D01*
X13103396Y-17159150D02*
X13103396Y-17292484D01*
X13055777Y-17082960D02*
X13008158Y-17225817D01*
X13008158Y-17225817D02*
X13131967Y-17225817D01*
X13198634Y-17092484D02*
X13198634Y-17130579D01*
X13274825Y-17092484D02*
X13274825Y-17130579D01*
X13570063Y-17368674D02*
X13560539Y-17359150D01*
X13560539Y-17359150D02*
X13541491Y-17330579D01*
X13541491Y-17330579D02*
X13531968Y-17311531D01*
X13531968Y-17311531D02*
X13522444Y-17282960D01*
X13522444Y-17282960D02*
X13512920Y-17235341D01*
X13512920Y-17235341D02*
X13512920Y-17197246D01*
X13512920Y-17197246D02*
X13522444Y-17149627D01*
X13522444Y-17149627D02*
X13531968Y-17121055D01*
X13531968Y-17121055D02*
X13541491Y-17102008D01*
X13541491Y-17102008D02*
X13560539Y-17073436D01*
X13560539Y-17073436D02*
X13570063Y-17063912D01*
X13627206Y-17092484D02*
X13751015Y-17092484D01*
X13751015Y-17092484D02*
X13684348Y-17168674D01*
X13684348Y-17168674D02*
X13712920Y-17168674D01*
X13712920Y-17168674D02*
X13731968Y-17178198D01*
X13731968Y-17178198D02*
X13741491Y-17187722D01*
X13741491Y-17187722D02*
X13751015Y-17206770D01*
X13751015Y-17206770D02*
X13751015Y-17254389D01*
X13751015Y-17254389D02*
X13741491Y-17273436D01*
X13741491Y-17273436D02*
X13731968Y-17282960D01*
X13731968Y-17282960D02*
X13712920Y-17292484D01*
X13712920Y-17292484D02*
X13655777Y-17292484D01*
X13655777Y-17292484D02*
X13636729Y-17282960D01*
X13636729Y-17282960D02*
X13627206Y-17273436D01*
X13989110Y-17292484D02*
X13989110Y-17092484D01*
X14074825Y-17292484D02*
X14074825Y-17187722D01*
X14074825Y-17187722D02*
X14065301Y-17168674D01*
X14065301Y-17168674D02*
X14046253Y-17159150D01*
X14046253Y-17159150D02*
X14017682Y-17159150D01*
X14017682Y-17159150D02*
X13998634Y-17168674D01*
X13998634Y-17168674D02*
X13989110Y-17178198D01*
X14198634Y-17292484D02*
X14179587Y-17282960D01*
X14179587Y-17282960D02*
X14170063Y-17273436D01*
X14170063Y-17273436D02*
X14160539Y-17254389D01*
X14160539Y-17254389D02*
X14160539Y-17197246D01*
X14160539Y-17197246D02*
X14170063Y-17178198D01*
X14170063Y-17178198D02*
X14179587Y-17168674D01*
X14179587Y-17168674D02*
X14198634Y-17159150D01*
X14198634Y-17159150D02*
X14227206Y-17159150D01*
X14227206Y-17159150D02*
X14246253Y-17168674D01*
X14246253Y-17168674D02*
X14255777Y-17178198D01*
X14255777Y-17178198D02*
X14265301Y-17197246D01*
X14265301Y-17197246D02*
X14265301Y-17254389D01*
X14265301Y-17254389D02*
X14255777Y-17273436D01*
X14255777Y-17273436D02*
X14246253Y-17282960D01*
X14246253Y-17282960D02*
X14227206Y-17292484D01*
X14227206Y-17292484D02*
X14198634Y-17292484D01*
X14379587Y-17292484D02*
X14360539Y-17282960D01*
X14360539Y-17282960D02*
X14351015Y-17263912D01*
X14351015Y-17263912D02*
X14351015Y-17092484D01*
X14531968Y-17282960D02*
X14512920Y-17292484D01*
X14512920Y-17292484D02*
X14474825Y-17292484D01*
X14474825Y-17292484D02*
X14455777Y-17282960D01*
X14455777Y-17282960D02*
X14446253Y-17263912D01*
X14446253Y-17263912D02*
X14446253Y-17187722D01*
X14446253Y-17187722D02*
X14455777Y-17168674D01*
X14455777Y-17168674D02*
X14474825Y-17159150D01*
X14474825Y-17159150D02*
X14512920Y-17159150D01*
X14512920Y-17159150D02*
X14531968Y-17168674D01*
X14531968Y-17168674D02*
X14541491Y-17187722D01*
X14541491Y-17187722D02*
X14541491Y-17206770D01*
X14541491Y-17206770D02*
X14446253Y-17225817D01*
X14617682Y-17282960D02*
X14636730Y-17292484D01*
X14636730Y-17292484D02*
X14674825Y-17292484D01*
X14674825Y-17292484D02*
X14693872Y-17282960D01*
X14693872Y-17282960D02*
X14703396Y-17263912D01*
X14703396Y-17263912D02*
X14703396Y-17254389D01*
X14703396Y-17254389D02*
X14693872Y-17235341D01*
X14693872Y-17235341D02*
X14674825Y-17225817D01*
X14674825Y-17225817D02*
X14646253Y-17225817D01*
X14646253Y-17225817D02*
X14627206Y-17216293D01*
X14627206Y-17216293D02*
X14617682Y-17197246D01*
X14617682Y-17197246D02*
X14617682Y-17187722D01*
X14617682Y-17187722D02*
X14627206Y-17168674D01*
X14627206Y-17168674D02*
X14646253Y-17159150D01*
X14646253Y-17159150D02*
X14674825Y-17159150D01*
X14674825Y-17159150D02*
X14693872Y-17168674D01*
X14770063Y-17368674D02*
X14779587Y-17359150D01*
X14779587Y-17359150D02*
X14798634Y-17330579D01*
X14798634Y-17330579D02*
X14808158Y-17311531D01*
X14808158Y-17311531D02*
X14817682Y-17282960D01*
X14817682Y-17282960D02*
X14827206Y-17235341D01*
X14827206Y-17235341D02*
X14827206Y-17197246D01*
X14827206Y-17197246D02*
X14817682Y-17149627D01*
X14817682Y-17149627D02*
X14808158Y-17121055D01*
X14808158Y-17121055D02*
X14798634Y-17102008D01*
X14798634Y-17102008D02*
X14779587Y-17073436D01*
X14779587Y-17073436D02*
X14770063Y-17063912D01*
D10*
X9895000Y-17415000D02*
X9995000Y-17515000D01*
X9995000Y-17415000D02*
X9895000Y-17515000D01*
X9995000Y-17465000D02*
G75*
G02*
X9895000Y-17465000I-50000J0D01*
G01*
X9895000Y-17465000D02*
G75*
G02*
X9995000Y-17465000I50000J0D01*
G01*
D11*
X10360539Y-17556484D02*
X10246253Y-17556484D01*
X10303396Y-17556484D02*
X10303396Y-17356484D01*
X10303396Y-17356484D02*
X10284348Y-17385055D01*
X10284348Y-17385055D02*
X10265301Y-17404103D01*
X10265301Y-17404103D02*
X10246253Y-17413627D01*
X10446253Y-17537436D02*
X10455777Y-17546960D01*
X10455777Y-17546960D02*
X10446253Y-17556484D01*
X10446253Y-17556484D02*
X10436729Y-17546960D01*
X10436729Y-17546960D02*
X10446253Y-17537436D01*
X10446253Y-17537436D02*
X10446253Y-17556484D01*
X10579586Y-17356484D02*
X10598634Y-17356484D01*
X10598634Y-17356484D02*
X10617682Y-17366008D01*
X10617682Y-17366008D02*
X10627205Y-17375531D01*
X10627205Y-17375531D02*
X10636729Y-17394579D01*
X10636729Y-17394579D02*
X10646253Y-17432674D01*
X10646253Y-17432674D02*
X10646253Y-17480293D01*
X10646253Y-17480293D02*
X10636729Y-17518389D01*
X10636729Y-17518389D02*
X10627205Y-17537436D01*
X10627205Y-17537436D02*
X10617682Y-17546960D01*
X10617682Y-17546960D02*
X10598634Y-17556484D01*
X10598634Y-17556484D02*
X10579586Y-17556484D01*
X10579586Y-17556484D02*
X10560539Y-17546960D01*
X10560539Y-17546960D02*
X10551015Y-17537436D01*
X10551015Y-17537436D02*
X10541491Y-17518389D01*
X10541491Y-17518389D02*
X10531967Y-17480293D01*
X10531967Y-17480293D02*
X10531967Y-17432674D01*
X10531967Y-17432674D02*
X10541491Y-17394579D01*
X10541491Y-17394579D02*
X10551015Y-17375531D01*
X10551015Y-17375531D02*
X10560539Y-17366008D01*
X10560539Y-17366008D02*
X10579586Y-17356484D01*
X10770063Y-17356484D02*
X10789110Y-17356484D01*
X10789110Y-17356484D02*
X10808158Y-17366008D01*
X10808158Y-17366008D02*
X10817682Y-17375531D01*
X10817682Y-17375531D02*
X10827205Y-17394579D01*
X10827205Y-17394579D02*
X10836729Y-17432674D01*
X10836729Y-17432674D02*
X10836729Y-17480293D01*
X10836729Y-17480293D02*
X10827205Y-17518389D01*
X10827205Y-17518389D02*
X10817682Y-17537436D01*
X10817682Y-17537436D02*
X10808158Y-17546960D01*
X10808158Y-17546960D02*
X10789110Y-17556484D01*
X10789110Y-17556484D02*
X10770063Y-17556484D01*
X10770063Y-17556484D02*
X10751015Y-17546960D01*
X10751015Y-17546960D02*
X10741491Y-17537436D01*
X10741491Y-17537436D02*
X10731967Y-17518389D01*
X10731967Y-17518389D02*
X10722444Y-17480293D01*
X10722444Y-17480293D02*
X10722444Y-17432674D01*
X10722444Y-17432674D02*
X10731967Y-17394579D01*
X10731967Y-17394579D02*
X10741491Y-17375531D01*
X10741491Y-17375531D02*
X10751015Y-17366008D01*
X10751015Y-17366008D02*
X10770063Y-17356484D01*
X10960539Y-17356484D02*
X10979586Y-17356484D01*
X10979586Y-17356484D02*
X10998634Y-17366008D01*
X10998634Y-17366008D02*
X11008158Y-17375531D01*
X11008158Y-17375531D02*
X11017682Y-17394579D01*
X11017682Y-17394579D02*
X11027205Y-17432674D01*
X11027205Y-17432674D02*
X11027205Y-17480293D01*
X11027205Y-17480293D02*
X11017682Y-17518389D01*
X11017682Y-17518389D02*
X11008158Y-17537436D01*
X11008158Y-17537436D02*
X10998634Y-17546960D01*
X10998634Y-17546960D02*
X10979586Y-17556484D01*
X10979586Y-17556484D02*
X10960539Y-17556484D01*
X10960539Y-17556484D02*
X10941491Y-17546960D01*
X10941491Y-17546960D02*
X10931967Y-17537436D01*
X10931967Y-17537436D02*
X10922444Y-17518389D01*
X10922444Y-17518389D02*
X10912920Y-17480293D01*
X10912920Y-17480293D02*
X10912920Y-17432674D01*
X10912920Y-17432674D02*
X10922444Y-17394579D01*
X10922444Y-17394579D02*
X10931967Y-17375531D01*
X10931967Y-17375531D02*
X10941491Y-17366008D01*
X10941491Y-17366008D02*
X10960539Y-17356484D01*
X11112920Y-17556484D02*
X11112920Y-17423150D01*
X11112920Y-17442198D02*
X11122444Y-17432674D01*
X11122444Y-17432674D02*
X11141491Y-17423150D01*
X11141491Y-17423150D02*
X11170063Y-17423150D01*
X11170063Y-17423150D02*
X11189110Y-17432674D01*
X11189110Y-17432674D02*
X11198634Y-17451722D01*
X11198634Y-17451722D02*
X11198634Y-17556484D01*
X11198634Y-17451722D02*
X11208158Y-17432674D01*
X11208158Y-17432674D02*
X11227205Y-17423150D01*
X11227205Y-17423150D02*
X11255777Y-17423150D01*
X11255777Y-17423150D02*
X11274824Y-17432674D01*
X11274824Y-17432674D02*
X11284348Y-17451722D01*
X11284348Y-17451722D02*
X11284348Y-17556484D01*
X11379586Y-17556484D02*
X11379586Y-17423150D01*
X11379586Y-17442198D02*
X11389110Y-17432674D01*
X11389110Y-17432674D02*
X11408158Y-17423150D01*
X11408158Y-17423150D02*
X11436729Y-17423150D01*
X11436729Y-17423150D02*
X11455777Y-17432674D01*
X11455777Y-17432674D02*
X11465301Y-17451722D01*
X11465301Y-17451722D02*
X11465301Y-17556484D01*
X11465301Y-17451722D02*
X11474824Y-17432674D01*
X11474824Y-17432674D02*
X11493872Y-17423150D01*
X11493872Y-17423150D02*
X11522443Y-17423150D01*
X11522443Y-17423150D02*
X11541491Y-17432674D01*
X11541491Y-17432674D02*
X11551015Y-17451722D01*
X11551015Y-17451722D02*
X11551015Y-17556484D01*
X11941491Y-17346960D02*
X11770063Y-17604103D01*
X12198634Y-17356484D02*
X12217682Y-17356484D01*
X12217682Y-17356484D02*
X12236729Y-17366008D01*
X12236729Y-17366008D02*
X12246253Y-17375531D01*
X12246253Y-17375531D02*
X12255777Y-17394579D01*
X12255777Y-17394579D02*
X12265301Y-17432674D01*
X12265301Y-17432674D02*
X12265301Y-17480293D01*
X12265301Y-17480293D02*
X12255777Y-17518389D01*
X12255777Y-17518389D02*
X12246253Y-17537436D01*
X12246253Y-17537436D02*
X12236729Y-17546960D01*
X12236729Y-17546960D02*
X12217682Y-17556484D01*
X12217682Y-17556484D02*
X12198634Y-17556484D01*
X12198634Y-17556484D02*
X12179586Y-17546960D01*
X12179586Y-17546960D02*
X12170063Y-17537436D01*
X12170063Y-17537436D02*
X12160539Y-17518389D01*
X12160539Y-17518389D02*
X12151015Y-17480293D01*
X12151015Y-17480293D02*
X12151015Y-17432674D01*
X12151015Y-17432674D02*
X12160539Y-17394579D01*
X12160539Y-17394579D02*
X12170063Y-17375531D01*
X12170063Y-17375531D02*
X12179586Y-17366008D01*
X12179586Y-17366008D02*
X12198634Y-17356484D01*
X12351015Y-17537436D02*
X12360539Y-17546960D01*
X12360539Y-17546960D02*
X12351015Y-17556484D01*
X12351015Y-17556484D02*
X12341491Y-17546960D01*
X12341491Y-17546960D02*
X12351015Y-17537436D01*
X12351015Y-17537436D02*
X12351015Y-17556484D01*
X12484348Y-17356484D02*
X12503396Y-17356484D01*
X12503396Y-17356484D02*
X12522444Y-17366008D01*
X12522444Y-17366008D02*
X12531967Y-17375531D01*
X12531967Y-17375531D02*
X12541491Y-17394579D01*
X12541491Y-17394579D02*
X12551015Y-17432674D01*
X12551015Y-17432674D02*
X12551015Y-17480293D01*
X12551015Y-17480293D02*
X12541491Y-17518389D01*
X12541491Y-17518389D02*
X12531967Y-17537436D01*
X12531967Y-17537436D02*
X12522444Y-17546960D01*
X12522444Y-17546960D02*
X12503396Y-17556484D01*
X12503396Y-17556484D02*
X12484348Y-17556484D01*
X12484348Y-17556484D02*
X12465301Y-17546960D01*
X12465301Y-17546960D02*
X12455777Y-17537436D01*
X12455777Y-17537436D02*
X12446253Y-17518389D01*
X12446253Y-17518389D02*
X12436729Y-17480293D01*
X12436729Y-17480293D02*
X12436729Y-17432674D01*
X12436729Y-17432674D02*
X12446253Y-17394579D01*
X12446253Y-17394579D02*
X12455777Y-17375531D01*
X12455777Y-17375531D02*
X12465301Y-17366008D01*
X12465301Y-17366008D02*
X12484348Y-17356484D01*
X12617682Y-17356484D02*
X12741491Y-17356484D01*
X12741491Y-17356484D02*
X12674825Y-17432674D01*
X12674825Y-17432674D02*
X12703396Y-17432674D01*
X12703396Y-17432674D02*
X12722444Y-17442198D01*
X12722444Y-17442198D02*
X12731967Y-17451722D01*
X12731967Y-17451722D02*
X12741491Y-17470770D01*
X12741491Y-17470770D02*
X12741491Y-17518389D01*
X12741491Y-17518389D02*
X12731967Y-17537436D01*
X12731967Y-17537436D02*
X12722444Y-17546960D01*
X12722444Y-17546960D02*
X12703396Y-17556484D01*
X12703396Y-17556484D02*
X12646253Y-17556484D01*
X12646253Y-17556484D02*
X12627206Y-17546960D01*
X12627206Y-17546960D02*
X12617682Y-17537436D01*
X12836729Y-17556484D02*
X12874825Y-17556484D01*
X12874825Y-17556484D02*
X12893872Y-17546960D01*
X12893872Y-17546960D02*
X12903396Y-17537436D01*
X12903396Y-17537436D02*
X12922444Y-17508865D01*
X12922444Y-17508865D02*
X12931967Y-17470770D01*
X12931967Y-17470770D02*
X12931967Y-17394579D01*
X12931967Y-17394579D02*
X12922444Y-17375531D01*
X12922444Y-17375531D02*
X12912920Y-17366008D01*
X12912920Y-17366008D02*
X12893872Y-17356484D01*
X12893872Y-17356484D02*
X12855777Y-17356484D01*
X12855777Y-17356484D02*
X12836729Y-17366008D01*
X12836729Y-17366008D02*
X12827206Y-17375531D01*
X12827206Y-17375531D02*
X12817682Y-17394579D01*
X12817682Y-17394579D02*
X12817682Y-17442198D01*
X12817682Y-17442198D02*
X12827206Y-17461246D01*
X12827206Y-17461246D02*
X12836729Y-17470770D01*
X12836729Y-17470770D02*
X12855777Y-17480293D01*
X12855777Y-17480293D02*
X12893872Y-17480293D01*
X12893872Y-17480293D02*
X12912920Y-17470770D01*
X12912920Y-17470770D02*
X12922444Y-17461246D01*
X12922444Y-17461246D02*
X12931967Y-17442198D01*
X13103396Y-17423150D02*
X13103396Y-17556484D01*
X13055777Y-17346960D02*
X13008158Y-17489817D01*
X13008158Y-17489817D02*
X13131967Y-17489817D01*
X13198634Y-17356484D02*
X13198634Y-17394579D01*
X13274825Y-17356484D02*
X13274825Y-17394579D01*
X13570063Y-17632674D02*
X13560539Y-17623150D01*
X13560539Y-17623150D02*
X13541491Y-17594579D01*
X13541491Y-17594579D02*
X13531968Y-17575531D01*
X13531968Y-17575531D02*
X13522444Y-17546960D01*
X13522444Y-17546960D02*
X13512920Y-17499341D01*
X13512920Y-17499341D02*
X13512920Y-17461246D01*
X13512920Y-17461246D02*
X13522444Y-17413627D01*
X13522444Y-17413627D02*
X13531968Y-17385055D01*
X13531968Y-17385055D02*
X13541491Y-17366008D01*
X13541491Y-17366008D02*
X13560539Y-17337436D01*
X13560539Y-17337436D02*
X13570063Y-17327912D01*
X13636729Y-17375531D02*
X13646253Y-17366008D01*
X13646253Y-17366008D02*
X13665301Y-17356484D01*
X13665301Y-17356484D02*
X13712920Y-17356484D01*
X13712920Y-17356484D02*
X13731968Y-17366008D01*
X13731968Y-17366008D02*
X13741491Y-17375531D01*
X13741491Y-17375531D02*
X13751015Y-17394579D01*
X13751015Y-17394579D02*
X13751015Y-17413627D01*
X13751015Y-17413627D02*
X13741491Y-17442198D01*
X13741491Y-17442198D02*
X13627206Y-17556484D01*
X13627206Y-17556484D02*
X13751015Y-17556484D01*
X13989110Y-17556484D02*
X13989110Y-17356484D01*
X14074825Y-17556484D02*
X14074825Y-17451722D01*
X14074825Y-17451722D02*
X14065301Y-17432674D01*
X14065301Y-17432674D02*
X14046253Y-17423150D01*
X14046253Y-17423150D02*
X14017682Y-17423150D01*
X14017682Y-17423150D02*
X13998634Y-17432674D01*
X13998634Y-17432674D02*
X13989110Y-17442198D01*
X14198634Y-17556484D02*
X14179587Y-17546960D01*
X14179587Y-17546960D02*
X14170063Y-17537436D01*
X14170063Y-17537436D02*
X14160539Y-17518389D01*
X14160539Y-17518389D02*
X14160539Y-17461246D01*
X14160539Y-17461246D02*
X14170063Y-17442198D01*
X14170063Y-17442198D02*
X14179587Y-17432674D01*
X14179587Y-17432674D02*
X14198634Y-17423150D01*
X14198634Y-17423150D02*
X14227206Y-17423150D01*
X14227206Y-17423150D02*
X14246253Y-17432674D01*
X14246253Y-17432674D02*
X14255777Y-17442198D01*
X14255777Y-17442198D02*
X14265301Y-17461246D01*
X14265301Y-17461246D02*
X14265301Y-17518389D01*
X14265301Y-17518389D02*
X14255777Y-17537436D01*
X14255777Y-17537436D02*
X14246253Y-17546960D01*
X14246253Y-17546960D02*
X14227206Y-17556484D01*
X14227206Y-17556484D02*
X14198634Y-17556484D01*
X14379587Y-17556484D02*
X14360539Y-17546960D01*
X14360539Y-17546960D02*
X14351015Y-17527912D01*
X14351015Y-17527912D02*
X14351015Y-17356484D01*
X14531968Y-17546960D02*
X14512920Y-17556484D01*
X14512920Y-17556484D02*
X14474825Y-17556484D01*
X14474825Y-17556484D02*
X14455777Y-17546960D01*
X14455777Y-17546960D02*
X14446253Y-17527912D01*
X14446253Y-17527912D02*
X14446253Y-17451722D01*
X14446253Y-17451722D02*
X14455777Y-17432674D01*
X14455777Y-17432674D02*
X14474825Y-17423150D01*
X14474825Y-17423150D02*
X14512920Y-17423150D01*
X14512920Y-17423150D02*
X14531968Y-17432674D01*
X14531968Y-17432674D02*
X14541491Y-17451722D01*
X14541491Y-17451722D02*
X14541491Y-17470770D01*
X14541491Y-17470770D02*
X14446253Y-17489817D01*
X14617682Y-17546960D02*
X14636730Y-17556484D01*
X14636730Y-17556484D02*
X14674825Y-17556484D01*
X14674825Y-17556484D02*
X14693872Y-17546960D01*
X14693872Y-17546960D02*
X14703396Y-17527912D01*
X14703396Y-17527912D02*
X14703396Y-17518389D01*
X14703396Y-17518389D02*
X14693872Y-17499341D01*
X14693872Y-17499341D02*
X14674825Y-17489817D01*
X14674825Y-17489817D02*
X14646253Y-17489817D01*
X14646253Y-17489817D02*
X14627206Y-17480293D01*
X14627206Y-17480293D02*
X14617682Y-17461246D01*
X14617682Y-17461246D02*
X14617682Y-17451722D01*
X14617682Y-17451722D02*
X14627206Y-17432674D01*
X14627206Y-17432674D02*
X14646253Y-17423150D01*
X14646253Y-17423150D02*
X14674825Y-17423150D01*
X14674825Y-17423150D02*
X14693872Y-17432674D01*
X14770063Y-17632674D02*
X14779587Y-17623150D01*
X14779587Y-17623150D02*
X14798634Y-17594579D01*
X14798634Y-17594579D02*
X14808158Y-17575531D01*
X14808158Y-17575531D02*
X14817682Y-17546960D01*
X14817682Y-17546960D02*
X14827206Y-17499341D01*
X14827206Y-17499341D02*
X14827206Y-17461246D01*
X14827206Y-17461246D02*
X14817682Y-17413627D01*
X14817682Y-17413627D02*
X14808158Y-17385055D01*
X14808158Y-17385055D02*
X14798634Y-17366008D01*
X14798634Y-17366008D02*
X14779587Y-17337436D01*
X14779587Y-17337436D02*
X14770063Y-17327912D01*
D12*
X9825000Y-17644000D02*
X9995000Y-17814000D01*
X9995000Y-17644000D02*
X9825000Y-17814000D01*
X9910000Y-17644000D02*
X9910000Y-17814000D01*
X9825000Y-17729000D02*
X9995000Y-17729000D01*
D11*
X10360539Y-17820484D02*
X10246253Y-17820484D01*
X10303396Y-17820484D02*
X10303396Y-17620484D01*
X10303396Y-17620484D02*
X10284348Y-17649055D01*
X10284348Y-17649055D02*
X10265301Y-17668103D01*
X10265301Y-17668103D02*
X10246253Y-17677627D01*
X10446253Y-17801436D02*
X10455777Y-17810960D01*
X10455777Y-17810960D02*
X10446253Y-17820484D01*
X10446253Y-17820484D02*
X10436729Y-17810960D01*
X10436729Y-17810960D02*
X10446253Y-17801436D01*
X10446253Y-17801436D02*
X10446253Y-17820484D01*
X10522444Y-17620484D02*
X10655777Y-17620484D01*
X10655777Y-17620484D02*
X10570063Y-17820484D01*
X10770063Y-17620484D02*
X10789110Y-17620484D01*
X10789110Y-17620484D02*
X10808158Y-17630008D01*
X10808158Y-17630008D02*
X10817682Y-17639531D01*
X10817682Y-17639531D02*
X10827205Y-17658579D01*
X10827205Y-17658579D02*
X10836729Y-17696674D01*
X10836729Y-17696674D02*
X10836729Y-17744293D01*
X10836729Y-17744293D02*
X10827205Y-17782389D01*
X10827205Y-17782389D02*
X10817682Y-17801436D01*
X10817682Y-17801436D02*
X10808158Y-17810960D01*
X10808158Y-17810960D02*
X10789110Y-17820484D01*
X10789110Y-17820484D02*
X10770063Y-17820484D01*
X10770063Y-17820484D02*
X10751015Y-17810960D01*
X10751015Y-17810960D02*
X10741491Y-17801436D01*
X10741491Y-17801436D02*
X10731967Y-17782389D01*
X10731967Y-17782389D02*
X10722444Y-17744293D01*
X10722444Y-17744293D02*
X10722444Y-17696674D01*
X10722444Y-17696674D02*
X10731967Y-17658579D01*
X10731967Y-17658579D02*
X10741491Y-17639531D01*
X10741491Y-17639531D02*
X10751015Y-17630008D01*
X10751015Y-17630008D02*
X10770063Y-17620484D01*
X10960539Y-17620484D02*
X10979586Y-17620484D01*
X10979586Y-17620484D02*
X10998634Y-17630008D01*
X10998634Y-17630008D02*
X11008158Y-17639531D01*
X11008158Y-17639531D02*
X11017682Y-17658579D01*
X11017682Y-17658579D02*
X11027205Y-17696674D01*
X11027205Y-17696674D02*
X11027205Y-17744293D01*
X11027205Y-17744293D02*
X11017682Y-17782389D01*
X11017682Y-17782389D02*
X11008158Y-17801436D01*
X11008158Y-17801436D02*
X10998634Y-17810960D01*
X10998634Y-17810960D02*
X10979586Y-17820484D01*
X10979586Y-17820484D02*
X10960539Y-17820484D01*
X10960539Y-17820484D02*
X10941491Y-17810960D01*
X10941491Y-17810960D02*
X10931967Y-17801436D01*
X10931967Y-17801436D02*
X10922444Y-17782389D01*
X10922444Y-17782389D02*
X10912920Y-17744293D01*
X10912920Y-17744293D02*
X10912920Y-17696674D01*
X10912920Y-17696674D02*
X10922444Y-17658579D01*
X10922444Y-17658579D02*
X10931967Y-17639531D01*
X10931967Y-17639531D02*
X10941491Y-17630008D01*
X10941491Y-17630008D02*
X10960539Y-17620484D01*
X11112920Y-17820484D02*
X11112920Y-17687150D01*
X11112920Y-17706198D02*
X11122444Y-17696674D01*
X11122444Y-17696674D02*
X11141491Y-17687150D01*
X11141491Y-17687150D02*
X11170063Y-17687150D01*
X11170063Y-17687150D02*
X11189110Y-17696674D01*
X11189110Y-17696674D02*
X11198634Y-17715722D01*
X11198634Y-17715722D02*
X11198634Y-17820484D01*
X11198634Y-17715722D02*
X11208158Y-17696674D01*
X11208158Y-17696674D02*
X11227205Y-17687150D01*
X11227205Y-17687150D02*
X11255777Y-17687150D01*
X11255777Y-17687150D02*
X11274824Y-17696674D01*
X11274824Y-17696674D02*
X11284348Y-17715722D01*
X11284348Y-17715722D02*
X11284348Y-17820484D01*
X11379586Y-17820484D02*
X11379586Y-17687150D01*
X11379586Y-17706198D02*
X11389110Y-17696674D01*
X11389110Y-17696674D02*
X11408158Y-17687150D01*
X11408158Y-17687150D02*
X11436729Y-17687150D01*
X11436729Y-17687150D02*
X11455777Y-17696674D01*
X11455777Y-17696674D02*
X11465301Y-17715722D01*
X11465301Y-17715722D02*
X11465301Y-17820484D01*
X11465301Y-17715722D02*
X11474824Y-17696674D01*
X11474824Y-17696674D02*
X11493872Y-17687150D01*
X11493872Y-17687150D02*
X11522443Y-17687150D01*
X11522443Y-17687150D02*
X11541491Y-17696674D01*
X11541491Y-17696674D02*
X11551015Y-17715722D01*
X11551015Y-17715722D02*
X11551015Y-17820484D01*
X11941491Y-17610960D02*
X11770063Y-17868103D01*
X12198634Y-17620484D02*
X12217682Y-17620484D01*
X12217682Y-17620484D02*
X12236729Y-17630008D01*
X12236729Y-17630008D02*
X12246253Y-17639531D01*
X12246253Y-17639531D02*
X12255777Y-17658579D01*
X12255777Y-17658579D02*
X12265301Y-17696674D01*
X12265301Y-17696674D02*
X12265301Y-17744293D01*
X12265301Y-17744293D02*
X12255777Y-17782389D01*
X12255777Y-17782389D02*
X12246253Y-17801436D01*
X12246253Y-17801436D02*
X12236729Y-17810960D01*
X12236729Y-17810960D02*
X12217682Y-17820484D01*
X12217682Y-17820484D02*
X12198634Y-17820484D01*
X12198634Y-17820484D02*
X12179586Y-17810960D01*
X12179586Y-17810960D02*
X12170063Y-17801436D01*
X12170063Y-17801436D02*
X12160539Y-17782389D01*
X12160539Y-17782389D02*
X12151015Y-17744293D01*
X12151015Y-17744293D02*
X12151015Y-17696674D01*
X12151015Y-17696674D02*
X12160539Y-17658579D01*
X12160539Y-17658579D02*
X12170063Y-17639531D01*
X12170063Y-17639531D02*
X12179586Y-17630008D01*
X12179586Y-17630008D02*
X12198634Y-17620484D01*
X12351015Y-17801436D02*
X12360539Y-17810960D01*
X12360539Y-17810960D02*
X12351015Y-17820484D01*
X12351015Y-17820484D02*
X12341491Y-17810960D01*
X12341491Y-17810960D02*
X12351015Y-17801436D01*
X12351015Y-17801436D02*
X12351015Y-17820484D01*
X12484348Y-17620484D02*
X12503396Y-17620484D01*
X12503396Y-17620484D02*
X12522444Y-17630008D01*
X12522444Y-17630008D02*
X12531967Y-17639531D01*
X12531967Y-17639531D02*
X12541491Y-17658579D01*
X12541491Y-17658579D02*
X12551015Y-17696674D01*
X12551015Y-17696674D02*
X12551015Y-17744293D01*
X12551015Y-17744293D02*
X12541491Y-17782389D01*
X12541491Y-17782389D02*
X12531967Y-17801436D01*
X12531967Y-17801436D02*
X12522444Y-17810960D01*
X12522444Y-17810960D02*
X12503396Y-17820484D01*
X12503396Y-17820484D02*
X12484348Y-17820484D01*
X12484348Y-17820484D02*
X12465301Y-17810960D01*
X12465301Y-17810960D02*
X12455777Y-17801436D01*
X12455777Y-17801436D02*
X12446253Y-17782389D01*
X12446253Y-17782389D02*
X12436729Y-17744293D01*
X12436729Y-17744293D02*
X12436729Y-17696674D01*
X12436729Y-17696674D02*
X12446253Y-17658579D01*
X12446253Y-17658579D02*
X12455777Y-17639531D01*
X12455777Y-17639531D02*
X12465301Y-17630008D01*
X12465301Y-17630008D02*
X12484348Y-17620484D01*
X12722444Y-17620484D02*
X12684348Y-17620484D01*
X12684348Y-17620484D02*
X12665301Y-17630008D01*
X12665301Y-17630008D02*
X12655777Y-17639531D01*
X12655777Y-17639531D02*
X12636729Y-17668103D01*
X12636729Y-17668103D02*
X12627206Y-17706198D01*
X12627206Y-17706198D02*
X12627206Y-17782389D01*
X12627206Y-17782389D02*
X12636729Y-17801436D01*
X12636729Y-17801436D02*
X12646253Y-17810960D01*
X12646253Y-17810960D02*
X12665301Y-17820484D01*
X12665301Y-17820484D02*
X12703396Y-17820484D01*
X12703396Y-17820484D02*
X12722444Y-17810960D01*
X12722444Y-17810960D02*
X12731967Y-17801436D01*
X12731967Y-17801436D02*
X12741491Y-17782389D01*
X12741491Y-17782389D02*
X12741491Y-17734770D01*
X12741491Y-17734770D02*
X12731967Y-17715722D01*
X12731967Y-17715722D02*
X12722444Y-17706198D01*
X12722444Y-17706198D02*
X12703396Y-17696674D01*
X12703396Y-17696674D02*
X12665301Y-17696674D01*
X12665301Y-17696674D02*
X12646253Y-17706198D01*
X12646253Y-17706198D02*
X12636729Y-17715722D01*
X12636729Y-17715722D02*
X12627206Y-17734770D01*
X12912920Y-17620484D02*
X12874825Y-17620484D01*
X12874825Y-17620484D02*
X12855777Y-17630008D01*
X12855777Y-17630008D02*
X12846253Y-17639531D01*
X12846253Y-17639531D02*
X12827206Y-17668103D01*
X12827206Y-17668103D02*
X12817682Y-17706198D01*
X12817682Y-17706198D02*
X12817682Y-17782389D01*
X12817682Y-17782389D02*
X12827206Y-17801436D01*
X12827206Y-17801436D02*
X12836729Y-17810960D01*
X12836729Y-17810960D02*
X12855777Y-17820484D01*
X12855777Y-17820484D02*
X12893872Y-17820484D01*
X12893872Y-17820484D02*
X12912920Y-17810960D01*
X12912920Y-17810960D02*
X12922444Y-17801436D01*
X12922444Y-17801436D02*
X12931967Y-17782389D01*
X12931967Y-17782389D02*
X12931967Y-17734770D01*
X12931967Y-17734770D02*
X12922444Y-17715722D01*
X12922444Y-17715722D02*
X12912920Y-17706198D01*
X12912920Y-17706198D02*
X12893872Y-17696674D01*
X12893872Y-17696674D02*
X12855777Y-17696674D01*
X12855777Y-17696674D02*
X12836729Y-17706198D01*
X12836729Y-17706198D02*
X12827206Y-17715722D01*
X12827206Y-17715722D02*
X12817682Y-17734770D01*
X13027206Y-17820484D02*
X13065301Y-17820484D01*
X13065301Y-17820484D02*
X13084348Y-17810960D01*
X13084348Y-17810960D02*
X13093872Y-17801436D01*
X13093872Y-17801436D02*
X13112920Y-17772865D01*
X13112920Y-17772865D02*
X13122444Y-17734770D01*
X13122444Y-17734770D02*
X13122444Y-17658579D01*
X13122444Y-17658579D02*
X13112920Y-17639531D01*
X13112920Y-17639531D02*
X13103396Y-17630008D01*
X13103396Y-17630008D02*
X13084348Y-17620484D01*
X13084348Y-17620484D02*
X13046253Y-17620484D01*
X13046253Y-17620484D02*
X13027206Y-17630008D01*
X13027206Y-17630008D02*
X13017682Y-17639531D01*
X13017682Y-17639531D02*
X13008158Y-17658579D01*
X13008158Y-17658579D02*
X13008158Y-17706198D01*
X13008158Y-17706198D02*
X13017682Y-17725246D01*
X13017682Y-17725246D02*
X13027206Y-17734770D01*
X13027206Y-17734770D02*
X13046253Y-17744293D01*
X13046253Y-17744293D02*
X13084348Y-17744293D01*
X13084348Y-17744293D02*
X13103396Y-17734770D01*
X13103396Y-17734770D02*
X13112920Y-17725246D01*
X13112920Y-17725246D02*
X13122444Y-17706198D01*
X13198634Y-17620484D02*
X13198634Y-17658579D01*
X13274825Y-17620484D02*
X13274825Y-17658579D01*
X13570063Y-17896674D02*
X13560539Y-17887150D01*
X13560539Y-17887150D02*
X13541491Y-17858579D01*
X13541491Y-17858579D02*
X13531968Y-17839531D01*
X13531968Y-17839531D02*
X13522444Y-17810960D01*
X13522444Y-17810960D02*
X13512920Y-17763341D01*
X13512920Y-17763341D02*
X13512920Y-17725246D01*
X13512920Y-17725246D02*
X13522444Y-17677627D01*
X13522444Y-17677627D02*
X13531968Y-17649055D01*
X13531968Y-17649055D02*
X13541491Y-17630008D01*
X13541491Y-17630008D02*
X13560539Y-17601436D01*
X13560539Y-17601436D02*
X13570063Y-17591912D01*
X13636729Y-17639531D02*
X13646253Y-17630008D01*
X13646253Y-17630008D02*
X13665301Y-17620484D01*
X13665301Y-17620484D02*
X13712920Y-17620484D01*
X13712920Y-17620484D02*
X13731968Y-17630008D01*
X13731968Y-17630008D02*
X13741491Y-17639531D01*
X13741491Y-17639531D02*
X13751015Y-17658579D01*
X13751015Y-17658579D02*
X13751015Y-17677627D01*
X13751015Y-17677627D02*
X13741491Y-17706198D01*
X13741491Y-17706198D02*
X13627206Y-17820484D01*
X13627206Y-17820484D02*
X13751015Y-17820484D01*
X13989110Y-17820484D02*
X13989110Y-17620484D01*
X14074825Y-17820484D02*
X14074825Y-17715722D01*
X14074825Y-17715722D02*
X14065301Y-17696674D01*
X14065301Y-17696674D02*
X14046253Y-17687150D01*
X14046253Y-17687150D02*
X14017682Y-17687150D01*
X14017682Y-17687150D02*
X13998634Y-17696674D01*
X13998634Y-17696674D02*
X13989110Y-17706198D01*
X14198634Y-17820484D02*
X14179587Y-17810960D01*
X14179587Y-17810960D02*
X14170063Y-17801436D01*
X14170063Y-17801436D02*
X14160539Y-17782389D01*
X14160539Y-17782389D02*
X14160539Y-17725246D01*
X14160539Y-17725246D02*
X14170063Y-17706198D01*
X14170063Y-17706198D02*
X14179587Y-17696674D01*
X14179587Y-17696674D02*
X14198634Y-17687150D01*
X14198634Y-17687150D02*
X14227206Y-17687150D01*
X14227206Y-17687150D02*
X14246253Y-17696674D01*
X14246253Y-17696674D02*
X14255777Y-17706198D01*
X14255777Y-17706198D02*
X14265301Y-17725246D01*
X14265301Y-17725246D02*
X14265301Y-17782389D01*
X14265301Y-17782389D02*
X14255777Y-17801436D01*
X14255777Y-17801436D02*
X14246253Y-17810960D01*
X14246253Y-17810960D02*
X14227206Y-17820484D01*
X14227206Y-17820484D02*
X14198634Y-17820484D01*
X14379587Y-17820484D02*
X14360539Y-17810960D01*
X14360539Y-17810960D02*
X14351015Y-17791912D01*
X14351015Y-17791912D02*
X14351015Y-17620484D01*
X14531968Y-17810960D02*
X14512920Y-17820484D01*
X14512920Y-17820484D02*
X14474825Y-17820484D01*
X14474825Y-17820484D02*
X14455777Y-17810960D01*
X14455777Y-17810960D02*
X14446253Y-17791912D01*
X14446253Y-17791912D02*
X14446253Y-17715722D01*
X14446253Y-17715722D02*
X14455777Y-17696674D01*
X14455777Y-17696674D02*
X14474825Y-17687150D01*
X14474825Y-17687150D02*
X14512920Y-17687150D01*
X14512920Y-17687150D02*
X14531968Y-17696674D01*
X14531968Y-17696674D02*
X14541491Y-17715722D01*
X14541491Y-17715722D02*
X14541491Y-17734770D01*
X14541491Y-17734770D02*
X14446253Y-17753817D01*
X14617682Y-17810960D02*
X14636730Y-17820484D01*
X14636730Y-17820484D02*
X14674825Y-17820484D01*
X14674825Y-17820484D02*
X14693872Y-17810960D01*
X14693872Y-17810960D02*
X14703396Y-17791912D01*
X14703396Y-17791912D02*
X14703396Y-17782389D01*
X14703396Y-17782389D02*
X14693872Y-17763341D01*
X14693872Y-17763341D02*
X14674825Y-17753817D01*
X14674825Y-17753817D02*
X14646253Y-17753817D01*
X14646253Y-17753817D02*
X14627206Y-17744293D01*
X14627206Y-17744293D02*
X14617682Y-17725246D01*
X14617682Y-17725246D02*
X14617682Y-17715722D01*
X14617682Y-17715722D02*
X14627206Y-17696674D01*
X14627206Y-17696674D02*
X14646253Y-17687150D01*
X14646253Y-17687150D02*
X14674825Y-17687150D01*
X14674825Y-17687150D02*
X14693872Y-17696674D01*
X14770063Y-17896674D02*
X14779587Y-17887150D01*
X14779587Y-17887150D02*
X14798634Y-17858579D01*
X14798634Y-17858579D02*
X14808158Y-17839531D01*
X14808158Y-17839531D02*
X14817682Y-17810960D01*
X14817682Y-17810960D02*
X14827206Y-17763341D01*
X14827206Y-17763341D02*
X14827206Y-17725246D01*
X14827206Y-17725246D02*
X14817682Y-17677627D01*
X14817682Y-17677627D02*
X14808158Y-17649055D01*
X14808158Y-17649055D02*
X14798634Y-17630008D01*
X14798634Y-17630008D02*
X14779587Y-17601436D01*
X14779587Y-17601436D02*
X14770063Y-17591912D01*
X9795000Y-17919000D02*
X9995000Y-18119000D01*
X9995000Y-17919000D02*
X9795000Y-18119000D01*
X9965711Y-18089711D02*
X9965711Y-17948289D01*
X9824289Y-17948289D01*
X9824289Y-18089711D01*
X9965711Y-18089711D01*
X10236729Y-17910484D02*
X10360539Y-17910484D01*
X10360539Y-17910484D02*
X10293872Y-17986674D01*
X10293872Y-17986674D02*
X10322444Y-17986674D01*
X10322444Y-17986674D02*
X10341491Y-17996198D01*
X10341491Y-17996198D02*
X10351015Y-18005722D01*
X10351015Y-18005722D02*
X10360539Y-18024770D01*
X10360539Y-18024770D02*
X10360539Y-18072389D01*
X10360539Y-18072389D02*
X10351015Y-18091436D01*
X10351015Y-18091436D02*
X10341491Y-18100960D01*
X10341491Y-18100960D02*
X10322444Y-18110484D01*
X10322444Y-18110484D02*
X10265301Y-18110484D01*
X10265301Y-18110484D02*
X10246253Y-18100960D01*
X10246253Y-18100960D02*
X10236729Y-18091436D01*
X10446253Y-18091436D02*
X10455777Y-18100960D01*
X10455777Y-18100960D02*
X10446253Y-18110484D01*
X10446253Y-18110484D02*
X10436729Y-18100960D01*
X10436729Y-18100960D02*
X10446253Y-18091436D01*
X10446253Y-18091436D02*
X10446253Y-18110484D01*
X10531967Y-17929531D02*
X10541491Y-17920008D01*
X10541491Y-17920008D02*
X10560539Y-17910484D01*
X10560539Y-17910484D02*
X10608158Y-17910484D01*
X10608158Y-17910484D02*
X10627205Y-17920008D01*
X10627205Y-17920008D02*
X10636729Y-17929531D01*
X10636729Y-17929531D02*
X10646253Y-17948579D01*
X10646253Y-17948579D02*
X10646253Y-17967627D01*
X10646253Y-17967627D02*
X10636729Y-17996198D01*
X10636729Y-17996198D02*
X10522444Y-18110484D01*
X10522444Y-18110484D02*
X10646253Y-18110484D01*
X10770063Y-17910484D02*
X10789110Y-17910484D01*
X10789110Y-17910484D02*
X10808158Y-17920008D01*
X10808158Y-17920008D02*
X10817682Y-17929531D01*
X10817682Y-17929531D02*
X10827205Y-17948579D01*
X10827205Y-17948579D02*
X10836729Y-17986674D01*
X10836729Y-17986674D02*
X10836729Y-18034293D01*
X10836729Y-18034293D02*
X10827205Y-18072389D01*
X10827205Y-18072389D02*
X10817682Y-18091436D01*
X10817682Y-18091436D02*
X10808158Y-18100960D01*
X10808158Y-18100960D02*
X10789110Y-18110484D01*
X10789110Y-18110484D02*
X10770063Y-18110484D01*
X10770063Y-18110484D02*
X10751015Y-18100960D01*
X10751015Y-18100960D02*
X10741491Y-18091436D01*
X10741491Y-18091436D02*
X10731967Y-18072389D01*
X10731967Y-18072389D02*
X10722444Y-18034293D01*
X10722444Y-18034293D02*
X10722444Y-17986674D01*
X10722444Y-17986674D02*
X10731967Y-17948579D01*
X10731967Y-17948579D02*
X10741491Y-17929531D01*
X10741491Y-17929531D02*
X10751015Y-17920008D01*
X10751015Y-17920008D02*
X10770063Y-17910484D01*
X10960539Y-17910484D02*
X10979586Y-17910484D01*
X10979586Y-17910484D02*
X10998634Y-17920008D01*
X10998634Y-17920008D02*
X11008158Y-17929531D01*
X11008158Y-17929531D02*
X11017682Y-17948579D01*
X11017682Y-17948579D02*
X11027205Y-17986674D01*
X11027205Y-17986674D02*
X11027205Y-18034293D01*
X11027205Y-18034293D02*
X11017682Y-18072389D01*
X11017682Y-18072389D02*
X11008158Y-18091436D01*
X11008158Y-18091436D02*
X10998634Y-18100960D01*
X10998634Y-18100960D02*
X10979586Y-18110484D01*
X10979586Y-18110484D02*
X10960539Y-18110484D01*
X10960539Y-18110484D02*
X10941491Y-18100960D01*
X10941491Y-18100960D02*
X10931967Y-18091436D01*
X10931967Y-18091436D02*
X10922444Y-18072389D01*
X10922444Y-18072389D02*
X10912920Y-18034293D01*
X10912920Y-18034293D02*
X10912920Y-17986674D01*
X10912920Y-17986674D02*
X10922444Y-17948579D01*
X10922444Y-17948579D02*
X10931967Y-17929531D01*
X10931967Y-17929531D02*
X10941491Y-17920008D01*
X10941491Y-17920008D02*
X10960539Y-17910484D01*
X11112920Y-18110484D02*
X11112920Y-17977150D01*
X11112920Y-17996198D02*
X11122444Y-17986674D01*
X11122444Y-17986674D02*
X11141491Y-17977150D01*
X11141491Y-17977150D02*
X11170063Y-17977150D01*
X11170063Y-17977150D02*
X11189110Y-17986674D01*
X11189110Y-17986674D02*
X11198634Y-18005722D01*
X11198634Y-18005722D02*
X11198634Y-18110484D01*
X11198634Y-18005722D02*
X11208158Y-17986674D01*
X11208158Y-17986674D02*
X11227205Y-17977150D01*
X11227205Y-17977150D02*
X11255777Y-17977150D01*
X11255777Y-17977150D02*
X11274824Y-17986674D01*
X11274824Y-17986674D02*
X11284348Y-18005722D01*
X11284348Y-18005722D02*
X11284348Y-18110484D01*
X11379586Y-18110484D02*
X11379586Y-17977150D01*
X11379586Y-17996198D02*
X11389110Y-17986674D01*
X11389110Y-17986674D02*
X11408158Y-17977150D01*
X11408158Y-17977150D02*
X11436729Y-17977150D01*
X11436729Y-17977150D02*
X11455777Y-17986674D01*
X11455777Y-17986674D02*
X11465301Y-18005722D01*
X11465301Y-18005722D02*
X11465301Y-18110484D01*
X11465301Y-18005722D02*
X11474824Y-17986674D01*
X11474824Y-17986674D02*
X11493872Y-17977150D01*
X11493872Y-17977150D02*
X11522443Y-17977150D01*
X11522443Y-17977150D02*
X11541491Y-17986674D01*
X11541491Y-17986674D02*
X11551015Y-18005722D01*
X11551015Y-18005722D02*
X11551015Y-18110484D01*
X11941491Y-17900960D02*
X11770063Y-18158103D01*
X12198634Y-17910484D02*
X12217682Y-17910484D01*
X12217682Y-17910484D02*
X12236729Y-17920008D01*
X12236729Y-17920008D02*
X12246253Y-17929531D01*
X12246253Y-17929531D02*
X12255777Y-17948579D01*
X12255777Y-17948579D02*
X12265301Y-17986674D01*
X12265301Y-17986674D02*
X12265301Y-18034293D01*
X12265301Y-18034293D02*
X12255777Y-18072389D01*
X12255777Y-18072389D02*
X12246253Y-18091436D01*
X12246253Y-18091436D02*
X12236729Y-18100960D01*
X12236729Y-18100960D02*
X12217682Y-18110484D01*
X12217682Y-18110484D02*
X12198634Y-18110484D01*
X12198634Y-18110484D02*
X12179586Y-18100960D01*
X12179586Y-18100960D02*
X12170063Y-18091436D01*
X12170063Y-18091436D02*
X12160539Y-18072389D01*
X12160539Y-18072389D02*
X12151015Y-18034293D01*
X12151015Y-18034293D02*
X12151015Y-17986674D01*
X12151015Y-17986674D02*
X12160539Y-17948579D01*
X12160539Y-17948579D02*
X12170063Y-17929531D01*
X12170063Y-17929531D02*
X12179586Y-17920008D01*
X12179586Y-17920008D02*
X12198634Y-17910484D01*
X12351015Y-18091436D02*
X12360539Y-18100960D01*
X12360539Y-18100960D02*
X12351015Y-18110484D01*
X12351015Y-18110484D02*
X12341491Y-18100960D01*
X12341491Y-18100960D02*
X12351015Y-18091436D01*
X12351015Y-18091436D02*
X12351015Y-18110484D01*
X12551015Y-18110484D02*
X12436729Y-18110484D01*
X12493872Y-18110484D02*
X12493872Y-17910484D01*
X12493872Y-17910484D02*
X12474825Y-17939055D01*
X12474825Y-17939055D02*
X12455777Y-17958103D01*
X12455777Y-17958103D02*
X12436729Y-17967627D01*
X12627206Y-17929531D02*
X12636729Y-17920008D01*
X12636729Y-17920008D02*
X12655777Y-17910484D01*
X12655777Y-17910484D02*
X12703396Y-17910484D01*
X12703396Y-17910484D02*
X12722444Y-17920008D01*
X12722444Y-17920008D02*
X12731967Y-17929531D01*
X12731967Y-17929531D02*
X12741491Y-17948579D01*
X12741491Y-17948579D02*
X12741491Y-17967627D01*
X12741491Y-17967627D02*
X12731967Y-17996198D01*
X12731967Y-17996198D02*
X12617682Y-18110484D01*
X12617682Y-18110484D02*
X12741491Y-18110484D01*
X12912920Y-17910484D02*
X12874825Y-17910484D01*
X12874825Y-17910484D02*
X12855777Y-17920008D01*
X12855777Y-17920008D02*
X12846253Y-17929531D01*
X12846253Y-17929531D02*
X12827206Y-17958103D01*
X12827206Y-17958103D02*
X12817682Y-17996198D01*
X12817682Y-17996198D02*
X12817682Y-18072389D01*
X12817682Y-18072389D02*
X12827206Y-18091436D01*
X12827206Y-18091436D02*
X12836729Y-18100960D01*
X12836729Y-18100960D02*
X12855777Y-18110484D01*
X12855777Y-18110484D02*
X12893872Y-18110484D01*
X12893872Y-18110484D02*
X12912920Y-18100960D01*
X12912920Y-18100960D02*
X12922444Y-18091436D01*
X12922444Y-18091436D02*
X12931967Y-18072389D01*
X12931967Y-18072389D02*
X12931967Y-18024770D01*
X12931967Y-18024770D02*
X12922444Y-18005722D01*
X12922444Y-18005722D02*
X12912920Y-17996198D01*
X12912920Y-17996198D02*
X12893872Y-17986674D01*
X12893872Y-17986674D02*
X12855777Y-17986674D01*
X12855777Y-17986674D02*
X12836729Y-17996198D01*
X12836729Y-17996198D02*
X12827206Y-18005722D01*
X12827206Y-18005722D02*
X12817682Y-18024770D01*
X13055777Y-17910484D02*
X13074825Y-17910484D01*
X13074825Y-17910484D02*
X13093872Y-17920008D01*
X13093872Y-17920008D02*
X13103396Y-17929531D01*
X13103396Y-17929531D02*
X13112920Y-17948579D01*
X13112920Y-17948579D02*
X13122444Y-17986674D01*
X13122444Y-17986674D02*
X13122444Y-18034293D01*
X13122444Y-18034293D02*
X13112920Y-18072389D01*
X13112920Y-18072389D02*
X13103396Y-18091436D01*
X13103396Y-18091436D02*
X13093872Y-18100960D01*
X13093872Y-18100960D02*
X13074825Y-18110484D01*
X13074825Y-18110484D02*
X13055777Y-18110484D01*
X13055777Y-18110484D02*
X13036729Y-18100960D01*
X13036729Y-18100960D02*
X13027206Y-18091436D01*
X13027206Y-18091436D02*
X13017682Y-18072389D01*
X13017682Y-18072389D02*
X13008158Y-18034293D01*
X13008158Y-18034293D02*
X13008158Y-17986674D01*
X13008158Y-17986674D02*
X13017682Y-17948579D01*
X13017682Y-17948579D02*
X13027206Y-17929531D01*
X13027206Y-17929531D02*
X13036729Y-17920008D01*
X13036729Y-17920008D02*
X13055777Y-17910484D01*
X13198634Y-17910484D02*
X13198634Y-17948579D01*
X13274825Y-17910484D02*
X13274825Y-17948579D01*
X13570063Y-18186674D02*
X13560539Y-18177150D01*
X13560539Y-18177150D02*
X13541491Y-18148579D01*
X13541491Y-18148579D02*
X13531968Y-18129531D01*
X13531968Y-18129531D02*
X13522444Y-18100960D01*
X13522444Y-18100960D02*
X13512920Y-18053341D01*
X13512920Y-18053341D02*
X13512920Y-18015246D01*
X13512920Y-18015246D02*
X13522444Y-17967627D01*
X13522444Y-17967627D02*
X13531968Y-17939055D01*
X13531968Y-17939055D02*
X13541491Y-17920008D01*
X13541491Y-17920008D02*
X13560539Y-17891436D01*
X13560539Y-17891436D02*
X13570063Y-17881912D01*
X13731968Y-17977150D02*
X13731968Y-18110484D01*
X13684348Y-17900960D02*
X13636729Y-18043817D01*
X13636729Y-18043817D02*
X13760539Y-18043817D01*
X13989110Y-18110484D02*
X13989110Y-17910484D01*
X14074825Y-18110484D02*
X14074825Y-18005722D01*
X14074825Y-18005722D02*
X14065301Y-17986674D01*
X14065301Y-17986674D02*
X14046253Y-17977150D01*
X14046253Y-17977150D02*
X14017682Y-17977150D01*
X14017682Y-17977150D02*
X13998634Y-17986674D01*
X13998634Y-17986674D02*
X13989110Y-17996198D01*
X14198634Y-18110484D02*
X14179587Y-18100960D01*
X14179587Y-18100960D02*
X14170063Y-18091436D01*
X14170063Y-18091436D02*
X14160539Y-18072389D01*
X14160539Y-18072389D02*
X14160539Y-18015246D01*
X14160539Y-18015246D02*
X14170063Y-17996198D01*
X14170063Y-17996198D02*
X14179587Y-17986674D01*
X14179587Y-17986674D02*
X14198634Y-17977150D01*
X14198634Y-17977150D02*
X14227206Y-17977150D01*
X14227206Y-17977150D02*
X14246253Y-17986674D01*
X14246253Y-17986674D02*
X14255777Y-17996198D01*
X14255777Y-17996198D02*
X14265301Y-18015246D01*
X14265301Y-18015246D02*
X14265301Y-18072389D01*
X14265301Y-18072389D02*
X14255777Y-18091436D01*
X14255777Y-18091436D02*
X14246253Y-18100960D01*
X14246253Y-18100960D02*
X14227206Y-18110484D01*
X14227206Y-18110484D02*
X14198634Y-18110484D01*
X14379587Y-18110484D02*
X14360539Y-18100960D01*
X14360539Y-18100960D02*
X14351015Y-18081912D01*
X14351015Y-18081912D02*
X14351015Y-17910484D01*
X14531968Y-18100960D02*
X14512920Y-18110484D01*
X14512920Y-18110484D02*
X14474825Y-18110484D01*
X14474825Y-18110484D02*
X14455777Y-18100960D01*
X14455777Y-18100960D02*
X14446253Y-18081912D01*
X14446253Y-18081912D02*
X14446253Y-18005722D01*
X14446253Y-18005722D02*
X14455777Y-17986674D01*
X14455777Y-17986674D02*
X14474825Y-17977150D01*
X14474825Y-17977150D02*
X14512920Y-17977150D01*
X14512920Y-17977150D02*
X14531968Y-17986674D01*
X14531968Y-17986674D02*
X14541491Y-18005722D01*
X14541491Y-18005722D02*
X14541491Y-18024770D01*
X14541491Y-18024770D02*
X14446253Y-18043817D01*
X14617682Y-18100960D02*
X14636730Y-18110484D01*
X14636730Y-18110484D02*
X14674825Y-18110484D01*
X14674825Y-18110484D02*
X14693872Y-18100960D01*
X14693872Y-18100960D02*
X14703396Y-18081912D01*
X14703396Y-18081912D02*
X14703396Y-18072389D01*
X14703396Y-18072389D02*
X14693872Y-18053341D01*
X14693872Y-18053341D02*
X14674825Y-18043817D01*
X14674825Y-18043817D02*
X14646253Y-18043817D01*
X14646253Y-18043817D02*
X14627206Y-18034293D01*
X14627206Y-18034293D02*
X14617682Y-18015246D01*
X14617682Y-18015246D02*
X14617682Y-18005722D01*
X14617682Y-18005722D02*
X14627206Y-17986674D01*
X14627206Y-17986674D02*
X14646253Y-17977150D01*
X14646253Y-17977150D02*
X14674825Y-17977150D01*
X14674825Y-17977150D02*
X14693872Y-17986674D01*
X14770063Y-18186674D02*
X14779587Y-18177150D01*
X14779587Y-18177150D02*
X14798634Y-18148579D01*
X14798634Y-18148579D02*
X14808158Y-18129531D01*
X14808158Y-18129531D02*
X14817682Y-18100960D01*
X14817682Y-18100960D02*
X14827206Y-18053341D01*
X14827206Y-18053341D02*
X14827206Y-18015246D01*
X14827206Y-18015246D02*
X14817682Y-17967627D01*
X14817682Y-17967627D02*
X14808158Y-17939055D01*
X14808158Y-17939055D02*
X14798634Y-17920008D01*
X14798634Y-17920008D02*
X14779587Y-17891436D01*
X14779587Y-17891436D02*
X14770063Y-17881912D01*
M02*
