%TF.GenerationSoftware,KiCad,Pcbnew,9.0.9-9.0.9~ubuntu24.04.1*%
%TF.CreationDate,2026-09-15T19:23:52+03:00*%
%TF.ProjectId,im01,696d3031-2e6b-4696-9361-645f70636258,rev?*%
%TF.SameCoordinates,Original*%
%TF.FileFunction,Legend,Bot*%
%TF.FilePolarity,Positive*%
%FSLAX46Y46*%
G04 Gerber Fmt 4.6, Leading zero omitted, Abs format (unit mm)*
G04 Created by KiCad (PCBNEW 9.0.9-9.0.9~ubuntu24.04.1) date 2026-09-15 19:23:52*
%MOMM*%
%LPD*%
G01*
G04 APERTURE LIST*
G04 Aperture macros list*
%AMRoundRect*
0 Rectangle with rounded corners*
0 $1 Rounding radius*
0 $2 $3 $4 $5 $6 $7 $8 $9 X,Y pos of 4 corners*
0 Add a 4 corners polygon primitive as box body*
4,1,4,$2,$3,$4,$5,$6,$7,$8,$9,$2,$3,0*
0 Add four circle primitives for the rounded corners*
1,1,$1+$1,$2,$3*
1,1,$1+$1,$4,$5*
1,1,$1+$1,$6,$7*
1,1,$1+$1,$8,$9*
0 Add four rect primitives between the rounded corners*
20,1,$1+$1,$2,$3,$4,$5,0*
20,1,$1+$1,$4,$5,$6,$7,0*
20,1,$1+$1,$6,$7,$8,$9,0*
20,1,$1+$1,$8,$9,$2,$3,0*%
G04 Aperture macros list end*
%ADD10C,0.224999*%
%ADD11C,0.270000*%
%ADD12C,0.600000*%
%ADD13RoundRect,0.250000X-0.750000X0.600000X-0.750000X-0.600000X0.750000X-0.600000X0.750000X0.600000X0*%
%ADD14O,2.000000X1.700000*%
%ADD15C,0.800000*%
%ADD16C,6.400000*%
%ADD17C,0.610000*%
%ADD18RoundRect,0.250000X-0.725000X0.600000X-0.725000X-0.600000X0.725000X-0.600000X0.725000X0.600000X0*%
%ADD19O,1.950000X1.700000*%
%ADD20RoundRect,0.250001X-1.099999X1.099999X-1.099999X-1.099999X1.099999X-1.099999X1.099999X1.099999X0*%
%ADD21C,2.700000*%
%ADD22C,0.990600*%
G04 APERTURE END LIST*
D10*
X148107141Y-131682228D02*
X148107141Y-130682228D01*
X148107141Y-130967942D02*
X148035712Y-130825085D01*
X148035712Y-130825085D02*
X147964284Y-130753657D01*
X147964284Y-130753657D02*
X147821426Y-130682228D01*
X147821426Y-130682228D02*
X147678569Y-130682228D01*
X146607141Y-131610800D02*
X146749998Y-131682228D01*
X146749998Y-131682228D02*
X147035713Y-131682228D01*
X147035713Y-131682228D02*
X147178570Y-131610800D01*
X147178570Y-131610800D02*
X147249998Y-131467942D01*
X147249998Y-131467942D02*
X147249998Y-130896514D01*
X147249998Y-130896514D02*
X147178570Y-130753657D01*
X147178570Y-130753657D02*
X147035713Y-130682228D01*
X147035713Y-130682228D02*
X146749998Y-130682228D01*
X146749998Y-130682228D02*
X146607141Y-130753657D01*
X146607141Y-130753657D02*
X146535713Y-130896514D01*
X146535713Y-130896514D02*
X146535713Y-131039371D01*
X146535713Y-131039371D02*
X147249998Y-131182228D01*
X146035713Y-130682228D02*
X145678570Y-131682228D01*
X145678570Y-131682228D02*
X145321427Y-130682228D01*
X144749999Y-131539371D02*
X144678570Y-131610800D01*
X144678570Y-131610800D02*
X144749999Y-131682228D01*
X144749999Y-131682228D02*
X144821427Y-131610800D01*
X144821427Y-131610800D02*
X144749999Y-131539371D01*
X144749999Y-131539371D02*
X144749999Y-131682228D01*
X144107141Y-131253657D02*
X143392856Y-131253657D01*
X144249998Y-131682228D02*
X143749998Y-130182228D01*
X143749998Y-130182228D02*
X143249998Y-131682228D01*
X140178570Y-130182228D02*
X140035713Y-130182228D01*
X140035713Y-130182228D02*
X139892856Y-130253657D01*
X139892856Y-130253657D02*
X139821428Y-130325085D01*
X139821428Y-130325085D02*
X139749999Y-130467942D01*
X139749999Y-130467942D02*
X139678570Y-130753657D01*
X139678570Y-130753657D02*
X139678570Y-131110800D01*
X139678570Y-131110800D02*
X139749999Y-131396514D01*
X139749999Y-131396514D02*
X139821428Y-131539371D01*
X139821428Y-131539371D02*
X139892856Y-131610800D01*
X139892856Y-131610800D02*
X140035713Y-131682228D01*
X140035713Y-131682228D02*
X140178570Y-131682228D01*
X140178570Y-131682228D02*
X140321428Y-131610800D01*
X140321428Y-131610800D02*
X140392856Y-131539371D01*
X140392856Y-131539371D02*
X140464285Y-131396514D01*
X140464285Y-131396514D02*
X140535713Y-131110800D01*
X140535713Y-131110800D02*
X140535713Y-130753657D01*
X140535713Y-130753657D02*
X140464285Y-130467942D01*
X140464285Y-130467942D02*
X140392856Y-130325085D01*
X140392856Y-130325085D02*
X140321428Y-130253657D01*
X140321428Y-130253657D02*
X140178570Y-130182228D01*
X138964285Y-131682228D02*
X138678571Y-131682228D01*
X138678571Y-131682228D02*
X138535714Y-131610800D01*
X138535714Y-131610800D02*
X138464285Y-131539371D01*
X138464285Y-131539371D02*
X138321428Y-131325085D01*
X138321428Y-131325085D02*
X138249999Y-131039371D01*
X138249999Y-131039371D02*
X138249999Y-130467942D01*
X138249999Y-130467942D02*
X138321428Y-130325085D01*
X138321428Y-130325085D02*
X138392857Y-130253657D01*
X138392857Y-130253657D02*
X138535714Y-130182228D01*
X138535714Y-130182228D02*
X138821428Y-130182228D01*
X138821428Y-130182228D02*
X138964285Y-130253657D01*
X138964285Y-130253657D02*
X139035714Y-130325085D01*
X139035714Y-130325085D02*
X139107142Y-130467942D01*
X139107142Y-130467942D02*
X139107142Y-130825085D01*
X139107142Y-130825085D02*
X139035714Y-130967942D01*
X139035714Y-130967942D02*
X138964285Y-131039371D01*
X138964285Y-131039371D02*
X138821428Y-131110800D01*
X138821428Y-131110800D02*
X138535714Y-131110800D01*
X138535714Y-131110800D02*
X138392857Y-131039371D01*
X138392857Y-131039371D02*
X138321428Y-130967942D01*
X138321428Y-130967942D02*
X138249999Y-130825085D01*
X137607143Y-131539371D02*
X137535714Y-131610800D01*
X137535714Y-131610800D02*
X137607143Y-131682228D01*
X137607143Y-131682228D02*
X137678571Y-131610800D01*
X137678571Y-131610800D02*
X137607143Y-131539371D01*
X137607143Y-131539371D02*
X137607143Y-131682228D01*
X136964285Y-130325085D02*
X136892857Y-130253657D01*
X136892857Y-130253657D02*
X136750000Y-130182228D01*
X136750000Y-130182228D02*
X136392857Y-130182228D01*
X136392857Y-130182228D02*
X136250000Y-130253657D01*
X136250000Y-130253657D02*
X136178571Y-130325085D01*
X136178571Y-130325085D02*
X136107142Y-130467942D01*
X136107142Y-130467942D02*
X136107142Y-130610800D01*
X136107142Y-130610800D02*
X136178571Y-130825085D01*
X136178571Y-130825085D02*
X137035714Y-131682228D01*
X137035714Y-131682228D02*
X136107142Y-131682228D01*
X135178571Y-130182228D02*
X135035714Y-130182228D01*
X135035714Y-130182228D02*
X134892857Y-130253657D01*
X134892857Y-130253657D02*
X134821429Y-130325085D01*
X134821429Y-130325085D02*
X134750000Y-130467942D01*
X134750000Y-130467942D02*
X134678571Y-130753657D01*
X134678571Y-130753657D02*
X134678571Y-131110800D01*
X134678571Y-131110800D02*
X134750000Y-131396514D01*
X134750000Y-131396514D02*
X134821429Y-131539371D01*
X134821429Y-131539371D02*
X134892857Y-131610800D01*
X134892857Y-131610800D02*
X135035714Y-131682228D01*
X135035714Y-131682228D02*
X135178571Y-131682228D01*
X135178571Y-131682228D02*
X135321429Y-131610800D01*
X135321429Y-131610800D02*
X135392857Y-131539371D01*
X135392857Y-131539371D02*
X135464286Y-131396514D01*
X135464286Y-131396514D02*
X135535714Y-131110800D01*
X135535714Y-131110800D02*
X135535714Y-130753657D01*
X135535714Y-130753657D02*
X135464286Y-130467942D01*
X135464286Y-130467942D02*
X135392857Y-130325085D01*
X135392857Y-130325085D02*
X135321429Y-130253657D01*
X135321429Y-130253657D02*
X135178571Y-130182228D01*
X134107143Y-130325085D02*
X134035715Y-130253657D01*
X134035715Y-130253657D02*
X133892858Y-130182228D01*
X133892858Y-130182228D02*
X133535715Y-130182228D01*
X133535715Y-130182228D02*
X133392858Y-130253657D01*
X133392858Y-130253657D02*
X133321429Y-130325085D01*
X133321429Y-130325085D02*
X133250000Y-130467942D01*
X133250000Y-130467942D02*
X133250000Y-130610800D01*
X133250000Y-130610800D02*
X133321429Y-130825085D01*
X133321429Y-130825085D02*
X134178572Y-131682228D01*
X134178572Y-131682228D02*
X133250000Y-131682228D01*
X131964287Y-130182228D02*
X132250001Y-130182228D01*
X132250001Y-130182228D02*
X132392858Y-130253657D01*
X132392858Y-130253657D02*
X132464287Y-130325085D01*
X132464287Y-130325085D02*
X132607144Y-130539371D01*
X132607144Y-130539371D02*
X132678572Y-130825085D01*
X132678572Y-130825085D02*
X132678572Y-131396514D01*
X132678572Y-131396514D02*
X132607144Y-131539371D01*
X132607144Y-131539371D02*
X132535715Y-131610800D01*
X132535715Y-131610800D02*
X132392858Y-131682228D01*
X132392858Y-131682228D02*
X132107144Y-131682228D01*
X132107144Y-131682228D02*
X131964287Y-131610800D01*
X131964287Y-131610800D02*
X131892858Y-131539371D01*
X131892858Y-131539371D02*
X131821429Y-131396514D01*
X131821429Y-131396514D02*
X131821429Y-131039371D01*
X131821429Y-131039371D02*
X131892858Y-130896514D01*
X131892858Y-130896514D02*
X131964287Y-130825085D01*
X131964287Y-130825085D02*
X132107144Y-130753657D01*
X132107144Y-130753657D02*
X132392858Y-130753657D01*
X132392858Y-130753657D02*
X132535715Y-130825085D01*
X132535715Y-130825085D02*
X132607144Y-130896514D01*
X132607144Y-130896514D02*
X132678572Y-131039371D01*
D11*
X165414285Y-126018674D02*
X165414285Y-127818674D01*
X165414285Y-127818674D02*
X164385714Y-126018674D01*
X164385714Y-126018674D02*
X164385714Y-127818674D01*
X163528571Y-127818674D02*
X163528571Y-126018674D01*
X163528571Y-126018674D02*
X162928571Y-127304388D01*
X162928571Y-127304388D02*
X162328571Y-126018674D01*
X162328571Y-126018674D02*
X162328571Y-127818674D01*
X161471428Y-127132960D02*
X160100000Y-127132960D01*
X158900000Y-126018674D02*
X158728571Y-126018674D01*
X158728571Y-126018674D02*
X158557143Y-126104388D01*
X158557143Y-126104388D02*
X158471429Y-126190102D01*
X158471429Y-126190102D02*
X158385714Y-126361531D01*
X158385714Y-126361531D02*
X158300000Y-126704388D01*
X158300000Y-126704388D02*
X158300000Y-127132960D01*
X158300000Y-127132960D02*
X158385714Y-127475817D01*
X158385714Y-127475817D02*
X158471429Y-127647245D01*
X158471429Y-127647245D02*
X158557143Y-127732960D01*
X158557143Y-127732960D02*
X158728571Y-127818674D01*
X158728571Y-127818674D02*
X158900000Y-127818674D01*
X158900000Y-127818674D02*
X159071429Y-127732960D01*
X159071429Y-127732960D02*
X159157143Y-127647245D01*
X159157143Y-127647245D02*
X159242857Y-127475817D01*
X159242857Y-127475817D02*
X159328571Y-127132960D01*
X159328571Y-127132960D02*
X159328571Y-126704388D01*
X159328571Y-126704388D02*
X159242857Y-126361531D01*
X159242857Y-126361531D02*
X159157143Y-126190102D01*
X159157143Y-126190102D02*
X159071429Y-126104388D01*
X159071429Y-126104388D02*
X158900000Y-126018674D01*
X156585714Y-127818674D02*
X157614285Y-127818674D01*
X157100000Y-127818674D02*
X157100000Y-126018674D01*
X157100000Y-126018674D02*
X157271428Y-126275817D01*
X157271428Y-126275817D02*
X157442857Y-126447245D01*
X157442857Y-126447245D02*
X157614285Y-126532960D01*
X153242856Y-126618674D02*
X152814284Y-127818674D01*
X152385713Y-126618674D02*
X152814284Y-127818674D01*
X152814284Y-127818674D02*
X152985713Y-128247245D01*
X152985713Y-128247245D02*
X153071427Y-128332960D01*
X153071427Y-128332960D02*
X153242856Y-128418674D01*
X150928570Y-127732960D02*
X151099998Y-127818674D01*
X151099998Y-127818674D02*
X151442855Y-127818674D01*
X151442855Y-127818674D02*
X151614284Y-127732960D01*
X151614284Y-127732960D02*
X151699998Y-127647245D01*
X151699998Y-127647245D02*
X151785712Y-127475817D01*
X151785712Y-127475817D02*
X151785712Y-126961531D01*
X151785712Y-126961531D02*
X151699998Y-126790102D01*
X151699998Y-126790102D02*
X151614284Y-126704388D01*
X151614284Y-126704388D02*
X151442855Y-126618674D01*
X151442855Y-126618674D02*
X151099998Y-126618674D01*
X151099998Y-126618674D02*
X150928570Y-126704388D01*
X150414284Y-126618674D02*
X149557141Y-126618674D01*
X149985713Y-126618674D02*
X149985713Y-127818674D01*
X148957141Y-126618674D02*
X148957141Y-128418674D01*
X148957141Y-126704388D02*
X148785713Y-126618674D01*
X148785713Y-126618674D02*
X148442855Y-126618674D01*
X148442855Y-126618674D02*
X148271427Y-126704388D01*
X148271427Y-126704388D02*
X148185713Y-126790102D01*
X148185713Y-126790102D02*
X148099998Y-126961531D01*
X148099998Y-126961531D02*
X148099998Y-127475817D01*
X148099998Y-127475817D02*
X148185713Y-127647245D01*
X148185713Y-127647245D02*
X148271427Y-127732960D01*
X148271427Y-127732960D02*
X148442855Y-127818674D01*
X148442855Y-127818674D02*
X148785713Y-127818674D01*
X148785713Y-127818674D02*
X148957141Y-127732960D01*
X147071427Y-127818674D02*
X147242856Y-127732960D01*
X147242856Y-127732960D02*
X147328570Y-127647245D01*
X147328570Y-127647245D02*
X147414284Y-127475817D01*
X147414284Y-127475817D02*
X147414284Y-126961531D01*
X147414284Y-126961531D02*
X147328570Y-126790102D01*
X147328570Y-126790102D02*
X147242856Y-126704388D01*
X147242856Y-126704388D02*
X147071427Y-126618674D01*
X147071427Y-126618674D02*
X146814284Y-126618674D01*
X146814284Y-126618674D02*
X146642856Y-126704388D01*
X146642856Y-126704388D02*
X146557142Y-126790102D01*
X146557142Y-126790102D02*
X146471427Y-126961531D01*
X146471427Y-126961531D02*
X146471427Y-127475817D01*
X146471427Y-127475817D02*
X146557142Y-127647245D01*
X146557142Y-127647245D02*
X146642856Y-127732960D01*
X146642856Y-127732960D02*
X146814284Y-127818674D01*
X146814284Y-127818674D02*
X147071427Y-127818674D01*
X145699999Y-126618674D02*
X145699999Y-127818674D01*
X145699999Y-127818674D02*
X144842856Y-126618674D01*
X144842856Y-126618674D02*
X144842856Y-127818674D01*
X145614285Y-125932960D02*
X145528571Y-126104388D01*
X145528571Y-126104388D02*
X145357142Y-126190102D01*
X145357142Y-126190102D02*
X145185713Y-126190102D01*
X145185713Y-126190102D02*
X145014285Y-126104388D01*
X145014285Y-126104388D02*
X144928571Y-125932960D01*
X143214285Y-127732960D02*
X143385713Y-127818674D01*
X143385713Y-127818674D02*
X143728570Y-127818674D01*
X143728570Y-127818674D02*
X143899999Y-127732960D01*
X143899999Y-127732960D02*
X143985713Y-127647245D01*
X143985713Y-127647245D02*
X144071427Y-127475817D01*
X144071427Y-127475817D02*
X144071427Y-126961531D01*
X144071427Y-126961531D02*
X143985713Y-126790102D01*
X143985713Y-126790102D02*
X143899999Y-126704388D01*
X143899999Y-126704388D02*
X143728570Y-126618674D01*
X143728570Y-126618674D02*
X143385713Y-126618674D01*
X143385713Y-126618674D02*
X143214285Y-126704388D01*
X142699999Y-126618674D02*
X141842856Y-126618674D01*
X142271428Y-126618674D02*
X142271428Y-127818674D01*
X140814285Y-127218674D02*
X140557142Y-127304388D01*
X140557142Y-127304388D02*
X140471428Y-127475817D01*
X140471428Y-127475817D02*
X140471428Y-127561531D01*
X140471428Y-127561531D02*
X140557142Y-127732960D01*
X140557142Y-127732960D02*
X140728570Y-127818674D01*
X140728570Y-127818674D02*
X141242856Y-127818674D01*
X141242856Y-127818674D02*
X141242856Y-126618674D01*
X141242856Y-126618674D02*
X140814285Y-126618674D01*
X140814285Y-126618674D02*
X140642856Y-126704388D01*
X140642856Y-126704388D02*
X140557142Y-126875817D01*
X140557142Y-126875817D02*
X140557142Y-126961531D01*
X140557142Y-126961531D02*
X140642856Y-127132960D01*
X140642856Y-127132960D02*
X140814285Y-127218674D01*
X140814285Y-127218674D02*
X141242856Y-127218674D01*
X139442856Y-127818674D02*
X139614285Y-127732960D01*
X139614285Y-127732960D02*
X139699999Y-127647245D01*
X139699999Y-127647245D02*
X139785713Y-127475817D01*
X139785713Y-127475817D02*
X139785713Y-126961531D01*
X139785713Y-126961531D02*
X139699999Y-126790102D01*
X139699999Y-126790102D02*
X139614285Y-126704388D01*
X139614285Y-126704388D02*
X139442856Y-126618674D01*
X139442856Y-126618674D02*
X139185713Y-126618674D01*
X139185713Y-126618674D02*
X139014285Y-126704388D01*
X139014285Y-126704388D02*
X138928571Y-126790102D01*
X138928571Y-126790102D02*
X138842856Y-126961531D01*
X138842856Y-126961531D02*
X138842856Y-127475817D01*
X138842856Y-127475817D02*
X138928571Y-127647245D01*
X138928571Y-127647245D02*
X139014285Y-127732960D01*
X139014285Y-127732960D02*
X139185713Y-127818674D01*
X139185713Y-127818674D02*
X139442856Y-127818674D01*
X136871428Y-126618674D02*
X136442856Y-127818674D01*
X136014285Y-126618674D02*
X136442856Y-127818674D01*
X136442856Y-127818674D02*
X136614285Y-128247245D01*
X136614285Y-128247245D02*
X136699999Y-128332960D01*
X136699999Y-128332960D02*
X136871428Y-128418674D01*
X134728570Y-126618674D02*
X134728570Y-127818674D01*
X135414284Y-126618674D02*
X135414284Y-127047245D01*
X135414284Y-127047245D02*
X135328570Y-127218674D01*
X135328570Y-127218674D02*
X135157142Y-127304388D01*
X135157142Y-127304388D02*
X134728570Y-127304388D01*
X133099999Y-127732960D02*
X133271427Y-127818674D01*
X133271427Y-127818674D02*
X133614285Y-127818674D01*
X133614285Y-127818674D02*
X133785713Y-127732960D01*
X133785713Y-127732960D02*
X133871427Y-127561531D01*
X133871427Y-127561531D02*
X133871427Y-126875817D01*
X133871427Y-126875817D02*
X133785713Y-126704388D01*
X133785713Y-126704388D02*
X133614285Y-126618674D01*
X133614285Y-126618674D02*
X133271427Y-126618674D01*
X133271427Y-126618674D02*
X133099999Y-126704388D01*
X133099999Y-126704388D02*
X133014285Y-126875817D01*
X133014285Y-126875817D02*
X133014285Y-127047245D01*
X133014285Y-127047245D02*
X133871427Y-127218674D01*
X133785713Y-126018674D02*
X133699999Y-126104388D01*
X133699999Y-126104388D02*
X133785713Y-126190102D01*
X133785713Y-126190102D02*
X133871427Y-126104388D01*
X133871427Y-126104388D02*
X133785713Y-126018674D01*
X133785713Y-126018674D02*
X133785713Y-126190102D01*
X133099999Y-126018674D02*
X133014285Y-126104388D01*
X133014285Y-126104388D02*
X133099999Y-126190102D01*
X133099999Y-126190102D02*
X133185713Y-126104388D01*
X133185713Y-126104388D02*
X133099999Y-126018674D01*
X133099999Y-126018674D02*
X133099999Y-126190102D01*
X132499999Y-126618674D02*
X131642856Y-126618674D01*
X132071428Y-126618674D02*
X132071428Y-127818674D01*
X130271428Y-127818674D02*
X130271428Y-126875817D01*
X130271428Y-126875817D02*
X130357142Y-126704388D01*
X130357142Y-126704388D02*
X130528570Y-126618674D01*
X130528570Y-126618674D02*
X130871428Y-126618674D01*
X130871428Y-126618674D02*
X131042856Y-126704388D01*
X130271428Y-127732960D02*
X130442856Y-127818674D01*
X130442856Y-127818674D02*
X130871428Y-127818674D01*
X130871428Y-127818674D02*
X131042856Y-127732960D01*
X131042856Y-127732960D02*
X131128570Y-127561531D01*
X131128570Y-127561531D02*
X131128570Y-127390102D01*
X131128570Y-127390102D02*
X131042856Y-127218674D01*
X131042856Y-127218674D02*
X130871428Y-127132960D01*
X130871428Y-127132960D02*
X130442856Y-127132960D01*
X130442856Y-127132960D02*
X130271428Y-127047245D01*
X128042856Y-126618674D02*
X128042856Y-127818674D01*
X128042856Y-127818674D02*
X127185713Y-126618674D01*
X127185713Y-126618674D02*
X127185713Y-127818674D01*
X126328570Y-127818674D02*
X126328570Y-126618674D01*
X126328570Y-126618674D02*
X125814284Y-127561531D01*
X125814284Y-127561531D02*
X125299999Y-126618674D01*
X125299999Y-126618674D02*
X125299999Y-127818674D01*
X124442856Y-127818674D02*
X124442856Y-126618674D01*
X124442856Y-126618674D02*
X123671428Y-126618674D01*
X123671428Y-126618674D02*
X123671428Y-127818674D01*
X122985714Y-126618674D02*
X122557142Y-127818674D01*
X122128571Y-126618674D02*
X122557142Y-127818674D01*
X122557142Y-127818674D02*
X122728571Y-128247245D01*
X122728571Y-128247245D02*
X122814285Y-128332960D01*
X122814285Y-128332960D02*
X122985714Y-128418674D01*
X120757142Y-127818674D02*
X120757142Y-126618674D01*
X120757142Y-126618674D02*
X121014285Y-126618674D01*
X121014285Y-126618674D02*
X121185713Y-126704388D01*
X121185713Y-126704388D02*
X121271428Y-126875817D01*
X121271428Y-126875817D02*
X121357142Y-127561531D01*
X121357142Y-127561531D02*
X121442856Y-127732960D01*
X121442856Y-127732960D02*
X121614285Y-127818674D01*
X119899999Y-126618674D02*
X119899999Y-127818674D01*
X119899999Y-127818674D02*
X119471428Y-127818674D01*
X119471428Y-127818674D02*
X119299999Y-127732960D01*
X119299999Y-127732960D02*
X119214285Y-127561531D01*
X119214285Y-127561531D02*
X119214285Y-127304388D01*
X119214285Y-127304388D02*
X119299999Y-127132960D01*
X119299999Y-127132960D02*
X119471428Y-127047245D01*
X119471428Y-127047245D02*
X119899999Y-127047245D01*
X117671428Y-127732960D02*
X117842856Y-127818674D01*
X117842856Y-127818674D02*
X118185713Y-127818674D01*
X118185713Y-127818674D02*
X118357142Y-127732960D01*
X118357142Y-127732960D02*
X118442856Y-127647245D01*
X118442856Y-127647245D02*
X118528570Y-127475817D01*
X118528570Y-127475817D02*
X118528570Y-126961531D01*
X118528570Y-126961531D02*
X118442856Y-126790102D01*
X118442856Y-126790102D02*
X118357142Y-126704388D01*
X118357142Y-126704388D02*
X118185713Y-126618674D01*
X118185713Y-126618674D02*
X117842856Y-126618674D01*
X117842856Y-126618674D02*
X117671428Y-126704388D01*
X116642856Y-127818674D02*
X116814285Y-127732960D01*
X116814285Y-127732960D02*
X116899999Y-127647245D01*
X116899999Y-127647245D02*
X116985713Y-127475817D01*
X116985713Y-127475817D02*
X116985713Y-126961531D01*
X116985713Y-126961531D02*
X116899999Y-126790102D01*
X116899999Y-126790102D02*
X116814285Y-126704388D01*
X116814285Y-126704388D02*
X116642856Y-126618674D01*
X116642856Y-126618674D02*
X116385713Y-126618674D01*
X116385713Y-126618674D02*
X116214285Y-126704388D01*
X116214285Y-126704388D02*
X116128571Y-126790102D01*
X116128571Y-126790102D02*
X116042856Y-126961531D01*
X116042856Y-126961531D02*
X116042856Y-127475817D01*
X116042856Y-127475817D02*
X116128571Y-127647245D01*
X116128571Y-127647245D02*
X116214285Y-127732960D01*
X116214285Y-127732960D02*
X116385713Y-127818674D01*
X116385713Y-127818674D02*
X116642856Y-127818674D01*
X114842857Y-127218674D02*
X114585714Y-127304388D01*
X114585714Y-127304388D02*
X114500000Y-127475817D01*
X114500000Y-127475817D02*
X114500000Y-127561531D01*
X114500000Y-127561531D02*
X114585714Y-127732960D01*
X114585714Y-127732960D02*
X114757142Y-127818674D01*
X114757142Y-127818674D02*
X115271428Y-127818674D01*
X115271428Y-127818674D02*
X115271428Y-126618674D01*
X115271428Y-126618674D02*
X114842857Y-126618674D01*
X114842857Y-126618674D02*
X114671428Y-126704388D01*
X114671428Y-126704388D02*
X114585714Y-126875817D01*
X114585714Y-126875817D02*
X114585714Y-126961531D01*
X114585714Y-126961531D02*
X114671428Y-127132960D01*
X114671428Y-127132960D02*
X114842857Y-127218674D01*
X114842857Y-127218674D02*
X115271428Y-127218674D01*
D12*
X152761905Y-121819276D02*
X152761905Y-119724038D01*
X152761905Y-119724038D02*
X152952381Y-119343085D01*
X152952381Y-119343085D02*
X153333333Y-119152609D01*
X153333333Y-119152609D02*
X154095238Y-119152609D01*
X154095238Y-119152609D02*
X154476191Y-119343085D01*
X152761905Y-121628800D02*
X153142857Y-121819276D01*
X153142857Y-121819276D02*
X154095238Y-121819276D01*
X154095238Y-121819276D02*
X154476191Y-121628800D01*
X154476191Y-121628800D02*
X154666667Y-121247847D01*
X154666667Y-121247847D02*
X154666667Y-120866895D01*
X154666667Y-120866895D02*
X154476191Y-120485942D01*
X154476191Y-120485942D02*
X154095238Y-120295466D01*
X154095238Y-120295466D02*
X153142857Y-120295466D01*
X153142857Y-120295466D02*
X152761905Y-120104990D01*
X150857143Y-119152609D02*
X150857143Y-123152609D01*
X150857143Y-119343085D02*
X150476190Y-119152609D01*
X150476190Y-119152609D02*
X149714285Y-119152609D01*
X149714285Y-119152609D02*
X149333333Y-119343085D01*
X149333333Y-119343085D02*
X149142857Y-119533561D01*
X149142857Y-119533561D02*
X148952381Y-119914514D01*
X148952381Y-119914514D02*
X148952381Y-121057371D01*
X148952381Y-121057371D02*
X149142857Y-121438323D01*
X149142857Y-121438323D02*
X149333333Y-121628800D01*
X149333333Y-121628800D02*
X149714285Y-121819276D01*
X149714285Y-121819276D02*
X150476190Y-121819276D01*
X150476190Y-121819276D02*
X150857143Y-121628800D01*
X147238095Y-121819276D02*
X147238095Y-119152609D01*
X147238095Y-117819276D02*
X147428571Y-118009752D01*
X147428571Y-118009752D02*
X147238095Y-118200228D01*
X147238095Y-118200228D02*
X147047618Y-118009752D01*
X147047618Y-118009752D02*
X147238095Y-117819276D01*
X147238095Y-117819276D02*
X147238095Y-118200228D01*
X145714285Y-121819276D02*
X143619047Y-119152609D01*
X145714285Y-119152609D02*
X143619047Y-121819276D01*
X142285714Y-121628800D02*
X141904761Y-121819276D01*
X141904761Y-121819276D02*
X141142857Y-121819276D01*
X141142857Y-121819276D02*
X140761904Y-121628800D01*
X140761904Y-121628800D02*
X140571428Y-121247847D01*
X140571428Y-121247847D02*
X140571428Y-121057371D01*
X140571428Y-121057371D02*
X140761904Y-120676419D01*
X140761904Y-120676419D02*
X141142857Y-120485942D01*
X141142857Y-120485942D02*
X141714285Y-120485942D01*
X141714285Y-120485942D02*
X142095238Y-120295466D01*
X142095238Y-120295466D02*
X142285714Y-119914514D01*
X142285714Y-119914514D02*
X142285714Y-119724038D01*
X142285714Y-119724038D02*
X142095238Y-119343085D01*
X142095238Y-119343085D02*
X141714285Y-119152609D01*
X141714285Y-119152609D02*
X141142857Y-119152609D01*
X141142857Y-119152609D02*
X140761904Y-119343085D01*
X138857143Y-119152609D02*
X138857143Y-123152609D01*
X138857143Y-119343085D02*
X138476190Y-119152609D01*
X138476190Y-119152609D02*
X137714285Y-119152609D01*
X137714285Y-119152609D02*
X137333333Y-119343085D01*
X137333333Y-119343085D02*
X137142857Y-119533561D01*
X137142857Y-119533561D02*
X136952381Y-119914514D01*
X136952381Y-119914514D02*
X136952381Y-121057371D01*
X136952381Y-121057371D02*
X137142857Y-121438323D01*
X137142857Y-121438323D02*
X137333333Y-121628800D01*
X137333333Y-121628800D02*
X137714285Y-121819276D01*
X137714285Y-121819276D02*
X138476190Y-121819276D01*
X138476190Y-121819276D02*
X138857143Y-121628800D01*
X135238095Y-121819276D02*
X135238095Y-117819276D01*
X135238095Y-119343085D02*
X134857142Y-119152609D01*
X134857142Y-119152609D02*
X134095237Y-119152609D01*
X134095237Y-119152609D02*
X133714285Y-119343085D01*
X133714285Y-119343085D02*
X133523809Y-119533561D01*
X133523809Y-119533561D02*
X133333333Y-119914514D01*
X133333333Y-119914514D02*
X133333333Y-121057371D01*
X133333333Y-121057371D02*
X133523809Y-121438323D01*
X133523809Y-121438323D02*
X133714285Y-121628800D01*
X133714285Y-121628800D02*
X134095237Y-121819276D01*
X134095237Y-121819276D02*
X134857142Y-121819276D01*
X134857142Y-121819276D02*
X135238095Y-121628800D01*
X131619047Y-121438323D02*
X131428570Y-121628800D01*
X131428570Y-121628800D02*
X131619047Y-121819276D01*
X131619047Y-121819276D02*
X131809523Y-121628800D01*
X131809523Y-121628800D02*
X131619047Y-121438323D01*
X131619047Y-121438323D02*
X131619047Y-121819276D01*
X129714285Y-121819276D02*
X129714285Y-119152609D01*
X129714285Y-119914514D02*
X129523808Y-119533561D01*
X129523808Y-119533561D02*
X129333332Y-119343085D01*
X129333332Y-119343085D02*
X128952380Y-119152609D01*
X128952380Y-119152609D02*
X128571427Y-119152609D01*
X125523809Y-119152609D02*
X125523809Y-121819276D01*
X127238095Y-119152609D02*
X127238095Y-121247847D01*
X127238095Y-121247847D02*
X127047618Y-121628800D01*
X127047618Y-121628800D02*
X126666666Y-121819276D01*
X126666666Y-121819276D02*
X126095237Y-121819276D01*
X126095237Y-121819276D02*
X125714285Y-121628800D01*
X125714285Y-121628800D02*
X125523809Y-121438323D01*
%LPC*%
D13*
%TO.C,J2*%
X104500000Y-128000000D03*
D14*
X104500000Y-130500000D03*
%TD*%
D15*
%TO.C,H3*%
X101100000Y-151500000D03*
X101802944Y-149802944D03*
X101802944Y-153197056D03*
X103500000Y-149100000D03*
D16*
X103500000Y-151500000D03*
D15*
X103500000Y-153900000D03*
X105197056Y-149802944D03*
X105197056Y-153197056D03*
X105900000Y-151500000D03*
%TD*%
%TO.C,H4*%
X174100000Y-151500000D03*
X174802944Y-149802944D03*
X174802944Y-153197056D03*
X176500000Y-149100000D03*
D16*
X176500000Y-151500000D03*
D15*
X176500000Y-153900000D03*
X178197056Y-149802944D03*
X178197056Y-153197056D03*
X178900000Y-151500000D03*
%TD*%
D17*
%TO.C,U1*%
X130500000Y-107500000D03*
X129500000Y-107500000D03*
X130500000Y-108500000D03*
X129500000Y-108500000D03*
%TD*%
D18*
%TO.C,J3*%
X104500000Y-140000000D03*
D19*
X104500000Y-142500000D03*
X104500000Y-145000000D03*
%TD*%
D15*
%TO.C,H1*%
X101100000Y-103500000D03*
X101802944Y-101802944D03*
X101802944Y-105197056D03*
X103500000Y-101100000D03*
D16*
X103500000Y-103500000D03*
D15*
X103500000Y-105900000D03*
X105197056Y-101802944D03*
X105197056Y-105197056D03*
X105900000Y-103500000D03*
%TD*%
D20*
%TO.C,J1*%
X104500000Y-110000000D03*
D21*
X104500000Y-113960000D03*
%TD*%
D15*
%TO.C,H2*%
X174100000Y-103500000D03*
X174802944Y-101802944D03*
X174802944Y-105197056D03*
X176500000Y-101100000D03*
D16*
X176500000Y-103500000D03*
D15*
X176500000Y-105900000D03*
X178197056Y-101802944D03*
X178197056Y-105197056D03*
X178900000Y-103500000D03*
%TD*%
D22*
%TO.C,J6*%
X143760000Y-119000000D03*
X148840000Y-117984000D03*
X148840000Y-120016000D03*
%TD*%
%LPD*%
M02*
