%TF.GenerationSoftware,KiCad,Pcbnew,9.0.9-9.0.9~ubuntu24.04.1*%
%TF.CreationDate,2026-09-15T19:23:52+03:00*%
%TF.ProjectId,im01,696d3031-2e6b-4696-9361-645f70636258,rev?*%
%TF.SameCoordinates,Original*%
%TF.FileFunction,Copper,L2,Bot*%
%TF.FilePolarity,Positive*%
%FSLAX46Y46*%
G04 Gerber Fmt 4.6, Leading zero omitted, Abs format (unit mm)*
G04 Created by KiCad (PCBNEW 9.0.9-9.0.9~ubuntu24.04.1) date 2026-09-15 19:23:52*
%MOMM*%
%LPD*%
G01*
G04 APERTURE LIST*
G04 Aperture macros list*
%AMRoundRect*
0 Rectangle with rounded corners*
0 $1 Rounding radius*
0 $2 $3 $4 $5 $6 $7 $8 $9 X,Y pos of 4 corners*
0 Add a 4 corners polygon primitive as box body*
4,1,4,$2,$3,$4,$5,$6,$7,$8,$9,$2,$3,0*
0 Add four circle primitives for the rounded corners*
1,1,$1+$1,$2,$3*
1,1,$1+$1,$4,$5*
1,1,$1+$1,$6,$7*
1,1,$1+$1,$8,$9*
0 Add four rect primitives between the rounded corners*
20,1,$1+$1,$2,$3,$4,$5,0*
20,1,$1+$1,$4,$5,$6,$7,0*
20,1,$1+$1,$6,$7,$8,$9,0*
20,1,$1+$1,$8,$9,$2,$3,0*%
G04 Aperture macros list end*
%TA.AperFunction,ComponentPad*%
%ADD10RoundRect,0.250000X-0.750000X0.600000X-0.750000X-0.600000X0.750000X-0.600000X0.750000X0.600000X0*%
%TD*%
%TA.AperFunction,ComponentPad*%
%ADD11O,2.000000X1.700000*%
%TD*%
%TA.AperFunction,ComponentPad*%
%ADD12C,0.800000*%
%TD*%
%TA.AperFunction,ComponentPad*%
%ADD13C,6.400000*%
%TD*%
%TA.AperFunction,ComponentPad*%
%ADD14C,0.610000*%
%TD*%
%TA.AperFunction,ComponentPad*%
%ADD15RoundRect,0.250000X-0.725000X0.600000X-0.725000X-0.600000X0.725000X-0.600000X0.725000X0.600000X0*%
%TD*%
%TA.AperFunction,ComponentPad*%
%ADD16O,1.950000X1.700000*%
%TD*%
%TA.AperFunction,ComponentPad*%
%ADD17RoundRect,0.250001X-1.099999X1.099999X-1.099999X-1.099999X1.099999X-1.099999X1.099999X1.099999X0*%
%TD*%
%TA.AperFunction,ComponentPad*%
%ADD18C,2.700000*%
%TD*%
%TA.AperFunction,ViaPad*%
%ADD19C,0.600000*%
%TD*%
%TA.AperFunction,ViaPad*%
%ADD20C,0.800000*%
%TD*%
%TA.AperFunction,Conductor*%
%ADD21C,0.250000*%
%TD*%
%TA.AperFunction,Conductor*%
%ADD22C,0.800000*%
%TD*%
G04 APERTURE END LIST*
D10*
%TO.P,J2,1*%
%TO.N,COIN_V12*%
X104500000Y-128000000D03*
D11*
%TO.P,J2,2*%
%TO.N,COIN_PULSE*%
X104500000Y-130500000D03*
%TD*%
D12*
%TO.P,H3,1*%
%TO.N,GND*%
X101100000Y-151500000D03*
X101802944Y-149802944D03*
X101802944Y-153197056D03*
X103500000Y-149100000D03*
D13*
X103500000Y-151500000D03*
D12*
X103500000Y-153900000D03*
X105197056Y-149802944D03*
X105197056Y-153197056D03*
X105900000Y-151500000D03*
%TD*%
%TO.P,H4,1*%
%TO.N,GND*%
X174100000Y-151500000D03*
X174802944Y-149802944D03*
X174802944Y-153197056D03*
X176500000Y-149100000D03*
D13*
X176500000Y-151500000D03*
D12*
X176500000Y-153900000D03*
X178197056Y-149802944D03*
X178197056Y-153197056D03*
X178900000Y-151500000D03*
%TD*%
D14*
%TO.P,U1,*%
%TO.N,GND*%
X130500000Y-107500000D03*
X129500000Y-107500000D03*
X130500000Y-108500000D03*
X129500000Y-108500000D03*
%TD*%
D15*
%TO.P,J3,1*%
%TO.N,BILL_V12*%
X104500000Y-140000000D03*
D16*
%TO.P,J3,2*%
%TO.N,BILL_PULSE*%
X104500000Y-142500000D03*
%TO.P,J3,3*%
%TO.N,N/C*%
X104500000Y-145000000D03*
%TD*%
D12*
%TO.P,H1,1*%
%TO.N,GND*%
X101100000Y-103500000D03*
X101802944Y-101802944D03*
X101802944Y-105197056D03*
X103500000Y-101100000D03*
D13*
X103500000Y-103500000D03*
D12*
X103500000Y-105900000D03*
X105197056Y-101802944D03*
X105197056Y-105197056D03*
X105900000Y-103500000D03*
%TD*%
D17*
%TO.P,J1,1*%
%TO.N,VIN_CONN*%
X104500000Y-110000000D03*
D18*
%TO.P,J1,2*%
%TO.N,GND*%
X104500000Y-113960000D03*
%TD*%
D12*
%TO.P,H2,1*%
%TO.N,GND*%
X174100000Y-103500000D03*
X174802944Y-101802944D03*
X174802944Y-105197056D03*
X176500000Y-101100000D03*
D13*
X176500000Y-103500000D03*
D12*
X176500000Y-105900000D03*
X178197056Y-101802944D03*
X178197056Y-105197056D03*
X178900000Y-103500000D03*
%TD*%
D19*
%TO.N,+3V3*%
X136528000Y-122314000D03*
X142965000Y-121005000D03*
X116237000Y-136216000D03*
X122704000Y-136645000D03*
%TO.N,BILL_IN*%
X124859000Y-145132000D03*
X137984000Y-137721000D03*
%TO.N,BTN*%
X145344000Y-138130000D03*
X134495000Y-129917000D03*
%TO.N,COIN_IN*%
X130318000Y-134035000D03*
X139798000Y-132903000D03*
X136810000Y-133141000D03*
%TO.N,GND*%
X139500000Y-152000000D03*
X172000000Y-139500000D03*
X109500000Y-147000000D03*
X164500000Y-137000000D03*
X147000000Y-144500000D03*
X133816520Y-123835162D03*
X154500000Y-102000000D03*
X139500000Y-102000000D03*
X169500000Y-152000000D03*
X169500000Y-134500000D03*
X124500000Y-149500000D03*
X130900000Y-128799999D03*
X102000000Y-124500000D03*
X130199998Y-136650000D03*
X174500000Y-129500000D03*
X177000000Y-147000000D03*
X167000000Y-137000000D03*
X112000000Y-152000000D03*
X102000000Y-137000000D03*
X145000000Y-102075000D03*
X150392250Y-139278023D03*
X139800000Y-136950000D03*
X156725000Y-114900000D03*
X117000000Y-149500000D03*
X162000000Y-102000000D03*
X109500000Y-102000000D03*
X132000000Y-102000000D03*
X174500000Y-139500000D03*
X177000000Y-132000000D03*
X157309107Y-113394536D03*
X172000000Y-107000000D03*
X153850000Y-137500000D03*
X107000000Y-122000000D03*
X169500000Y-137000000D03*
X144895265Y-134837526D03*
X167000000Y-144500000D03*
X134500000Y-102000000D03*
X119500000Y-152000000D03*
X172000000Y-132000000D03*
X142000000Y-152000000D03*
X135999999Y-136950000D03*
X151862625Y-117592183D03*
X167000000Y-139500000D03*
X149500000Y-122000000D03*
X173300000Y-107700000D03*
X152804503Y-142109501D03*
X147000000Y-152000000D03*
X142000000Y-144500000D03*
X172000000Y-152000000D03*
X169500000Y-124500000D03*
X126104067Y-131144542D03*
X109500000Y-104500000D03*
X147000000Y-107000000D03*
X147000000Y-149500000D03*
X127900000Y-112149999D03*
X102000000Y-119500000D03*
X126000000Y-132699999D03*
X120600000Y-106075000D03*
X167000000Y-134500000D03*
X152940733Y-152783294D03*
X147000000Y-122000000D03*
X117000000Y-152000000D03*
X172000000Y-134500000D03*
X117000000Y-124500000D03*
X112000000Y-149500000D03*
X107000000Y-134500000D03*
X167500000Y-102000000D03*
X167195496Y-142109501D03*
X142000000Y-102000000D03*
X112000000Y-104500000D03*
X168850000Y-117050000D03*
X117000000Y-147000000D03*
X152000000Y-102000000D03*
X167059266Y-152783294D03*
X119500000Y-149500000D03*
X114500000Y-134500000D03*
X169500000Y-147000000D03*
X174500000Y-142000000D03*
X127000000Y-152000000D03*
X169500000Y-139500000D03*
X123000000Y-106075000D03*
X137000000Y-102000000D03*
X168398295Y-127548448D03*
X109500000Y-117000000D03*
X134500000Y-109500000D03*
X147000000Y-147000000D03*
X176480776Y-115354430D03*
X147000000Y-102000000D03*
X126000000Y-145200000D03*
X114500000Y-102000000D03*
X155409107Y-113394536D03*
X174500000Y-137000000D03*
X119500000Y-112000000D03*
X112000000Y-147000000D03*
X162000000Y-137000000D03*
X165132867Y-115434201D03*
X172000000Y-149500000D03*
X144500000Y-152000000D03*
X107000000Y-117000000D03*
X129000000Y-126574999D03*
X172000000Y-147000000D03*
X144455114Y-134019885D03*
X172000000Y-122000000D03*
X126104067Y-143644542D03*
X119500000Y-102000000D03*
X127000000Y-149500000D03*
X114500000Y-137000000D03*
X127000000Y-102000000D03*
X122000000Y-152000000D03*
X109500000Y-122000000D03*
X177000000Y-137000000D03*
X152000000Y-144500000D03*
X144500000Y-144500000D03*
X172000000Y-142000000D03*
X123800000Y-119500000D03*
X109500000Y-112000000D03*
X147000000Y-104500000D03*
X177000000Y-139500000D03*
X124500000Y-109500000D03*
X134500000Y-104500000D03*
X170149999Y-117050000D03*
X124500000Y-102000000D03*
X172000000Y-124500000D03*
X133000000Y-112149999D03*
X140200000Y-142200000D03*
X177000000Y-127000000D03*
X161640000Y-112600000D03*
X172000000Y-137000000D03*
X127074999Y-123000000D03*
X150855599Y-147664400D03*
X149500000Y-152000000D03*
X116900000Y-106050000D03*
X145658148Y-125866409D03*
X177000000Y-142000000D03*
X174500000Y-132000000D03*
X150855599Y-142664400D03*
X153831557Y-134196586D03*
X167000000Y-149500000D03*
X159209107Y-113394536D03*
X112000000Y-134500000D03*
X157000000Y-102000000D03*
X169500000Y-149500000D03*
X137000000Y-152000000D03*
X137000000Y-149500000D03*
X169500000Y-122000000D03*
X104500000Y-134500000D03*
X124200000Y-108175000D03*
X112000000Y-102000000D03*
X167000000Y-147000000D03*
X174500000Y-144500000D03*
X109500000Y-119500000D03*
X150855599Y-145164400D03*
X124000000Y-121199999D03*
X177000000Y-124500000D03*
X109500000Y-134500000D03*
X172750000Y-117050000D03*
X146662983Y-107836169D03*
X137000000Y-147000000D03*
X171450000Y-119750000D03*
X109500000Y-107000000D03*
X119500000Y-114500000D03*
X114500000Y-122000000D03*
X171450000Y-117050000D03*
X172000000Y-144500000D03*
X109500000Y-152000000D03*
X107000000Y-119500000D03*
X170149999Y-119750000D03*
X129600000Y-112149999D03*
X102000000Y-122000000D03*
X169500000Y-142000000D03*
X174500000Y-134500000D03*
X109500000Y-149500000D03*
X107000000Y-124500000D03*
X142000000Y-118199999D03*
X176480776Y-121445569D03*
X174500000Y-147000000D03*
X157775045Y-137446865D03*
X177000000Y-109500000D03*
X109500000Y-114500000D03*
X177000000Y-144500000D03*
X151550711Y-128341329D03*
X122000000Y-114500000D03*
X102000000Y-117000000D03*
X129300000Y-130799999D03*
X122000000Y-102000000D03*
X172000000Y-102000000D03*
X117000000Y-102000000D03*
X164500000Y-102000000D03*
X147147964Y-120479070D03*
X161537632Y-115268531D03*
X174500000Y-122000000D03*
X143244885Y-125519885D03*
X169500000Y-144500000D03*
X104500000Y-137000000D03*
X149500000Y-102000000D03*
X134119074Y-131276016D03*
X136200000Y-118200000D03*
X114500000Y-147000000D03*
X130050000Y-126200000D03*
X114500000Y-149500000D03*
X169500000Y-102000000D03*
X177000000Y-114500000D03*
X152000000Y-152000000D03*
X172000000Y-104500000D03*
X104500000Y-124500000D03*
X160400000Y-114900000D03*
X177000000Y-129500000D03*
X161167184Y-113982167D03*
X129500000Y-102000000D03*
X119500000Y-124500000D03*
X174500000Y-127000000D03*
X104500000Y-122000000D03*
X160000000Y-102000000D03*
X163748008Y-115686766D03*
X177000000Y-112000000D03*
X104500000Y-117000000D03*
X136500000Y-144800000D03*
X104500000Y-119500000D03*
X107000000Y-137000000D03*
X114500000Y-152000000D03*
X132000000Y-149500000D03*
X102000000Y-134500000D03*
X166061146Y-119336823D03*
X174500000Y-124500000D03*
X131900000Y-136700000D03*
X177000000Y-134500000D03*
%TO.N,LED_PULSE*%
X131131000Y-138581000D03*
X131540000Y-145933000D03*
%TO.N,LED_STATUS*%
X134794000Y-128246000D03*
X116078000Y-130405000D03*
%TO.N,MCU_DBG_RX*%
X146356000Y-137137000D03*
X143567000Y-129460000D03*
%TO.N,MCU_DBG_TX*%
X142432000Y-129373000D03*
X152197000Y-133958000D03*
X147813000Y-135244000D03*
X153950000Y-129222000D03*
%TO.N,MCU_RX*%
X136203000Y-139974000D03*
X134012000Y-138121000D03*
%TO.N,MODEM_RESET_N*%
X156919000Y-134306000D03*
X148000000Y-133029000D03*
%TO.N,MODEM_RXD*%
X134828000Y-138123000D03*
X156819000Y-135612000D03*
%TO.N,MODEM_TXD*%
X160793000Y-136216000D03*
X140000000Y-138830000D03*
%TO.N,NRST*%
X143578000Y-122253000D03*
X130837000Y-132708000D03*
%TO.N,PWRKEY_CTL*%
X139504000Y-133880000D03*
X142801000Y-131015000D03*
%TO.N,RESET_G*%
X144196000Y-131884000D03*
X144022000Y-136144000D03*
%TO.N,SIM_CLK*%
X151494000Y-140283000D03*
X160860000Y-139835000D03*
%TO.N,SIM_DATA*%
X162954000Y-139862000D03*
X153973000Y-141246000D03*
%TO.N,SIM_VDD*%
X154741000Y-137047000D03*
X155406000Y-135897000D03*
X149682000Y-135506000D03*
%TO.N,SPI_MOSI*%
X139118000Y-124068000D03*
X136410000Y-124626000D03*
%TO.N,SWCLK*%
X146500000Y-117227000D03*
X140366000Y-124713000D03*
%TO.N,USB_BOOT*%
X162110000Y-127087000D03*
X169922000Y-128758000D03*
%TO.N,USB_DN*%
X171198400Y-128000000D03*
X157875000Y-126848500D03*
D20*
%TO.N,VBAT*%
X131143000Y-116197000D03*
X140000000Y-112786000D03*
D19*
%TO.N,VBUS*%
X171198000Y-130000000D03*
X166138000Y-126343000D03*
%TO.N,VDD_EXT*%
X168785000Y-129616000D03*
X146282000Y-133993000D03*
D20*
%TO.N,VMCU_IN*%
X127307000Y-139929000D03*
X119527000Y-132991000D03*
%TD*%
D21*
%TO.N,+3V3*%
X137836000Y-121005000D02*
X142965000Y-121005000D01*
X116237000Y-136216000D02*
X122274000Y-136216000D01*
X122274000Y-136216000D02*
X122704000Y-136645000D01*
X136528000Y-122314000D02*
X137836000Y-121005000D01*
%TO.N,BILL_IN*%
X137789000Y-137527000D02*
X131370000Y-137527000D01*
X124859000Y-144037000D02*
X124859000Y-145132000D01*
X137984000Y-137721000D02*
X137789000Y-137527000D01*
X131370000Y-137527000D02*
X124859000Y-144037000D01*
%TO.N,BTN*%
X145543000Y-137930000D02*
X145344000Y-138130000D01*
X134930000Y-130352000D02*
X143075000Y-130352000D01*
X143582000Y-130438000D02*
X145543000Y-132399000D01*
X145543000Y-132399000D02*
X145543000Y-137930000D01*
X143161000Y-130438000D02*
X143582000Y-130438000D01*
X134495000Y-129917000D02*
X134930000Y-130352000D01*
X143075000Y-130352000D02*
X143161000Y-130438000D01*
%TO.N,COIN_IN*%
X139560000Y-133141000D02*
X136810000Y-133141000D01*
X139798000Y-132903000D02*
X139560000Y-133141000D01*
X135916000Y-134035000D02*
X136810000Y-133141000D01*
X130318000Y-134035000D02*
X135916000Y-134035000D01*
%TO.N,LED_PULSE*%
X131131000Y-138581000D02*
X131131000Y-145524000D01*
X131131000Y-145524000D02*
X131540000Y-145933000D01*
%TO.N,LED_STATUS*%
X116078000Y-130405000D02*
X116978000Y-129505000D01*
X132734000Y-128246000D02*
X134794000Y-128246000D01*
X131475000Y-129505000D02*
X132734000Y-128246000D01*
X116978000Y-129505000D02*
X131475000Y-129505000D01*
%TO.N,MCU_DBG_RX*%
X146889000Y-132610000D02*
X143740000Y-129460000D01*
X143740000Y-129460000D02*
X143567000Y-129460000D01*
X146889000Y-136603000D02*
X146889000Y-132610000D01*
X146356000Y-137137000D02*
X146889000Y-136603000D01*
%TO.N,MCU_DBG_TX*%
X147813000Y-135244000D02*
X149098000Y-133958000D01*
X144144000Y-129222000D02*
X143806000Y-128883000D01*
X142584000Y-129222000D02*
X142432000Y-129373000D01*
X149098000Y-133958000D02*
X152197000Y-133958000D01*
X143328000Y-128883000D02*
X142989000Y-129222000D01*
X143806000Y-128883000D02*
X143328000Y-128883000D01*
X153950000Y-129222000D02*
X144144000Y-129222000D01*
X142989000Y-129222000D02*
X142584000Y-129222000D01*
%TO.N,MCU_RX*%
X134012000Y-138237000D02*
X135749000Y-139974000D01*
X134012000Y-138121000D02*
X134012000Y-138237000D01*
X135749000Y-139974000D02*
X136203000Y-139974000D01*
%TO.N,MODEM_RESET_N*%
X155642000Y-133029000D02*
X148000000Y-133029000D01*
X156919000Y-134306000D02*
X155642000Y-133029000D01*
%TO.N,MODEM_RXD*%
X139684000Y-138331000D02*
X139762000Y-138253000D01*
X156819000Y-135785000D02*
X156819000Y-135612000D01*
X145584000Y-138707000D02*
X145759000Y-138532000D01*
X139762000Y-138253000D02*
X144651000Y-138253000D01*
X145105000Y-138707000D02*
X145584000Y-138707000D01*
X144651000Y-138253000D02*
X145105000Y-138707000D01*
X134828000Y-138123000D02*
X135036000Y-138331000D01*
X154072000Y-138532000D02*
X156819000Y-135785000D01*
X135036000Y-138331000D02*
X139684000Y-138331000D01*
X145759000Y-138532000D02*
X154072000Y-138532000D01*
%TO.N,MODEM_TXD*%
X151255000Y-139706000D02*
X151094000Y-139868000D01*
X151094000Y-139868000D02*
X141039000Y-139868000D01*
X141039000Y-139868000D02*
X140000000Y-138830000D01*
X157302000Y-139706000D02*
X151255000Y-139706000D01*
X160793000Y-136216000D02*
X157302000Y-139706000D01*
%TO.N,NRST*%
X130837000Y-132708000D02*
X134721000Y-128823000D01*
X137071000Y-128823000D02*
X143578000Y-122316000D01*
X134721000Y-128823000D02*
X137071000Y-128823000D01*
X143578000Y-122316000D02*
X143578000Y-122253000D01*
%TO.N,PWRKEY_CTL*%
X142801000Y-131015000D02*
X139936000Y-133880000D01*
X139936000Y-133880000D02*
X139504000Y-133880000D01*
%TO.N,RESET_G*%
X143878000Y-136001000D02*
X143878000Y-132202000D01*
X143878000Y-132202000D02*
X144196000Y-131884000D01*
X144022000Y-136144000D02*
X143878000Y-136001000D01*
%TO.N,SIM_CLK*%
X160412000Y-140283000D02*
X160860000Y-139835000D01*
X151494000Y-140283000D02*
X160412000Y-140283000D01*
%TO.N,SIM_DATA*%
X153973000Y-141246000D02*
X161570000Y-141246000D01*
X161570000Y-141246000D02*
X162954000Y-139862000D01*
%TO.N,SIM_VDD*%
X154741000Y-136563000D02*
X155406000Y-135897000D01*
X154741000Y-137047000D02*
X154741000Y-136563000D01*
X149682000Y-135506000D02*
X150073000Y-135897000D01*
X150073000Y-135897000D02*
X155406000Y-135897000D01*
%TO.N,SPI_MOSI*%
X138559000Y-124626000D02*
X136410000Y-124626000D01*
X139118000Y-124068000D02*
X138559000Y-124626000D01*
%TO.N,SWCLK*%
X146500000Y-118485000D02*
X146500000Y-117227000D01*
X140366000Y-124713000D02*
X140366000Y-124620000D01*
X140366000Y-124620000D02*
X146500000Y-118485000D01*
%TO.N,USB_BOOT*%
X163780000Y-128758000D02*
X162110000Y-127087000D01*
X169922000Y-128758000D02*
X163780000Y-128758000D01*
%TO.N,USB_DN*%
X157875000Y-126848500D02*
X158975200Y-125748300D01*
X168946700Y-125748300D02*
X171198400Y-128000000D01*
X158975200Y-125748300D02*
X168946700Y-125748300D01*
D22*
%TO.N,VBAT*%
X140000000Y-112786000D02*
X136589000Y-116197000D01*
X136589000Y-116197000D02*
X131143000Y-116197000D01*
D21*
%TO.N,VBUS*%
X171198000Y-129148000D02*
X171198000Y-130000000D01*
X168394000Y-126343000D02*
X171198000Y-129148000D01*
X166138000Y-126343000D02*
X168394000Y-126343000D01*
%TO.N,VDD_EXT*%
X141854000Y-129611000D02*
X142193000Y-129950000D01*
X146282000Y-132570000D02*
X146282000Y-133993000D01*
X141854000Y-129133000D02*
X141854000Y-129611000D01*
X143328000Y-130037000D02*
X143748000Y-130037000D01*
X153646000Y-128102000D02*
X152128000Y-128102000D01*
X151790000Y-127764000D02*
X143223000Y-127764000D01*
X143748000Y-130037000D02*
X146282000Y-132570000D01*
X155160000Y-129616000D02*
X153646000Y-128102000D01*
X168785000Y-129616000D02*
X155160000Y-129616000D01*
X142193000Y-129950000D02*
X143241000Y-129950000D01*
X143223000Y-127764000D02*
X141854000Y-129133000D01*
X152128000Y-128102000D02*
X151790000Y-127764000D01*
X143241000Y-129950000D02*
X143328000Y-130037000D01*
D22*
%TO.N,VMCU_IN*%
X127307000Y-139929000D02*
X127307000Y-139902000D01*
X127307000Y-139902000D02*
X120396000Y-132991000D01*
X120396000Y-132991000D02*
X119527000Y-132991000D01*
%TD*%
%TA.AperFunction,Conductor*%
%TO.N,GND*%
G36*
X151672356Y-128108407D02*
G01*
X151684168Y-128118496D01*
X151928137Y-128362464D01*
X151928142Y-128362468D01*
X152002357Y-128405316D01*
X152002355Y-128405316D01*
X152002359Y-128405317D01*
X152002361Y-128405318D01*
X152085147Y-128427500D01*
X152170853Y-128427500D01*
X153470165Y-128427500D01*
X153528356Y-128446407D01*
X153540169Y-128456496D01*
X153717865Y-128634192D01*
X153727791Y-128653674D01*
X153741128Y-128670996D01*
X153741388Y-128680361D01*
X153745642Y-128688709D01*
X153742221Y-128710303D01*
X153742830Y-128732157D01*
X153737735Y-128738630D01*
X153736071Y-128749141D01*
X153708257Y-128782639D01*
X153703046Y-128786650D01*
X153642686Y-128821500D01*
X153592155Y-128872030D01*
X153587074Y-128875943D01*
X153563990Y-128884159D01*
X153542164Y-128895281D01*
X153530076Y-128896232D01*
X153529432Y-128896462D01*
X153528952Y-128896320D01*
X153526678Y-128896500D01*
X144320201Y-128896500D01*
X144262010Y-128877593D01*
X144250094Y-128867400D01*
X144071290Y-128688067D01*
X144070566Y-128687240D01*
X144066466Y-128683140D01*
X144066465Y-128683138D01*
X144036016Y-128652689D01*
X144006246Y-128622831D01*
X144006036Y-128622709D01*
X144005862Y-128622535D01*
X144004490Y-128621743D01*
X143992759Y-128614970D01*
X143969022Y-128601265D01*
X143968920Y-128601152D01*
X143968897Y-128601193D01*
X143932087Y-128579868D01*
X143932085Y-128579867D01*
X143932083Y-128579866D01*
X143931898Y-128579789D01*
X143931650Y-128579686D01*
X143931646Y-128579684D01*
X143922344Y-128577191D01*
X143890908Y-128568768D01*
X143890782Y-128568686D01*
X143890771Y-128568731D01*
X143849333Y-128557562D01*
X143849172Y-128557541D01*
X143849157Y-128557539D01*
X143848867Y-128557500D01*
X143848853Y-128557500D01*
X143806483Y-128557500D01*
X143806203Y-128557499D01*
X143763628Y-128557437D01*
X143763626Y-128557437D01*
X143757840Y-128557429D01*
X143756744Y-128557500D01*
X143285147Y-128557500D01*
X143243754Y-128568591D01*
X143202360Y-128579682D01*
X143133903Y-128619205D01*
X143133904Y-128619206D01*
X143128138Y-128622534D01*
X142883168Y-128867504D01*
X142876051Y-128871129D01*
X142871356Y-128877593D01*
X142849306Y-128884757D01*
X142828652Y-128895281D01*
X142813165Y-128896500D01*
X142789834Y-128896500D01*
X142731643Y-128877593D01*
X142695679Y-128828093D01*
X142695679Y-128766907D01*
X142719830Y-128727496D01*
X142968734Y-128478593D01*
X143328831Y-128118496D01*
X143383348Y-128090719D01*
X143398835Y-128089500D01*
X151614165Y-128089500D01*
X151672356Y-128108407D01*
G37*
%TD.AperFunction*%
%TA.AperFunction,Conductor*%
G36*
X179658691Y-100319407D02*
G01*
X179694655Y-100368907D01*
X179699500Y-100399500D01*
X179699500Y-154600500D01*
X179680593Y-154658691D01*
X179631093Y-154694655D01*
X179600500Y-154699500D01*
X100399500Y-154699500D01*
X100341309Y-154680593D01*
X100305345Y-154631093D01*
X100300500Y-154600500D01*
X100300500Y-144896532D01*
X103324500Y-144896532D01*
X103324500Y-145103467D01*
X103364869Y-145306418D01*
X103444058Y-145497597D01*
X103559020Y-145669651D01*
X103559023Y-145669655D01*
X103705345Y-145815977D01*
X103877402Y-145930941D01*
X104068580Y-146010130D01*
X104271535Y-146050500D01*
X104271536Y-146050500D01*
X104728464Y-146050500D01*
X104728465Y-146050500D01*
X104931420Y-146010130D01*
X105122598Y-145930941D01*
X105294655Y-145815977D01*
X105440977Y-145669655D01*
X105555941Y-145497598D01*
X105635130Y-145306420D01*
X105675500Y-145103465D01*
X105675500Y-144896535D01*
X105635130Y-144693580D01*
X105555941Y-144502402D01*
X105440977Y-144330345D01*
X105294655Y-144184023D01*
X105294651Y-144184020D01*
X105122597Y-144069058D01*
X104931418Y-143989869D01*
X104728467Y-143949500D01*
X104728465Y-143949500D01*
X104271535Y-143949500D01*
X104271532Y-143949500D01*
X104068581Y-143989869D01*
X103877402Y-144069058D01*
X103705348Y-144184020D01*
X103559020Y-144330348D01*
X103444058Y-144502402D01*
X103364869Y-144693581D01*
X103324500Y-144896532D01*
X100300500Y-144896532D01*
X100300500Y-142396532D01*
X103324500Y-142396532D01*
X103324500Y-142603467D01*
X103364869Y-142806418D01*
X103444058Y-142997597D01*
X103444059Y-142997598D01*
X103559023Y-143169655D01*
X103705345Y-143315977D01*
X103877402Y-143430941D01*
X104068580Y-143510130D01*
X104271535Y-143550500D01*
X104271536Y-143550500D01*
X104728464Y-143550500D01*
X104728465Y-143550500D01*
X104931420Y-143510130D01*
X105122598Y-143430941D01*
X105294655Y-143315977D01*
X105440977Y-143169655D01*
X105555941Y-142997598D01*
X105635130Y-142806420D01*
X105675500Y-142603465D01*
X105675500Y-142396535D01*
X105635130Y-142193580D01*
X105555941Y-142002402D01*
X105440977Y-141830345D01*
X105294655Y-141684023D01*
X105238502Y-141646503D01*
X105122597Y-141569058D01*
X104931418Y-141489869D01*
X104728467Y-141449500D01*
X104728465Y-141449500D01*
X104271535Y-141449500D01*
X104271532Y-141449500D01*
X104068581Y-141489869D01*
X103877402Y-141569058D01*
X103705348Y-141684020D01*
X103559020Y-141830348D01*
X103444058Y-142002402D01*
X103364869Y-142193581D01*
X103324500Y-142396532D01*
X100300500Y-142396532D01*
X100300500Y-139345725D01*
X103324500Y-139345725D01*
X103324500Y-140654274D01*
X103327353Y-140684694D01*
X103327355Y-140684703D01*
X103372207Y-140812883D01*
X103452845Y-140922144D01*
X103452847Y-140922146D01*
X103452850Y-140922150D01*
X103452853Y-140922152D01*
X103452855Y-140922154D01*
X103562116Y-141002792D01*
X103562117Y-141002792D01*
X103562118Y-141002793D01*
X103690301Y-141047646D01*
X103720725Y-141050499D01*
X103720727Y-141050500D01*
X103720734Y-141050500D01*
X105279273Y-141050500D01*
X105279273Y-141050499D01*
X105309699Y-141047646D01*
X105437882Y-141002793D01*
X105547150Y-140922150D01*
X105627793Y-140812882D01*
X105672646Y-140684699D01*
X105675499Y-140654273D01*
X105675500Y-140654273D01*
X105675500Y-139345727D01*
X105675499Y-139345725D01*
X105672646Y-139315305D01*
X105672646Y-139315301D01*
X105627793Y-139187118D01*
X105591036Y-139137314D01*
X105547154Y-139077855D01*
X105547152Y-139077853D01*
X105547150Y-139077850D01*
X105547146Y-139077847D01*
X105547144Y-139077845D01*
X105437883Y-138997207D01*
X105309703Y-138952355D01*
X105309694Y-138952353D01*
X105279274Y-138949500D01*
X105279266Y-138949500D01*
X103720734Y-138949500D01*
X103720725Y-138949500D01*
X103690305Y-138952353D01*
X103690296Y-138952355D01*
X103562116Y-138997207D01*
X103452855Y-139077845D01*
X103452845Y-139077855D01*
X103372207Y-139187116D01*
X103327355Y-139315296D01*
X103327353Y-139315305D01*
X103324500Y-139345725D01*
X100300500Y-139345725D01*
X100300500Y-136150108D01*
X115736500Y-136150108D01*
X115736500Y-136281892D01*
X115741741Y-136301451D01*
X115770609Y-136409190D01*
X115836496Y-136523309D01*
X115836498Y-136523311D01*
X115836500Y-136523314D01*
X115929686Y-136616500D01*
X115929688Y-136616501D01*
X115929690Y-136616503D01*
X116043810Y-136682390D01*
X116043808Y-136682390D01*
X116043812Y-136682391D01*
X116043814Y-136682392D01*
X116171108Y-136716500D01*
X116171110Y-136716500D01*
X116302890Y-136716500D01*
X116302892Y-136716500D01*
X116430186Y-136682392D01*
X116430188Y-136682390D01*
X116430190Y-136682390D01*
X116544309Y-136616503D01*
X116544310Y-136616502D01*
X116544314Y-136616500D01*
X116558119Y-136602695D01*
X116590319Y-136570496D01*
X116644836Y-136542719D01*
X116660322Y-136541500D01*
X122098455Y-136541500D01*
X122105997Y-136543950D01*
X122113829Y-136542701D01*
X122134545Y-136553226D01*
X122156646Y-136560407D01*
X122168377Y-136570415D01*
X122174422Y-136576446D01*
X122202263Y-136630931D01*
X122203500Y-136646531D01*
X122203500Y-136710892D01*
X122220801Y-136775460D01*
X122237609Y-136838190D01*
X122303496Y-136952309D01*
X122303498Y-136952311D01*
X122303500Y-136952314D01*
X122396686Y-137045500D01*
X122396688Y-137045501D01*
X122396690Y-137045503D01*
X122510810Y-137111390D01*
X122510808Y-137111390D01*
X122510812Y-137111391D01*
X122510814Y-137111392D01*
X122638108Y-137145500D01*
X122638110Y-137145500D01*
X122769890Y-137145500D01*
X122769892Y-137145500D01*
X122897186Y-137111392D01*
X122897188Y-137111390D01*
X122897190Y-137111390D01*
X123011309Y-137045503D01*
X123011309Y-137045502D01*
X123011314Y-137045500D01*
X123104500Y-136952314D01*
X123161829Y-136853016D01*
X123207296Y-136812077D01*
X123268146Y-136805681D01*
X123317568Y-136832514D01*
X126740464Y-140255410D01*
X126752775Y-140270412D01*
X126801724Y-140343669D01*
X126892331Y-140434276D01*
X126952531Y-140474500D01*
X126998866Y-140505461D01*
X126998870Y-140505463D01*
X126998873Y-140505465D01*
X127117256Y-140554501D01*
X127242931Y-140579500D01*
X127242932Y-140579500D01*
X127371068Y-140579500D01*
X127371069Y-140579500D01*
X127496744Y-140554501D01*
X127615127Y-140505465D01*
X127721669Y-140434276D01*
X127812276Y-140343669D01*
X127883465Y-140237127D01*
X127932501Y-140118744D01*
X127957500Y-139993069D01*
X127957500Y-139837931D01*
X127932501Y-139712256D01*
X127883465Y-139593873D01*
X127845812Y-139537521D01*
X127812277Y-139487331D01*
X120810669Y-132485723D01*
X120808668Y-132484386D01*
X120704126Y-132414534D01*
X120585747Y-132365500D01*
X120585745Y-132365499D01*
X120585744Y-132365499D01*
X120460069Y-132340500D01*
X119462931Y-132340500D01*
X119462930Y-132340500D01*
X119413212Y-132350390D01*
X119337256Y-132365499D01*
X119337255Y-132365499D01*
X119337252Y-132365500D01*
X119218874Y-132414534D01*
X119218866Y-132414538D01*
X119112331Y-132485724D01*
X119112327Y-132485727D01*
X119021727Y-132576327D01*
X119021724Y-132576331D01*
X118950538Y-132682866D01*
X118950534Y-132682874D01*
X118901500Y-132801252D01*
X118901499Y-132801255D01*
X118901499Y-132801256D01*
X118876500Y-132926931D01*
X118876500Y-133055069D01*
X118900235Y-133174392D01*
X118901499Y-133180742D01*
X118901500Y-133180747D01*
X118950534Y-133299125D01*
X118950538Y-133299133D01*
X118993365Y-133363226D01*
X119021724Y-133405669D01*
X119112331Y-133496276D01*
X119175848Y-133538717D01*
X119218866Y-133567461D01*
X119218870Y-133567463D01*
X119218873Y-133567465D01*
X119337256Y-133616501D01*
X119462931Y-133641500D01*
X120085546Y-133641500D01*
X120143737Y-133660407D01*
X120155550Y-133670496D01*
X122206550Y-135721496D01*
X122234327Y-135776013D01*
X122224756Y-135836445D01*
X122181491Y-135879710D01*
X122136546Y-135890500D01*
X116660322Y-135890500D01*
X116602131Y-135871593D01*
X116590319Y-135861504D01*
X116544315Y-135815500D01*
X116544309Y-135815496D01*
X116430189Y-135749609D01*
X116430191Y-135749609D01*
X116380799Y-135736375D01*
X116302892Y-135715500D01*
X116171108Y-135715500D01*
X116093200Y-135736375D01*
X116043809Y-135749609D01*
X115929690Y-135815496D01*
X115836496Y-135908690D01*
X115770609Y-136022809D01*
X115754982Y-136081133D01*
X115736500Y-136150108D01*
X100300500Y-136150108D01*
X100300500Y-130396532D01*
X103299500Y-130396532D01*
X103299500Y-130603467D01*
X103339869Y-130806418D01*
X103419058Y-130997597D01*
X103534020Y-131169651D01*
X103534023Y-131169655D01*
X103680345Y-131315977D01*
X103852402Y-131430941D01*
X104043580Y-131510130D01*
X104246535Y-131550500D01*
X104246536Y-131550500D01*
X104753464Y-131550500D01*
X104753465Y-131550500D01*
X104956420Y-131510130D01*
X105147598Y-131430941D01*
X105319655Y-131315977D01*
X105465977Y-131169655D01*
X105580941Y-130997598D01*
X105660130Y-130806420D01*
X105700500Y-130603465D01*
X105700500Y-130396535D01*
X105689077Y-130339108D01*
X115577500Y-130339108D01*
X115577500Y-130470892D01*
X115607579Y-130583151D01*
X115611609Y-130598190D01*
X115677496Y-130712309D01*
X115677498Y-130712311D01*
X115677500Y-130712314D01*
X115770686Y-130805500D01*
X115770688Y-130805501D01*
X115770690Y-130805503D01*
X115884810Y-130871390D01*
X115884808Y-130871390D01*
X115884812Y-130871391D01*
X115884814Y-130871392D01*
X116012108Y-130905500D01*
X116012110Y-130905500D01*
X116143890Y-130905500D01*
X116143892Y-130905500D01*
X116271186Y-130871392D01*
X116271188Y-130871390D01*
X116271190Y-130871390D01*
X116385309Y-130805503D01*
X116385309Y-130805502D01*
X116385314Y-130805500D01*
X116478500Y-130712314D01*
X116511408Y-130655316D01*
X116544390Y-130598190D01*
X116544390Y-130598188D01*
X116544392Y-130598186D01*
X116578500Y-130470892D01*
X116578500Y-130405835D01*
X116597407Y-130347644D01*
X116607496Y-130335831D01*
X117083831Y-129859496D01*
X117138348Y-129831719D01*
X117153835Y-129830500D01*
X131517851Y-129830500D01*
X131517853Y-129830500D01*
X131600639Y-129808318D01*
X131600641Y-129808316D01*
X131600643Y-129808316D01*
X131674857Y-129765468D01*
X131674857Y-129765467D01*
X131674862Y-129765465D01*
X132839831Y-128600496D01*
X132894348Y-128572719D01*
X132909835Y-128571500D01*
X134273203Y-128571500D01*
X134331394Y-128590407D01*
X134367358Y-128639907D01*
X134367358Y-128701093D01*
X134343216Y-128740495D01*
X133402064Y-129681890D01*
X130958089Y-132126495D01*
X130906102Y-132178495D01*
X130851589Y-132206279D01*
X130836089Y-132207500D01*
X130771108Y-132207500D01*
X130693200Y-132228375D01*
X130643809Y-132241609D01*
X130529690Y-132307496D01*
X130436496Y-132400690D01*
X130370609Y-132514809D01*
X130356579Y-132567172D01*
X130336500Y-132642108D01*
X130336500Y-132773892D01*
X130353092Y-132835814D01*
X130370609Y-132901190D01*
X130436496Y-133015309D01*
X130436498Y-133015311D01*
X130436500Y-133015314D01*
X130529686Y-133108500D01*
X130529688Y-133108501D01*
X130529690Y-133108503D01*
X130643810Y-133174390D01*
X130643808Y-133174390D01*
X130643812Y-133174391D01*
X130643814Y-133174392D01*
X130771108Y-133208500D01*
X130771110Y-133208500D01*
X130902890Y-133208500D01*
X130902892Y-133208500D01*
X131030186Y-133174392D01*
X131030188Y-133174390D01*
X131030190Y-133174390D01*
X131144309Y-133108503D01*
X131144309Y-133108502D01*
X131144314Y-133108500D01*
X131237500Y-133015314D01*
X131288529Y-132926930D01*
X131303390Y-132901190D01*
X131303390Y-132901188D01*
X131303392Y-132901186D01*
X131337500Y-132773892D01*
X131337500Y-132708756D01*
X131356407Y-132650565D01*
X131366483Y-132638764D01*
X133888250Y-130116348D01*
X133942762Y-130088565D01*
X134003196Y-130098129D01*
X134043998Y-130136844D01*
X134094496Y-130224309D01*
X134094498Y-130224311D01*
X134094500Y-130224314D01*
X134187686Y-130317500D01*
X134187688Y-130317501D01*
X134187690Y-130317503D01*
X134301810Y-130383390D01*
X134301808Y-130383390D01*
X134301812Y-130383391D01*
X134301814Y-130383392D01*
X134429108Y-130417500D01*
X134494165Y-130417500D01*
X134552356Y-130436407D01*
X134564168Y-130446496D01*
X134730137Y-130612464D01*
X134730142Y-130612468D01*
X134804357Y-130655316D01*
X134804355Y-130655316D01*
X134804359Y-130655317D01*
X134804361Y-130655318D01*
X134887147Y-130677500D01*
X134972853Y-130677500D01*
X142246454Y-130677500D01*
X142304645Y-130696407D01*
X142340609Y-130745907D01*
X142340609Y-130807093D01*
X142336782Y-130815687D01*
X142337092Y-130815816D01*
X142334609Y-130821808D01*
X142300500Y-130949109D01*
X142300500Y-131014164D01*
X142281593Y-131072355D01*
X142271504Y-131084168D01*
X140466054Y-132889617D01*
X140411537Y-132917394D01*
X140351105Y-132907823D01*
X140307840Y-132864558D01*
X140301184Y-132843106D01*
X140300179Y-132843376D01*
X140298153Y-132835814D01*
X140264392Y-132709814D01*
X140264390Y-132709810D01*
X140264390Y-132709809D01*
X140198503Y-132595690D01*
X140198501Y-132595688D01*
X140198500Y-132595686D01*
X140105314Y-132502500D01*
X140105311Y-132502498D01*
X140105309Y-132502496D01*
X139991189Y-132436609D01*
X139991191Y-132436609D01*
X139941799Y-132423375D01*
X139863892Y-132402500D01*
X139732108Y-132402500D01*
X139654200Y-132423375D01*
X139604809Y-132436609D01*
X139490690Y-132502496D01*
X139397496Y-132595690D01*
X139331609Y-132709810D01*
X139331607Y-132709814D01*
X139322950Y-132742124D01*
X139289626Y-132793438D01*
X139232504Y-132815364D01*
X139227324Y-132815500D01*
X137233322Y-132815500D01*
X137175131Y-132796593D01*
X137163319Y-132786504D01*
X137117315Y-132740500D01*
X137117309Y-132740496D01*
X137003189Y-132674609D01*
X137003191Y-132674609D01*
X136953799Y-132661375D01*
X136875892Y-132640500D01*
X136744108Y-132640500D01*
X136666200Y-132661375D01*
X136616809Y-132674609D01*
X136502690Y-132740496D01*
X136409496Y-132833690D01*
X136343609Y-132947809D01*
X136337960Y-132968892D01*
X136314870Y-133055069D01*
X136309500Y-133075109D01*
X136309500Y-133140165D01*
X136290593Y-133198356D01*
X136280504Y-133210169D01*
X135810169Y-133680504D01*
X135755652Y-133708281D01*
X135740165Y-133709500D01*
X130741322Y-133709500D01*
X130683131Y-133690593D01*
X130671319Y-133680504D01*
X130625315Y-133634500D01*
X130625309Y-133634496D01*
X130511189Y-133568609D01*
X130511191Y-133568609D01*
X130461799Y-133555375D01*
X130383892Y-133534500D01*
X130252108Y-133534500D01*
X130174200Y-133555375D01*
X130124809Y-133568609D01*
X130010690Y-133634496D01*
X129917496Y-133727690D01*
X129851609Y-133841809D01*
X129851608Y-133841814D01*
X129817500Y-133969108D01*
X129817500Y-134100892D01*
X129845529Y-134205500D01*
X129851609Y-134228190D01*
X129917496Y-134342309D01*
X129917498Y-134342311D01*
X129917500Y-134342314D01*
X130010686Y-134435500D01*
X130010688Y-134435501D01*
X130010690Y-134435503D01*
X130124810Y-134501390D01*
X130124808Y-134501390D01*
X130124812Y-134501391D01*
X130124814Y-134501392D01*
X130252108Y-134535500D01*
X130252110Y-134535500D01*
X130383890Y-134535500D01*
X130383892Y-134535500D01*
X130511186Y-134501392D01*
X130511188Y-134501390D01*
X130511190Y-134501390D01*
X130625309Y-134435503D01*
X130625310Y-134435502D01*
X130625314Y-134435500D01*
X130642884Y-134417930D01*
X130671319Y-134389496D01*
X130725836Y-134361719D01*
X130741322Y-134360500D01*
X135958851Y-134360500D01*
X135958853Y-134360500D01*
X136041639Y-134338318D01*
X136041641Y-134338316D01*
X136041643Y-134338316D01*
X136115857Y-134295468D01*
X136115857Y-134295467D01*
X136115862Y-134295465D01*
X136740831Y-133670496D01*
X136795348Y-133642719D01*
X136810835Y-133641500D01*
X136875890Y-133641500D01*
X136875892Y-133641500D01*
X137003186Y-133607392D01*
X137003188Y-133607390D01*
X137003190Y-133607390D01*
X137117309Y-133541503D01*
X137117310Y-133541502D01*
X137117314Y-133541500D01*
X137129314Y-133529500D01*
X137163319Y-133495496D01*
X137217836Y-133467719D01*
X137233322Y-133466500D01*
X138993333Y-133466500D01*
X139051524Y-133485407D01*
X139087488Y-133534907D01*
X139087488Y-133596093D01*
X139079069Y-133615000D01*
X139037609Y-133686809D01*
X139026656Y-133727686D01*
X139003500Y-133814108D01*
X139003500Y-133945892D01*
X139009721Y-133969108D01*
X139037609Y-134073190D01*
X139103496Y-134187309D01*
X139103498Y-134187311D01*
X139103500Y-134187314D01*
X139196686Y-134280500D01*
X139196688Y-134280501D01*
X139196690Y-134280503D01*
X139310810Y-134346390D01*
X139310808Y-134346390D01*
X139310812Y-134346391D01*
X139310814Y-134346392D01*
X139438108Y-134380500D01*
X139438110Y-134380500D01*
X139569890Y-134380500D01*
X139569892Y-134380500D01*
X139697186Y-134346392D01*
X139697188Y-134346390D01*
X139697190Y-134346390D01*
X139811309Y-134280503D01*
X139811310Y-134280502D01*
X139811314Y-134280500D01*
X139826505Y-134265309D01*
X139857319Y-134234496D01*
X139911836Y-134206719D01*
X139927322Y-134205500D01*
X139978851Y-134205500D01*
X139978853Y-134205500D01*
X140061639Y-134183318D01*
X140061641Y-134183316D01*
X140061643Y-134183316D01*
X140135857Y-134140468D01*
X140135857Y-134140467D01*
X140135862Y-134140465D01*
X142731831Y-131544496D01*
X142786348Y-131516719D01*
X142801835Y-131515500D01*
X142866890Y-131515500D01*
X142866892Y-131515500D01*
X142994186Y-131481392D01*
X142994188Y-131481390D01*
X142994190Y-131481390D01*
X143108309Y-131415503D01*
X143108309Y-131415502D01*
X143108314Y-131415500D01*
X143201500Y-131322314D01*
X143267392Y-131208186D01*
X143301500Y-131080892D01*
X143301500Y-130949108D01*
X143285159Y-130888122D01*
X143286631Y-130860042D01*
X143286631Y-130831907D01*
X143288220Y-130829719D01*
X143288362Y-130827021D01*
X143306058Y-130805168D01*
X143322595Y-130782407D01*
X143325165Y-130781571D01*
X143326867Y-130779471D01*
X143380786Y-130763500D01*
X143406165Y-130763500D01*
X143464356Y-130782407D01*
X143476169Y-130792496D01*
X143974008Y-131290335D01*
X144001785Y-131344852D01*
X143992214Y-131405284D01*
X143953505Y-131446075D01*
X143888688Y-131483498D01*
X143795496Y-131576690D01*
X143729609Y-131690809D01*
X143695500Y-131818109D01*
X143695500Y-131883165D01*
X143676593Y-131941356D01*
X143666504Y-131953168D01*
X143617535Y-132002136D01*
X143617531Y-132002142D01*
X143574682Y-132076360D01*
X143574681Y-132076360D01*
X143574682Y-132076361D01*
X143552500Y-132159147D01*
X143552500Y-135949377D01*
X143549126Y-135974999D01*
X143521500Y-136078108D01*
X143521500Y-136209892D01*
X143532230Y-136249937D01*
X143555609Y-136337190D01*
X143621496Y-136451309D01*
X143621498Y-136451311D01*
X143621500Y-136451314D01*
X143714686Y-136544500D01*
X143714688Y-136544501D01*
X143714690Y-136544503D01*
X143828810Y-136610390D01*
X143828808Y-136610390D01*
X143828812Y-136610391D01*
X143828814Y-136610392D01*
X143956108Y-136644500D01*
X143956110Y-136644500D01*
X144087890Y-136644500D01*
X144087892Y-136644500D01*
X144215186Y-136610392D01*
X144215188Y-136610390D01*
X144215190Y-136610390D01*
X144329309Y-136544503D01*
X144329309Y-136544502D01*
X144329314Y-136544500D01*
X144422500Y-136451314D01*
X144431947Y-136434951D01*
X144488390Y-136337190D01*
X144488390Y-136337188D01*
X144488392Y-136337186D01*
X144522500Y-136209892D01*
X144522500Y-136078108D01*
X144488392Y-135950814D01*
X144488390Y-135950811D01*
X144488390Y-135950809D01*
X144422503Y-135836690D01*
X144422501Y-135836688D01*
X144422500Y-135836686D01*
X144329314Y-135743500D01*
X144329311Y-135743498D01*
X144329309Y-135743496D01*
X144253000Y-135699439D01*
X144212059Y-135653970D01*
X144203500Y-135613703D01*
X144203500Y-132476111D01*
X144222407Y-132417920D01*
X144271907Y-132381956D01*
X144276847Y-132380492D01*
X144389186Y-132350392D01*
X144389188Y-132350390D01*
X144389190Y-132350390D01*
X144503309Y-132284503D01*
X144503309Y-132284502D01*
X144503314Y-132284500D01*
X144596500Y-132191314D01*
X144633923Y-132126494D01*
X144679393Y-132085553D01*
X144740243Y-132079157D01*
X144789664Y-132105990D01*
X145188504Y-132504830D01*
X145216281Y-132559347D01*
X145217500Y-132574834D01*
X145217500Y-137569836D01*
X145198593Y-137628027D01*
X145156384Y-137661301D01*
X145150808Y-137663610D01*
X145036690Y-137729496D01*
X144943498Y-137822688D01*
X144895535Y-137905761D01*
X144850065Y-137946702D01*
X144789215Y-137953096D01*
X144782962Y-137951155D01*
X144782907Y-137951362D01*
X144776640Y-137949682D01*
X144776639Y-137949682D01*
X144693853Y-137927500D01*
X144693851Y-137927500D01*
X139810932Y-137927500D01*
X139810916Y-137927499D01*
X139804853Y-137927499D01*
X139719147Y-137927499D01*
X139719144Y-137927499D01*
X139636362Y-137949681D01*
X139636361Y-137949681D01*
X139584002Y-137979911D01*
X139562654Y-137992236D01*
X139513156Y-138005500D01*
X138554944Y-138005500D01*
X138496753Y-137986593D01*
X138460789Y-137937093D01*
X138459317Y-137880878D01*
X138466594Y-137853718D01*
X138484500Y-137786892D01*
X138484500Y-137655108D01*
X138450392Y-137527814D01*
X138450390Y-137527811D01*
X138450390Y-137527809D01*
X138384503Y-137413690D01*
X138384501Y-137413688D01*
X138384500Y-137413686D01*
X138291314Y-137320500D01*
X138291311Y-137320498D01*
X138291309Y-137320496D01*
X138177189Y-137254609D01*
X138177191Y-137254609D01*
X138123362Y-137240186D01*
X138049892Y-137220500D01*
X137918108Y-137220500D01*
X137915979Y-137220500D01*
X137890602Y-137217192D01*
X137873034Y-137212533D01*
X137872790Y-137212468D01*
X137831840Y-137201496D01*
X137831649Y-137201472D01*
X137831419Y-137201442D01*
X137831035Y-137201391D01*
X137831016Y-137201391D01*
X137790676Y-137201494D01*
X137788552Y-137201500D01*
X131370025Y-137201500D01*
X131327172Y-137201497D01*
X131327161Y-137201500D01*
X131327147Y-137201500D01*
X131324542Y-137202197D01*
X131324540Y-137202198D01*
X131282173Y-137213550D01*
X131282168Y-137213551D01*
X131244390Y-137223670D01*
X131244368Y-137223678D01*
X131206080Y-137245782D01*
X131205981Y-137245840D01*
X131170158Y-137266520D01*
X131170149Y-137266528D01*
X131170138Y-137266535D01*
X131137625Y-137299047D01*
X124663447Y-143772230D01*
X124659146Y-143776529D01*
X124659138Y-143776535D01*
X124631085Y-143804586D01*
X124631085Y-143804587D01*
X124631083Y-143804589D01*
X124598541Y-143837127D01*
X124578304Y-143872177D01*
X124578302Y-143872180D01*
X124555693Y-143911332D01*
X124555682Y-143911357D01*
X124545465Y-143949492D01*
X124545463Y-143949501D01*
X124534643Y-143989870D01*
X124533503Y-143994122D01*
X124533502Y-143994135D01*
X124533500Y-143994147D01*
X124533500Y-144030853D01*
X124533499Y-144031048D01*
X124533499Y-144031181D01*
X124533495Y-144086685D01*
X124533500Y-144086756D01*
X124533500Y-144708678D01*
X124514593Y-144766869D01*
X124504504Y-144778681D01*
X124458500Y-144824684D01*
X124458496Y-144824690D01*
X124392609Y-144938809D01*
X124392608Y-144938814D01*
X124358500Y-145066108D01*
X124358500Y-145197892D01*
X124387579Y-145306418D01*
X124392609Y-145325190D01*
X124458496Y-145439309D01*
X124458498Y-145439311D01*
X124458500Y-145439314D01*
X124551686Y-145532500D01*
X124551688Y-145532501D01*
X124551690Y-145532503D01*
X124665810Y-145598390D01*
X124665808Y-145598390D01*
X124665812Y-145598391D01*
X124665814Y-145598392D01*
X124793108Y-145632500D01*
X124793110Y-145632500D01*
X124924890Y-145632500D01*
X124924892Y-145632500D01*
X125052186Y-145598392D01*
X125052188Y-145598390D01*
X125052190Y-145598390D01*
X125166309Y-145532503D01*
X125166309Y-145532502D01*
X125166314Y-145532500D01*
X125259500Y-145439314D01*
X125325392Y-145325186D01*
X125359500Y-145197892D01*
X125359500Y-145066108D01*
X125325392Y-144938814D01*
X125325390Y-144938811D01*
X125325390Y-144938809D01*
X125259503Y-144824690D01*
X125259499Y-144824684D01*
X125213496Y-144778681D01*
X125185719Y-144724164D01*
X125184500Y-144708678D01*
X125184500Y-144212852D01*
X125203407Y-144154661D01*
X125213502Y-144142843D01*
X125276527Y-144079828D01*
X130543506Y-138813656D01*
X130562958Y-138803747D01*
X130580253Y-138790417D01*
X130589648Y-138790150D01*
X130598022Y-138785885D01*
X130619585Y-138789301D01*
X130641413Y-138788683D01*
X130647904Y-138793789D01*
X130658454Y-138795461D01*
X130691913Y-138823229D01*
X130695937Y-138828450D01*
X130730500Y-138888314D01*
X130781017Y-138938831D01*
X130784911Y-138943883D01*
X130793146Y-138966981D01*
X130804281Y-138988834D01*
X130805227Y-139000864D01*
X130805460Y-139001515D01*
X130805317Y-139002000D01*
X130805500Y-139004321D01*
X130805500Y-145481147D01*
X130805500Y-145566853D01*
X130813950Y-145598390D01*
X130827683Y-145649643D01*
X130870531Y-145723857D01*
X130870533Y-145723859D01*
X130870535Y-145723862D01*
X131010505Y-145863832D01*
X131038281Y-145918347D01*
X131039500Y-145933834D01*
X131039500Y-145998892D01*
X131053328Y-146050499D01*
X131073609Y-146126190D01*
X131139496Y-146240309D01*
X131139498Y-146240311D01*
X131139500Y-146240314D01*
X131232686Y-146333500D01*
X131232688Y-146333501D01*
X131232690Y-146333503D01*
X131346810Y-146399390D01*
X131346808Y-146399390D01*
X131346812Y-146399391D01*
X131346814Y-146399392D01*
X131474108Y-146433500D01*
X131474110Y-146433500D01*
X131605890Y-146433500D01*
X131605892Y-146433500D01*
X131733186Y-146399392D01*
X131733188Y-146399390D01*
X131733190Y-146399390D01*
X131847309Y-146333503D01*
X131847309Y-146333502D01*
X131847314Y-146333500D01*
X131940500Y-146240314D01*
X132006392Y-146126186D01*
X132040500Y-145998892D01*
X132040500Y-145867108D01*
X132006392Y-145739814D01*
X132006390Y-145739811D01*
X132006390Y-145739809D01*
X131940503Y-145625690D01*
X131940501Y-145625688D01*
X131940500Y-145625686D01*
X131847314Y-145532500D01*
X131847311Y-145532498D01*
X131847309Y-145532496D01*
X131733189Y-145466609D01*
X131733191Y-145466609D01*
X131683799Y-145453375D01*
X131605892Y-145432500D01*
X131605890Y-145432500D01*
X131555500Y-145432500D01*
X131497309Y-145413593D01*
X131461345Y-145364093D01*
X131456500Y-145333500D01*
X131456500Y-139004321D01*
X131475407Y-138946130D01*
X131485490Y-138934323D01*
X131531500Y-138888314D01*
X131558434Y-138841663D01*
X131597390Y-138774190D01*
X131597390Y-138774188D01*
X131597392Y-138774186D01*
X131631500Y-138646892D01*
X131631500Y-138515108D01*
X131597392Y-138387814D01*
X131597390Y-138387811D01*
X131597390Y-138387809D01*
X131531503Y-138273690D01*
X131531501Y-138273688D01*
X131531500Y-138273686D01*
X131438314Y-138180500D01*
X131438311Y-138180498D01*
X131438309Y-138180496D01*
X131384248Y-138149284D01*
X131365425Y-138128379D01*
X131345535Y-138108486D01*
X131345113Y-138105820D01*
X131343307Y-138103815D01*
X131340365Y-138075833D01*
X131335968Y-138048053D01*
X131337193Y-138045648D01*
X131336911Y-138042964D01*
X131363749Y-137993540D01*
X131475816Y-137881490D01*
X131530335Y-137853718D01*
X131545814Y-137852500D01*
X133436769Y-137852500D01*
X133494960Y-137871407D01*
X133530924Y-137920907D01*
X133532395Y-137977122D01*
X133511500Y-138055108D01*
X133511500Y-138186892D01*
X133516754Y-138206500D01*
X133545609Y-138314190D01*
X133611496Y-138428309D01*
X133611498Y-138428311D01*
X133611500Y-138428314D01*
X133704686Y-138521500D01*
X133818814Y-138587392D01*
X133906912Y-138610997D01*
X133951293Y-138636620D01*
X135549138Y-140234465D01*
X135549140Y-140234466D01*
X135549141Y-140234467D01*
X135549142Y-140234468D01*
X135623357Y-140277316D01*
X135623355Y-140277316D01*
X135623359Y-140277317D01*
X135623361Y-140277318D01*
X135706147Y-140299500D01*
X135779678Y-140299500D01*
X135837869Y-140318407D01*
X135849681Y-140328496D01*
X135895684Y-140374499D01*
X135895690Y-140374503D01*
X136009810Y-140440390D01*
X136009808Y-140440390D01*
X136009812Y-140440391D01*
X136009814Y-140440392D01*
X136137108Y-140474500D01*
X136137110Y-140474500D01*
X136268890Y-140474500D01*
X136268892Y-140474500D01*
X136396186Y-140440392D01*
X136396188Y-140440390D01*
X136396190Y-140440390D01*
X136510309Y-140374503D01*
X136510309Y-140374502D01*
X136510314Y-140374500D01*
X136603500Y-140281314D01*
X136629008Y-140237133D01*
X136669390Y-140167190D01*
X136669390Y-140167188D01*
X136669392Y-140167186D01*
X136703500Y-140039892D01*
X136703500Y-139908108D01*
X136669392Y-139780814D01*
X136669390Y-139780811D01*
X136669390Y-139780809D01*
X136603503Y-139666690D01*
X136603501Y-139666688D01*
X136603500Y-139666686D01*
X136510314Y-139573500D01*
X136510311Y-139573498D01*
X136510309Y-139573496D01*
X136396189Y-139507609D01*
X136396191Y-139507609D01*
X136346799Y-139494375D01*
X136268892Y-139473500D01*
X136137108Y-139473500D01*
X136059200Y-139494375D01*
X136009809Y-139507609D01*
X135906408Y-139567309D01*
X135846560Y-139580031D01*
X135790664Y-139555145D01*
X135786904Y-139551577D01*
X135060831Y-138825504D01*
X135033054Y-138770987D01*
X135042625Y-138710555D01*
X135085890Y-138667290D01*
X135130835Y-138656500D01*
X139400779Y-138656500D01*
X139458970Y-138675407D01*
X139494934Y-138724907D01*
X139497939Y-138757619D01*
X139499500Y-138757619D01*
X139499500Y-138764108D01*
X139499500Y-138895892D01*
X139526647Y-138997207D01*
X139533609Y-139023190D01*
X139599496Y-139137309D01*
X139599498Y-139137311D01*
X139599500Y-139137314D01*
X139692686Y-139230500D01*
X139692688Y-139230501D01*
X139692690Y-139230503D01*
X139806810Y-139296390D01*
X139806808Y-139296390D01*
X139806812Y-139296391D01*
X139806814Y-139296392D01*
X139934108Y-139330500D01*
X139999455Y-139330500D01*
X140057646Y-139349407D01*
X140069424Y-139359462D01*
X140134466Y-139424441D01*
X140750509Y-140039892D01*
X140808112Y-140097439D01*
X140839138Y-140128465D01*
X140839208Y-140128505D01*
X140839264Y-140128561D01*
X140876021Y-140149759D01*
X140876019Y-140149762D01*
X140876052Y-140149777D01*
X140913362Y-140171318D01*
X140913367Y-140171319D01*
X140913371Y-140171321D01*
X140913391Y-140171329D01*
X140913497Y-140171372D01*
X140913507Y-140171378D01*
X140954937Y-140182457D01*
X140954979Y-140182484D01*
X140954983Y-140182470D01*
X140996147Y-140193500D01*
X140996295Y-140193518D01*
X140996304Y-140193521D01*
X141040202Y-140193500D01*
X150894500Y-140193500D01*
X150952691Y-140212407D01*
X150988655Y-140261907D01*
X150993500Y-140292500D01*
X150993500Y-140348892D01*
X151004916Y-140391496D01*
X151027609Y-140476190D01*
X151093496Y-140590309D01*
X151093498Y-140590311D01*
X151093500Y-140590314D01*
X151186686Y-140683500D01*
X151186688Y-140683501D01*
X151186690Y-140683503D01*
X151300810Y-140749390D01*
X151300808Y-140749390D01*
X151300812Y-140749391D01*
X151300814Y-140749392D01*
X151428108Y-140783500D01*
X151428110Y-140783500D01*
X151559890Y-140783500D01*
X151559892Y-140783500D01*
X151687186Y-140749392D01*
X151687188Y-140749390D01*
X151687190Y-140749390D01*
X151801309Y-140683503D01*
X151801310Y-140683502D01*
X151801314Y-140683500D01*
X151807907Y-140676907D01*
X151847319Y-140637496D01*
X151901836Y-140609719D01*
X151917322Y-140608500D01*
X153706708Y-140608500D01*
X153764899Y-140627407D01*
X153800863Y-140676907D01*
X153800863Y-140738093D01*
X153764899Y-140787593D01*
X153756208Y-140793236D01*
X153665690Y-140845496D01*
X153572496Y-140938690D01*
X153506609Y-141052809D01*
X153506608Y-141052814D01*
X153472500Y-141180108D01*
X153472500Y-141311892D01*
X153502579Y-141424151D01*
X153506609Y-141439190D01*
X153572496Y-141553309D01*
X153572498Y-141553311D01*
X153572500Y-141553314D01*
X153665686Y-141646500D01*
X153665688Y-141646501D01*
X153665690Y-141646503D01*
X153779810Y-141712390D01*
X153779808Y-141712390D01*
X153779812Y-141712391D01*
X153779814Y-141712392D01*
X153907108Y-141746500D01*
X153907110Y-141746500D01*
X154038890Y-141746500D01*
X154038892Y-141746500D01*
X154166186Y-141712392D01*
X154166188Y-141712390D01*
X154166190Y-141712390D01*
X154280309Y-141646503D01*
X154280310Y-141646502D01*
X154280314Y-141646500D01*
X154280315Y-141646499D01*
X154326319Y-141600496D01*
X154380836Y-141572719D01*
X154396322Y-141571500D01*
X161612851Y-141571500D01*
X161612853Y-141571500D01*
X161695639Y-141549318D01*
X161695641Y-141549316D01*
X161695643Y-141549316D01*
X161769857Y-141506468D01*
X161769857Y-141506467D01*
X161769862Y-141506465D01*
X162884830Y-140391495D01*
X162939347Y-140363719D01*
X162954834Y-140362500D01*
X163019890Y-140362500D01*
X163019892Y-140362500D01*
X163147186Y-140328392D01*
X163147188Y-140328390D01*
X163147190Y-140328390D01*
X163261309Y-140262503D01*
X163261309Y-140262502D01*
X163261314Y-140262500D01*
X163354500Y-140169314D01*
X163365777Y-140149782D01*
X163420390Y-140055190D01*
X163420390Y-140055188D01*
X163420392Y-140055186D01*
X163454500Y-139927892D01*
X163454500Y-139796108D01*
X163420392Y-139668814D01*
X163420390Y-139668811D01*
X163420390Y-139668809D01*
X163354503Y-139554690D01*
X163354501Y-139554688D01*
X163354500Y-139554686D01*
X163261314Y-139461500D01*
X163261311Y-139461498D01*
X163261309Y-139461496D01*
X163147189Y-139395609D01*
X163147191Y-139395609D01*
X163090936Y-139380536D01*
X163019892Y-139361500D01*
X162888108Y-139361500D01*
X162817064Y-139380536D01*
X162760809Y-139395609D01*
X162646690Y-139461496D01*
X162553496Y-139554690D01*
X162487609Y-139668809D01*
X162468539Y-139739978D01*
X162455543Y-139788486D01*
X162453500Y-139796109D01*
X162453500Y-139861165D01*
X162434593Y-139919356D01*
X162424504Y-139931169D01*
X161464169Y-140891504D01*
X161409652Y-140919281D01*
X161394165Y-140920500D01*
X154396322Y-140920500D01*
X154338161Y-140901614D01*
X154331836Y-140897022D01*
X154280314Y-140845500D01*
X154185319Y-140790654D01*
X154181131Y-140787614D01*
X154166031Y-140766847D01*
X154148851Y-140747767D01*
X154148292Y-140742450D01*
X154145149Y-140738128D01*
X154145139Y-140712454D01*
X154142455Y-140686916D01*
X154145128Y-140682286D01*
X154145126Y-140676942D01*
X154160206Y-140656169D01*
X154173048Y-140633928D01*
X154177932Y-140631753D01*
X154181072Y-140627429D01*
X154205483Y-140619487D01*
X154228944Y-140609042D01*
X154239247Y-140608502D01*
X154239255Y-140608500D01*
X154239260Y-140608501D01*
X154239292Y-140608500D01*
X160454851Y-140608500D01*
X160454853Y-140608500D01*
X160537639Y-140586318D01*
X160537641Y-140586316D01*
X160537643Y-140586316D01*
X160611857Y-140543468D01*
X160611857Y-140543467D01*
X160611862Y-140543465D01*
X160721055Y-140434272D01*
X160790832Y-140364496D01*
X160845348Y-140336719D01*
X160860835Y-140335500D01*
X160925890Y-140335500D01*
X160925892Y-140335500D01*
X161053186Y-140301392D01*
X161053188Y-140301390D01*
X161053190Y-140301390D01*
X161167309Y-140235503D01*
X161167309Y-140235502D01*
X161167314Y-140235500D01*
X161260500Y-140142314D01*
X161268496Y-140128465D01*
X161326390Y-140028190D01*
X161326390Y-140028188D01*
X161326392Y-140028186D01*
X161360500Y-139900892D01*
X161360500Y-139769108D01*
X161326392Y-139641814D01*
X161326390Y-139641811D01*
X161326390Y-139641809D01*
X161260503Y-139527690D01*
X161260501Y-139527688D01*
X161260500Y-139527686D01*
X161167314Y-139434500D01*
X161167311Y-139434498D01*
X161167309Y-139434496D01*
X161053189Y-139368609D01*
X161053191Y-139368609D01*
X161003799Y-139355375D01*
X160925892Y-139334500D01*
X160794108Y-139334500D01*
X160716200Y-139355375D01*
X160666809Y-139368609D01*
X160552690Y-139434496D01*
X160459496Y-139527690D01*
X160393609Y-139641809D01*
X160359500Y-139769109D01*
X160359500Y-139834165D01*
X160357031Y-139841762D01*
X160358281Y-139849652D01*
X160347756Y-139870307D01*
X160340593Y-139892356D01*
X160330504Y-139904169D01*
X160306169Y-139928504D01*
X160251652Y-139956281D01*
X160236165Y-139957500D01*
X157749876Y-139957500D01*
X157691685Y-139938593D01*
X157655721Y-139889093D01*
X157655721Y-139827907D01*
X157679882Y-139788486D01*
X160723755Y-136745486D01*
X160778276Y-136717717D01*
X160793749Y-136716500D01*
X160858890Y-136716500D01*
X160858892Y-136716500D01*
X160986186Y-136682392D01*
X160986188Y-136682390D01*
X160986190Y-136682390D01*
X161100309Y-136616503D01*
X161100309Y-136616502D01*
X161100314Y-136616500D01*
X161193500Y-136523314D01*
X161193503Y-136523309D01*
X161259390Y-136409190D01*
X161259390Y-136409188D01*
X161259392Y-136409186D01*
X161293500Y-136281892D01*
X161293500Y-136150108D01*
X161259392Y-136022814D01*
X161259390Y-136022811D01*
X161259390Y-136022809D01*
X161193503Y-135908690D01*
X161193501Y-135908688D01*
X161193500Y-135908686D01*
X161100314Y-135815500D01*
X161100311Y-135815498D01*
X161100309Y-135815496D01*
X160986189Y-135749609D01*
X160986191Y-135749609D01*
X160936799Y-135736375D01*
X160858892Y-135715500D01*
X160727108Y-135715500D01*
X160649200Y-135736375D01*
X160599809Y-135749609D01*
X160485690Y-135815496D01*
X160392496Y-135908690D01*
X160326609Y-136022809D01*
X160292500Y-136150109D01*
X160292500Y-136215078D01*
X160273593Y-136273269D01*
X160263494Y-136285092D01*
X157196195Y-139351514D01*
X157141674Y-139379283D01*
X157126201Y-139380500D01*
X151297344Y-139380500D01*
X151296845Y-139380368D01*
X151254315Y-139380500D01*
X151212130Y-139380500D01*
X151211864Y-139380536D01*
X151211465Y-139380589D01*
X151211157Y-139380629D01*
X151170175Y-139391745D01*
X151170057Y-139391776D01*
X151129362Y-139402682D01*
X151128920Y-139402937D01*
X151128423Y-139403072D01*
X151128422Y-139403072D01*
X151128420Y-139403073D01*
X151091927Y-139424292D01*
X151091670Y-139424441D01*
X151055134Y-139445537D01*
X151054570Y-139445970D01*
X151054568Y-139445970D01*
X151054353Y-139446135D01*
X151024565Y-139476105D01*
X151024564Y-139476108D01*
X150994535Y-139506138D01*
X150994277Y-139506583D01*
X150989469Y-139511421D01*
X150989468Y-139511421D01*
X150987625Y-139513277D01*
X150933199Y-139541231D01*
X150917396Y-139542500D01*
X141214714Y-139542500D01*
X141156523Y-139523593D01*
X141144744Y-139513537D01*
X141104668Y-139473500D01*
X140641038Y-139010316D01*
X140529530Y-138898915D01*
X140528869Y-138897620D01*
X140527593Y-138896925D01*
X140524315Y-138888693D01*
X140501726Y-138844412D01*
X140501329Y-138841663D01*
X140500500Y-138835297D01*
X140500500Y-138764108D01*
X140482461Y-138696788D01*
X140481615Y-138690285D01*
X140486087Y-138666342D01*
X140487362Y-138642021D01*
X140491609Y-138636775D01*
X140492849Y-138630140D01*
X140510538Y-138613400D01*
X140525867Y-138594471D01*
X140532671Y-138592455D01*
X140537290Y-138588085D01*
X140555381Y-138585728D01*
X140579786Y-138578500D01*
X144475165Y-138578500D01*
X144533356Y-138597407D01*
X144545168Y-138607496D01*
X144905137Y-138967464D01*
X144905142Y-138967468D01*
X144979357Y-139010316D01*
X144979355Y-139010316D01*
X144979359Y-139010317D01*
X144979361Y-139010318D01*
X145062147Y-139032500D01*
X145062149Y-139032500D01*
X145626851Y-139032500D01*
X145626853Y-139032500D01*
X145709639Y-139010318D01*
X145709641Y-139010316D01*
X145709643Y-139010316D01*
X145783857Y-138967468D01*
X145783857Y-138967467D01*
X145783862Y-138967465D01*
X145824347Y-138926980D01*
X145864832Y-138886496D01*
X145919349Y-138858719D01*
X145934835Y-138857500D01*
X154114851Y-138857500D01*
X154114853Y-138857500D01*
X154197639Y-138835318D01*
X154197641Y-138835316D01*
X154197643Y-138835316D01*
X154271857Y-138792468D01*
X154271857Y-138792467D01*
X154271862Y-138792465D01*
X156957569Y-136106755D01*
X157001955Y-136081133D01*
X157012179Y-136078394D01*
X157012179Y-136078393D01*
X157012186Y-136078392D01*
X157126314Y-136012500D01*
X157219500Y-135919314D01*
X157225636Y-135908686D01*
X157285390Y-135805190D01*
X157285390Y-135805188D01*
X157285392Y-135805186D01*
X157319500Y-135677892D01*
X157319500Y-135546108D01*
X157285392Y-135418814D01*
X157285390Y-135418811D01*
X157285390Y-135418809D01*
X157219503Y-135304690D01*
X157219501Y-135304688D01*
X157219500Y-135304686D01*
X157126314Y-135211500D01*
X157126311Y-135211498D01*
X157126309Y-135211496D01*
X157012189Y-135145609D01*
X157012191Y-135145609D01*
X156962799Y-135132375D01*
X156884892Y-135111500D01*
X156753108Y-135111500D01*
X156675200Y-135132375D01*
X156625809Y-135145609D01*
X156511690Y-135211496D01*
X156418496Y-135304690D01*
X156352609Y-135418809D01*
X156318500Y-135546109D01*
X156318500Y-135677891D01*
X156334830Y-135738839D01*
X156331627Y-135799941D01*
X156309207Y-135834465D01*
X156067363Y-136076309D01*
X156012846Y-136104086D01*
X155952414Y-136094515D01*
X155909149Y-136051250D01*
X155899578Y-135990818D01*
X155901729Y-135980697D01*
X155906500Y-135962892D01*
X155906500Y-135831108D01*
X155872392Y-135703814D01*
X155872390Y-135703811D01*
X155872390Y-135703809D01*
X155806503Y-135589690D01*
X155806501Y-135589688D01*
X155806500Y-135589686D01*
X155713314Y-135496500D01*
X155713311Y-135496498D01*
X155713309Y-135496496D01*
X155599189Y-135430609D01*
X155599191Y-135430609D01*
X155549799Y-135417375D01*
X155471892Y-135396500D01*
X155340108Y-135396500D01*
X155262200Y-135417375D01*
X155212809Y-135430609D01*
X155098690Y-135496496D01*
X155098684Y-135496500D01*
X155052681Y-135542504D01*
X154998164Y-135570281D01*
X154982678Y-135571500D01*
X150281500Y-135571500D01*
X150223309Y-135552593D01*
X150187345Y-135503093D01*
X150182500Y-135472500D01*
X150182500Y-135440109D01*
X150181717Y-135437186D01*
X150148392Y-135312814D01*
X150148390Y-135312811D01*
X150148390Y-135312809D01*
X150082503Y-135198690D01*
X150082501Y-135198688D01*
X150082500Y-135198686D01*
X149989314Y-135105500D01*
X149989311Y-135105498D01*
X149989309Y-135105496D01*
X149875189Y-135039609D01*
X149875191Y-135039609D01*
X149825799Y-135026375D01*
X149747892Y-135005500D01*
X149616108Y-135005500D01*
X149538200Y-135026375D01*
X149488809Y-135039609D01*
X149374690Y-135105496D01*
X149281496Y-135198690D01*
X149215609Y-135312809D01*
X149215608Y-135312814D01*
X149181500Y-135440108D01*
X149181500Y-135571892D01*
X149186268Y-135589686D01*
X149215609Y-135699190D01*
X149281496Y-135813309D01*
X149281498Y-135813311D01*
X149281500Y-135813314D01*
X149374686Y-135906500D01*
X149374688Y-135906501D01*
X149374690Y-135906503D01*
X149488810Y-135972390D01*
X149488808Y-135972390D01*
X149488812Y-135972391D01*
X149488814Y-135972392D01*
X149616108Y-136006500D01*
X149681166Y-136006500D01*
X149739357Y-136025407D01*
X149751170Y-136035496D01*
X149812533Y-136096859D01*
X149812535Y-136096862D01*
X149873138Y-136157465D01*
X149900382Y-136173194D01*
X149947362Y-136200318D01*
X150030145Y-136222500D01*
X150030147Y-136222501D01*
X150030148Y-136222501D01*
X150121916Y-136222501D01*
X150121932Y-136222500D01*
X154390230Y-136222500D01*
X154400257Y-136225757D01*
X154410742Y-136224648D01*
X154428702Y-136235000D01*
X154448421Y-136241407D01*
X154454619Y-136249937D01*
X154463752Y-136255202D01*
X154472196Y-136274131D01*
X154484385Y-136290907D01*
X154484385Y-136301451D01*
X154488680Y-136311079D01*
X154484385Y-136331359D01*
X154484385Y-136352093D01*
X154476003Y-136370936D01*
X154461596Y-136395934D01*
X154459085Y-136400290D01*
X154459049Y-136400352D01*
X154437671Y-136437380D01*
X154437592Y-136437570D01*
X154426623Y-136478631D01*
X154426605Y-136478698D01*
X154415500Y-136520145D01*
X154415467Y-136520393D01*
X154415500Y-136563244D01*
X154415500Y-136623678D01*
X154396593Y-136681869D01*
X154386504Y-136693681D01*
X154340500Y-136739684D01*
X154340496Y-136739690D01*
X154274609Y-136853809D01*
X154274608Y-136853814D01*
X154240500Y-136981108D01*
X154240500Y-137112892D01*
X154267471Y-137213550D01*
X154274609Y-137240190D01*
X154340496Y-137354309D01*
X154340498Y-137354311D01*
X154340500Y-137354314D01*
X154433686Y-137447500D01*
X154488362Y-137479067D01*
X154529302Y-137524536D01*
X154535698Y-137585386D01*
X154508865Y-137634807D01*
X153966169Y-138177504D01*
X153911652Y-138205281D01*
X153896165Y-138206500D01*
X145943500Y-138206500D01*
X145928588Y-138201655D01*
X145912907Y-138201655D01*
X145900221Y-138192438D01*
X145885309Y-138187593D01*
X145876092Y-138174907D01*
X145863407Y-138165691D01*
X145858561Y-138150778D01*
X145849345Y-138138093D01*
X145844500Y-138107500D01*
X145844500Y-138075818D01*
X145847809Y-138050438D01*
X145857390Y-138014315D01*
X145857455Y-138014069D01*
X145868500Y-137972853D01*
X145868500Y-137972845D01*
X145868526Y-137972655D01*
X145868527Y-137972644D01*
X145868605Y-137972045D01*
X145868604Y-137972040D01*
X145868606Y-137972037D01*
X145868500Y-137929584D01*
X145868500Y-137596321D01*
X145887407Y-137538130D01*
X145936907Y-137502166D01*
X145998093Y-137502166D01*
X146037501Y-137526315D01*
X146048686Y-137537500D01*
X146048688Y-137537501D01*
X146048690Y-137537503D01*
X146162810Y-137603390D01*
X146162808Y-137603390D01*
X146162812Y-137603391D01*
X146162814Y-137603392D01*
X146290108Y-137637500D01*
X146290110Y-137637500D01*
X146421890Y-137637500D01*
X146421892Y-137637500D01*
X146549186Y-137603392D01*
X146549188Y-137603390D01*
X146549190Y-137603390D01*
X146663309Y-137537503D01*
X146663309Y-137537502D01*
X146663314Y-137537500D01*
X146756500Y-137444314D01*
X146822392Y-137330186D01*
X146856500Y-137202892D01*
X146856500Y-137137271D01*
X146875407Y-137079080D01*
X146885426Y-137067337D01*
X147119254Y-136833072D01*
X147149465Y-136802862D01*
X147149542Y-136802727D01*
X147149652Y-136802618D01*
X147170982Y-136765591D01*
X147192318Y-136728638D01*
X147192358Y-136728488D01*
X147192435Y-136728355D01*
X147203413Y-136687227D01*
X147214500Y-136645853D01*
X147214500Y-136645838D01*
X147214536Y-136645561D01*
X147214540Y-136645548D01*
X147214500Y-136602695D01*
X147214500Y-135577841D01*
X147233407Y-135519650D01*
X147282907Y-135483686D01*
X147344093Y-135483686D01*
X147393593Y-135519650D01*
X147399232Y-135528334D01*
X147412500Y-135551314D01*
X147505686Y-135644500D01*
X147505688Y-135644501D01*
X147505690Y-135644503D01*
X147619810Y-135710390D01*
X147619808Y-135710390D01*
X147619812Y-135710391D01*
X147619814Y-135710392D01*
X147747108Y-135744500D01*
X147747110Y-135744500D01*
X147878890Y-135744500D01*
X147878892Y-135744500D01*
X148006186Y-135710392D01*
X148006188Y-135710390D01*
X148006190Y-135710390D01*
X148120309Y-135644503D01*
X148120309Y-135644502D01*
X148120314Y-135644500D01*
X148213500Y-135551314D01*
X148216506Y-135546108D01*
X148279390Y-135437190D01*
X148279390Y-135437188D01*
X148279392Y-135437186D01*
X148313500Y-135309892D01*
X148313500Y-135244600D01*
X148332407Y-135186409D01*
X148342469Y-135174624D01*
X148371462Y-135145609D01*
X149012906Y-134503666D01*
X149203900Y-134312524D01*
X149258406Y-134284725D01*
X149273931Y-134283500D01*
X151773678Y-134283500D01*
X151831869Y-134302407D01*
X151843681Y-134312496D01*
X151889684Y-134358499D01*
X151889690Y-134358503D01*
X152003810Y-134424390D01*
X152003808Y-134424390D01*
X152003812Y-134424391D01*
X152003814Y-134424392D01*
X152131108Y-134458500D01*
X152131110Y-134458500D01*
X152262890Y-134458500D01*
X152262892Y-134458500D01*
X152390186Y-134424392D01*
X152390188Y-134424390D01*
X152390190Y-134424390D01*
X152504309Y-134358503D01*
X152504309Y-134358502D01*
X152504314Y-134358500D01*
X152597500Y-134265314D01*
X152632034Y-134205500D01*
X152663390Y-134151190D01*
X152663390Y-134151188D01*
X152663392Y-134151186D01*
X152697500Y-134023892D01*
X152697500Y-133892108D01*
X152663392Y-133764814D01*
X152663390Y-133764811D01*
X152663390Y-133764809D01*
X152597503Y-133650690D01*
X152597501Y-133650688D01*
X152597500Y-133650686D01*
X152504314Y-133557500D01*
X152472680Y-133539236D01*
X152431740Y-133493767D01*
X152425344Y-133432917D01*
X152455937Y-133379929D01*
X152511833Y-133355042D01*
X152522181Y-133354500D01*
X155466165Y-133354500D01*
X155524356Y-133373407D01*
X155536169Y-133383496D01*
X156389504Y-134236830D01*
X156417281Y-134291347D01*
X156418500Y-134306834D01*
X156418500Y-134371892D01*
X156441706Y-134458500D01*
X156452609Y-134499190D01*
X156518496Y-134613309D01*
X156518498Y-134613311D01*
X156518500Y-134613314D01*
X156611686Y-134706500D01*
X156611688Y-134706501D01*
X156611690Y-134706503D01*
X156725810Y-134772390D01*
X156725808Y-134772390D01*
X156725812Y-134772391D01*
X156725814Y-134772392D01*
X156853108Y-134806500D01*
X156853110Y-134806500D01*
X156984890Y-134806500D01*
X156984892Y-134806500D01*
X157112186Y-134772392D01*
X157112188Y-134772390D01*
X157112190Y-134772390D01*
X157226309Y-134706503D01*
X157226309Y-134706502D01*
X157226314Y-134706500D01*
X157319500Y-134613314D01*
X157364426Y-134535500D01*
X157385390Y-134499190D01*
X157385390Y-134499188D01*
X157385392Y-134499186D01*
X157419500Y-134371892D01*
X157419500Y-134240108D01*
X157385392Y-134112814D01*
X157385390Y-134112811D01*
X157385390Y-134112809D01*
X157319503Y-133998690D01*
X157319501Y-133998688D01*
X157319500Y-133998686D01*
X157226314Y-133905500D01*
X157226311Y-133905498D01*
X157226309Y-133905496D01*
X157112189Y-133839609D01*
X157112191Y-133839609D01*
X157062799Y-133826375D01*
X156984892Y-133805500D01*
X156984890Y-133805500D01*
X156919834Y-133805500D01*
X156861643Y-133786593D01*
X156849830Y-133776504D01*
X156372451Y-133299125D01*
X155841862Y-132768535D01*
X155841859Y-132768533D01*
X155841857Y-132768531D01*
X155767642Y-132725683D01*
X155767644Y-132725683D01*
X155735521Y-132717076D01*
X155684853Y-132703500D01*
X155684851Y-132703500D01*
X148423322Y-132703500D01*
X148365131Y-132684593D01*
X148353319Y-132674504D01*
X148307315Y-132628500D01*
X148307309Y-132628496D01*
X148193189Y-132562609D01*
X148193191Y-132562609D01*
X148143799Y-132549375D01*
X148065892Y-132528500D01*
X147934108Y-132528500D01*
X147856200Y-132549375D01*
X147806809Y-132562609D01*
X147692690Y-132628496D01*
X147599496Y-132721690D01*
X147533609Y-132835809D01*
X147525906Y-132864558D01*
X147499500Y-132963108D01*
X147499500Y-133094892D01*
X147503147Y-133108503D01*
X147533609Y-133222190D01*
X147599496Y-133336309D01*
X147599498Y-133336311D01*
X147599500Y-133336314D01*
X147692686Y-133429500D01*
X147692688Y-133429501D01*
X147692690Y-133429503D01*
X147806810Y-133495390D01*
X147806808Y-133495390D01*
X147806812Y-133495391D01*
X147806814Y-133495392D01*
X147934108Y-133529500D01*
X147934110Y-133529500D01*
X148065890Y-133529500D01*
X148065892Y-133529500D01*
X148193186Y-133495392D01*
X148193188Y-133495390D01*
X148193190Y-133495390D01*
X148307309Y-133429503D01*
X148307310Y-133429502D01*
X148307314Y-133429500D01*
X148313907Y-133422907D01*
X148353319Y-133383496D01*
X148407836Y-133355719D01*
X148423322Y-133354500D01*
X151871819Y-133354500D01*
X151930010Y-133373407D01*
X151965974Y-133422907D01*
X151965974Y-133484093D01*
X151934370Y-133530236D01*
X151928206Y-133535259D01*
X151889686Y-133557500D01*
X151840129Y-133607056D01*
X151836229Y-133610236D01*
X151812158Y-133619565D01*
X151789164Y-133631281D01*
X151780085Y-133631995D01*
X151779179Y-133632347D01*
X151778363Y-133632131D01*
X151773678Y-133632500D01*
X149147278Y-133632500D01*
X149146985Y-133632481D01*
X149140726Y-133632483D01*
X149131624Y-133632486D01*
X149096755Y-133632499D01*
X149096575Y-133632500D01*
X149055147Y-133632500D01*
X149055087Y-133632515D01*
X149055021Y-133632516D01*
X149054734Y-133632592D01*
X149054734Y-133632593D01*
X149013220Y-133643733D01*
X149012697Y-133643874D01*
X148972362Y-133654682D01*
X148972305Y-133654714D01*
X148972244Y-133654731D01*
X148972077Y-133654827D01*
X148972075Y-133654828D01*
X148962421Y-133660407D01*
X148935676Y-133675862D01*
X148898129Y-133697540D01*
X148898049Y-133697600D01*
X148868475Y-133727196D01*
X148868453Y-133727219D01*
X148833091Y-133762582D01*
X148832902Y-133762797D01*
X147881964Y-134714476D01*
X147827458Y-134742275D01*
X147811933Y-134743500D01*
X147747108Y-134743500D01*
X147669200Y-134764375D01*
X147619809Y-134777609D01*
X147505690Y-134843496D01*
X147412498Y-134936688D01*
X147399236Y-134959659D01*
X147353766Y-135000599D01*
X147292916Y-135006994D01*
X147239928Y-134976401D01*
X147215042Y-134920505D01*
X147214500Y-134910158D01*
X147214500Y-132612788D01*
X147214507Y-132567199D01*
X147214500Y-132567172D01*
X147214500Y-132567147D01*
X147203110Y-132524639D01*
X147192428Y-132484746D01*
X147192341Y-132484412D01*
X147192328Y-132484380D01*
X147187554Y-132476111D01*
X147170978Y-132447400D01*
X147170975Y-132447387D01*
X147170972Y-132447390D01*
X147170971Y-132447388D01*
X147149497Y-132410180D01*
X147149494Y-132410177D01*
X147149490Y-132410170D01*
X147149469Y-132410143D01*
X147149466Y-132410140D01*
X147149465Y-132410138D01*
X147117999Y-132378672D01*
X147117998Y-132378670D01*
X147117987Y-132378660D01*
X146055641Y-131315977D01*
X144456663Y-129716491D01*
X144428895Y-129661971D01*
X144438476Y-129601541D01*
X144481748Y-129558283D01*
X144526679Y-129547500D01*
X153526678Y-129547500D01*
X153584869Y-129566407D01*
X153596681Y-129576496D01*
X153642684Y-129622499D01*
X153642690Y-129622503D01*
X153756810Y-129688390D01*
X153756808Y-129688390D01*
X153756812Y-129688391D01*
X153756814Y-129688392D01*
X153884108Y-129722500D01*
X153884110Y-129722500D01*
X154015890Y-129722500D01*
X154015892Y-129722500D01*
X154143186Y-129688392D01*
X154143188Y-129688390D01*
X154143190Y-129688390D01*
X154257309Y-129622503D01*
X154257309Y-129622502D01*
X154257314Y-129622500D01*
X154350500Y-129529314D01*
X154382067Y-129474637D01*
X154427535Y-129433697D01*
X154488385Y-129427301D01*
X154537807Y-129454134D01*
X154899535Y-129815862D01*
X154899534Y-129815862D01*
X154934781Y-129851108D01*
X154960138Y-129876465D01*
X155034362Y-129919318D01*
X155117147Y-129941500D01*
X168361678Y-129941500D01*
X168419869Y-129960407D01*
X168431681Y-129970496D01*
X168477684Y-130016499D01*
X168477690Y-130016503D01*
X168591810Y-130082390D01*
X168591808Y-130082390D01*
X168591812Y-130082391D01*
X168591814Y-130082392D01*
X168719108Y-130116500D01*
X168719110Y-130116500D01*
X168850890Y-130116500D01*
X168850892Y-130116500D01*
X168978186Y-130082392D01*
X168978188Y-130082390D01*
X168978190Y-130082390D01*
X169092309Y-130016503D01*
X169092309Y-130016502D01*
X169092314Y-130016500D01*
X169185500Y-129923314D01*
X169187808Y-129919317D01*
X169251390Y-129809190D01*
X169251390Y-129809188D01*
X169251392Y-129809186D01*
X169285500Y-129681892D01*
X169285500Y-129550108D01*
X169251392Y-129422814D01*
X169251390Y-129422811D01*
X169251390Y-129422809D01*
X169185503Y-129308690D01*
X169185501Y-129308688D01*
X169185500Y-129308686D01*
X169129315Y-129252501D01*
X169101540Y-129197987D01*
X169111111Y-129137555D01*
X169154376Y-129094290D01*
X169199321Y-129083500D01*
X169498678Y-129083500D01*
X169556869Y-129102407D01*
X169568681Y-129112496D01*
X169614684Y-129158499D01*
X169614690Y-129158503D01*
X169728810Y-129224390D01*
X169728808Y-129224390D01*
X169728812Y-129224391D01*
X169728814Y-129224392D01*
X169856108Y-129258500D01*
X169856110Y-129258500D01*
X169987890Y-129258500D01*
X169987892Y-129258500D01*
X170115186Y-129224392D01*
X170115188Y-129224390D01*
X170115190Y-129224390D01*
X170229309Y-129158503D01*
X170229309Y-129158502D01*
X170229314Y-129158500D01*
X170322500Y-129065314D01*
X170379747Y-128966158D01*
X170425215Y-128925220D01*
X170486065Y-128918824D01*
X170535498Y-128945670D01*
X170843516Y-129253798D01*
X170871284Y-129308318D01*
X170872500Y-129323788D01*
X170872500Y-129576678D01*
X170853593Y-129634869D01*
X170843504Y-129646681D01*
X170797500Y-129692684D01*
X170797496Y-129692690D01*
X170731609Y-129806809D01*
X170719739Y-129851109D01*
X170697500Y-129934108D01*
X170697500Y-130065892D01*
X170727579Y-130178151D01*
X170731609Y-130193190D01*
X170797496Y-130307309D01*
X170797498Y-130307311D01*
X170797500Y-130307314D01*
X170890686Y-130400500D01*
X170890688Y-130400501D01*
X170890690Y-130400503D01*
X171004810Y-130466390D01*
X171004808Y-130466390D01*
X171004812Y-130466391D01*
X171004814Y-130466392D01*
X171132108Y-130500500D01*
X171132110Y-130500500D01*
X171263890Y-130500500D01*
X171263892Y-130500500D01*
X171391186Y-130466392D01*
X171391188Y-130466390D01*
X171391190Y-130466390D01*
X171505309Y-130400503D01*
X171505309Y-130400502D01*
X171505314Y-130400500D01*
X171598500Y-130307314D01*
X171664392Y-130193186D01*
X171698500Y-130065892D01*
X171698500Y-129934108D01*
X171664392Y-129806814D01*
X171664390Y-129806811D01*
X171664390Y-129806809D01*
X171598503Y-129692690D01*
X171598499Y-129692684D01*
X171552496Y-129646681D01*
X171524719Y-129592164D01*
X171523500Y-129576678D01*
X171523500Y-129148500D01*
X171523508Y-129105205D01*
X171523500Y-129105175D01*
X171523500Y-129105147D01*
X171519481Y-129090147D01*
X171512616Y-129064527D01*
X171512610Y-129064505D01*
X171501340Y-129022415D01*
X171501336Y-129022409D01*
X171501317Y-129022360D01*
X171480245Y-128985863D01*
X171480235Y-128985846D01*
X171468875Y-128966161D01*
X171458501Y-128948185D01*
X171458499Y-128948183D01*
X171458497Y-128948179D01*
X171458470Y-128948144D01*
X171458466Y-128948140D01*
X171458465Y-128948138D01*
X171427638Y-128917311D01*
X171427637Y-128917309D01*
X171427625Y-128917298D01*
X171250885Y-128740495D01*
X171179905Y-128669490D01*
X171152138Y-128614970D01*
X171161720Y-128554539D01*
X171204993Y-128511282D01*
X171249922Y-128500500D01*
X171264290Y-128500500D01*
X171264292Y-128500500D01*
X171391586Y-128466392D01*
X171391588Y-128466390D01*
X171391590Y-128466390D01*
X171505709Y-128400503D01*
X171505709Y-128400502D01*
X171505714Y-128400500D01*
X171598900Y-128307314D01*
X171664792Y-128193186D01*
X171698900Y-128065892D01*
X171698900Y-127934108D01*
X171664792Y-127806814D01*
X171664790Y-127806811D01*
X171664790Y-127806809D01*
X171598903Y-127692690D01*
X171598901Y-127692688D01*
X171598900Y-127692686D01*
X171505714Y-127599500D01*
X171505711Y-127599498D01*
X171505709Y-127599496D01*
X171391589Y-127533609D01*
X171391591Y-127533609D01*
X171342199Y-127520375D01*
X171264292Y-127499500D01*
X171264290Y-127499500D01*
X171199234Y-127499500D01*
X171141043Y-127480593D01*
X171129230Y-127470504D01*
X170194912Y-126536186D01*
X169146562Y-125487835D01*
X169146559Y-125487833D01*
X169146557Y-125487831D01*
X169072342Y-125444983D01*
X169072344Y-125444983D01*
X169040221Y-125436376D01*
X168989553Y-125422800D01*
X168989551Y-125422800D01*
X159024132Y-125422800D01*
X159024116Y-125422799D01*
X159018053Y-125422799D01*
X158932347Y-125422799D01*
X158932344Y-125422799D01*
X158849561Y-125444981D01*
X158826034Y-125458565D01*
X158812450Y-125466408D01*
X158788921Y-125479992D01*
X158775337Y-125487835D01*
X158714734Y-125548437D01*
X158714735Y-125548438D01*
X157944169Y-126319004D01*
X157889652Y-126346781D01*
X157874165Y-126348000D01*
X157809108Y-126348000D01*
X157731200Y-126368875D01*
X157681809Y-126382109D01*
X157567690Y-126447996D01*
X157474496Y-126541190D01*
X157408609Y-126655309D01*
X157408608Y-126655314D01*
X157374500Y-126782608D01*
X157374500Y-126914392D01*
X157383907Y-126949500D01*
X157408609Y-127041690D01*
X157474496Y-127155809D01*
X157474498Y-127155811D01*
X157474500Y-127155814D01*
X157567686Y-127249000D01*
X157567688Y-127249001D01*
X157567690Y-127249003D01*
X157681810Y-127314890D01*
X157681808Y-127314890D01*
X157681812Y-127314891D01*
X157681814Y-127314892D01*
X157809108Y-127349000D01*
X157809110Y-127349000D01*
X157940890Y-127349000D01*
X157940892Y-127349000D01*
X158068186Y-127314892D01*
X158068188Y-127314890D01*
X158068190Y-127314890D01*
X158182309Y-127249003D01*
X158182309Y-127249002D01*
X158182314Y-127249000D01*
X158275500Y-127155814D01*
X158291943Y-127127334D01*
X158341390Y-127041690D01*
X158341390Y-127041688D01*
X158341392Y-127041686D01*
X158375500Y-126914392D01*
X158375500Y-126849334D01*
X158394407Y-126791143D01*
X158404496Y-126779330D01*
X159081030Y-126102796D01*
X159135547Y-126075019D01*
X159151034Y-126073800D01*
X165562957Y-126073800D01*
X165621148Y-126092707D01*
X165657112Y-126142207D01*
X165658583Y-126198420D01*
X165637500Y-126277108D01*
X165637500Y-126408892D01*
X165647978Y-126447996D01*
X165671609Y-126536190D01*
X165737496Y-126650309D01*
X165737498Y-126650311D01*
X165737500Y-126650314D01*
X165830686Y-126743500D01*
X165830688Y-126743501D01*
X165830690Y-126743503D01*
X165944810Y-126809390D01*
X165944808Y-126809390D01*
X165944812Y-126809391D01*
X165944814Y-126809392D01*
X166072108Y-126843500D01*
X166072110Y-126843500D01*
X166203890Y-126843500D01*
X166203892Y-126843500D01*
X166331186Y-126809392D01*
X166331188Y-126809390D01*
X166331190Y-126809390D01*
X166445309Y-126743503D01*
X166445310Y-126743502D01*
X166445314Y-126743500D01*
X166445315Y-126743499D01*
X166491319Y-126697496D01*
X166545836Y-126669719D01*
X166561322Y-126668500D01*
X168218122Y-126668500D01*
X168276313Y-126687407D01*
X168288135Y-126697507D01*
X169680852Y-128090719D01*
X169734535Y-128144421D01*
X169762303Y-128198942D01*
X169752721Y-128259373D01*
X169714020Y-128300148D01*
X169614687Y-128357498D01*
X169614684Y-128357500D01*
X169568681Y-128403504D01*
X169514164Y-128431281D01*
X169498678Y-128432500D01*
X163955909Y-128432500D01*
X163897718Y-128413593D01*
X163885884Y-128403483D01*
X163855296Y-128372877D01*
X162970449Y-127487499D01*
X162639475Y-127156326D01*
X162611714Y-127101801D01*
X162610500Y-127086343D01*
X162610500Y-127021109D01*
X162610500Y-127021108D01*
X162576392Y-126893814D01*
X162576390Y-126893811D01*
X162576390Y-126893809D01*
X162510503Y-126779690D01*
X162510501Y-126779688D01*
X162510500Y-126779686D01*
X162417314Y-126686500D01*
X162417311Y-126686498D01*
X162417309Y-126686496D01*
X162303189Y-126620609D01*
X162303191Y-126620609D01*
X162253799Y-126607375D01*
X162175892Y-126586500D01*
X162044108Y-126586500D01*
X161966200Y-126607375D01*
X161916809Y-126620609D01*
X161802690Y-126686496D01*
X161709496Y-126779690D01*
X161643609Y-126893809D01*
X161638094Y-126914392D01*
X161609500Y-127021108D01*
X161609500Y-127152892D01*
X161618671Y-127187118D01*
X161643609Y-127280190D01*
X161709496Y-127394309D01*
X161709498Y-127394311D01*
X161709500Y-127394314D01*
X161802686Y-127487500D01*
X161802688Y-127487501D01*
X161802690Y-127487503D01*
X161916810Y-127553390D01*
X161916808Y-127553390D01*
X161916812Y-127553391D01*
X161916814Y-127553392D01*
X162044108Y-127587500D01*
X162108987Y-127587500D01*
X162167178Y-127606407D01*
X162179008Y-127616514D01*
X163519508Y-128957816D01*
X163519535Y-128957862D01*
X163551635Y-128989962D01*
X163551657Y-128989984D01*
X163580063Y-129018407D01*
X163580134Y-129018461D01*
X163580138Y-129018465D01*
X163618406Y-129040559D01*
X163654271Y-129061280D01*
X163654275Y-129061281D01*
X163654355Y-129061314D01*
X163654362Y-129061318D01*
X163695071Y-129072225D01*
X163695096Y-129072241D01*
X163695099Y-129072233D01*
X163737050Y-129083488D01*
X163737052Y-129083488D01*
X163737140Y-129083500D01*
X163778188Y-129083500D01*
X163822755Y-129083513D01*
X163822757Y-129083512D01*
X163829045Y-129083514D01*
X163829276Y-129083500D01*
X168370678Y-129083500D01*
X168392725Y-129090663D01*
X168415623Y-129094290D01*
X168421271Y-129099938D01*
X168428869Y-129102407D01*
X168442496Y-129121163D01*
X168458888Y-129137555D01*
X168460137Y-129145444D01*
X168464833Y-129151907D01*
X168464833Y-129175092D01*
X168468459Y-129197987D01*
X168464833Y-129205103D01*
X168464833Y-129213093D01*
X168440682Y-129252504D01*
X168431682Y-129261504D01*
X168377165Y-129289281D01*
X168361678Y-129290500D01*
X155335835Y-129290500D01*
X155277644Y-129271593D01*
X155265831Y-129261504D01*
X154558866Y-128554539D01*
X153845862Y-127841535D01*
X153845859Y-127841533D01*
X153845858Y-127841532D01*
X153845857Y-127841531D01*
X153771642Y-127798683D01*
X153771644Y-127798683D01*
X153739521Y-127790076D01*
X153688853Y-127776500D01*
X153688851Y-127776500D01*
X152303835Y-127776500D01*
X152245644Y-127757593D01*
X152233832Y-127747504D01*
X151989862Y-127503535D01*
X151989857Y-127503531D01*
X151915642Y-127460683D01*
X151915644Y-127460683D01*
X151883521Y-127452076D01*
X151832853Y-127438500D01*
X143180147Y-127438500D01*
X143097362Y-127460682D01*
X143097361Y-127460682D01*
X143097359Y-127460683D01*
X143062875Y-127480593D01*
X143050912Y-127487500D01*
X143030127Y-127499500D01*
X143023138Y-127503535D01*
X141593531Y-128933142D01*
X141550683Y-129007356D01*
X141531626Y-129078477D01*
X141531626Y-129078480D01*
X141528500Y-129090147D01*
X141528500Y-129568147D01*
X141528500Y-129653853D01*
X141536013Y-129681892D01*
X141550683Y-129736643D01*
X141593531Y-129810857D01*
X141593533Y-129810859D01*
X141593535Y-129810862D01*
X141640171Y-129857498D01*
X141667947Y-129912013D01*
X141658376Y-129972445D01*
X141615111Y-130015710D01*
X141570166Y-130026500D01*
X135105835Y-130026500D01*
X135098237Y-130024031D01*
X135090348Y-130025281D01*
X135069692Y-130014756D01*
X135047644Y-130007593D01*
X135035831Y-129997504D01*
X135024496Y-129986169D01*
X134996719Y-129931652D01*
X134995500Y-129916165D01*
X134995500Y-129851109D01*
X134995500Y-129851108D01*
X134961392Y-129723814D01*
X134961390Y-129723811D01*
X134961390Y-129723809D01*
X134895503Y-129609690D01*
X134895501Y-129609688D01*
X134895500Y-129609686D01*
X134802314Y-129516500D01*
X134802311Y-129516498D01*
X134714712Y-129465922D01*
X134695895Y-129445023D01*
X134676009Y-129425142D01*
X134675584Y-129422465D01*
X134673772Y-129420452D01*
X134670833Y-129392491D01*
X134666430Y-129364711D01*
X134667660Y-129362296D01*
X134667377Y-129359602D01*
X134694201Y-129310191D01*
X134826854Y-129177505D01*
X134881367Y-129149721D01*
X134896866Y-129148500D01*
X137113851Y-129148500D01*
X137113853Y-129148500D01*
X137196639Y-129126318D01*
X137196641Y-129126316D01*
X137196643Y-129126316D01*
X137270857Y-129083468D01*
X137270857Y-129083467D01*
X137270862Y-129083465D01*
X143571830Y-122782495D01*
X143626347Y-122754719D01*
X143641834Y-122753500D01*
X143643890Y-122753500D01*
X143643892Y-122753500D01*
X143771186Y-122719392D01*
X143771188Y-122719390D01*
X143771190Y-122719390D01*
X143885309Y-122653503D01*
X143885309Y-122653502D01*
X143885314Y-122653500D01*
X143978500Y-122560314D01*
X144044392Y-122446186D01*
X144078500Y-122318892D01*
X144078500Y-122187108D01*
X144044392Y-122059814D01*
X144044390Y-122059811D01*
X144044390Y-122059809D01*
X143978503Y-121945690D01*
X143978501Y-121945688D01*
X143978500Y-121945686D01*
X143885314Y-121852500D01*
X143876841Y-121847608D01*
X143811920Y-121810125D01*
X143770980Y-121764655D01*
X143764585Y-121703805D01*
X143791410Y-121654393D01*
X145502983Y-119942542D01*
X148094200Y-119942542D01*
X148094200Y-120089457D01*
X148122860Y-120233541D01*
X148122860Y-120233543D01*
X148179078Y-120369266D01*
X148179078Y-120369267D01*
X148219749Y-120430134D01*
X148260699Y-120491420D01*
X148364580Y-120595301D01*
X148486731Y-120676920D01*
X148486732Y-120676920D01*
X148486733Y-120676921D01*
X148492996Y-120679515D01*
X148622458Y-120733140D01*
X148766545Y-120761800D01*
X148766547Y-120761800D01*
X148913453Y-120761800D01*
X148913455Y-120761800D01*
X149057542Y-120733140D01*
X149193269Y-120676920D01*
X149315420Y-120595301D01*
X149419301Y-120491420D01*
X149500920Y-120369269D01*
X149557140Y-120233542D01*
X149585800Y-120089455D01*
X149585800Y-119942545D01*
X149557140Y-119798458D01*
X149500921Y-119662733D01*
X149500921Y-119662732D01*
X149480585Y-119632298D01*
X149419301Y-119540580D01*
X149315420Y-119436699D01*
X149193269Y-119355080D01*
X149193268Y-119355079D01*
X149193266Y-119355078D01*
X149181006Y-119350000D01*
X174985000Y-119350000D01*
X174985001Y-119350000D01*
X177074999Y-119350000D01*
X177075000Y-119350000D01*
X177075000Y-117450000D01*
X174985000Y-117450000D01*
X174985000Y-119350000D01*
X149181006Y-119350000D01*
X149057542Y-119298860D01*
X148913457Y-119270200D01*
X148913455Y-119270200D01*
X148766545Y-119270200D01*
X148766542Y-119270200D01*
X148622458Y-119298860D01*
X148622456Y-119298860D01*
X148486733Y-119355078D01*
X148486732Y-119355078D01*
X148364580Y-119436699D01*
X148364576Y-119436702D01*
X148260702Y-119540576D01*
X148260699Y-119540580D01*
X148179078Y-119662732D01*
X148179078Y-119662733D01*
X148122860Y-119798456D01*
X148122860Y-119798458D01*
X148094200Y-119942542D01*
X145502983Y-119942542D01*
X146723717Y-118721609D01*
X146758241Y-118687085D01*
X146760288Y-118685172D01*
X146760478Y-118684842D01*
X146760481Y-118684840D01*
X146773393Y-118662469D01*
X146780229Y-118650629D01*
X146780232Y-118650622D01*
X146780233Y-118650621D01*
X146802336Y-118612338D01*
X146803182Y-118610943D01*
X146803310Y-118610651D01*
X146803318Y-118610638D01*
X146803320Y-118610629D01*
X146803323Y-118610620D01*
X146803328Y-118610614D01*
X146803330Y-118610606D01*
X146803394Y-118610461D01*
X146803744Y-118609061D01*
X146814961Y-118567183D01*
X146814962Y-118567183D01*
X146814962Y-118567177D01*
X146825370Y-118528334D01*
X146825499Y-118527870D01*
X146825504Y-118527837D01*
X146825500Y-118478852D01*
X146825500Y-117910542D01*
X148094200Y-117910542D01*
X148094200Y-118057457D01*
X148122860Y-118201541D01*
X148122860Y-118201543D01*
X148179078Y-118337266D01*
X148179078Y-118337267D01*
X148187712Y-118350188D01*
X148260699Y-118459420D01*
X148364580Y-118563301D01*
X148486731Y-118644920D01*
X148486732Y-118644920D01*
X148486733Y-118644921D01*
X148491108Y-118646733D01*
X148622458Y-118701140D01*
X148766545Y-118729800D01*
X148766547Y-118729800D01*
X148913453Y-118729800D01*
X148913455Y-118729800D01*
X149057542Y-118701140D01*
X149193269Y-118644920D01*
X149315420Y-118563301D01*
X149419301Y-118459420D01*
X149500920Y-118337269D01*
X149557140Y-118201542D01*
X149585800Y-118057455D01*
X149585800Y-117910545D01*
X149557140Y-117766458D01*
X149529030Y-117698594D01*
X149500921Y-117630733D01*
X149500921Y-117630732D01*
X149480585Y-117600298D01*
X149419301Y-117508580D01*
X149315420Y-117404699D01*
X149193269Y-117323080D01*
X149193268Y-117323079D01*
X149193266Y-117323078D01*
X149057542Y-117266860D01*
X148913457Y-117238200D01*
X148913455Y-117238200D01*
X148766545Y-117238200D01*
X148766542Y-117238200D01*
X148622458Y-117266860D01*
X148622456Y-117266860D01*
X148486733Y-117323078D01*
X148486732Y-117323078D01*
X148364580Y-117404699D01*
X148364576Y-117404702D01*
X148260702Y-117508576D01*
X148260699Y-117508580D01*
X148179078Y-117630732D01*
X148179078Y-117630733D01*
X148122860Y-117766456D01*
X148122860Y-117766458D01*
X148094200Y-117910542D01*
X146825500Y-117910542D01*
X146825500Y-117650321D01*
X146844407Y-117592130D01*
X146854490Y-117580323D01*
X146900500Y-117534314D01*
X146915360Y-117508576D01*
X146966390Y-117420190D01*
X146966390Y-117420188D01*
X146966392Y-117420186D01*
X147000500Y-117292892D01*
X147000500Y-117161108D01*
X146966392Y-117033814D01*
X146966390Y-117033811D01*
X146966390Y-117033809D01*
X146900503Y-116919690D01*
X146900501Y-116919688D01*
X146900500Y-116919686D01*
X146807314Y-116826500D01*
X146807311Y-116826498D01*
X146807309Y-116826496D01*
X146693190Y-116760609D01*
X146678151Y-116756579D01*
X146565892Y-116726500D01*
X146434108Y-116726500D01*
X146356200Y-116747375D01*
X146306809Y-116760609D01*
X146192690Y-116826496D01*
X146099496Y-116919690D01*
X146033609Y-117033809D01*
X146033608Y-117033814D01*
X145999500Y-117161108D01*
X145999500Y-117292892D01*
X146007589Y-117323080D01*
X146033609Y-117420190D01*
X146099496Y-117534309D01*
X146099498Y-117534311D01*
X146099500Y-117534314D01*
X146145505Y-117580319D01*
X146173281Y-117634834D01*
X146174500Y-117650321D01*
X146174500Y-118309185D01*
X146155593Y-118367376D01*
X146145509Y-118379183D01*
X143612219Y-120912886D01*
X143557705Y-120940668D01*
X143497272Y-120931101D01*
X143454004Y-120887840D01*
X143446584Y-120868514D01*
X143431392Y-120811814D01*
X143431390Y-120811810D01*
X143365503Y-120697690D01*
X143365501Y-120697688D01*
X143365500Y-120697686D01*
X143272314Y-120604500D01*
X143272311Y-120604498D01*
X143272309Y-120604496D01*
X143158189Y-120538609D01*
X143158191Y-120538609D01*
X143108799Y-120525375D01*
X143030892Y-120504500D01*
X142899108Y-120504500D01*
X142821200Y-120525375D01*
X142771809Y-120538609D01*
X142657690Y-120604496D01*
X142657684Y-120604500D01*
X142611681Y-120650504D01*
X142557164Y-120678281D01*
X142541678Y-120679500D01*
X137878793Y-120679500D01*
X137878729Y-120679483D01*
X137834577Y-120679500D01*
X137793135Y-120679500D01*
X137793026Y-120679515D01*
X137751260Y-120690722D01*
X137751231Y-120690730D01*
X137710351Y-120701685D01*
X137710255Y-120701724D01*
X137673135Y-120723172D01*
X137673136Y-120723173D01*
X137673015Y-120723243D01*
X137636138Y-120744535D01*
X137636093Y-120744579D01*
X137636039Y-120744611D01*
X137635879Y-120744770D01*
X137635877Y-120744772D01*
X137606479Y-120774191D01*
X137605974Y-120774698D01*
X137575535Y-120805138D01*
X137571125Y-120809548D01*
X137570942Y-120809757D01*
X137031705Y-121349407D01*
X136618484Y-121762945D01*
X136596968Y-121784477D01*
X136542462Y-121812275D01*
X136526938Y-121813500D01*
X136462108Y-121813500D01*
X136384200Y-121834375D01*
X136334809Y-121847609D01*
X136220690Y-121913496D01*
X136127496Y-122006690D01*
X136061609Y-122120809D01*
X136061608Y-122120814D01*
X136027500Y-122248108D01*
X136027500Y-122379892D01*
X136057579Y-122492151D01*
X136061609Y-122507190D01*
X136127496Y-122621309D01*
X136127498Y-122621311D01*
X136127500Y-122621314D01*
X136220686Y-122714500D01*
X136220688Y-122714501D01*
X136220690Y-122714503D01*
X136334810Y-122780390D01*
X136334808Y-122780390D01*
X136334812Y-122780391D01*
X136334814Y-122780392D01*
X136462108Y-122814500D01*
X136462110Y-122814500D01*
X136593890Y-122814500D01*
X136593892Y-122814500D01*
X136721186Y-122780392D01*
X136721188Y-122780390D01*
X136721190Y-122780390D01*
X136835309Y-122714503D01*
X136835309Y-122714502D01*
X136835314Y-122714500D01*
X136928500Y-122621314D01*
X136928503Y-122621309D01*
X136994390Y-122507190D01*
X136994390Y-122507188D01*
X136994392Y-122507186D01*
X137028500Y-122379892D01*
X137028500Y-122314604D01*
X137047407Y-122256413D01*
X137057464Y-122244632D01*
X137941899Y-121359522D01*
X137996405Y-121331725D01*
X138011929Y-121330500D01*
X142541678Y-121330500D01*
X142599869Y-121349407D01*
X142611681Y-121359496D01*
X142657684Y-121405499D01*
X142657690Y-121405503D01*
X142771810Y-121471390D01*
X142771811Y-121471390D01*
X142771814Y-121471392D01*
X142828607Y-121486609D01*
X142879920Y-121519931D01*
X142901847Y-121577052D01*
X142886012Y-121636153D01*
X142872992Y-121652233D01*
X140336674Y-124188966D01*
X140292288Y-124214595D01*
X140172809Y-124246609D01*
X140058690Y-124312496D01*
X139965496Y-124405690D01*
X139899609Y-124519809D01*
X139899608Y-124519814D01*
X139865500Y-124647108D01*
X139865500Y-124778892D01*
X139894324Y-124886465D01*
X139899609Y-124906190D01*
X139965496Y-125020309D01*
X139965498Y-125020311D01*
X139965500Y-125020314D01*
X140058686Y-125113500D01*
X140058688Y-125113501D01*
X140058690Y-125113503D01*
X140112726Y-125144701D01*
X140153667Y-125190170D01*
X140160063Y-125251021D01*
X140133230Y-125300441D01*
X136965169Y-128468504D01*
X136910652Y-128496281D01*
X136895165Y-128497500D01*
X135373786Y-128497500D01*
X135315595Y-128478593D01*
X135279631Y-128429093D01*
X135278159Y-128372877D01*
X135282280Y-128357498D01*
X135294500Y-128311892D01*
X135294500Y-128180108D01*
X135260392Y-128052814D01*
X135260390Y-128052811D01*
X135260390Y-128052809D01*
X135194503Y-127938690D01*
X135194501Y-127938688D01*
X135194500Y-127938686D01*
X135101314Y-127845500D01*
X135101311Y-127845498D01*
X135101309Y-127845496D01*
X134987189Y-127779609D01*
X134987191Y-127779609D01*
X134937799Y-127766375D01*
X134859892Y-127745500D01*
X134728108Y-127745500D01*
X134650200Y-127766375D01*
X134600809Y-127779609D01*
X134486690Y-127845496D01*
X134486684Y-127845500D01*
X134440681Y-127891504D01*
X134386164Y-127919281D01*
X134370678Y-127920500D01*
X132776853Y-127920500D01*
X132691147Y-127920500D01*
X132640478Y-127934076D01*
X132608356Y-127942683D01*
X132534142Y-127985531D01*
X131369169Y-129150504D01*
X131314652Y-129178281D01*
X131299165Y-129179500D01*
X117020853Y-129179500D01*
X116935147Y-129179500D01*
X116884478Y-129193076D01*
X116852356Y-129201683D01*
X116778142Y-129244531D01*
X116147169Y-129875504D01*
X116092652Y-129903281D01*
X116077165Y-129904500D01*
X116012108Y-129904500D01*
X115941911Y-129923309D01*
X115884809Y-129938609D01*
X115770690Y-130004496D01*
X115677496Y-130097690D01*
X115611609Y-130211809D01*
X115592539Y-130282978D01*
X115577500Y-130339108D01*
X105689077Y-130339108D01*
X105660130Y-130193580D01*
X105580941Y-130002402D01*
X105465977Y-129830345D01*
X105319655Y-129684023D01*
X105286652Y-129661971D01*
X105147597Y-129569058D01*
X104956418Y-129489869D01*
X104753467Y-129449500D01*
X104753465Y-129449500D01*
X104246535Y-129449500D01*
X104246532Y-129449500D01*
X104043581Y-129489869D01*
X103852402Y-129569058D01*
X103680348Y-129684020D01*
X103534020Y-129830348D01*
X103419058Y-130002402D01*
X103339869Y-130193581D01*
X103299500Y-130396532D01*
X100300500Y-130396532D01*
X100300500Y-127345725D01*
X103299500Y-127345725D01*
X103299500Y-128654274D01*
X103302353Y-128684694D01*
X103302355Y-128684703D01*
X103347207Y-128812883D01*
X103427845Y-128922144D01*
X103427847Y-128922146D01*
X103427850Y-128922150D01*
X103427853Y-128922152D01*
X103427855Y-128922154D01*
X103537116Y-129002792D01*
X103537117Y-129002792D01*
X103537118Y-129002793D01*
X103665301Y-129047646D01*
X103695725Y-129050499D01*
X103695727Y-129050500D01*
X103695734Y-129050500D01*
X105304273Y-129050500D01*
X105304273Y-129050499D01*
X105334699Y-129047646D01*
X105462882Y-129002793D01*
X105572150Y-128922150D01*
X105652793Y-128812882D01*
X105697646Y-128684699D01*
X105700499Y-128654273D01*
X105700500Y-128654273D01*
X105700500Y-127345727D01*
X105700499Y-127345725D01*
X105697646Y-127315305D01*
X105697646Y-127315301D01*
X105652793Y-127187118D01*
X105627533Y-127152892D01*
X105572154Y-127077855D01*
X105572152Y-127077853D01*
X105572150Y-127077850D01*
X105572146Y-127077847D01*
X105572144Y-127077845D01*
X105462883Y-126997207D01*
X105334703Y-126952355D01*
X105334694Y-126952353D01*
X105304274Y-126949500D01*
X105304266Y-126949500D01*
X103695734Y-126949500D01*
X103695725Y-126949500D01*
X103665305Y-126952353D01*
X103665296Y-126952355D01*
X103537116Y-126997207D01*
X103427855Y-127077845D01*
X103427845Y-127077855D01*
X103347207Y-127187116D01*
X103302355Y-127315296D01*
X103302353Y-127315305D01*
X103299500Y-127345725D01*
X100300500Y-127345725D01*
X100300500Y-124560108D01*
X135909500Y-124560108D01*
X135909500Y-124691892D01*
X135932811Y-124778890D01*
X135943609Y-124819190D01*
X136009496Y-124933309D01*
X136009498Y-124933311D01*
X136009500Y-124933314D01*
X136102686Y-125026500D01*
X136102688Y-125026501D01*
X136102690Y-125026503D01*
X136216810Y-125092390D01*
X136216808Y-125092390D01*
X136216812Y-125092391D01*
X136216814Y-125092392D01*
X136344108Y-125126500D01*
X136344110Y-125126500D01*
X136475890Y-125126500D01*
X136475892Y-125126500D01*
X136603186Y-125092392D01*
X136603188Y-125092390D01*
X136603190Y-125092390D01*
X136717309Y-125026503D01*
X136717310Y-125026502D01*
X136717314Y-125026500D01*
X136723505Y-125020309D01*
X136763319Y-124980496D01*
X136817836Y-124952719D01*
X136833322Y-124951500D01*
X138558152Y-124951500D01*
X138601561Y-124951539D01*
X138601707Y-124951500D01*
X138601853Y-124951500D01*
X138601854Y-124951500D01*
X138611077Y-124949028D01*
X138642796Y-124940528D01*
X138642894Y-124940533D01*
X138642887Y-124940504D01*
X138684367Y-124929430D01*
X138684494Y-124929356D01*
X138684638Y-124929318D01*
X138721732Y-124907901D01*
X138758628Y-124886644D01*
X138758633Y-124886638D01*
X138758854Y-124886469D01*
X138758862Y-124886465D01*
X138789387Y-124855939D01*
X139048356Y-124597433D01*
X139102898Y-124569705D01*
X139118297Y-124568500D01*
X139183890Y-124568500D01*
X139183892Y-124568500D01*
X139311186Y-124534392D01*
X139311188Y-124534390D01*
X139311190Y-124534390D01*
X139425309Y-124468503D01*
X139425309Y-124468502D01*
X139425314Y-124468500D01*
X139518500Y-124375314D01*
X139584392Y-124261186D01*
X139618500Y-124133892D01*
X139618500Y-124002108D01*
X139584392Y-123874814D01*
X139584390Y-123874811D01*
X139584390Y-123874809D01*
X139518503Y-123760690D01*
X139518501Y-123760688D01*
X139518500Y-123760686D01*
X139425314Y-123667500D01*
X139425311Y-123667498D01*
X139425309Y-123667496D01*
X139311189Y-123601609D01*
X139311191Y-123601609D01*
X139261799Y-123588375D01*
X139183892Y-123567500D01*
X139052108Y-123567500D01*
X138974200Y-123588375D01*
X138924809Y-123601609D01*
X138810690Y-123667496D01*
X138717496Y-123760690D01*
X138651609Y-123874809D01*
X138617500Y-124002109D01*
X138617500Y-124066630D01*
X138615017Y-124074269D01*
X138616267Y-124082204D01*
X138605744Y-124102810D01*
X138598593Y-124124821D01*
X138588440Y-124136696D01*
X138463725Y-124261190D01*
X138453330Y-124271566D01*
X138398789Y-124299295D01*
X138383389Y-124300500D01*
X136833322Y-124300500D01*
X136775131Y-124281593D01*
X136763319Y-124271504D01*
X136717315Y-124225500D01*
X136717309Y-124225496D01*
X136603189Y-124159609D01*
X136603191Y-124159609D01*
X136517676Y-124136696D01*
X136475892Y-124125500D01*
X136344108Y-124125500D01*
X136302324Y-124136696D01*
X136216809Y-124159609D01*
X136102690Y-124225496D01*
X136009496Y-124318690D01*
X135943609Y-124432809D01*
X135943608Y-124432814D01*
X135909500Y-124560108D01*
X100300500Y-124560108D01*
X100300500Y-118926542D01*
X143014200Y-118926542D01*
X143014200Y-119073457D01*
X143042860Y-119217541D01*
X143042860Y-119217543D01*
X143099078Y-119353266D01*
X143099078Y-119353267D01*
X143139749Y-119414134D01*
X143180699Y-119475420D01*
X143284580Y-119579301D01*
X143406731Y-119660920D01*
X143406732Y-119660920D01*
X143406733Y-119660921D01*
X143411108Y-119662733D01*
X143542458Y-119717140D01*
X143686545Y-119745800D01*
X143686547Y-119745800D01*
X143833453Y-119745800D01*
X143833455Y-119745800D01*
X143977542Y-119717140D01*
X144113269Y-119660920D01*
X144235420Y-119579301D01*
X144339301Y-119475420D01*
X144420920Y-119353269D01*
X144477140Y-119217542D01*
X144505800Y-119073455D01*
X144505800Y-118926545D01*
X144477140Y-118782458D01*
X144420921Y-118646733D01*
X144420921Y-118646732D01*
X144395750Y-118609061D01*
X144339301Y-118524580D01*
X144235420Y-118420699D01*
X144113269Y-118339080D01*
X144113268Y-118339079D01*
X144113266Y-118339078D01*
X143977542Y-118282860D01*
X143833457Y-118254200D01*
X143833455Y-118254200D01*
X143686545Y-118254200D01*
X143686542Y-118254200D01*
X143542458Y-118282860D01*
X143542456Y-118282860D01*
X143406733Y-118339078D01*
X143406732Y-118339078D01*
X143284580Y-118420699D01*
X143284576Y-118420702D01*
X143180702Y-118524576D01*
X143180699Y-118524580D01*
X143099078Y-118646732D01*
X143099078Y-118646733D01*
X143042860Y-118782456D01*
X143042860Y-118782458D01*
X143014200Y-118926542D01*
X100300500Y-118926542D01*
X100300500Y-116132930D01*
X130492500Y-116132930D01*
X130492500Y-116261069D01*
X130517499Y-116386742D01*
X130517500Y-116386747D01*
X130566534Y-116505125D01*
X130566538Y-116505133D01*
X130609365Y-116569226D01*
X130637724Y-116611669D01*
X130728331Y-116702276D01*
X130764585Y-116726500D01*
X130834866Y-116773461D01*
X130834870Y-116773463D01*
X130834873Y-116773465D01*
X130953256Y-116822501D01*
X131078931Y-116847500D01*
X131078932Y-116847500D01*
X136653068Y-116847500D01*
X136653069Y-116847500D01*
X136778744Y-116822501D01*
X136897127Y-116773465D01*
X136916369Y-116760608D01*
X137003669Y-116702277D01*
X140505276Y-113200670D01*
X140576465Y-113094127D01*
X140625501Y-112975744D01*
X140628655Y-112959886D01*
X140650500Y-112850069D01*
X140650500Y-112721931D01*
X140625501Y-112596256D01*
X140576465Y-112477873D01*
X140576463Y-112477870D01*
X140576461Y-112477866D01*
X140545067Y-112430882D01*
X140505276Y-112371331D01*
X140414669Y-112280724D01*
X140372226Y-112252365D01*
X140308133Y-112209538D01*
X140308125Y-112209534D01*
X140189747Y-112160500D01*
X140189745Y-112160499D01*
X140189744Y-112160499D01*
X140064069Y-112135500D01*
X139935931Y-112135500D01*
X139935930Y-112135500D01*
X139873093Y-112147999D01*
X139810256Y-112160499D01*
X139810255Y-112160499D01*
X139810252Y-112160500D01*
X139691873Y-112209534D01*
X139585333Y-112280721D01*
X136348550Y-115517504D01*
X136294033Y-115545281D01*
X136278546Y-115546500D01*
X131078930Y-115546500D01*
X131016093Y-115558999D01*
X130953256Y-115571499D01*
X130953255Y-115571499D01*
X130953252Y-115571500D01*
X130834874Y-115620534D01*
X130834866Y-115620538D01*
X130728331Y-115691724D01*
X130728327Y-115691727D01*
X130637727Y-115782327D01*
X130637724Y-115782331D01*
X130566538Y-115888866D01*
X130566534Y-115888874D01*
X130517500Y-116007252D01*
X130517499Y-116007257D01*
X130492500Y-116132930D01*
X100300500Y-116132930D01*
X100300500Y-113830138D01*
X102850000Y-113830138D01*
X102850000Y-114089861D01*
X102890628Y-114346373D01*
X102970882Y-114593373D01*
X103088792Y-114824785D01*
X103199708Y-114977446D01*
X103773891Y-114403262D01*
X103839762Y-114501844D01*
X103958156Y-114620238D01*
X104056734Y-114686106D01*
X103482551Y-115260290D01*
X103635214Y-115371207D01*
X103866626Y-115489117D01*
X104113626Y-115569371D01*
X104370139Y-115610000D01*
X104629861Y-115610000D01*
X104886373Y-115569371D01*
X105133373Y-115489117D01*
X105364787Y-115371206D01*
X105364793Y-115371202D01*
X105517447Y-115260291D01*
X105517447Y-115260290D01*
X104943263Y-114686106D01*
X105041844Y-114620238D01*
X105160238Y-114501844D01*
X105226106Y-114403263D01*
X105800290Y-114977447D01*
X105800291Y-114977447D01*
X105911202Y-114824793D01*
X105911206Y-114824787D01*
X106029117Y-114593373D01*
X106109371Y-114346373D01*
X106150000Y-114089861D01*
X106150000Y-113830138D01*
X106109371Y-113573626D01*
X106029117Y-113326626D01*
X105911207Y-113095214D01*
X105800290Y-112942551D01*
X105226106Y-113516734D01*
X105160238Y-113418156D01*
X105041844Y-113299762D01*
X104943262Y-113233891D01*
X105517446Y-112659708D01*
X105364785Y-112548792D01*
X105133373Y-112430882D01*
X104886373Y-112350628D01*
X104629861Y-112310000D01*
X104370139Y-112310000D01*
X104113626Y-112350628D01*
X103866626Y-112430882D01*
X103635212Y-112548793D01*
X103635208Y-112548795D01*
X103482551Y-112659707D01*
X104056736Y-113233892D01*
X103958156Y-113299762D01*
X103839762Y-113418156D01*
X103773892Y-113516736D01*
X103199707Y-112942551D01*
X103088795Y-113095208D01*
X103088793Y-113095212D01*
X102970882Y-113326626D01*
X102890628Y-113573626D01*
X102850000Y-113830138D01*
X100300500Y-113830138D01*
X100300500Y-108852130D01*
X102899500Y-108852130D01*
X102899500Y-111147869D01*
X102905908Y-111207476D01*
X102905910Y-111207487D01*
X102956202Y-111342328D01*
X103042450Y-111457541D01*
X103042454Y-111457546D01*
X103042457Y-111457548D01*
X103042458Y-111457549D01*
X103157671Y-111543797D01*
X103292512Y-111594089D01*
X103292513Y-111594089D01*
X103292518Y-111594091D01*
X103352128Y-111600500D01*
X103352131Y-111600500D01*
X105647869Y-111600500D01*
X105647872Y-111600500D01*
X105707482Y-111594091D01*
X105754304Y-111576627D01*
X105842328Y-111543797D01*
X105842328Y-111543796D01*
X105842330Y-111543796D01*
X105957546Y-111457546D01*
X106043796Y-111342330D01*
X106094091Y-111207482D01*
X106100500Y-111147872D01*
X106100500Y-108852128D01*
X106094091Y-108792518D01*
X106094089Y-108792512D01*
X106043797Y-108657671D01*
X105957549Y-108542458D01*
X105957548Y-108542457D01*
X105957546Y-108542454D01*
X105957541Y-108542450D01*
X105842328Y-108456202D01*
X105707487Y-108405910D01*
X105707482Y-108405909D01*
X105707480Y-108405908D01*
X105707476Y-108405908D01*
X105676248Y-108402550D01*
X105647872Y-108399500D01*
X103352128Y-108399500D01*
X103327637Y-108402133D01*
X103292523Y-108405908D01*
X103292512Y-108405910D01*
X103157671Y-108456202D01*
X103042458Y-108542450D01*
X103042450Y-108542458D01*
X102956202Y-108657671D01*
X102905910Y-108792512D01*
X102905908Y-108792523D01*
X102899500Y-108852130D01*
X100300500Y-108852130D01*
X100300500Y-100399500D01*
X100319407Y-100341309D01*
X100368907Y-100305345D01*
X100399500Y-100300500D01*
X179600500Y-100300500D01*
X179658691Y-100319407D01*
G37*
%TD.AperFunction*%
%TD*%
M02*
