%TF.GenerationSoftware,KiCad,Pcbnew,9.0.9-9.0.9~ubuntu24.04.1*%
%TF.CreationDate,2026-09-15T19:23:53+03:00*%
%TF.ProjectId,im01,696d3031-2e6b-4696-9361-645f70636258,rev?*%
%TF.SameCoordinates,Original*%
%TF.FileFunction,Drillmap*%
%TF.FilePolarity,Positive*%
%FSLAX45Y45*%
G04 Gerber Fmt 4.5, Leading zero omitted, Abs format (unit mm)*
G04 Created by KiCad (PCBNEW 9.0.9-9.0.9~ubuntu24.04.1) date 2026-09-15 19:23:53*
%MOMM*%
%LPD*%
G01*
G04 APERTURE LIST*
%ADD10C,0.100000*%
%ADD11C,0.200000*%
G04 APERTURE END LIST*
D10*
X10000000Y-10000000D02*
X18000000Y-10000000D01*
X18000000Y-15500000D01*
X10000000Y-15500000D01*
X10000000Y-10000000D01*
D11*
D10*
X14326470Y-11850470D02*
X14425530Y-11949530D01*
X14425530Y-11850470D02*
X14326470Y-11949530D01*
X14834470Y-11748870D02*
X14933530Y-11847930D01*
X14933530Y-11748870D02*
X14834470Y-11847930D01*
X14834470Y-11952070D02*
X14933530Y-12051130D01*
X14933530Y-11952070D02*
X14834470Y-12051130D01*
D11*
X10255777Y-15816484D02*
X10255777Y-15616484D01*
X10255777Y-15616484D02*
X10303396Y-15616484D01*
X10303396Y-15616484D02*
X10331967Y-15626008D01*
X10331967Y-15626008D02*
X10351015Y-15645055D01*
X10351015Y-15645055D02*
X10360539Y-15664103D01*
X10360539Y-15664103D02*
X10370063Y-15702198D01*
X10370063Y-15702198D02*
X10370063Y-15730769D01*
X10370063Y-15730769D02*
X10360539Y-15768865D01*
X10360539Y-15768865D02*
X10351015Y-15787912D01*
X10351015Y-15787912D02*
X10331967Y-15806960D01*
X10331967Y-15806960D02*
X10303396Y-15816484D01*
X10303396Y-15816484D02*
X10255777Y-15816484D01*
X10455777Y-15816484D02*
X10455777Y-15683150D01*
X10455777Y-15721246D02*
X10465301Y-15702198D01*
X10465301Y-15702198D02*
X10474824Y-15692674D01*
X10474824Y-15692674D02*
X10493872Y-15683150D01*
X10493872Y-15683150D02*
X10512920Y-15683150D01*
X10579586Y-15816484D02*
X10579586Y-15683150D01*
X10579586Y-15616484D02*
X10570063Y-15626008D01*
X10570063Y-15626008D02*
X10579586Y-15635531D01*
X10579586Y-15635531D02*
X10589110Y-15626008D01*
X10589110Y-15626008D02*
X10579586Y-15616484D01*
X10579586Y-15616484D02*
X10579586Y-15635531D01*
X10703396Y-15816484D02*
X10684348Y-15806960D01*
X10684348Y-15806960D02*
X10674824Y-15787912D01*
X10674824Y-15787912D02*
X10674824Y-15616484D01*
X10808158Y-15816484D02*
X10789110Y-15806960D01*
X10789110Y-15806960D02*
X10779586Y-15787912D01*
X10779586Y-15787912D02*
X10779586Y-15616484D01*
X11036729Y-15816484D02*
X11036729Y-15616484D01*
X11036729Y-15616484D02*
X11103396Y-15759341D01*
X11103396Y-15759341D02*
X11170063Y-15616484D01*
X11170063Y-15616484D02*
X11170063Y-15816484D01*
X11351015Y-15816484D02*
X11351015Y-15711722D01*
X11351015Y-15711722D02*
X11341491Y-15692674D01*
X11341491Y-15692674D02*
X11322443Y-15683150D01*
X11322443Y-15683150D02*
X11284348Y-15683150D01*
X11284348Y-15683150D02*
X11265301Y-15692674D01*
X11351015Y-15806960D02*
X11331967Y-15816484D01*
X11331967Y-15816484D02*
X11284348Y-15816484D01*
X11284348Y-15816484D02*
X11265301Y-15806960D01*
X11265301Y-15806960D02*
X11255777Y-15787912D01*
X11255777Y-15787912D02*
X11255777Y-15768865D01*
X11255777Y-15768865D02*
X11265301Y-15749817D01*
X11265301Y-15749817D02*
X11284348Y-15740293D01*
X11284348Y-15740293D02*
X11331967Y-15740293D01*
X11331967Y-15740293D02*
X11351015Y-15730769D01*
X11446253Y-15683150D02*
X11446253Y-15883150D01*
X11446253Y-15692674D02*
X11465301Y-15683150D01*
X11465301Y-15683150D02*
X11503396Y-15683150D01*
X11503396Y-15683150D02*
X11522443Y-15692674D01*
X11522443Y-15692674D02*
X11531967Y-15702198D01*
X11531967Y-15702198D02*
X11541491Y-15721246D01*
X11541491Y-15721246D02*
X11541491Y-15778388D01*
X11541491Y-15778388D02*
X11531967Y-15797436D01*
X11531967Y-15797436D02*
X11522443Y-15806960D01*
X11522443Y-15806960D02*
X11503396Y-15816484D01*
X11503396Y-15816484D02*
X11465301Y-15816484D01*
X11465301Y-15816484D02*
X11446253Y-15806960D01*
X11627205Y-15797436D02*
X11636729Y-15806960D01*
X11636729Y-15806960D02*
X11627205Y-15816484D01*
X11627205Y-15816484D02*
X11617682Y-15806960D01*
X11617682Y-15806960D02*
X11627205Y-15797436D01*
X11627205Y-15797436D02*
X11627205Y-15816484D01*
X11627205Y-15692674D02*
X11636729Y-15702198D01*
X11636729Y-15702198D02*
X11627205Y-15711722D01*
X11627205Y-15711722D02*
X11617682Y-15702198D01*
X11617682Y-15702198D02*
X11627205Y-15692674D01*
X11627205Y-15692674D02*
X11627205Y-15711722D01*
D10*
X9895940Y-16095470D02*
X9995000Y-16194530D01*
X9995000Y-16095470D02*
X9895940Y-16194530D01*
D11*
X10293872Y-16036484D02*
X10312920Y-16036484D01*
X10312920Y-16036484D02*
X10331967Y-16046008D01*
X10331967Y-16046008D02*
X10341491Y-16055531D01*
X10341491Y-16055531D02*
X10351015Y-16074579D01*
X10351015Y-16074579D02*
X10360539Y-16112674D01*
X10360539Y-16112674D02*
X10360539Y-16160293D01*
X10360539Y-16160293D02*
X10351015Y-16198388D01*
X10351015Y-16198388D02*
X10341491Y-16217436D01*
X10341491Y-16217436D02*
X10331967Y-16226960D01*
X10331967Y-16226960D02*
X10312920Y-16236484D01*
X10312920Y-16236484D02*
X10293872Y-16236484D01*
X10293872Y-16236484D02*
X10274824Y-16226960D01*
X10274824Y-16226960D02*
X10265301Y-16217436D01*
X10265301Y-16217436D02*
X10255777Y-16198388D01*
X10255777Y-16198388D02*
X10246253Y-16160293D01*
X10246253Y-16160293D02*
X10246253Y-16112674D01*
X10246253Y-16112674D02*
X10255777Y-16074579D01*
X10255777Y-16074579D02*
X10265301Y-16055531D01*
X10265301Y-16055531D02*
X10274824Y-16046008D01*
X10274824Y-16046008D02*
X10293872Y-16036484D01*
X10446253Y-16217436D02*
X10455777Y-16226960D01*
X10455777Y-16226960D02*
X10446253Y-16236484D01*
X10446253Y-16236484D02*
X10436729Y-16226960D01*
X10436729Y-16226960D02*
X10446253Y-16217436D01*
X10446253Y-16217436D02*
X10446253Y-16236484D01*
X10551015Y-16236484D02*
X10589110Y-16236484D01*
X10589110Y-16236484D02*
X10608158Y-16226960D01*
X10608158Y-16226960D02*
X10617682Y-16217436D01*
X10617682Y-16217436D02*
X10636729Y-16188865D01*
X10636729Y-16188865D02*
X10646253Y-16150769D01*
X10646253Y-16150769D02*
X10646253Y-16074579D01*
X10646253Y-16074579D02*
X10636729Y-16055531D01*
X10636729Y-16055531D02*
X10627205Y-16046008D01*
X10627205Y-16046008D02*
X10608158Y-16036484D01*
X10608158Y-16036484D02*
X10570063Y-16036484D01*
X10570063Y-16036484D02*
X10551015Y-16046008D01*
X10551015Y-16046008D02*
X10541491Y-16055531D01*
X10541491Y-16055531D02*
X10531967Y-16074579D01*
X10531967Y-16074579D02*
X10531967Y-16122198D01*
X10531967Y-16122198D02*
X10541491Y-16141246D01*
X10541491Y-16141246D02*
X10551015Y-16150769D01*
X10551015Y-16150769D02*
X10570063Y-16160293D01*
X10570063Y-16160293D02*
X10608158Y-16160293D01*
X10608158Y-16160293D02*
X10627205Y-16150769D01*
X10627205Y-16150769D02*
X10636729Y-16141246D01*
X10636729Y-16141246D02*
X10646253Y-16122198D01*
X10741491Y-16236484D02*
X10779586Y-16236484D01*
X10779586Y-16236484D02*
X10798634Y-16226960D01*
X10798634Y-16226960D02*
X10808158Y-16217436D01*
X10808158Y-16217436D02*
X10827205Y-16188865D01*
X10827205Y-16188865D02*
X10836729Y-16150769D01*
X10836729Y-16150769D02*
X10836729Y-16074579D01*
X10836729Y-16074579D02*
X10827205Y-16055531D01*
X10827205Y-16055531D02*
X10817682Y-16046008D01*
X10817682Y-16046008D02*
X10798634Y-16036484D01*
X10798634Y-16036484D02*
X10760539Y-16036484D01*
X10760539Y-16036484D02*
X10741491Y-16046008D01*
X10741491Y-16046008D02*
X10731967Y-16055531D01*
X10731967Y-16055531D02*
X10722444Y-16074579D01*
X10722444Y-16074579D02*
X10722444Y-16122198D01*
X10722444Y-16122198D02*
X10731967Y-16141246D01*
X10731967Y-16141246D02*
X10741491Y-16150769D01*
X10741491Y-16150769D02*
X10760539Y-16160293D01*
X10760539Y-16160293D02*
X10798634Y-16160293D01*
X10798634Y-16160293D02*
X10817682Y-16150769D01*
X10817682Y-16150769D02*
X10827205Y-16141246D01*
X10827205Y-16141246D02*
X10836729Y-16122198D01*
X11027205Y-16236484D02*
X10912920Y-16236484D01*
X10970063Y-16236484D02*
X10970063Y-16036484D01*
X10970063Y-16036484D02*
X10951015Y-16065055D01*
X10951015Y-16065055D02*
X10931967Y-16084103D01*
X10931967Y-16084103D02*
X10912920Y-16093627D01*
X11112920Y-16236484D02*
X11112920Y-16103150D01*
X11112920Y-16122198D02*
X11122444Y-16112674D01*
X11122444Y-16112674D02*
X11141491Y-16103150D01*
X11141491Y-16103150D02*
X11170063Y-16103150D01*
X11170063Y-16103150D02*
X11189110Y-16112674D01*
X11189110Y-16112674D02*
X11198634Y-16131722D01*
X11198634Y-16131722D02*
X11198634Y-16236484D01*
X11198634Y-16131722D02*
X11208158Y-16112674D01*
X11208158Y-16112674D02*
X11227205Y-16103150D01*
X11227205Y-16103150D02*
X11255777Y-16103150D01*
X11255777Y-16103150D02*
X11274824Y-16112674D01*
X11274824Y-16112674D02*
X11284348Y-16131722D01*
X11284348Y-16131722D02*
X11284348Y-16236484D01*
X11379586Y-16236484D02*
X11379586Y-16103150D01*
X11379586Y-16122198D02*
X11389110Y-16112674D01*
X11389110Y-16112674D02*
X11408158Y-16103150D01*
X11408158Y-16103150D02*
X11436729Y-16103150D01*
X11436729Y-16103150D02*
X11455777Y-16112674D01*
X11455777Y-16112674D02*
X11465301Y-16131722D01*
X11465301Y-16131722D02*
X11465301Y-16236484D01*
X11465301Y-16131722D02*
X11474824Y-16112674D01*
X11474824Y-16112674D02*
X11493872Y-16103150D01*
X11493872Y-16103150D02*
X11522443Y-16103150D01*
X11522443Y-16103150D02*
X11541491Y-16112674D01*
X11541491Y-16112674D02*
X11551015Y-16131722D01*
X11551015Y-16131722D02*
X11551015Y-16236484D01*
X11941491Y-16026960D02*
X11770063Y-16284103D01*
X12198634Y-16036484D02*
X12217682Y-16036484D01*
X12217682Y-16036484D02*
X12236729Y-16046008D01*
X12236729Y-16046008D02*
X12246253Y-16055531D01*
X12246253Y-16055531D02*
X12255777Y-16074579D01*
X12255777Y-16074579D02*
X12265301Y-16112674D01*
X12265301Y-16112674D02*
X12265301Y-16160293D01*
X12265301Y-16160293D02*
X12255777Y-16198388D01*
X12255777Y-16198388D02*
X12246253Y-16217436D01*
X12246253Y-16217436D02*
X12236729Y-16226960D01*
X12236729Y-16226960D02*
X12217682Y-16236484D01*
X12217682Y-16236484D02*
X12198634Y-16236484D01*
X12198634Y-16236484D02*
X12179586Y-16226960D01*
X12179586Y-16226960D02*
X12170063Y-16217436D01*
X12170063Y-16217436D02*
X12160539Y-16198388D01*
X12160539Y-16198388D02*
X12151015Y-16160293D01*
X12151015Y-16160293D02*
X12151015Y-16112674D01*
X12151015Y-16112674D02*
X12160539Y-16074579D01*
X12160539Y-16074579D02*
X12170063Y-16055531D01*
X12170063Y-16055531D02*
X12179586Y-16046008D01*
X12179586Y-16046008D02*
X12198634Y-16036484D01*
X12351015Y-16217436D02*
X12360539Y-16226960D01*
X12360539Y-16226960D02*
X12351015Y-16236484D01*
X12351015Y-16236484D02*
X12341491Y-16226960D01*
X12341491Y-16226960D02*
X12351015Y-16217436D01*
X12351015Y-16217436D02*
X12351015Y-16236484D01*
X12484348Y-16036484D02*
X12503396Y-16036484D01*
X12503396Y-16036484D02*
X12522444Y-16046008D01*
X12522444Y-16046008D02*
X12531967Y-16055531D01*
X12531967Y-16055531D02*
X12541491Y-16074579D01*
X12541491Y-16074579D02*
X12551015Y-16112674D01*
X12551015Y-16112674D02*
X12551015Y-16160293D01*
X12551015Y-16160293D02*
X12541491Y-16198388D01*
X12541491Y-16198388D02*
X12531967Y-16217436D01*
X12531967Y-16217436D02*
X12522444Y-16226960D01*
X12522444Y-16226960D02*
X12503396Y-16236484D01*
X12503396Y-16236484D02*
X12484348Y-16236484D01*
X12484348Y-16236484D02*
X12465301Y-16226960D01*
X12465301Y-16226960D02*
X12455777Y-16217436D01*
X12455777Y-16217436D02*
X12446253Y-16198388D01*
X12446253Y-16198388D02*
X12436729Y-16160293D01*
X12436729Y-16160293D02*
X12436729Y-16112674D01*
X12436729Y-16112674D02*
X12446253Y-16074579D01*
X12446253Y-16074579D02*
X12455777Y-16055531D01*
X12455777Y-16055531D02*
X12465301Y-16046008D01*
X12465301Y-16046008D02*
X12484348Y-16036484D01*
X12617682Y-16036484D02*
X12741491Y-16036484D01*
X12741491Y-16036484D02*
X12674825Y-16112674D01*
X12674825Y-16112674D02*
X12703396Y-16112674D01*
X12703396Y-16112674D02*
X12722444Y-16122198D01*
X12722444Y-16122198D02*
X12731967Y-16131722D01*
X12731967Y-16131722D02*
X12741491Y-16150769D01*
X12741491Y-16150769D02*
X12741491Y-16198388D01*
X12741491Y-16198388D02*
X12731967Y-16217436D01*
X12731967Y-16217436D02*
X12722444Y-16226960D01*
X12722444Y-16226960D02*
X12703396Y-16236484D01*
X12703396Y-16236484D02*
X12646253Y-16236484D01*
X12646253Y-16236484D02*
X12627206Y-16226960D01*
X12627206Y-16226960D02*
X12617682Y-16217436D01*
X12836729Y-16236484D02*
X12874825Y-16236484D01*
X12874825Y-16236484D02*
X12893872Y-16226960D01*
X12893872Y-16226960D02*
X12903396Y-16217436D01*
X12903396Y-16217436D02*
X12922444Y-16188865D01*
X12922444Y-16188865D02*
X12931967Y-16150769D01*
X12931967Y-16150769D02*
X12931967Y-16074579D01*
X12931967Y-16074579D02*
X12922444Y-16055531D01*
X12922444Y-16055531D02*
X12912920Y-16046008D01*
X12912920Y-16046008D02*
X12893872Y-16036484D01*
X12893872Y-16036484D02*
X12855777Y-16036484D01*
X12855777Y-16036484D02*
X12836729Y-16046008D01*
X12836729Y-16046008D02*
X12827206Y-16055531D01*
X12827206Y-16055531D02*
X12817682Y-16074579D01*
X12817682Y-16074579D02*
X12817682Y-16122198D01*
X12817682Y-16122198D02*
X12827206Y-16141246D01*
X12827206Y-16141246D02*
X12836729Y-16150769D01*
X12836729Y-16150769D02*
X12855777Y-16160293D01*
X12855777Y-16160293D02*
X12893872Y-16160293D01*
X12893872Y-16160293D02*
X12912920Y-16150769D01*
X12912920Y-16150769D02*
X12922444Y-16141246D01*
X12922444Y-16141246D02*
X12931967Y-16122198D01*
X13055777Y-16036484D02*
X13074825Y-16036484D01*
X13074825Y-16036484D02*
X13093872Y-16046008D01*
X13093872Y-16046008D02*
X13103396Y-16055531D01*
X13103396Y-16055531D02*
X13112920Y-16074579D01*
X13112920Y-16074579D02*
X13122444Y-16112674D01*
X13122444Y-16112674D02*
X13122444Y-16160293D01*
X13122444Y-16160293D02*
X13112920Y-16198388D01*
X13112920Y-16198388D02*
X13103396Y-16217436D01*
X13103396Y-16217436D02*
X13093872Y-16226960D01*
X13093872Y-16226960D02*
X13074825Y-16236484D01*
X13074825Y-16236484D02*
X13055777Y-16236484D01*
X13055777Y-16236484D02*
X13036729Y-16226960D01*
X13036729Y-16226960D02*
X13027206Y-16217436D01*
X13027206Y-16217436D02*
X13017682Y-16198388D01*
X13017682Y-16198388D02*
X13008158Y-16160293D01*
X13008158Y-16160293D02*
X13008158Y-16112674D01*
X13008158Y-16112674D02*
X13017682Y-16074579D01*
X13017682Y-16074579D02*
X13027206Y-16055531D01*
X13027206Y-16055531D02*
X13036729Y-16046008D01*
X13036729Y-16046008D02*
X13055777Y-16036484D01*
X13198634Y-16036484D02*
X13198634Y-16074579D01*
X13274825Y-16036484D02*
X13274825Y-16074579D01*
X13570063Y-16312674D02*
X13560539Y-16303150D01*
X13560539Y-16303150D02*
X13541491Y-16274579D01*
X13541491Y-16274579D02*
X13531968Y-16255531D01*
X13531968Y-16255531D02*
X13522444Y-16226960D01*
X13522444Y-16226960D02*
X13512920Y-16179341D01*
X13512920Y-16179341D02*
X13512920Y-16141246D01*
X13512920Y-16141246D02*
X13522444Y-16093627D01*
X13522444Y-16093627D02*
X13531968Y-16065055D01*
X13531968Y-16065055D02*
X13541491Y-16046008D01*
X13541491Y-16046008D02*
X13560539Y-16017436D01*
X13560539Y-16017436D02*
X13570063Y-16007912D01*
X13627206Y-16036484D02*
X13751015Y-16036484D01*
X13751015Y-16036484D02*
X13684348Y-16112674D01*
X13684348Y-16112674D02*
X13712920Y-16112674D01*
X13712920Y-16112674D02*
X13731968Y-16122198D01*
X13731968Y-16122198D02*
X13741491Y-16131722D01*
X13741491Y-16131722D02*
X13751015Y-16150769D01*
X13751015Y-16150769D02*
X13751015Y-16198388D01*
X13751015Y-16198388D02*
X13741491Y-16217436D01*
X13741491Y-16217436D02*
X13731968Y-16226960D01*
X13731968Y-16226960D02*
X13712920Y-16236484D01*
X13712920Y-16236484D02*
X13655777Y-16236484D01*
X13655777Y-16236484D02*
X13636729Y-16226960D01*
X13636729Y-16226960D02*
X13627206Y-16217436D01*
X13989110Y-16236484D02*
X13989110Y-16036484D01*
X14074825Y-16236484D02*
X14074825Y-16131722D01*
X14074825Y-16131722D02*
X14065301Y-16112674D01*
X14065301Y-16112674D02*
X14046253Y-16103150D01*
X14046253Y-16103150D02*
X14017682Y-16103150D01*
X14017682Y-16103150D02*
X13998634Y-16112674D01*
X13998634Y-16112674D02*
X13989110Y-16122198D01*
X14198634Y-16236484D02*
X14179587Y-16226960D01*
X14179587Y-16226960D02*
X14170063Y-16217436D01*
X14170063Y-16217436D02*
X14160539Y-16198388D01*
X14160539Y-16198388D02*
X14160539Y-16141246D01*
X14160539Y-16141246D02*
X14170063Y-16122198D01*
X14170063Y-16122198D02*
X14179587Y-16112674D01*
X14179587Y-16112674D02*
X14198634Y-16103150D01*
X14198634Y-16103150D02*
X14227206Y-16103150D01*
X14227206Y-16103150D02*
X14246253Y-16112674D01*
X14246253Y-16112674D02*
X14255777Y-16122198D01*
X14255777Y-16122198D02*
X14265301Y-16141246D01*
X14265301Y-16141246D02*
X14265301Y-16198388D01*
X14265301Y-16198388D02*
X14255777Y-16217436D01*
X14255777Y-16217436D02*
X14246253Y-16226960D01*
X14246253Y-16226960D02*
X14227206Y-16236484D01*
X14227206Y-16236484D02*
X14198634Y-16236484D01*
X14379587Y-16236484D02*
X14360539Y-16226960D01*
X14360539Y-16226960D02*
X14351015Y-16207912D01*
X14351015Y-16207912D02*
X14351015Y-16036484D01*
X14531968Y-16226960D02*
X14512920Y-16236484D01*
X14512920Y-16236484D02*
X14474825Y-16236484D01*
X14474825Y-16236484D02*
X14455777Y-16226960D01*
X14455777Y-16226960D02*
X14446253Y-16207912D01*
X14446253Y-16207912D02*
X14446253Y-16131722D01*
X14446253Y-16131722D02*
X14455777Y-16112674D01*
X14455777Y-16112674D02*
X14474825Y-16103150D01*
X14474825Y-16103150D02*
X14512920Y-16103150D01*
X14512920Y-16103150D02*
X14531968Y-16112674D01*
X14531968Y-16112674D02*
X14541491Y-16131722D01*
X14541491Y-16131722D02*
X14541491Y-16150769D01*
X14541491Y-16150769D02*
X14446253Y-16169817D01*
X14617682Y-16226960D02*
X14636730Y-16236484D01*
X14636730Y-16236484D02*
X14674825Y-16236484D01*
X14674825Y-16236484D02*
X14693872Y-16226960D01*
X14693872Y-16226960D02*
X14703396Y-16207912D01*
X14703396Y-16207912D02*
X14703396Y-16198388D01*
X14703396Y-16198388D02*
X14693872Y-16179341D01*
X14693872Y-16179341D02*
X14674825Y-16169817D01*
X14674825Y-16169817D02*
X14646253Y-16169817D01*
X14646253Y-16169817D02*
X14627206Y-16160293D01*
X14627206Y-16160293D02*
X14617682Y-16141246D01*
X14617682Y-16141246D02*
X14617682Y-16131722D01*
X14617682Y-16131722D02*
X14627206Y-16112674D01*
X14627206Y-16112674D02*
X14646253Y-16103150D01*
X14646253Y-16103150D02*
X14674825Y-16103150D01*
X14674825Y-16103150D02*
X14693872Y-16112674D01*
X14770063Y-16312674D02*
X14779587Y-16303150D01*
X14779587Y-16303150D02*
X14798634Y-16274579D01*
X14798634Y-16274579D02*
X14808158Y-16255531D01*
X14808158Y-16255531D02*
X14817682Y-16226960D01*
X14817682Y-16226960D02*
X14827206Y-16179341D01*
X14827206Y-16179341D02*
X14827206Y-16141246D01*
X14827206Y-16141246D02*
X14817682Y-16093627D01*
X14817682Y-16093627D02*
X14808158Y-16065055D01*
X14808158Y-16065055D02*
X14798634Y-16046008D01*
X14798634Y-16046008D02*
X14779587Y-16017436D01*
X14779587Y-16017436D02*
X14770063Y-16007912D01*
X15131968Y-16312674D02*
X15122444Y-16303150D01*
X15122444Y-16303150D02*
X15103396Y-16274579D01*
X15103396Y-16274579D02*
X15093872Y-16255531D01*
X15093872Y-16255531D02*
X15084349Y-16226960D01*
X15084349Y-16226960D02*
X15074825Y-16179341D01*
X15074825Y-16179341D02*
X15074825Y-16141246D01*
X15074825Y-16141246D02*
X15084349Y-16093627D01*
X15084349Y-16093627D02*
X15093872Y-16065055D01*
X15093872Y-16065055D02*
X15103396Y-16046008D01*
X15103396Y-16046008D02*
X15122444Y-16017436D01*
X15122444Y-16017436D02*
X15131968Y-16007912D01*
X15208158Y-16103150D02*
X15208158Y-16236484D01*
X15208158Y-16122198D02*
X15217682Y-16112674D01*
X15217682Y-16112674D02*
X15236730Y-16103150D01*
X15236730Y-16103150D02*
X15265301Y-16103150D01*
X15265301Y-16103150D02*
X15284349Y-16112674D01*
X15284349Y-16112674D02*
X15293872Y-16131722D01*
X15293872Y-16131722D02*
X15293872Y-16236484D01*
X15417682Y-16236484D02*
X15398634Y-16226960D01*
X15398634Y-16226960D02*
X15389111Y-16217436D01*
X15389111Y-16217436D02*
X15379587Y-16198388D01*
X15379587Y-16198388D02*
X15379587Y-16141246D01*
X15379587Y-16141246D02*
X15389111Y-16122198D01*
X15389111Y-16122198D02*
X15398634Y-16112674D01*
X15398634Y-16112674D02*
X15417682Y-16103150D01*
X15417682Y-16103150D02*
X15446253Y-16103150D01*
X15446253Y-16103150D02*
X15465301Y-16112674D01*
X15465301Y-16112674D02*
X15474825Y-16122198D01*
X15474825Y-16122198D02*
X15484349Y-16141246D01*
X15484349Y-16141246D02*
X15484349Y-16198388D01*
X15484349Y-16198388D02*
X15474825Y-16217436D01*
X15474825Y-16217436D02*
X15465301Y-16226960D01*
X15465301Y-16226960D02*
X15446253Y-16236484D01*
X15446253Y-16236484D02*
X15417682Y-16236484D01*
X15541492Y-16103150D02*
X15617682Y-16103150D01*
X15570063Y-16036484D02*
X15570063Y-16207912D01*
X15570063Y-16207912D02*
X15579587Y-16226960D01*
X15579587Y-16226960D02*
X15598634Y-16236484D01*
X15598634Y-16236484D02*
X15617682Y-16236484D01*
X15836730Y-16103150D02*
X15836730Y-16303150D01*
X15836730Y-16112674D02*
X15855777Y-16103150D01*
X15855777Y-16103150D02*
X15893873Y-16103150D01*
X15893873Y-16103150D02*
X15912920Y-16112674D01*
X15912920Y-16112674D02*
X15922444Y-16122198D01*
X15922444Y-16122198D02*
X15931968Y-16141246D01*
X15931968Y-16141246D02*
X15931968Y-16198388D01*
X15931968Y-16198388D02*
X15922444Y-16217436D01*
X15922444Y-16217436D02*
X15912920Y-16226960D01*
X15912920Y-16226960D02*
X15893873Y-16236484D01*
X15893873Y-16236484D02*
X15855777Y-16236484D01*
X15855777Y-16236484D02*
X15836730Y-16226960D01*
X16046253Y-16236484D02*
X16027206Y-16226960D01*
X16027206Y-16226960D02*
X16017682Y-16207912D01*
X16017682Y-16207912D02*
X16017682Y-16036484D01*
X16208158Y-16236484D02*
X16208158Y-16131722D01*
X16208158Y-16131722D02*
X16198634Y-16112674D01*
X16198634Y-16112674D02*
X16179587Y-16103150D01*
X16179587Y-16103150D02*
X16141492Y-16103150D01*
X16141492Y-16103150D02*
X16122444Y-16112674D01*
X16208158Y-16226960D02*
X16189111Y-16236484D01*
X16189111Y-16236484D02*
X16141492Y-16236484D01*
X16141492Y-16236484D02*
X16122444Y-16226960D01*
X16122444Y-16226960D02*
X16112920Y-16207912D01*
X16112920Y-16207912D02*
X16112920Y-16188865D01*
X16112920Y-16188865D02*
X16122444Y-16169817D01*
X16122444Y-16169817D02*
X16141492Y-16160293D01*
X16141492Y-16160293D02*
X16189111Y-16160293D01*
X16189111Y-16160293D02*
X16208158Y-16150769D01*
X16274825Y-16103150D02*
X16351015Y-16103150D01*
X16303396Y-16036484D02*
X16303396Y-16207912D01*
X16303396Y-16207912D02*
X16312920Y-16226960D01*
X16312920Y-16226960D02*
X16331968Y-16236484D01*
X16331968Y-16236484D02*
X16351015Y-16236484D01*
X16493873Y-16226960D02*
X16474825Y-16236484D01*
X16474825Y-16236484D02*
X16436730Y-16236484D01*
X16436730Y-16236484D02*
X16417682Y-16226960D01*
X16417682Y-16226960D02*
X16408158Y-16207912D01*
X16408158Y-16207912D02*
X16408158Y-16131722D01*
X16408158Y-16131722D02*
X16417682Y-16112674D01*
X16417682Y-16112674D02*
X16436730Y-16103150D01*
X16436730Y-16103150D02*
X16474825Y-16103150D01*
X16474825Y-16103150D02*
X16493873Y-16112674D01*
X16493873Y-16112674D02*
X16503396Y-16131722D01*
X16503396Y-16131722D02*
X16503396Y-16150769D01*
X16503396Y-16150769D02*
X16408158Y-16169817D01*
X16674825Y-16236484D02*
X16674825Y-16036484D01*
X16674825Y-16226960D02*
X16655777Y-16236484D01*
X16655777Y-16236484D02*
X16617682Y-16236484D01*
X16617682Y-16236484D02*
X16598634Y-16226960D01*
X16598634Y-16226960D02*
X16589111Y-16217436D01*
X16589111Y-16217436D02*
X16579587Y-16198388D01*
X16579587Y-16198388D02*
X16579587Y-16141246D01*
X16579587Y-16141246D02*
X16589111Y-16122198D01*
X16589111Y-16122198D02*
X16598634Y-16112674D01*
X16598634Y-16112674D02*
X16617682Y-16103150D01*
X16617682Y-16103150D02*
X16655777Y-16103150D01*
X16655777Y-16103150D02*
X16674825Y-16112674D01*
X16751015Y-16312674D02*
X16760539Y-16303150D01*
X16760539Y-16303150D02*
X16779587Y-16274579D01*
X16779587Y-16274579D02*
X16789111Y-16255531D01*
X16789111Y-16255531D02*
X16798635Y-16226960D01*
X16798635Y-16226960D02*
X16808158Y-16179341D01*
X16808158Y-16179341D02*
X16808158Y-16141246D01*
X16808158Y-16141246D02*
X16798635Y-16093627D01*
X16798635Y-16093627D02*
X16789111Y-16065055D01*
X16789111Y-16065055D02*
X16779587Y-16046008D01*
X16779587Y-16046008D02*
X16760539Y-16017436D01*
X16760539Y-16017436D02*
X16751015Y-16007912D01*
M02*
