%TF.GenerationSoftware,KiCad,Pcbnew,9.0.9-9.0.9~ubuntu24.04.1*%
%TF.CreationDate,2026-09-15T19:23:52+03:00*%
%TF.ProjectId,im01,696d3031-2e6b-4696-9361-645f70636258,rev?*%
%TF.SameCoordinates,Original*%
%TF.FileFunction,Soldermask,Bot*%
%TF.FilePolarity,Negative*%
%FSLAX46Y46*%
G04 Gerber Fmt 4.6, Leading zero omitted, Abs format (unit mm)*
G04 Created by KiCad (PCBNEW 9.0.9-9.0.9~ubuntu24.04.1) date 2026-09-15 19:23:52*
%MOMM*%
%LPD*%
G01*
G04 APERTURE LIST*
G04 Aperture macros list*
%AMRoundRect*
0 Rectangle with rounded corners*
0 $1 Rounding radius*
0 $2 $3 $4 $5 $6 $7 $8 $9 X,Y pos of 4 corners*
0 Add a 4 corners polygon primitive as box body*
4,1,4,$2,$3,$4,$5,$6,$7,$8,$9,$2,$3,0*
0 Add four circle primitives for the rounded corners*
1,1,$1+$1,$2,$3*
1,1,$1+$1,$4,$5*
1,1,$1+$1,$6,$7*
1,1,$1+$1,$8,$9*
0 Add four rect primitives between the rounded corners*
20,1,$1+$1,$2,$3,$4,$5,0*
20,1,$1+$1,$4,$5,$6,$7,0*
20,1,$1+$1,$6,$7,$8,$9,0*
20,1,$1+$1,$8,$9,$2,$3,0*%
G04 Aperture macros list end*
%ADD10RoundRect,0.250000X-0.750000X0.600000X-0.750000X-0.600000X0.750000X-0.600000X0.750000X0.600000X0*%
%ADD11O,2.000000X1.700000*%
%ADD12C,0.800000*%
%ADD13C,6.400000*%
%ADD14C,0.610000*%
%ADD15RoundRect,0.250000X-0.725000X0.600000X-0.725000X-0.600000X0.725000X-0.600000X0.725000X0.600000X0*%
%ADD16O,1.950000X1.700000*%
%ADD17RoundRect,0.250001X-1.099999X1.099999X-1.099999X-1.099999X1.099999X-1.099999X1.099999X1.099999X0*%
%ADD18C,2.700000*%
%ADD19C,0.990600*%
G04 APERTURE END LIST*
D10*
%TO.C,J2*%
X104500000Y-128000000D03*
D11*
X104500000Y-130500000D03*
%TD*%
D12*
%TO.C,H3*%
X101100000Y-151500000D03*
X101802944Y-149802944D03*
X101802944Y-153197056D03*
X103500000Y-149100000D03*
D13*
X103500000Y-151500000D03*
D12*
X103500000Y-153900000D03*
X105197056Y-149802944D03*
X105197056Y-153197056D03*
X105900000Y-151500000D03*
%TD*%
%TO.C,H4*%
X174100000Y-151500000D03*
X174802944Y-149802944D03*
X174802944Y-153197056D03*
X176500000Y-149100000D03*
D13*
X176500000Y-151500000D03*
D12*
X176500000Y-153900000D03*
X178197056Y-149802944D03*
X178197056Y-153197056D03*
X178900000Y-151500000D03*
%TD*%
D14*
%TO.C,U1*%
X130500000Y-107500000D03*
X129500000Y-107500000D03*
X130500000Y-108500000D03*
X129500000Y-108500000D03*
%TD*%
D15*
%TO.C,J3*%
X104500000Y-140000000D03*
D16*
X104500000Y-142500000D03*
X104500000Y-145000000D03*
%TD*%
D12*
%TO.C,H1*%
X101100000Y-103500000D03*
X101802944Y-101802944D03*
X101802944Y-105197056D03*
X103500000Y-101100000D03*
D13*
X103500000Y-103500000D03*
D12*
X103500000Y-105900000D03*
X105197056Y-101802944D03*
X105197056Y-105197056D03*
X105900000Y-103500000D03*
%TD*%
D17*
%TO.C,J1*%
X104500000Y-110000000D03*
D18*
X104500000Y-113960000D03*
%TD*%
D12*
%TO.C,H2*%
X174100000Y-103500000D03*
X174802944Y-101802944D03*
X174802944Y-105197056D03*
X176500000Y-101100000D03*
D13*
X176500000Y-103500000D03*
D12*
X176500000Y-105900000D03*
X178197056Y-101802944D03*
X178197056Y-105197056D03*
X178900000Y-103500000D03*
%TD*%
D19*
%TO.C,J6*%
X143760000Y-119000000D03*
X148840000Y-117984000D03*
X148840000Y-120016000D03*
%TD*%
M02*
